<?xml version="1.0" encoding="UTF-8" standalone="no"?>
<!-- Created with Inkscape (http://www.inkscape.org/) -->

<svg
   width="89.861023mm"
   height="99.231552mm"
   viewBox="0 0 89.861023 99.231552"
   version="1.1"
   id="svg5"
   inkscape:version="1.1 (c68e22c387, 2021-05-23)"
   sodipodi:docname="coasters-felt.svg"
   xmlns:inkscape="http://www.inkscape.org/namespaces/inkscape"
   xmlns:sodipodi="http://sodipodi.sourceforge.net/DTD/sodipodi-0.dtd"
   xmlns="http://www.w3.org/2000/svg"
   xmlns:svg="http://www.w3.org/2000/svg">
  <sodipodi:namedview
     id="namedview7"
     pagecolor="#ffffff"
     bordercolor="#666666"
     borderopacity="1.0"
     inkscape:pageshadow="2"
     inkscape:pageopacity="0.0"
     inkscape:pagecheckerboard="0"
     inkscape:document-units="in"
     showgrid="false"
     inkscape:zoom="0.575"
     inkscape:cx="-348.69565"
     inkscape:cy="313.91304"
     inkscape:window-width="1920"
     inkscape:window-height="1001"
     inkscape:window-x="-9"
     inkscape:window-y="-9"
     inkscape:window-maximized="1"
     inkscape:current-layer="g1122"
     fit-margin-top="0"
     fit-margin-left="0"
     fit-margin-right="0"
     fit-margin-bottom="0" />
  <defs
     id="defs2" />
  <g
     inkscape:label="wave inset"
     inkscape:groupmode="layer"
     id="g1122"
     style="display:inline"
     transform="translate(-56.777951,-52.088846)">
    <path
       id="path1120"
       style="display:inline;opacity:1;fill:none;fill-opacity:1;stroke:#fd0000;stroke-width:0.186022;stroke-miterlimit:10;stroke-dasharray:none;stroke-dashoffset:0;stroke-opacity:1"
       inkscape:transform-center-y="-1.3377967e-06"
       d="m 100.95084,52.191469 c -2.985919,0.07557 -5.829424,1.028902 -8.228095,2.821937 -3.372727,2.488582 -6.119514,5.779469 -9.566776,8.241018 -3.625333,2.738539 -7.907365,4.404607 -12.225784,5.698543 -3.588077,1.105393 -7.382526,2.369449 -9.93259,5.284103 -2.332718,2.646083 -4.01434,6.141987 -4.119638,9.775022 -0.0588,2.011618 0.25987,3.85671 0.698266,5.862282 1.01047,4.385282 2.100276,8.829587 1.866556,13.367186 -0.105694,4.61461 -1.593498,9.02908 -2.254826,13.56531 -0.480623,3.19981 0.05891,6.54498 1.659366,9.36983 1.572123,3.05731 4.189296,5.56938 7.385406,6.87294 4.283022,1.7884 8.938299,2.59814 13.069452,4.77236 4.192555,2.03309 7.603778,5.26473 10.992059,8.39246 2.531692,2.34154 5.531563,4.43387 9.0354,4.87908 3.845864,0.58647 7.968294,-0.13133 11.146314,-2.45532 3.72716,-2.69351 6.6666,-6.33218 10.49346,-8.90447 3.7642,-2.71198 8.20269,-4.21381 12.5972,-5.55371 3.327,-1.02489 6.73597,-2.40269 9.04837,-5.12126 2.70333,-3.14701 4.36738,-7.33335 3.91076,-11.51903 -0.45911,-4.60536 -2.14288,-9.00245 -2.43129,-13.63497 -0.43078,-4.546897 0.45795,-9.068892 1.47838,-13.477722 0.427,-1.966478 0.82448,-3.901333 0.85167,-5.828241 0.14801,-4.433555 -2.00109,-8.756004 -5.22474,-11.7189 -3.01537,-2.656565 -6.87465,-3.512236 -10.65217,-4.724247 -4.43028,-1.325228 -8.68341,-3.362596 -12.24945,-6.336283 -3.46743,-2.722647 -6.31123,-6.308621 -10.32615,-8.280842 -2.20837,-1.064118 -4.58271,-1.422281 -7.02115,-1.347076 z" />
    <circle
       style="display:inline;fill:#000000;fill-opacity:0;stroke:#ff0000;stroke-width:0.254;stroke-miterlimit:10"
       id="path1170"
       cx="101.7"
       cy="101.69999"
       r="10.056016" />
  </g>
</svg>
