<svg width="14in" height="24in" viewBox="0 0 1008 1728" xmlns="http://www.w3.org/2000/svg" xmlns:inkscape="http://www.inkscape.org/namespaces/inkscape">
  <defs>
    <style>
      .border { fill: none; stroke: #000; stroke-width: 2; }
      .grid { fill: none; stroke: #888; stroke-width: 1; }
      .header-text { font-family: sans-serif; font-size: 36px; font-weight: bold; text-anchor: middle; }
      .day-label { font-family: sans-serif; font-size: 18px; font-weight: bold; text-anchor: middle; }
      .date-number { font-family: sans-serif; font-size: 16px; fill: #333; }
    </style>
  </defs>

  <g inkscape:groupmode="layer" inkscape:label="January 2026" transform="translate(20, 40)">
    <text x="484" y="40" class="header-text">JANUARY 2026</text>
    
    <g transform="translate(0, 80)">
      <text x="69" y="0" class="day-label">SUN</text><text x="207" y="0" class="day-label">MON</text><text x="345" y="0" class="day-label">TUE</text>
      <text x="483" y="0" class="day-label">WED</text><text x="621" y="0" class="day-label">THU</text><text x="759" y="0" class="day-label">FRI</text>
      <text x="897" y="0" class="day-label">SAT</text>
    </g>

    <g transform="translate(0, 100)">
      <line x1="0" y1="0" x2="968" y2="0" class="grid" />
      <line x1="0" y1="125" x2="968" y2="125" class="grid" />
      <line x1="0" y1="250" x2="968" y2="250" class="grid" />
      <line x1="0" y1="375" x2="968" y2="375" class="grid" />
      <line x1="0" y1="500" x2="968" y2="500" class="grid" />
      <line x1="0" y1="625" x2="968" y2="625" class="grid" />
      
      <line x1="0" y1="0" x2="0" y2="625" class="grid" /><line x1="138.2" y1="0" x2="138.2" y2="625" class="grid" />
      <line x1="276.4" y1="0" x2="276.4" y2="625" class="grid" /><line x1="414.6" y1="0" x2="414.6" y2="625" class="grid" />
      <line x1="552.8" y1="0" x2="552.8" y2="625" class="grid" /><line x1="691" y1="0" x2="691" y2="625" class="grid" />
      <line x1="829.2" y1="0" x2="829.2" y2="625" class="grid" /><line x1="968" y1="0" x2="968" y2="625" class="grid" />

      <g class="date-number">
        <text x="560" y="25">1</text><text x="698" y="25">2</text><text x="836" y="25">3</text>
        <text x="8" y="150">4</text><text x="146" y="150">5</text><text x="284" y="150">6</text><text x="422" y="150">7</text><text x="560" y="150">8</text><text x="698" y="150">9</text><text x="836" y="150">10</text>
        <text x="8" y="275">11</text><text x="146" y="275">12</text><text x="284" y="275">13</text><text x="422" y="275">14</text><text x="560" y="275">15</text><text x="698" y="275">16</text><text x="836" y="275">17</text>
        <text x="8" y="400">18</text><text x="146" y="400">19</text><text x="284" y="400">20</text><text x="422" y="400">21</text><text x="560" y="400">22</text><text x="698" y="400">23</text><text x="836" y="400">24</text>
        <text x="8" y="525">25</text><text x="146" y="525">26</text><text x="284" y="525">27</text><text x="422" y="525">28</text><text x="560" y="525">29</text><text x="698" y="525">30</text><text x="836" y="525">31</text>
      </g>
    </g>
  </g>

  <g inkscape:groupmode="layer" inkscape:label="February 2026" transform="translate(20, 864)">
    <text x="484" y="40" class="header-text">FEBRUARY 2026</text>
    
    <g transform="translate(0, 80)">
      <text x="69" y="0" class="day-label">SUN</text><text x="207" y="0" class="day-label">MON</text><text x="345" y="0" class="day-label">TUE</text>
      <text x="483" y="0" class="day-label">WED</text><text x="621" y="0" class="day-label">THU</text><text x="759" y="0" class="day-label">FRI</text>
      <text x="897" y="0" class="day-label">SAT</text>
    </g>

    <g transform="translate(0, 100)">
      <line x1="0" y1="0" x2="968" y2="0" class="grid" />
      <line x1="0" y1="125" x2="968" y2="125" class="grid" />
      <line x1="0" y1="250" x2="968" y2="250" class="grid" />
      <line x1="0" y1="375" x2="968" y2="375" class="grid" />
      <line x1="0" y1="500" x2="968" y2="500" class="grid" />
      <line x1="0" y1="625" x2="968" y2="625" class="grid" />
      
      <line x1="0" y1="0" x2="0" y2="625" class="grid" /><line x1="138.2" y1="0" x2="138.2" y2="625" class="grid" />
      <line x1="276.4" y1="0" x2="276.4" y2="625" class="grid" /><line x1="414.6" y1="0" x2="414.6" y2="625" class="grid" />
      <line x1="552.8" y1="0" x2="552.8" y2="625" class="grid" /><line x1="691" y1="0" x2="691" y2="625" class="grid" />
      <line x1="829.2" y1="0" x2="829.2" y2="625" class="grid" /><line x1="968" y1="0" x2="968" y2="625" class="grid" />

      <g class="date-number">
        <text x="8" y="25">1</text><text x="146" y="25">2</text><text x="284" y="25">3</text><text x="422" y="25">4</text><text x="560" y="25">5</text><text x="698" y="25">6</text><text x="836" y="25">7</text>
        <text x="8" y="150">8</text><text x="146" y="150">9</text><text x="284" y="150">10</text><text x="422" y="150">11</text><text x="560" y="150">12</text><text x="698" y="150">13</text><text x="836" y="150">14</text>
        <text x="8" y="275">15</text><text x="146" y="275">16</text><text x="284" y="275">17</text><text x="422" y="275">18</text><text x="560" y="275">19</text><text x="698" y="275">20</text><text x="836" y="275">21</text>
        <text x="8" y="400">22</text><text x="146" y="400">23</text><text x="284" y="400">24</text><text x="422" y="400">25</text><text x="560" y="400">26</text><text x="698" y="400">27</text><text x="836" y="400">28</text>
      </g>
    </g>
  </g>
</svg>
