<svg width="14in" height="12in" viewBox="0 0 1008 864" xmlns="http://www.w3.org/2000/svg" xmlns:inkscape="http://www.inkscape.org/namespaces/inkscape">
  <defs>
    <style>
      .border { fill: none; stroke: #000; stroke-width: 2; }
      .grid { fill: none; stroke: #888; stroke-width: 1; }
      .header-text { font-family: sans-serif; font-size: 36px; font-weight: bold; text-anchor: middle; }
      .day-label { font-family: sans-serif; font-size: 18px; font-weight: bold; text-anchor: middle; }
      .date-number { font-family: sans-serif; font-size: 16px; fill: #333; }
    </style>
  </defs>

  <g inkscape:groupmode="layer" inkscape:label="Calendar Base">
    <rect x="20" y="20" width="968" height="824" class="border" />
    
    <text x="504" y="70" class="header-text">JANUARY 2026</text>

    <g transform="translate(20, 110)">
      <text x="69" y="0" class="day-label">SUN</text>
      <text x="207" y="0" class="day-label">MON</text>
      <text x="345" y="0" class="day-label">TUE</text>
      <text x="483" y="0" class="day-label">WED</text>
      <text x="621" y="0" class="day-label">THU</text>
      <text x="759" y="0" class="day-label">FRI</text>
      <text x="897" y="0" class="day-label">SAT</text>
    </g>

    <g transform="translate(20, 130)">
      <line x1="0" y1="0" x2="968" y2="0" class="grid" />
      <line x1="0" y1="144" x2="968" y2="144" class="grid" />
      <line x1="0" y1="288" x2="968" y2="288" class="grid" />
      <line x1="0" y1="432" x2="968" y2="432" class="grid" />
      <line x1="0" y1="576" x2="968" y2="576" class="grid" />
      <line x1="0" y1="720" x2="968" y2="720" class="grid" />

      <line x1="0" y1="0" x2="0" y2="720" class="grid" />
      <line x1="138.2" y1="0" x2="138.2" y2="720" class="grid" />
      <line x1="276.4" y1="0" x2="276.4" y2="720" class="grid" />
      <line x1="414.6" y1="0" x2="414.6" y2="720" class="grid" />
      <line x1="552.8" y1="0" x2="552.8" y2="720" class="grid" />
      <line x1="691" y1="0" x2="691" y2="720" class="grid" />
      <line x1="829.2" y1="0" x2="829.2" y2="720" class="grid" />
      <line x1="968" y1="0" x2="968" y2="720" class="grid" />

      <g inkscape:groupmode="layer" inkscape:label="Dates">
        <text x="560" y="25" class="date-number">1</text>
        <text x="698" y="25" class="date-number">2</text>
        <text x="836" y="25" class="date-number">3</text>
        <text x="8" y="169" class="date-number">4</text>
        <text x="146" y="169" class="date-number">5</text>
        <text x="284" y="169" class="date-number">6</text>
        <text x="422" y="169" class="date-number">7</text>
        <text x="560" y="169" class="date-number">8</text>
        <text x="698" y="169" class="date-number">9</text>
        <text x="836" y="169" class="date-number">10</text>
        <text x="8" y="313" class="date-number">11</text>
        <text x="146" y="313" class="date-number">12</text>
        <text x="284" y="313" class="date-number">13</text>
        <text x="422" y="313" class="date-number">14</text>
        <text x="560" y="313" class="date-number">15</text>
        <text x="698" y="313" class="date-number">16</text>
        <text x="836" y="313" class="date-number">17</text>
        <text x="8" y="457" class="date-number">18</text>
        <text x="146" y="457" class="date-number">19</text>
        <text x="284" y="457" class="date-number">20</text>
        <text x="422" y="457" class="date-number">21</text>
        <text x="560" y="457" class="date-number">22</text>
        <text x="698" y="457" class="date-number">23</text>
        <text x="836" y="457" class="date-number">24</text>
        <text x="8" y="601" class="date-number">25</text>
        <text x="146" y="601" class="date-number">26</text>
        <text x="284" y="601" class="date-number">27</text>
        <text x="422" y="601" class="date-number">28</text>
        <text x="560" y="601" class="date-number">29</text>
        <text x="698" y="601" class="date-number">30</text>
        <text x="836" y="601" class="date-number">31</text>
      </g>
    </g>
  </g>
</svg>
