<?xml version="1.0" encoding="UTF-8" standalone="no"?>
<!-- Generator: Adobe Illustrator 23.0.3, SVG Export Plug-In . SVG Version: 6.00 Build 0)  -->

<svg
   version="1.1"
   id="Layer_1"
   x="0px"
   y="0px"
   viewBox="0 0 53.3 74.8"
   style="enable-background:new 0 0 53.3 74.8;"
   xml:space="preserve"
   sodipodi:docname="01-19-upper.svg"
   inkscape:version="1.4.3 (0d15f75, 2025-12-25)"
   xmlns:inkscape="http://www.inkscape.org/namespaces/inkscape"
   xmlns:sodipodi="http://sodipodi.sourceforge.net/DTD/sodipodi-0.dtd"
   xmlns="http://www.w3.org/2000/svg"
   xmlns:svg="http://www.w3.org/2000/svg"><defs
   id="defs1" /><sodipodi:namedview
   id="namedview1"
   pagecolor="#ffffff"
   bordercolor="#666666"
   borderopacity="1.0"
   inkscape:showpageshadow="2"
   inkscape:pageopacity="0.0"
   inkscape:pagecheckerboard="0"
   inkscape:deskcolor="#d1d1d1"
   inkscape:document-units="mm"
   showguides="true"
   inkscape:zoom="8"
   inkscape:cx="27.5625"
   inkscape:cy="25.1875"
   inkscape:window-width="2560"
   inkscape:window-height="1369"
   inkscape:window-x="2552"
   inkscape:window-y="-8"
   inkscape:window-maximized="1"
   inkscape:current-layer="Layer_1"><sodipodi:guide
     position="12.330362,43.282086"
     orientation="0,-1"
     id="guide1"
     inkscape:locked="false" /></sodipodi:namedview>
<style
   type="text/css"
   id="style1">
	.st0{fill-rule:evenodd;clip-rule:evenodd;}
	.st1{fill-rule:evenodd;clip-rule:evenodd;fill:#010101;}
</style>
<path
   id="path3"
   class="st0"
   d="M 50.679687 0.048828124 C 49.684374 0.067968749 48.612499 0.98710935 47.999999 1.5996094 C 47.299999 2.3996094 46.700781 3 46.300781 3.5 C 45.900781 4 45.800781 4.0996093 45.800781 4.5996093 C 45.400781 4.9996093 45.100781 5.8003905 44.800781 6.9003905 C 44.100781 7.9003905 43.90039 8.9999999 43.90039 8.9999999 C 43.90039 8.9999999 43.800781 9.2007811 43.300781 10.300781 C 42.700781 11.400781 42.499999 11.90039 42.499999 11.90039 C 42.509887 11.912109 42.582031 12.011719 42.300781 12.199219 C 42.000781 12.399219 41.899218 12.600781 41.699218 12.800781 C 41.582031 12.878906 41.541479 12.911157 41.535156 12.939453 C 41.529647 12.982071 41.599609 13.021094 41.599609 13.199219 C 41.099609 13.799219 39.999999 14.300781 39.999999 14.300781 L 39.800781 14 C 39.800781 14 39.499609 14.100781 39.099609 14.300781 C 38.599609 14.500781 38.499218 14.5 38.199218 14.5 C 38.099218 14.3 37.899218 14.399609 37.699218 14.599609 C 37.499218 14.399609 37.3 14.499609 37 14.599609 C 36.7 14.399609 36.50039 14.699609 36.40039 14.599609 C 36.30039 14.499609 36.000781 14.499219 35.800781 14.699219 C 35.500781 14.499219 35.30039 14.399609 34.90039 14.599609 C 34.504756 14.302883 34.01463 14.201389 34.003906 14.199219 C 34.011322 14.198852 34.030252 14.197716 34.041015 14.189453 L 34.042968 14.1875 L 34.042968 14.185547 L 34.044921 14.183594 L 34.046875 14.18164 C 34.047094 14.180762 34.048742 14.176735 34.048828 14.175781 C 34.046566 14.136584 33.934765 14.038281 33.40039 13.800781 C 32.60039 13.500781 32.800781 14.300781 32.800781 14.300781 C 31.000781 13.100781 28.099609 13.699219 28.099609 13.699219 C 28.099609 13.699219 26.299218 12.900781 25.699218 12.800781 C 25.099218 12.700781 23.900781 12.2 23.300781 12 C 22.800781 11.5 20.700781 10.099609 19.300781 9.5996092 C 18.100781 8.5996092 16.80039 8.1003905 14.40039 7.4003905 C 12.00039 6.7003905 10.800781 5.9003905 10.800781 5.9003905 L 10.599609 5.6992187 L 9.9003905 5.4999999 L 9.5996092 5.5996093 C 9.5996092 5.5996093 6.5992187 4.5007812 6.1992187 4.3007812 C 6.6992187 4.1007812 6.4996093 3.6 6.0996093 3.5 C 5.6996093 3.4 4.0996093 2.5996093 4.0996093 2.5996093 C 4.0996093 2.5996093 3.6996093 1.7996094 3.0996093 1.5996094 C 1.2996093 1.0996094 1.1996094 1.8999999 0.59960937 3.9999999 C -0.00039063294 5.9999999 0.59960937 7.1992187 0.59960937 7.1992187 L 0.19921875 9.1992186 C -0.70078125 14.899219 0.79960936 16.899219 1.0996094 17.199219 C 1.3996094 17.499219 1.9003906 17.199219 1.9003906 17.199219 C 1.9003906 17.199219 1.9996093 17.300781 2.0996093 17.300781 C 2.4996093 17.300781 2.9 16.899609 3 16.099609 C 3.2 15.399609 3.1992187 13.90039 3.1992187 13.90039 L 3.5 13.5 L 3.5996093 13.300781 L 3.8007812 13 L 3.8007812 12.599609 L 4.1992187 12.300781 L 4.1992187 12 C 4.1992187 12 4.3999999 11.699219 4.4999999 11.699219 C 4.6374999 11.664844 4.6920776 11.642224 4.7128906 11.615234 C 4.7461105 11.564122 4.6726562 11.492969 4.8007812 11.300781 C 5.0007812 11.000781 5.8007812 10.599609 5.8007812 10.599609 C 6.3678722 10.012329 6.2249563 10.405345 6.4003905 9.9999999 C 6.4003905 9.9999999 6.5999999 9.5007811 6.9999999 9.3007811 C 7.3999999 9.1007811 8.1992186 9.3007811 8.1992186 9.3007811 C 8.1992186 9.3007811 7.8999999 10.199609 7.4999999 12.099609 C 7.0999999 14.099609 7.5996093 14.699219 7.5996093 14.699219 C 7.5996093 14.699219 11.20039 16.3 12.40039 16.5 C 13.50039 16.7 14.399609 16.90039 15.599609 16.90039 C 16.799609 16.90039 18.099609 16.599609 18.099609 16.599609 C 18.099609 16.599609 18.400781 17 19.300781 17.5 C 20.200781 18 21.300781 17.800781 21.300781 17.800781 C 21.300781 17.800781 22.1 19.00039 23 19.40039 C 23.9 19.80039 24.800781 19.599609 24.800781 19.599609 C 24.800781 19.599609 25.000781 19.800781 25.300781 19.800781 C 25.400781 20.100781 26 20.300781 26 20.300781 C 26 20.300781 27.9 22.30039 29 22.90039 C 30.1 23.50039 31.10039 23.90039 31.40039 23.90039 C 31.40039 23.90039 32 24.299609 32.5 24.599609 L 32.800781 24.599609 C 33.100781 24.899609 33.300781 24.90039 33.300781 24.90039 C 33.323486 24.901855 33.511718 24.925781 33.699218 25.300781 C 33.899218 25.700781 34.40039 25.5 34.40039 25.5 L 34.5 25.599609 C 34.5 25.599609 34.199218 26.299609 34.199218 26.599609 C 34.199218 26.999609 34.599609 26.800781 34.599609 26.800781 C 34.599609 26.800781 34.700781 26.70039 34.800781 26.90039 C 34.900781 27.10039 34.599609 27.599609 34.599609 27.599609 C 34.599609 27.599609 34.500781 27.700781 34.300781 27.800781 C 34.100781 27.900781 34.199218 28.300781 34.199218 28.300781 L 33.599609 28.40039 L 33.601562 28.398437 C 33.602539 28.39707 33.606396 28.392529 33.607421 28.390625 C 33.619171 28.363922 33.613281 28.300781 33.300781 28.300781 C 32.900781 28.300781 32.800781 28.699218 32.800781 28.699218 L 32 28.699218 C 31.7 28.699218 31.599609 29 31.599609 29 C 31.599609 29 31.499609 28.800781 31.599609 28.300781 C 31.699609 27.900781 31.199218 27.600781 30.699218 27.300781 C 29.899218 26.700781 29.499609 26.699218 29.099609 26.699218 C 28.699609 26.699218 28.099609 27.199218 28.099609 27.199218 C 28.099609 27.199218 27.599218 27.099609 27.199218 27.099609 C 26.699218 27.099609 26.600781 27.399218 26.300781 27.699218 C 26.000781 27.999218 25.800781 28.40039 25.800781 28.90039 C 25.271967 28.975935 24.570813 30.135422 24.173828 31 L 46.171874 31 C 46.92971 29.434097 47.90039 27.300781 47.90039 27.300781 C 47.90039 27.300781 48.00039 27.299609 48.40039 27.099609 C 48.80039 26.899609 49.099609 26.70039 49.099609 25.90039 C 49.099609 25.10039 49.300781 24.5 49.300781 24.5 C 49.300781 24.5 49.699609 24.3 49.599609 24 C 49.499609 23.7 49.40039 23.3 49.40039 22.5 C 49.40039 21.7 49.399218 21.800781 49.699218 21.300781 C 49.914843 20.941406 49.924111 20.838974 49.912109 20.810547 C 49.911523 20.80957 49.908822 20.805435 49.908202 20.804687 L 49.908202 20.802734 L 49.906249 20.802734 L 49.904296 20.800781 L 49.902343 20.800781 L 49.902343 20.798828 L 49.904296 20.798828 C 49.928603 20.782348 50.015234 20.675 50.099609 20 C 50.199609 19.3 49.999999 19 49.999999 19 C 49.999999 19 50.099218 18.7 50.199218 18.5 C 50.599218 18.3 50.699218 17.599219 50.699218 17.199219 C 50.899218 16.899219 50.800781 16.300781 50.800781 16.300781 C 50.800781 16.300781 51.000781 15.80039 51.300781 14.90039 C 51.600781 14.00039 51.900781 12.9 52.300781 12 C 52.700781 11.1 52.599609 10.80039 52.599609 10.40039 C 52.599609 10.00039 53.200781 5.3999999 53.300781 3.9999999 C 53.300781 2.4999999 53.099609 2.0996093 53.099609 2.0996093 C 53.099609 2.0996093 53.199609 1.8996094 53.099609 1.5996094 C 52.799609 0.99960935 52.199609 0.39960937 51.099609 0.099609374 C 50.962109 0.062109374 50.821874 0.046093749 50.679687 0.048828124 z " />
</svg>
