<?xml version="1.0" encoding="UTF-8" standalone="no"?>
<!-- Generator: Adobe Illustrator 23.0.3, SVG Export Plug-In . SVG Version: 6.00 Build 0)  -->

<svg
   version="1.1"
   id="Layer_1"
   x="0px"
   y="0px"
   viewBox="0 0 53.3 74.8"
   style="enable-background:new 0 0 53.3 74.8;"
   xml:space="preserve"
   sodipodi:docname="01-19-lower.svg"
   inkscape:version="1.4.3 (0d15f75, 2025-12-25)"
   xmlns:inkscape="http://www.inkscape.org/namespaces/inkscape"
   xmlns:sodipodi="http://sodipodi.sourceforge.net/DTD/sodipodi-0.dtd"
   xmlns="http://www.w3.org/2000/svg"
   xmlns:svg="http://www.w3.org/2000/svg"><defs
   id="defs1" /><sodipodi:namedview
   id="namedview1"
   pagecolor="#ffffff"
   bordercolor="#666666"
   borderopacity="1.0"
   inkscape:showpageshadow="2"
   inkscape:pageopacity="0.0"
   inkscape:pagecheckerboard="0"
   inkscape:deskcolor="#d1d1d1"
   inkscape:document-units="mm"
   showguides="true"
   inkscape:zoom="8"
   inkscape:cx="27.5625"
   inkscape:cy="25.1875"
   inkscape:window-width="2560"
   inkscape:window-height="1369"
   inkscape:window-x="2552"
   inkscape:window-y="-8"
   inkscape:window-maximized="1"
   inkscape:current-layer="Layer_1"><sodipodi:guide
     position="12.330362,43.282086"
     orientation="0,-1"
     id="guide1"
     inkscape:locked="false" /></sodipodi:namedview>
<style
   type="text/css"
   id="style1">
	.st0{fill-rule:evenodd;clip-rule:evenodd;}
	.st1{fill-rule:evenodd;clip-rule:evenodd;fill:#010101;}
</style>
<path
   id="path1"
   class="st0"
   d="M 46.171874 31 L 24.173828 31 C 24.045316 31.279879 23.949301 31.528032 23.90039 31.699218 C 23.70039 32.399218 24.099609 34.40039 24.099609 34.40039 C 24.078003 34.413208 23.90625 34.53125 24 35 C 24 35.5 24.40039 36.5 24.40039 36.5 C 24.40039 36.5 24.299218 36.700781 24.199218 36.800781 C 24.099218 36.900781 24 37.199218 24 37.199218 C 24 37.199218 23.499609 36.7 23.099609 36.5 C 22.699609 36.3 22.099609 36.300781 22.099609 36.300781 L 22.199218 36.199218 L 21.90039 36.099609 L 21.800781 36.099609 L 21.599609 36.099609 L 21.599609 36 L 21 35.800781 L 20.90039 35.800781 C 20.80039 35.900781 20.40039 35.90039 20.40039 35.90039 L 20.5 35.800781 L 19.800781 35.90039 L 20 35.699218 L 19.5 35.90039 L 19.599609 35.800781 L 19 36 L 19.099609 36 L 18.599609 36.199218 L 18.599609 36 L 18 36.300781 L 18.099609 36.099609 L 17.800781 36.300781 L 17.40039 36.5 L 17.099609 36.800781 L 17 36.699218 L 16.90039 36.90039 L 16.599609 37.199218 L 16.699219 36.90039 L 16.40039 37.199218 L 16 37.699218 L 16 37.599609 L 15.699219 37.90039 L 15.699219 38.40039 L 15.5 38.40039 L 15.5 38.599609 L 15.300781 38.90039 C 15.300781 38.90039 15.1 39.300781 15 39.300781 L 15.199219 39.699218 L 15 39.90039 L 15.199219 39.90039 L 15.099609 39.999999 L 15.099609 40.199218 L 15.099609 40.499999 L 15.199219 40.999999 L 15.300781 41.699218 L 15.40039 41.499999 L 15.5 42.300781 L 15.599609 42.099609 L 15.699219 42.499999 L 15.699219 42.40039 L 16 42.90039 L 16.300781 43.300781 C 16.300781 43.300781 16.30039 43.399999 16.40039 43.499999 L 16.90039 43.90039 L 17 43.800781 L 17.300781 43.999999 L 17.40039 44.199218 L 17.599609 44.199218 L 17.800781 44.300781 L 18 44.40039 L 18.199219 44.499999 L 18.599609 44.800781 C 18.599609 44.800781 18.600781 44.499218 18.800781 44.699218 C 19.000781 44.899218 19.599609 44.999999 19.599609 44.999999 L 19.90039 44.90039 L 20.199218 44.999999 L 20.40039 44.90039 L 20.699218 44.999999 L 20.800781 44.90039 L 21 44.90039 L 21.199218 44.800781 L 21.5 44.800781 L 21.599609 44.599609 L 22 44.699218 L 22.300781 44.599609 L 22.5 44.599609 L 22.599609 44.499999 L 22.699218 44.499999 L 22.699218 44.40039 L 22.90039 44.40039 L 23 44.099609 L 23.5 44.40039 L 23.800781 44.300781 L 24 44.099609 L 24.800781 43.999999 L 24.099609 44.699218 C 23.899609 44.899218 23.900781 44.799218 23.300781 45.199218 C 22.700781 45.499218 22.800781 46.099609 22.800781 46.099609 L 22.800781 47.90039 L 23 48.300781 L 23 48.90039 C 23 49.40039 23.100781 49.30039 23.300781 49.40039 C 23.500781 49.50039 23.699218 49.499999 23.699218 49.499999 C 23.710937 49.501098 23.8125 49.519531 24 49.800781 C 24.2 50.000781 24.499218 49.90039 24.699218 49.90039 C 24.899218 50.10039 25.20039 50.10039 25.40039 49.90039 C 25.70039 49.70039 25.300781 49.199218 25.300781 49.199218 L 25.699218 48.999999 C 26.099218 48.799999 25.699218 48.40039 25.699218 48.40039 C 25.699218 48.40039 25.899218 47.999218 26.199218 47.699218 C 26.399218 47.499218 27.199218 47.199218 27.199218 47.199218 C 27.199218 47.199218 27.00039 47.60039 26.90039 47.90039 C 27.10039 48.50039 26.899218 48.50039 26.699218 49.40039 C 26.499218 50.30039 27.300781 50.599218 27.800781 50.699218 C 28.100781 51.899218 28.099609 51.999609 28.599609 52.599609 C 29.099609 53.199609 28.90039 53.499999 28.90039 53.999999 C 29.00039 54.499999 29.399609 55.099999 29.599609 55.499999 C 29.799609 55.899999 29.9 56.299999 30 56.999999 C 30.1 57.899999 30.699218 59.90039 30.699218 59.90039 C 30.699218 59.90039 30.399218 60.399218 30.199218 61.199218 C 29.999218 61.899218 29.400781 63.899999 28.800781 65.999999 C 28.200781 67.999999 27.800781 68.199218 27.800781 68.199218 L 27.5 68.80078 L 27.300781 69.499999 L 27 69.80078 L 26.90039 70.099608 C 26.90039 70.099608 26.699609 70.399608 26.599609 70.599608 C 26.499609 70.899608 26.599609 71.199218 26.599609 71.199218 C 26.599609 71.199218 26.2 71.30039 26 71.40039 C 25.8 71.50039 25.800781 71.80078 25.800781 71.80078 C 25.800781 71.80078 24.999609 71.999999 24.599609 71.999999 L 23.800781 71.999999 C 23.600781 72.099999 23.500781 72.30078 23.300781 72.30078 C 23.100781 72.40078 23.000781 72.399999 22.800781 72.499999 C 22.700781 72.599999 22.399218 72.699218 22.199218 72.699218 L 21.599609 72.699218 C 21.399609 72.699218 21.20039 72.80039 20.90039 72.90039 C 20.60039 73.00039 20.499609 72.899999 20.099609 72.999999 C 19.799609 73.199999 19.60039 73.099608 19.40039 73.099608 C 19.30039 73.099608 19.300781 73.40039 19.300781 73.40039 C 19.300781 73.40039 19.000781 73.70039 19.300781 73.90039 C 19.600781 74.10039 20.5 73.90039 20.5 73.90039 C 20.5 73.90039 21.00039 74.00039 21.40039 73.90039 C 21.90039 74.00039 22.40039 73.699218 22.40039 73.699218 C 22.425659 73.709472 22.65625 73.787108 23.5 73.599608 C 22.6 73.999608 22.600781 74.199608 22.800781 74.599608 C 23.100781 74.999608 23.799609 74.90078 24.099609 74.80078 C 24.399609 74.70078 24.599609 74.40039 25.099609 74.40039 C 25.599609 74.40039 26.299218 74.299999 27.199218 73.999999 C 28.099218 73.699999 28.5 73.599608 28.5 73.599608 L 28.90039 72.699218 L 29.199218 72.40039 C 29.199218 72.40039 29.30039 71.90039 29.40039 71.90039 L 29.402343 71.90039 C 29.403221 71.900125 29.407279 71.89883 29.408203 71.898437 C 29.528445 71.833916 30 70.80078 30 70.80078 L 30.300781 70.599608 C 30.300781 70.599608 30.2 70.299999 30.5 69.999999 C 30.8 69.699999 30.599609 69.499999 30.599609 69.499999 C 30.599609 69.499999 31.50039 67.799999 31.90039 66.999999 C 32.50039 65.999999 33.200781 64.00039 33.300781 63.40039 C 33.500781 62.80039 33.599609 62.40039 33.599609 62.40039 C 33.599609 62.40039 33.699218 61.50039 34.199218 60.90039 C 34.699218 60.30039 34.40039 59.30078 34.40039 57.80078 C 34.40039 56.30078 34.800781 53.199218 34.800781 53.199218 L 36.099609 52.099609 L 35.599609 50.999999 C 35.599609 50.999999 35.500781 50.20039 35.300781 48.40039 C 35.100781 46.60039 35.499218 46.299999 35.699218 45.999999 C 35.899218 45.699999 36.400781 44.600781 37.300781 43.800781 C 38.200781 43.000781 39.800781 41.699218 39.800781 41.699218 L 39.999999 41.699218 C 39.999999 41.699218 40.200781 41.600781 41.300781 40.800781 C 42.300781 40.100781 42.499609 38.499218 42.599609 38.199218 C 42.699609 37.899218 42.799999 38.20039 43.999999 38.40039 C 45.124999 38.58789 45.283447 38.687499 45.298828 38.699218 L 45.300781 38.699218 L 45.699218 38.300781 L 46.40039 37.599609 C 47.20039 35.999609 45.60039 33 45.40039 32.5 C 45.552172 32.257148 45.841546 31.682551 46.171874 31 z " />
</svg>
