<?xml version="1.0" encoding="utf-8"?>
<!-- Generator: Adobe Illustrator 23.0.3, SVG Export Plug-In . SVG Version: 6.00 Build 0)  -->
<svg version="1.1" id="Layer_1" xmlns="http://www.w3.org/2000/svg" xmlns:xlink="http://www.w3.org/1999/xlink" x="0px" y="0px"
	 viewBox="0 0 67.1 92.2" style="enable-background:new 0 0 67.1 92.2;" xml:space="preserve">
<style type="text/css">
	.st0{fill-rule:evenodd;clip-rule:evenodd;}
	.st1{fill-rule:evenodd;clip-rule:evenodd;fill:#010101;}
</style>
<path class="st0" d="M57.6,0.6c0.3,0.3,0.7,0.6,1.1,0.9c0.1,0.2,0.3,0.3,0.4,0.5c0.3,0.2,0.6,0.1,0.8,0.3c0.3,0.3,0.3,0.7,0.5,1
	c0.2,0.3,0.6,0.4,0.8,0.8c0,0,0,0,0.1,0.1c-0.1,0.1-0.2,0.2-0.3,0.3c1,2.1,2,4.2,3,6.4c0.9,0.2,1.8,0.4,2.6,0.8
	c0.2,0.1,0.4,0.2,0.5,0.3c0.1,0.2-0.5,2-0.7,2.5c0.2,0.3,0.5,0.4,0.5,0.9c-0.3,0.3-0.6,0.5-0.9,0.8c-0.2,0.4-0.2,1.2-0.3,1.6
	c0,0,0,0,0,0c-0.1,0.4-0.6,0.5-0.8,0.8c-0.1,0.2-0.2,0.3-0.3,0.5c0,0,0,0,0,0c-0.9,0.4-1.7,0.8-2.6,1.2c-0.5,0.1-0.9,0.2-1.4,0.4
	c-0.1,0.1,0,0,0,0.1c-0.4,0.5-1.3,0.8-1.9,1.2c-1.9,1-3.8,2-5.6,3c-0.8,1.3-1.5,2.6-2.2,3.9c-1.5,1.7-2.9,3.4-4.4,5.1
	c0,0.9,0.1,1.7,0.1,2.6c0,0.7-0.1,1.5-0.1,2.2c-0.1,0.9-0.2,1.7-0.4,2.6c-0.1,0.6,0.1,1.4-0.1,1.9c-0.4,1.3-0.6,2.7-1.1,3.9
	c-0.3,0.6-0.6,1.3-0.8,1.9c0.5,1.6,1.1,3.1,1.6,4.7c0.8,2.2,1.6,4.4,2,7c0,0.5-0.1,0.9-0.1,1.4c-0.1,0.3-0.2,0.5-0.3,0.8
	c0.2,0.3,0.3,0.5,0.5,0.8c-0.2,1.2-0.3,2.4-0.5,3.6c-0.1,0.7,0.7,2.4,0.4,3.1c-0.5,1-1.8,2-3,2.3c-0.4,0-0.7,0-1.1,0
	c-0.5,0.1-0.9,0.2-1.4,0.3c-0.1-0.1-0.2-0.2-0.3-0.3c-0.6,1.3-1.2,2.6-1.6,4.2c0.4,0.6,1.1,1,1.4,1.7c0.2,0,0.4,0,0.5,0
	c0.1,0.1,0.1,0.2,0.2,0.3c0.1,0.2-0.3,0.7-0.5,1c-0.4,0.6-0.7,1.3-1.1,1.9c-0.2,0.3-0.4,0.7-0.6,1c0,0.4-0.1,0.7-0.1,1.1
	c-0.4,2,0.1,4.7-0.4,6.7c-0.1,0.3-0.1,0.6-0.2,0.9c-0.2,0.3-0.9,0.8-1.4,0.7c-2.1-0.3-3.6-3.6-4-5.8c-0.3-1.3-0.1-2.5-0.5-3.6
	c-0.6-1.5-2.1-3.6-1.1-5.6c0.3-0.7,3.4-2,4.3-2.4c0.1-0.7,0.3-1.4,0.4-2.2c-0.1,0-0.3,0-0.5,0c-0.1-0.1-0.2-0.2-0.3-0.3
	c0-1.4-0.2-2.4-0.4-3.7c-0.2-1.4,0.3-2.7,0.1-4c-0.1-0.7-0.2-1.8-0.1-2.6c0-0.5,0-1,0-1.5c-0.1-0.7-0.1-1.4-0.2-2.1
	c-1.1,0.3-2.2,0.7-3.3,1c-0.6,0.1-1.2,0.2-1.8,0.3c-1.4,0.2-3.2-0.4-4.3-0.7c-2.6-0.7-5.4-1.1-8-1.8c-1.4-0.4-2.8-0.7-4.2-1.1
	c-0.5-0.1-1-0.2-1.4-0.2c-0.2-0.2-0.3-0.3-0.5-0.5c-0.9-0.7-1.5-1.5-1.8-2.8c-0.1-0.5-0.2-0.9-0.4-1.4C10.2,51,8.4,51.7,8,51.8
	c-1.6,0.5-2.8,1.3-4.1,2.1c-0.4,0.2-0.8,0.5-1.2,0.7c-1.3,0.4-2.3-0.2-2.6-1.1c-0.3-0.7,0-2,0.2-2.4c0.8-1.5,1.6-2.5,3-3.4
	c1.1-0.7,2.4-1.1,3.5-1.8c0.8-0.5,1.6-1,2.4-1.5c1-0.4,2,0.2,2.7,0.3c0.2,0,0.6-0.1,0.8-0.2c0.5-0.1,0.8,0.2,1.1,0.3
	c0.7,0,1.3,0.1,2,0.1c0.6,0.3,1.2,0.6,1.8,0.9c0.2,0.3,0.5,0.6,0.7,0.8c0.5,0.1,1,0.1,1.6,0.2c0.6,0,1.2,0,1.8,0
	c1.1-0.2,2.3,0,3.3-0.1c1,0.1,1.9,0.2,2.9,0.3c1.3-0.2,2.7-0.7,4.1-0.1c0.3,0.3,0.5,0.6,0.8,0.9c0.1-1.5-1-3-1.3-4.4
	c0-0.4-0.1-0.7-0.1-1.1c0-0.5,0-1,0.1-1.5c0-0.7,0.1-1.4,0.1-2c0.1-0.9,0.3-1.9,0.4-2.8c0-1.7,0-3.4,0.1-5.1c0-1.6,0-3,0.2-4.5
	c0.1-0.6,0.1-1.2-0.3-1.5c-0.5-0.3-1.5-0.1-2.1-0.3c-1-0.3-1.9-0.6-2.9-0.9c-0.6,0-1.2-0.1-1.7-0.1c-1.1-0.2-2.6-0.2-3.8,0
	c-1.1,0-2.1,0.1-3.2,0.1C16.7,24,15,24,13.2,24.1c-0.6,0-1.3,0.1-1.9,0.1c-0.3-0.1-0.6-0.2-0.9-0.4c-0.3-0.2-0.4-0.7-0.9-0.9
	c-0.2-0.1-0.4,0.1-0.6,0.2c-0.4,0.1-0.6-0.2-0.9-0.3c-1,1.4-2.5,2.7-4.3,3.3c0,0,0,0-0.1,0c-0.2-1,0.3-1.7,1.1-2
	c0,0,0.1-0.1,0.1-0.1c-0.4-0.2-0.9-0.2-1.3-0.1c-0.2,0-0.5,0.1-0.7,0.1c-0.6,0.3-0.7,1.2-1.4,1.5c0,0,0,0-0.1,0.1
	c-0.1,0-0.2-0.1-0.2-0.2c-0.1-0.2,0.2-1.9,0.3-2.2C2,21.8,2.8,21,4.2,20.4c0.5-0.2,0.5-0.6,1.2-0.6c0-0.2-0.1-0.5-0.1-0.7
	c0.5-0.6,1.6-0.6,2.4-0.8c1.8-0.5,3.6-0.9,5.4-1.4c0.4-0.1,0.8,0.1,1.2,0c0.2-0.1,0.4-0.2,0.5-0.3c0.4-0.1,0.8-0.2,1.2-0.3
	c0.5-0.2,1-0.3,1.5-0.5c0.9-0.1,1.9-0.1,2.8-0.2c0.6-0.2,1.1-0.5,1.7-0.7c1.3-0.4,2.6-0.8,3.9-1.2c0.8-0.3,1.7-0.5,2.5-0.8
	c0.6-0.3,1.1-0.8,1.6-1.1c0.2,0,0.5-0.1,0.7-0.1c0.3-0.1,0.6-0.3,0.9-0.4c1-0.3,2.3-0.1,3.4-0.1c0.2-0.2,0.4-0.3,0.6-0.5
	c0.2,0,0.4,0,0.7,0c0.2-0.1,0.5-0.2,0.7-0.3c0.4,0,0.8,0,1.2-0.1c0.8-0.1,1.7,0.2,2.4,0c1.1-0.4,1.6-1.6,2-2.6
	c-0.1-0.2-0.1-0.3-0.2-0.5c0,0,0.1-0.1,0.1-0.1c0,0-0.5-1.9-0.7-2.4c0.2-0.2,0.4-0.4,0.6-0.6c0.1-0.3,0.2-0.5,0.3-0.8
	c0.4-0.6,0.9-1.2,1.6-1.5c0.8-0.4,3.9-1,5-0.4c0.3,0.3,0.6,0.6,0.9,0.9c0.5,0.4,0.9,0.8,1.4,1.2c0.7,1,1.3,2.5,1.1,4.3
	c-0.1,0.4,0,0.7-0.2,0.9c-0.2,0.3-0.6,0.5-1,0.7c0,0.7,0.1,1.3,0.1,1.9c-0.3,0.2-0.4,0.3-1,0.3c0.1,0.4-0.1,0.4-0.2,0.7
	c-0.1,0.1-0.2,0.2-0.3,0.3c1.4,0,2.9,0,4.3,0.1c0.3,0.3,0.6,0.5,1,0.8c0.5,0.3,1.4,0.2,2.1,0.1c0.2,0,0.4,0,0.7-0.1
	c0.2,0.1,0.4,0.2,0.6,0.3c0.1-0.1,0.3-0.3,0.4-0.4c0-0.5-0.2-0.8-0.3-1.2c-0.2-1,0.6-1.6,1.2-1.9c-0.1-1.8-0.5-3.3-1-4.7
	c-0.1-0.3-0.2-0.6-0.3-0.9c-0.2-0.1-0.3-0.1-0.5-0.2C58,5,57.8,4.7,57.5,4.6c-0.3,0-0.5-0.1-0.8-0.1C56.5,4.3,56.2,4,56,3.7
	c-0.4,0.1-0.9,0.4-1.2,0.4c-0.2-0.1-0.5-0.2-0.7-0.3C54,3.2,53,3.1,52.3,3c0-0.1-0.1-0.2-0.1-0.3c0.6-1.3,1.5-2.4,3.4-2.4
	C55.8,0.1,55.9,0,56.3,0C56.7,0.2,57.2,0.4,57.6,0.6z"/>
</svg>
