<?xml version="1.0" encoding="UTF-8" standalone="no"?>
<svg
   id="Layer_1"
   data-name="Layer 1"
   viewBox="0 0 614.6333 883.72705"
   version="1.1"
   sodipodi:docname="hh10ink.svg"
   width="614.6333"
   height="883.72705"
   inkscape:version="1.3.2 (091e20e, 2023-11-25, custom)"
   inkscape:export-filename="hh10orig1.svg"
   inkscape:export-xdpi="96"
   inkscape:export-ydpi="96"
   xmlns:inkscape="http://www.inkscape.org/namespaces/inkscape"
   xmlns:sodipodi="http://sodipodi.sourceforge.net/DTD/sodipodi-0.dtd"
   xmlns="http://www.w3.org/2000/svg"
   xmlns:svg="http://www.w3.org/2000/svg">
  <defs
     id="defs1" />
  <sodipodi:namedview
     id="namedview1"
     pagecolor="#ffffff"
     bordercolor="#000000"
     borderopacity="0.25"
     inkscape:showpageshadow="2"
     inkscape:pageopacity="0.0"
     inkscape:pagecheckerboard="0"
     inkscape:deskcolor="#d1d1d1"
     inkscape:zoom="2.537037"
     inkscape:cx="224.67154"
     inkscape:cy="200.62774"
     inkscape:window-width="2560"
     inkscape:window-height="1334"
     inkscape:window-x="-11"
     inkscape:window-y="1069"
     inkscape:window-maximized="1"
     inkscape:current-layer="layer2" />
  <g
     inkscape:groupmode="layer"
     id="layer1"
     inkscape:label="dialated"
     transform="translate(-125.0924,9.9231146)">
    <path
       id="path1-2"
       sodipodi:type="inkscape:offset"
       inkscape:radius="9.918273"
       inkscape:original="M 427.07422 0.02734375 C 425.44953 0.134375 423.75937 0.56953125 421.98438 1.4570312 C 413.46438 5.7270312 404.83305 9.7459374 396.62305 14.585938 C 392.90305 16.785937 389.14383 18.456953 384.67383 18.376953 C 381.34383 18.326953 377.69336 19.1075 376.44336 22.4375 C 374.32336 28.1175 369.55367 29.976016 364.76367 32.166016 C 339.53367 43.716016 314.80367 56.207734 292.01367 72.177734 C 277.51367 82.337734 276.58273 86.037658 283.80273 102.34766 C 289.40273 115.00766 296.90406 126.55727 304.66406 137.94727 C 316.08406 154.69727 329.18445 170.13609 342.06445 185.74609 C 345.25445 189.61609 345.13352 192.84781 342.85352 196.75781 C 340.73352 200.39781 337.2943 201.24672 333.6543 200.88672 C 327.2343 200.24672 320.86266 199.15781 314.47266 198.25781 C 306.74266 197.17781 299.43406 198.28688 292.66406 202.29688 C 294.86406 202.20688 297.0143 201.79648 299.1543 201.39648 C 311.0543 199.17648 322.37344 203.71703 334.02344 204.45703 C 335.92344 204.57703 336.1843 205.97773 335.6543 207.42773 C 330.9443 220.32773 327.41289 233.80695 317.46289 244.12695 C 311.20289 250.61695 305.04273 257.18727 298.30273 263.19727 C 296.81273 264.51727 294.94273 265.64648 294.80273 268.14648 C 321.11273 249.67648 340.33414 224.01727 362.99414 200.94727 C 363.13414 203.46727 362.17328 205.05602 361.36328 206.66602 C 358.82328 211.71602 355.61414 216.32602 351.74414 220.41602 C 342.98414 229.67602 334.13391 238.86758 325.25391 248.01758 C 321.96391 251.40758 319.46297 255.21602 318.79297 259.91602 C 317.88297 266.36602 314.86391 271.80758 311.25391 277.01758 C 307.76391 282.04758 304.16289 286.99664 300.71289 292.05664 C 297.48289 296.80664 294.80313 301.84672 293.70312 307.63672 C 302.35313 290.40672 318.1632 279.09656 329.0332 262.72656 C 330.0532 265.45656 329.19445 266.64781 328.56445 267.75781 C 323.36445 276.91781 318.80352 286.4375 312.85352 295.1875 C 307.06352 303.6875 303.61289 313.04602 303.46289 324.91602 C 311.16289 304.22602 320.39328 288.4975 326.86328 284.9375 C 323.09328 292.7775 319.15273 300.16781 316.80273 308.25781 C 320.92273 302.22781 324.57289 295.94617 328.46289 289.82617 C 335.22289 279.18617 339.11391 274.93695 343.25391 273.62695 C 341.61391 276.10695 340.16398 278.17641 338.83398 280.31641 C 330.01398 294.47641 321.23414 308.66625 317.99414 325.40625 C 316.39414 333.65625 318.61281 340.88672 324.13281 347.13672 C 325.00281 348.10672 325.80352 349.65781 327.35352 349.25781 C 329.24352 348.76781 328.92422 346.86625 329.07422 345.40625 C 329.49422 341.30625 329.75383 337.17687 331.92383 333.29688 C 333.46383 334.60688 333.03359 335.86656 332.93359 336.97656 C 332.29359 344.03656 335.42391 349.46773 340.25391 354.17773 C 341.16391 355.06773 342.50391 356.83672 343.50391 355.13672 C 345.60391 351.54672 348.00273 353.19602 350.55273 354.66602 C 352.21792 345.52247 350.93892 336.54047 354.3418 328.0918 C 355.76821 333.51412 355.88388 338.99478 355.73438 344.57617 C 355.52438 352.80617 351.44305 360.35727 352.12305 368.69727 C 353.24305 382.45727 351.23422 395.7368 346.32422 408.7168 C 343.27422 416.7768 344.09375 418.04617 352.09375 421.32617 C 355.16375 422.57617 355.12453 423.95703 353.39453 426.20703 C 351.42453 428.75703 348.88391 431.12734 347.75391 434.02734 C 345.70391 439.29734 342.12313 440.09758 337.20312 439.51758 C 327.36313 438.34758 322.73305 444.28703 326.12305 453.45703 C 328.65305 460.30703 326.32383 464.27656 319.17383 464.22656 C 311.08383 464.17656 305.23438 467.58727 301.98438 474.69727 C 297.89438 483.66727 291.59367 490.93656 285.51367 498.47656 C 280.29367 504.95656 275.43266 511.75719 270.72266 518.61719 C 249.88266 548.95719 231.36344 580.61742 216.52344 614.35742 C 213.88344 620.35742 210.45398 625.43766 204.83398 629.34766 C 196.35398 635.24766 193.33422 646.75648 196.82422 656.64648 C 197.87422 659.59648 198.63367 662.40758 197.26367 665.51758 C 192.51367 676.29758 190.72297 688.01641 186.79297 699.06641 C 184.30297 706.06641 184.89266 712.78664 189.72266 718.80664 C 191.41266 720.89664 192.87289 722.80703 188.96289 724.45703 C 187.26289 725.17703 187.16398 727.5875 186.83398 729.4375 C 186.09398 733.6275 185.25445 737.78711 183.06445 741.53711 C 182.03445 743.30711 180.79398 745.22727 182.33398 747.19727 C 183.76398 749.01727 185.71344 748.16672 187.52344 747.63672 C 188.48344 747.35672 189.5843 746.95711 190.4043 747.78711 C 191.4343 748.83711 190.77297 750.00594 190.29297 751.08594 C 188.29297 755.54594 185.40445 758.96758 180.06445 759.01758 C 175.48445 759.05758 174.26313 761.60648 174.45312 765.64648 C 174.56313 768.00648 175.31375 771.29742 174.09375 772.60742 C 168.53375 778.60742 166.97297 786.45602 163.29297 793.16602 C 157.97297 802.87602 151.76414 812.3775 144.74414 821.1875 C 139.80414 827.3775 136.61445 834.50625 135.31445 842.40625 C 134.22445 849.03625 135.89352 853.07727 141.60352 856.69727 C 147.30352 860.31727 153.66414 862.30734 160.24414 863.27734 C 175.26414 865.49734 188.75445 862.90773 198.56445 849.92773 C 200.99445 846.70773 202.8443 843.26766 201.9043 839.09766 C 200.9343 834.81766 202.50453 832.13664 206.14453 829.80664 C 215.82453 823.60664 223.97445 815.65719 231.31445 806.86719 C 233.32445 804.47719 235.30437 801.81641 234.23438 798.56641 C 231.20438 789.39641 228.28391 780.14734 224.50391 771.27734 C 223.03391 767.83734 223.56305 767.44711 226.62305 766.78711 C 237.21305 764.52711 239.97273 758.19766 233.80273 749.59766 C 231.49273 746.36766 232.58328 745.34758 235.36328 744.01758 C 239.64328 741.95758 244.67414 740.41617 246.99414 736.07617 C 254.14414 722.66617 263.23281 710.02781 264.88281 694.25781 C 265.11281 692.10781 266.10266 690.37594 267.47266 688.83594 C 269.62266 686.42594 271.87273 684.0968 274.05273 681.7168 C 278.64273 676.7168 281.59414 671.19695 279.49414 664.12695 C 278.86414 661.99695 279.8243 660.57687 281.4043 659.29688 C 296.3743 647.21687 309.47453 633.06695 324.14453 620.62695 C 348.26453 600.16695 372.78367 580.15672 395.76367 558.38672 C 403.66367 550.89672 411.15336 542.97648 419.19336 535.64648 C 433.47336 522.63648 453.89297 523.33766 467.04297 537.09766 C 479.14297 549.76766 491.01406 562.64758 503.16406 575.26758 C 515.51406 588.10758 525.70289 602.48773 534.46289 617.92773 C 535.51289 619.78773 536.7243 621.49641 535.9043 624.06641 C 531.4143 638.07641 535.50453 651.1375 542.39453 662.9375 C 546.40453 669.8075 550.16297 676.32633 551.29297 684.23633 C 551.58297 686.22633 552.23422 688.22641 553.07422 690.06641 C 554.77422 693.77641 554.44297 697.09633 552.54297 700.73633 C 547.98297 709.50633 548.84305 712.23719 556.87305 717.61719 C 558.55305 718.73719 560.16328 720.0275 561.61328 721.4375 C 563.01328 722.8075 563.7832 724.43703 562.5332 726.45703 C 559.9732 730.61703 560.92297 734.72633 563.29297 738.48633 C 565.32297 741.70633 565.36273 745.23781 565.80273 748.75781 C 566.08273 750.97781 565.41437 751.46648 563.23438 750.64648 C 555.83438 747.86648 551.92359 750.41633 551.18359 758.48633 C 550.76359 763.07633 551.02391 767.6568 551.75391 772.2168 C 554.02391 786.3368 558.45367 799.9668 561.26367 813.9668 C 562.69367 821.0968 566.1743 824.07672 573.4043 824.88672 C 578.8443 825.49672 584.28289 825.15641 589.71289 824.81641 C 594.44289 824.51641 599.10422 825.12688 602.82422 828.04688 C 611.49422 834.83687 621.36297 836.06766 631.79297 835.09766 C 641.99297 834.14766 652.02336 832.3275 661.19336 827.4375 C 666.52336 824.5875 670.64273 820.57734 670.80273 814.02734 C 671.06273 803.12734 666.99281 797.33648 656.63281 793.89648 C 645.95281 790.34648 637.80398 783.1868 630.08398 775.4668 C 628.32398 773.7068 625.31453 770.6075 627.64453 768.6875 C 629.84453 766.8675 631.76383 770.65641 633.17383 772.56641 C 635.96383 776.32641 639.15328 776.89727 643.11328 774.94727 C 642.93328 773.39727 641.95352 772.90602 641.10352 772.41602 C 632.37352 767.43602 624.79266 761.33633 620.72266 751.73633 C 620.28266 750.68633 619.43438 749.61781 618.48438 749.00781 C 611.96437 744.80781 608.95359 738.2575 606.18359 731.4375 C 604.95359 728.4275 605.38289 726.82719 608.71289 725.86719 C 612.42289 724.78719 616.82289 722.4268 616.46289 718.7168 C 615.79289 711.9068 620.34445 709.04773 624.06445 705.42773 C 630.69445 698.96773 632.19305 691.56641 628.87305 683.06641 C 628.07305 681.00641 627.45367 678.80633 626.26367 676.98633 C 623.49367 672.73633 623.72312 668.69758 625.45312 664.01758 C 629.98312 651.76758 629.04414 639.9768 620.99414 629.2168 C 617.49414 624.5368 615.24281 619.19641 613.13281 613.81641 C 608.21281 601.27641 602.63359 589.08695 594.68359 578.12695 C 593.36359 576.30695 592.90414 574.69641 594.24414 572.56641 C 596.39414 569.13641 596.42422 565.21641 594.57422 561.81641 C 590.97422 555.22641 590.12383 548.02719 588.67383 540.86719 C 584.32383 519.39719 578.00367 498.28656 575.51367 476.47656 C 573.42367 458.17656 565.72391 443.14641 552.50391 430.56641 C 548.08391 426.35641 544.14375 421.62687 540.09375 417.04688 C 537.56375 414.18687 535.45359 411.25617 537.93359 407.07617 C 538.98359 405.30617 538.13367 403.08719 537.51367 401.11719 C 535.99367 396.34719 533.25328 392.25609 530.36328 388.24609 C 526.49328 382.86609 521.31375 377.96656 519.09375 371.97656 C 516.55375 365.14656 511.64328 361.78648 506.36328 358.14648 C 505.10328 357.27648 503.8943 356.34727 502.6543 355.44727 C 498.2643 352.27727 495.49336 348.39617 495.94336 342.57617 C 496.17336 339.56617 496.00266 336.07766 492.97266 334.34766 C 488.69266 331.89766 489.30453 328.96766 491.89453 326.09766 C 502.66453 314.13766 508.16359 298.04703 521.68359 288.20703 C 523.79359 286.66703 525.20414 284.08766 526.74414 281.84766 C 530.41414 276.52766 534.13367 271.22656 537.51367 265.72656 C 542.30367 257.92656 549.06305 253.78602 558.12305 252.41602 C 595.62305 246.74602 632.69289 238.9475 669.21289 228.6875 C 687.38289 223.5775 705.40305 217.79734 721.37305 207.27734 C 729.47305 201.94734 731.61305 194.74711 728.37305 185.53711 C 727.23305 182.29711 725.5032 179.38766 723.5332 176.59766 C 717.1532 167.56766 710.79453 158.52758 704.39453 149.51758 C 700.29453 143.74758 695.26422 139.10625 688.82422 135.90625 C 676.49422 129.76625 664.37453 123.22633 652.64453 115.98633 C 651.00453 114.97633 648.81398 114.36742 649.08398 111.60742 C 649.28398 109.61742 647.64398 109.11617 646.08398 108.82617 C 643.45398 108.34617 641.41422 106.89664 639.57422 105.05664 C 637.47422 102.95664 634.91367 101.51617 632.01367 101.07617 C 627.19367 100.34617 623.57445 97.796953 620.31445 94.376953 C 617.39445 91.306953 614.90422 87.417578 610.82422 86.017578 C 603.64422 83.567578 600.04383 78.057812 597.17383 71.757812 C 594.49383 65.887812 592.21438 59.826563 589.48438 53.976562 C 586.85438 48.326563 580.4643 44.916953 574.9043 45.876953 C 564.9543 47.596953 556.34438 53.366719 546.48438 55.386719 C 546.04438 55.476719 545.53398 55.915937 545.33398 56.335938 C 543.74398 59.635938 540.55414 60.996719 537.74414 62.886719 C 535.30414 64.516719 532.67367 66.646797 534.76367 69.966797 C 541.32367 80.376797 547.92391 91.347422 560.75391 94.607422 C 580.47391 99.617422 595.00273 112.10672 609.05273 125.63672 C 611.36273 127.85672 612.42281 129.93648 610.38281 133.14648 C 608.08281 136.76648 609.29336 139.69617 613.44336 141.07617 C 619.66336 143.14617 625.04273 146.66703 630.30273 150.45703 C 633.34273 152.64703 636.49328 154.73594 640.61328 153.83594 C 642.45328 153.43594 643.48391 154.57609 644.25391 155.99609 C 648.90391 164.57609 652.0132 173.72781 654.0332 183.25781 C 654.4032 184.99781 654.37383 187.05766 652.17383 187.34766 C 641.16383 188.77766 629.7843 193.59617 619.9043 183.82617 C 617.5043 181.45617 614.58422 179.59742 611.82422 177.60742 C 598.84422 168.25742 586.37414 158.27641 574.49414 147.56641 C 573.01414 146.23641 571.10289 144.96773 570.96289 141.67773 C 581.53289 147.65773 592.41375 150.34734 603.34375 152.77734 C 616.03375 155.59734 628.38422 159.19734 639.32422 166.52734 C 639.71422 166.78734 640.28391 166.83641 640.50391 165.81641 C 638.06391 162.69641 634.83398 160.34766 631.08398 158.59766 C 624.09398 155.33766 616.68266 153.54734 609.22266 151.77734 C 575.40266 143.76734 549.33266 126.52609 537.97266 91.746094 C 535.76266 84.966094 533.16273 78.287813 530.30273 71.757812 C 524.31273 58.077812 515.89328 46.167031 502.61328 38.707031 C 488.12328 30.567031 473.17289 23.546563 455.71289 26.476562 C 452.60289 26.996562 451.0043 26.176016 452.6543 22.666016 C 454.6543 18.416016 453.09383 15.186484 449.67383 12.396484 C 446.54383 9.8564843 443.92289 6.4674219 440.46289 4.6074219 C 436.23289 2.3424219 431.94828 -0.29375 427.07422 0.02734375 z M 417.09766 37.71875 C 418.70016 37.69875 420.09414 38.021563 420.74414 39.226562 C 421.96414 41.476563 417.76273 43.03625 415.80273 44.65625 C 405.32273 53.34625 398.2332 64.377109 393.0332 76.787109 C 387.2632 90.557109 382.79297 104.90664 374.04297 117.30664 C 366.74297 127.65664 366.77328 127.85734 356.86328 119.77734 C 348.70328 113.11734 340.78297 106.15711 332.79297 99.287109 C 331.07297 97.807109 329.47297 96.417031 332.04297 93.957031 C 340.38297 85.967031 348.55391 77.786484 356.75391 69.646484 C 359.30391 67.106484 362.03359 65.316328 365.43359 66.486328 L 365.42383 66.496094 C 373.32383 66.876094 377.16359 63.366875 377.93359 55.546875 C 378.01359 54.736875 378.11281 53.586562 378.63281 53.226562 C 384.21281 49.386563 388.12328 42.916406 396.11328 42.816406 C 400.14328 42.756406 404.17453 41.646875 407.89453 39.796875 C 409.25453 39.126875 410.72336 38.427578 412.19336 38.267578 C 413.68336 38.102578 415.49516 37.73875 417.09766 37.71875 z M 565.18359 148.07617 C 573.74359 153.73617 582.73438 158.85656 590.73438 165.22656 C 598.68437 171.55656 606.49406 178.06719 614.66406 184.11719 C 615.84406 184.98719 617.7332 185.97711 617.2832 187.53711 C 616.6632 189.66711 614.42328 188.6368 612.86328 188.7168 C 609.69328 188.8768 606.70289 188.08734 604.46289 185.77734 C 592.41289 173.32734 578.71297 162.72656 566.04297 150.97656 C 565.45297 150.42656 565.00437 149.71617 564.48438 149.07617 C 564.71438 148.74617 564.95359 148.40617 565.18359 148.07617 z M 548.07422 148.47656 C 550.17422 148.36656 550.93289 150.14594 551.96289 151.33594 C 561.87289 162.77594 572.39281 173.56617 584.63281 182.57617 C 585.86281 183.47617 588.14273 184.45672 587.05273 186.38672 C 586.13273 188.02672 583.96328 187.30742 582.36328 186.85742 C 580.75328 186.39742 579.05359 185.90609 577.68359 184.99609 C 565.30359 176.72609 555.66375 165.96656 548.84375 152.72656 C 548.20375 151.48656 546.99422 150.16656 548.07422 148.47656 z M 561.9043 176.42773 C 565.4143 179.12773 569.23414 181.4968 571.24414 185.7168 C 566.35414 184.4168 563.9643 180.58773 561.9043 176.42773 z M 327.17383 328.00781 C 327.62383 328.02781 328.0832 328.03664 328.5332 328.05664 C 328.2132 333.32664 327.89422 338.58742 327.57422 343.85742 C 327.03422 343.87742 326.50289 343.90773 325.96289 343.92773 L 325.95312 343.92773 C 323.95312 338.49773 324.78383 333.20781 327.17383 328.00781 z "
       d="m 426.42187,-9.8691406 c -2.934,0.1932864 -6.00538,1.0212397 -8.87304,2.4550781 a 9.9192648,9.9192648 0 0 0 -0.008,0.00391 c -8.34982,4.1847057 -17.19446,8.28656499 -25.95508,13.4511718 a 9.9192648,9.9192648 0 0 0 -0.0117,0.00781 c -3.09411,1.8298456 -4.82277,2.4461118 -6.72266,2.4121094 a 9.9192648,9.9192648 0 0 0 -0.0293,-0.00195 c -2.49408,-0.037449 -5.4334,0.1295647 -8.78711,1.4960937 -3.35372,1.3665289 -7.22519,4.5957809 -8.87696,8.9960939 a 9.9192648,9.9192648 0 0 0 -0.008,0.01758 c -0.66367,1.778144 -1.38716,1.834775 -6.51172,4.177734 a 9.9192648,9.9192648 0 0 0 -0.004,0.002 c -25.4606,11.655563 -50.75161,24.396052 -74.3125,40.90625 -7.63168,5.347439 -13.88341,9.9753 -16.13477,18.316407 -2.25136,8.341106 0.75869,15.439073 4.54492,23.992186 v -0.004 c 6.02277,13.61574 13.89236,25.66149 21.73438,37.17187 a 9.9192648,9.9192648 0 0 0 0.002,0.004 c 11.50836,16.8796 24.43823,32.16564 36.95508,47.31445 -5.60828,-0.60967 -11.41174,-1.54693 -17.56836,-2.41406 a 9.9192648,9.9192648 0 0 0 -0.01,0 c -9.50006,-1.32731 -19.46325,0.13166 -28.23633,5.32812 a 9.9192648,9.9192648 0 0 0 5.46094,18.44336 c 3.16513,-0.12948 5.78778,-0.66526 7.90235,-1.06055 6.11,-1.13985 13.23952,0.61628 21.97265,1.99414 -3.40209,9.43955 -6.75314,18.01339 -12.62304,24.10157 h 0.002 c -6.32496,6.55735 -12.3225,12.93459 -18.62305,18.55273 l 0.0254,-0.0215 c -0.2542,0.2252 -1.47425,1.03342 -3.11328,2.88867 -1.63903,1.85525 -3.50971,5.30156 -3.71289,8.92969 A 9.9192648,9.9192648 0 0 0 299.5,276.50781 c -2.32063,3.2795 -4.63224,6.51401 -6.98242,9.96094 a 9.9192648,9.9192648 0 0 0 -0.006,0.0117 c -3.6301,5.33838 -7.09842,11.64979 -8.55274,19.30469 a 9.9192648,9.9192648 0 0 0 10.2793,11.12304 c -0.34514,2.56816 -0.65887,5.1539 -0.69336,7.88282 a 9.9192648,9.9192648 0 0 0 14.4375,8.81445 c 0.77532,7.43507 3.76828,14.49472 8.7168,20.09765 a 9.9192648,9.9192648 0 0 0 0.0508,0.0566 c -0.30969,-0.34529 0.22991,0.61265 2.05078,2.27539 1.82087,1.66273 6.8527,3.9045 11.03125,2.82617 a 9.9192648,9.9192648 0 0 0 0.01,-0.002 c 0.33815,-0.0877 0.65272,-0.33529 0.98632,-0.47265 0.82429,0.97849 1.6143,2.02598 2.49024,2.88086 -0.15359,-0.15022 0.46614,1.10798 3.45898,2.88672 1.13689,0.67569 3.07279,1.55 5.51758,1.60156 -0.0134,1.25901 -0.16746,2.38881 -0.0566,3.74805 0.99999,12.28917 -0.75695,23.98025 -5.19141,35.70312 h 0.002 c -0.84504,2.23311 -1.57301,4.23172 -2.00586,6.7168 -0.43285,2.48507 -0.45978,5.9381 1.0625,9.14453 1.20379,2.53557 2.7354,4.12867 4.36328,5.40234 -0.5642,0.92787 -1.09046,2.04086 -1.5957,3.21875 -0.19978,-0.01 -0.22291,0.0106 -0.49805,-0.0215 h -0.01 c -7.05247,-0.83617 -14.76672,0.8729 -19.44531,6.79297 -4.13823,5.23632 -4.38942,11.97389 -2.73047,18.04687 -9.81195,0.98602 -19.0367,6.90029 -23.22656,16.06641 a 9.9192648,9.9192648 0 0 0 -0.004,0.008 c -3.33394,7.31186 -8.93958,13.94637 -15.16601,21.66797 a 9.9192648,9.9192648 0 0 0 -0.004,0.004 c -5.45962,6.77746 -10.46108,13.78644 -15.24219,20.75 -21.11019,30.73351 -39.95808,62.92938 -55.10156,97.35937 -2.19596,4.99082 -4.40879,8.15169 -8.27539,10.8418 a 9.9192648,9.9192648 0 0 0 0,0.002 c -12.53744,8.72299 -16.59015,24.88026 -11.69922,38.74024 a 9.9192648,9.9192648 0 0 0 0.01,0.0254 c 0.88916,2.4981 0.643,1.69221 0.70703,1.54687 -5.44799,12.36481 -7.23354,24.36286 -10.74023,34.22266 h 0.002 c -2.81774,7.92136 -2.46826,17.28976 1.84375,25.15429 -0.5375,0.98207 -1.18526,2.03699 -1.4043,2.76368 -0.68335,2.26707 -0.75405,3.67464 -0.81836,4.03515 a 9.9192648,9.9192648 0 0 0 -0.004,0.0176 c -0.71208,4.03191 -1.43047,6.87717 -2.56641,8.82227 a 9.9192648,9.9192648 0 0 0 -0.008,0.0137 c -0.42862,0.73655 -1.57002,2.22715 -2.35547,5.24804 -0.59668,2.29487 -0.35721,5.86896 0.89453,8.87696 -2.10988,0.94488 -4.08734,2.31519 -5.51758,4.23633 -2.99709,4.02577 -3.11481,8.08403 -2.96875,11.19726 5e-5,0.001 -5e-5,9.2e-4 0,0.002 6e-5,0.001 -5e-5,0.003 0,0.004 0.0617,1.31838 0.13453,1.80983 0.20703,2.48438 -5.92073,7.65882 -7.75927,15.43182 -10.15429,19.79882 a 9.9192648,9.9192648 0 0 0 -0.004,0.004 c -5.06627,9.24689 -10.97332,18.28043 -17.60156,26.59961 -5.95743,7.46488 -9.89801,16.27337 -11.46485,25.79492 a 9.9192648,9.9192648 0 0 0 0,0.002 c -0.72879,4.43295 -0.69129,9.28563 1.28321,13.83399 1.97351,4.54609 5.58332,7.97011 9.47656,10.43945 0.001,8e-4 0.003,0.001 0.004,0.002 7.6e-4,4.8e-4 0.001,0.001 0.002,0.002 7.12729,4.52501 14.89935,6.89476 22.5,8.01562 16.9734,2.50872 35.61903,-1.21854 47.68359,-17.18164 a 9.9192648,9.9192648 0 0 0 0.004,-0.006 c 2.87138,-3.80487 6.38611,-10.31982 5.17578,-17.85937 10.70621,-6.8888 19.52474,-15.54572 27.24805,-24.79102 l 0.006,-0.008 c 1.13915,-1.3543 2.75298,-3.20244 4.07421,-6.1582 1.32328,-2.96032 2.02458,-7.50645 0.66993,-11.6211 a 9.9192648,9.9192648 0 0 0 -0.002,-0.01 c -2.31574,-7.00838 -4.76988,-14.28576 -7.55468,-21.58399 4.06098,-1.97958 7.60905,-4.87722 9.53711,-9.43945 1.99401,-4.71831 1.41148,-9.55892 -0.30274,-13.99805 3.5291,-1.7178 7.56786,-4.36823 10.4082,-9.68164 a 9.9192648,9.9192648 0 0 0 0.006,-0.01 c 6.68663,-12.54093 16.88243,-26.32941 18.95118,-45.13477 0.0199,-0.008 0.0131,0.0142 0.18554,-0.17969 1.97021,-2.20786 4.18403,-4.50133 6.47656,-7.0039 4.94467,-5.38634 9.59022,-13.89804 8.43555,-23.26172 14.74227,-12.20888 27.37088,-25.61376 40.76367,-36.9707 a 9.9192648,9.9192648 0 0 0 0.002,0 c 24.02413,-20.37868 48.68921,-40.49795 72.02343,-62.60352 a 9.9192648,9.9192648 0 0 0 0.004,-0.004 c 8.16135,-7.73778 15.60826,-15.60632 23.28516,-22.60546 l 0.002,-0.002 c 10.66898,-9.71842 24.2757,-9.19873 33.99805,0.97461 12.01806,12.58428 23.89768,25.47269 36.14648,38.19531 11.67283,12.13675 21.38189,25.80947 29.81641,40.67579 l -0.01,-0.0195 c 0.14624,0.25906 0.0407,0.0493 0.14063,0.23438 -4.56106,16.6388 0.52287,32.33096 7.86328,44.90234 3.99235,6.83986 6.84217,12.0827 7.64453,17.69922 a 9.9192648,9.9192648 0 0 0 0.004,0.0273 c 0.4588,3.14834 1.4089,5.97122 2.57226,8.51953 a 9.9192648,9.9192648 0 0 0 0.006,0.0117 c 0.5633,1.22931 0.66743,0.0831 -0.30664,1.94921 a 9.9192648,9.9192648 0 0 0 -0.008,0.0137 c -2.59213,4.98529 -5.07974,10.26652 -3.34375,16.82617 1.73598,6.55965 6.42948,9.84031 10.95312,12.87109 a 9.9192648,9.9192648 0 0 0 0.0195,0.0117 c 0.22449,0.14966 0.4079,0.34731 0.62891,0.50586 -1.22888,4.92173 -0.38251,9.94094 1.31055,14.01758 -1.36081,0.40534 -2.71109,0.94763 -4.00977,1.79297 -5.69826,3.7091 -7.48773,9.87196 -7.99414,15.39453 a 9.9192648,9.9192648 0 0 0 0,0.002 c -0.50845,5.55662 -0.1814,10.98287 0.6543,16.20313 a 9.9192648,9.9192648 0 0 0 0,0.006 c 2.43219,15.12889 6.91948,28.88102 9.57812,42.12695 0.96771,4.82501 3.04847,9.74865 7.02735,13.28906 3.97836,3.53996 8.95561,5.00172 13.73242,5.53711 6.57343,0.7371 12.60293,0.31072 18.0332,-0.0293 a 9.9192648,9.9192648 0 0 0 0.008,0 c 3.47093,-0.22014 5.27863,0.2849 6.36133,1.13477 a 9.9192648,9.9192648 0 0 0 0.008,0.006 c 11.08834,8.68393 24.22733,10.21224 36.00196,9.11719 a 9.9192648,9.9192648 0 0 0 0.002,0 c 10.76692,-1.00281 22.22846,-2.96105 33.14648,-8.78321 a 9.9192648,9.9192648 0 0 0 0.0117,-0.006 c 6.86772,-3.67222 14.58858,-11.30811 14.84766,-21.91406 a 9.9192648,9.9192648 0 0 0 0,-0.006 c 0.16042,-6.72525 -1.06824,-13.35221 -4.90625,-18.80664 -3.83801,-5.45443 -9.66367,-8.85054 -16.05469,-10.97266 h 0.004 c -2.95216,-0.98128 -5.69542,-2.46428 -8.37891,-4.15234 a 9.9192648,9.9192648 0 0 0 1.58203,-6.5293 c -0.314,-2.70395 -1.84273,-5.76527 -3.55273,-7.49414 -1.71001,-1.72887 -3.1165,-2.34661 -3.35547,-2.48437 a 9.9192648,9.9192648 0 0 0 -0.0391,-0.0234 c -7.84883,-4.47734 -13.23232,-9.02038 -16.16406,-15.93555 l 0.0176,0.0371 c -1.26918,-3.02873 -2.90501,-5.23537 -6.02734,-7.24023 l 0.0117,0.008 c -2.59709,-1.67297 -4.38895,-4.52194 -6.13477,-8.04883 0.8346,-0.4893 1.65521,-0.8658 2.50782,-1.5332 3.06413,-2.39855 6.68015,-7.40564 6.10546,-13.32812 a 9.9192648,9.9192648 0 0 0 0,-0.0137 c -0.10747,-1.09242 -0.24269,-0.30609 0.20899,-0.90625 0.45168,-0.60016 2.0658,-1.99484 4.43945,-4.30468 a 9.9192648,9.9192648 0 0 0 0.004,-0.004 c 8.80699,-8.58117 11.52285,-21.81465 7.125,-33.07422 -0.56156,-1.45349 -1.22331,-4.34475 -3.54688,-7.89844 l 0.008,0.0117 c -1.06372,-1.63205 -1.00186,-0.9064 0.18359,-4.11328 5.40243,-14.60921 4.09048,-30.93346 -5.81836,-44.17969 l -0.002,-0.002 c -2.55366,-3.41531 -4.51977,-7.85666 -6.56836,-13.08008 a 9.9192648,9.9192648 0 0 0 -0.002,-0.002 c -4.75312,-12.11468 -10.3377,-24.31293 -18.2207,-35.71289 2.21686,-5.67918 1.97487,-12.19901 -0.85742,-17.4043 a 9.9192648,9.9192648 0 0 0 -0.008,-0.0156 c -2.45806,-4.49962 -3.32779,-10.47388 -4.88477,-18.16211 -4.47001,-22.06232 -10.67008,-42.8995 -13.02734,-63.54688 -2.33199,-20.41881 -11.34051,-37.99345 -26.02344,-51.96679 l -0.002,-0.004 c -3.86433,-3.68118 -7.63948,-8.17856 -11.81836,-12.9043 a 9.9192648,9.9192648 0 0 0 0,-0.002 c -0.10673,-0.12065 -0.10813,-0.1459 -0.19727,-0.25391 1.10778,-2.86014 1.11615,-5.69026 0.82422,-7.57031 -0.35727,-2.30087 -0.93526,-3.74552 -1.17578,-4.50977 a 9.9192648,9.9192648 0 0 0 -0.0117,-0.0351 c -2.06786,-6.48929 -5.52792,-11.45858 -8.54883,-15.65039 -4.65281,-6.46826 -8.93405,-10.99695 -10.01953,-13.92578 a 9.9192648,9.9192648 0 0 0 -0.004,-0.01 c -3.62405,-9.74499 -11.13043,-14.90747 -16.39257,-18.53516 l -0.006,-0.004 c -0.98278,-0.67887 -2.12776,-1.55606 -3.51172,-2.56055 a 9.9192648,9.9192648 0 0 0 -0.0195,-0.0137 c -2.88092,-2.08029 -2.81154,-1.70439 -2.62891,-4.06641 a 9.9192648,9.9192648 0 0 0 0,-0.008 c 0.15138,-1.9811 0.31166,-4.62106 -0.57226,-7.91797 -0.52105,-1.94343 -1.68332,-4.14197 -3.30469,-6.10937 10.55936,-12.95197 16.01432,-26.12744 25.56445,-33.07813 a 9.9192648,9.9192648 0 0 0 0.0117,-0.008 c 4.66071,-3.40166 6.24929,-7.09278 7.37695,-8.73828 l 0.01,-0.0137 c 3.63732,-5.27245 7.45697,-10.7085 11.04492,-16.54688 a 9.9192648,9.9192648 0 0 0 0.002,-0.004 c 3.43168,-5.58812 6.78064,-7.65604 13.64063,-8.69336 37.87385,-5.72653 75.34647,-13.60761 112.28906,-23.98633 a 9.9192648,9.9192648 0 0 0 0.004,0 c 18.39941,-5.17452 37.48863,-11.18866 54.92578,-22.67383 5.42814,-3.57185 9.83109,-8.60603 11.75976,-14.71289 1.92868,-6.10686 1.2599,-12.5904 -0.85546,-18.60352 -1.56563,-4.44966 -3.82776,-8.15993 -6.09375,-11.36914 a 9.9192648,9.9192648 0 0 0 -0.002,-0.002 c -6.37197,-9.01864 -12.73464,-18.06664 -19.15234,-27.10156 -4.86247,-6.84303 -11.21874,-12.76135 -19.23438,-16.7461 l -0.008,-0.004 c -12.04192,-5.99676 -23.80126,-12.34982 -35.12305,-19.32422 -0.90942,-2.557 -2.41531,-4.99487 -4.14257,-6.2168 -2.86342,-2.025682 -4.90067,-2.189678 -6.07618,-2.408201 a 9.9192648,9.9192648 0 0 0 -0.0312,-0.0059 c -0.0515,-0.0094 -0.18724,0.06471 -1.27734,-1.02539 -3.34689,-3.346891 -7.86788,-5.981733 -13.08594,-6.773438 a 9.9192648,9.9192648 0 0 0 -0.004,0 c -2.16379,-0.32771 -3.57329,-1.188453 -5.9961,-3.728515 l -0.004,-0.0039 c -0.002,-0.0017 -0.002,-0.0022 -0.004,-0.0039 -1.97814,-2.083961 -5.21576,-8.070609 -13.45117,-10.896484 a 9.9192648,9.9192648 0 0 0 -0.0156,-0.0059 c -3.83775,-1.30954 -5.35102,-3.546836 -7.82812,-8.984375 a 9.9192648,9.9192648 0 0 0 -0.004,-0.0078 c -2.49001,-5.453866 -4.77512,-11.538828 -7.71875,-17.847656 l -0.002,-0.0039 C 593.89415,39.951257 583.91094,34.257045 573.2168,36.103516 a 9.9192648,9.9192648 0 0 0 -0.002,0 c -12.67223,2.190577 -21.3864,8.063842 -28.7207,9.566406 -5.16961,1.057765 -6.25338,2.492441 -8.11523,6.402344 l 0.0195,-0.04102 c 0.19406,-0.402763 -0.47057,0.124409 -4.08985,2.5625 -6.07156,-9.698484 -13.96522,-18.425518 -24.83789,-24.533203 -12.71707,-7.144031 -27.39474,-14.313445 -44.41601,-14.105469 -0.12824,-0.720337 -0.22744,-1.450283 -0.45703,-2.132812 -1.39693,-4.1527172 -4.06437,-6.9984891 -6.6543,-9.1113285 a 9.9192648,9.9192648 0 0 0 -0.0195,-0.015625 c -1.88167,-1.5269752 -4.71987,-5.57418835 -10.76563,-8.8242187 a 9.9192648,9.9192648 0 0 0 -0.0137,-0.00781 c -3.8638,-2.0689129 -9.91507,-6.3126483 -18.72266,-5.7324219 z m 28.70118,26.3320316 c 0.072,0.008 0.20046,0.08321 0.27929,0.09766 -0.44924,0.0648 -0.8777,0.05885 -1.33007,0.134765 l 0.006,-0.002 c -0.22271,0.03724 0.14226,-0.330996 1.04493,-0.230468 z m -60.28516,36.527343 c -4.42316,6.261613 -8.02824,12.982553 -10.95312,19.962891 -6.01351,14.351133 -10.35607,27.879715 -17.94532,38.634765 a 9.9192648,9.9192648 0 0 0 -0.002,0.002 c -0.61644,0.874 -0.75996,1.01987 -1.25391,1.70508 -0.62787,-0.49777 -0.76875,-0.56519 -1.54882,-1.20117 l -0.004,-0.004 c -6.33321,-5.16915 -12.62588,-10.66981 -18.96484,-16.146481 6.58539,-6.412586 13.129,-12.857818 19.57617,-19.257812 a 9.9192648,9.9192648 0 0 0 0.0117,-0.01172 c 0.51673,-0.514704 0.45257,-0.443426 0.59179,-0.548828 a 9.9192648,9.9192648 0 0 0 0.60157,0.277344 c 5.49052,0.264101 11.4669,-0.888911 15.97656,-4.876953 3.85397,-3.408197 5.69142,-8.030375 6.49414,-12.652344 2.15482,-1.807609 3.94294,-3.480464 5.19531,-4.46875 1.04359,-0.823532 1.65648,-1.200134 2.22461,-1.414063 z m -10.50391,8.34375 c -0.0152,0.02823 0.19303,-0.138356 0,0 z m -22.3164,13.714844 a 9.9192648,9.9192648 0 0 0 1.65234,0.763672 c -0.57924,0.04471 -1.14658,0.161581 -1.46289,0.05273 z m 191.42578,27.500002 c 1.55743,0.62724 3.136,1.23199 4.86719,1.67187 a 9.9192648,9.9192648 0 0 0 0.002,0 c 16.30483,4.14236 28.95866,14.43174 42.10156,26.94141 -0.85214,2.3197 -1.20126,4.96024 -0.78906,7.63867 -20.6918,-6.72898 -36.25028,-17.71937 -46.18164,-36.25195 z m 105.50586,10.00195 c 0.0253,0.10164 -0.007,-0.10875 0,0 z m -47.07031,52.64258 c 8.02319,2.30818 15.40901,5.20917 21.92382,9.57422 a 9.9192648,9.9192648 0 0 0 0.0195,0.0117 c 1.56607,1.04404 4.42912,2.2507 7.99414,1.51953 0.26275,0.85255 0.48194,1.72933 0.72265,2.59375 -2.78218,0.50418 -5.23927,0.92165 -7.21875,0.98047 -3.76682,0.11193 -5.43479,-0.12647 -8.4414,-3.09961 a 9.9192648,9.9192648 0 0 0 -0.006,-0.004 c -3.41714,-3.37443 -6.80344,-5.44443 -9.24805,-7.20703 a 9.9192648,9.9192648 0 0 0 -0.004,-0.002 c -1.95502,-1.40828 -3.81217,-2.93014 -5.74218,-4.36719 z m 39.01757,12.31836 c -0.009,0.001 -0.0161,0.003 -0.0254,0.004 0.002,-2.1e-4 0.004,-0.002 0.006,-0.002 z m -324.25,156.98047 2.65821,1.85547 -1.72071,1.05078 -1.83007,-2.03321 z m -37.64453,326.81054 c 0.001,0.004 0.004,0.0182 0.004,0.0215 -0.002,-0.007 -0.002,-0.0143 -0.004,-0.0215 z m -47.14062,82.51368 c 0.003,0.004 0.0124,0.0195 0.0137,0.0234 -0.005,-0.007 -0.008,-0.0162 -0.0137,-0.0234 z m -1.88477,9.00976 c -1.18764,0.93734 0.34764,0.009 0,0 z m -73.7832,13.86719 c -0.34423,0.3927 -0.57487,0.78724 -0.89453,1.18164 0.18693,-0.33039 0.57691,-0.77464 0.89453,-1.18164 z m -1.39649,2.43945 c 0.53594,1.20674 0.45759,-0.90923 0,0 z m 63.90821,7.34961 c 0.0359,-0.003 0.0409,-0.0101 0,0 z"
       style="display:inline;fill:#ff0000"
       inkscape:export-filename="hh10dia"
       inkscape:export-xdpi="96"
       inkscape:export-ydpi="96" />
  </g>
  <g
     inkscape:groupmode="layer"
     id="layer2"
     inkscape:label="original"
     transform="translate(-125.0924,9.9231146)">
    <path
       d="m 353.94,328.04 c -3.44,8.47 -2.14,17.48 -3.81,26.65 -2.55,-1.47 -4.95,-3.12 -7.05,0.47 -1,1.7 -2.34,-0.07 -3.25,-0.96 -4.83,-4.71 -7.96,-10.14 -7.32,-17.2 0.1,-1.11 0.53,-2.37 -1.01,-3.68 -2.17,3.88 -2.43,8.01 -2.85,12.11 -0.15,1.46 0.17,3.36 -1.72,3.85 -1.55,0.4 -2.35,-1.15 -3.22,-2.12 -5.52,-6.25 -7.74,-13.48 -6.14,-21.73 3.24,-16.74 12.02,-30.93 20.84,-45.09 1.33,-2.14 2.78,-4.21 4.42,-6.69 -4.14,1.31 -8.03,5.56 -14.79,16.2 -3.89,6.12 -7.54,12.4 -11.66,18.43 2.35,-8.09 6.29,-15.48 10.06,-23.32 -6.47,3.56 -15.7,19.29 -23.4,39.98 0.15,-11.87 3.6,-21.23 9.39,-29.73 5.95,-8.75 10.51,-18.27 15.71,-27.43 0.63,-1.11 1.49,-2.3 0.47,-5.03 -10.87,16.37 -26.68,27.68 -35.33,44.91 1.1,-5.79 3.78,-10.83 7.01,-15.58 3.45,-5.06 7.05,-10.01 10.54,-15.04 3.61,-5.21 6.63,-10.65 7.54,-17.1 0.67,-4.7 3.17,-8.51 6.46,-11.9 8.88,-9.15 17.73,-18.34 26.49,-27.6 3.87,-4.09 7.08,-8.7 9.62,-13.75 0.81,-1.61 1.77,-3.2 1.63,-5.72 -22.66,23.07 -41.88,48.73 -68.19,67.2 0.14,-2.5 2.01,-3.63 3.5,-4.95 6.74,-6.01 12.9,-12.58 19.16,-19.07 9.95,-10.32 13.48,-23.8 18.19,-36.7 0.53,-1.45 0.27,-2.85 -1.63,-2.97 -11.65,-0.74 -22.97,-5.28 -34.87,-3.06 -2.14,0.4 -4.29,0.81 -6.49,0.9 6.77,-4.01 14.08,-5.12 21.81,-4.04 6.39,0.9 12.76,1.99 19.18,2.63 3.64,0.36 7.08,-0.49 9.2,-4.13 2.28,-3.91 2.4,-7.14 -0.79,-11.01 -12.88,-15.61 -25.98,-31.05 -37.4,-47.8 -7.76,-11.39 -15.26,-22.94 -20.86,-35.6 -7.22,-16.31 -6.29,-20.01 8.21,-30.17 22.79,-15.97 47.52,-28.46 72.75,-40.01 4.79,-2.19 9.56,-4.05 11.68,-9.73 1.25,-3.33 4.9,-4.11 8.23,-4.06 4.47,0.08 8.23,-1.59 11.95,-3.79 8.21,-4.84 16.84,-8.86 25.36,-13.13 7.1,-3.55 12.84,0.13 18.48,3.15 3.46,1.86 6.08,5.25 9.21,7.79 3.42,2.79 4.98,6.02 2.98,10.27 -1.65,3.51 -0.05,4.33 3.06,3.81 17.46,-2.93 32.41,4.09 46.9,12.23 13.28,7.46 21.7,19.37 27.69,33.05 2.86,6.53 5.46,13.21 7.67,19.99 11.36,34.78 37.43,52.02 71.25,60.03 7.46,1.77 14.87,3.56 21.86,6.82 3.75,1.75 6.98,4.1 9.42,7.22 -0.22,1.02 -0.79,0.97 -1.18,0.71 -10.94,-7.33 -23.29,-10.93 -35.98,-13.75 -10.93,-2.43 -21.81,-5.12 -32.38,-11.1 0.14,3.29 2.05,4.56 3.53,5.89 11.88,10.71 24.35,20.69 37.33,30.04 2.76,1.99 5.68,3.85 8.08,6.22 9.88,9.77 21.26,4.95 32.27,3.52 2.2,-0.29 2.23,-2.35 1.86,-4.09 -2.02,-9.53 -5.13,-18.68 -9.78,-27.26 -0.77,-1.42 -1.8,-2.56 -3.64,-2.16 -4.12,0.9 -7.27,-1.19 -10.31,-3.38 -5.26,-3.79 -10.64,-7.31 -16.86,-9.38 -4.15,-1.38 -5.36,-4.31 -3.06,-7.93 2.04,-3.21 0.98,-5.29 -1.33,-7.51 C 594.58,112.13 580.05,99.64 560.33,94.63 547.5,91.37 540.9,80.4 534.34,69.99 c -2.09,-3.32 0.54,-5.45 2.98,-7.08 2.81,-1.89 6,-3.25 7.59,-6.55 0.2,-0.42 0.71,-0.86 1.15,-0.95 9.86,-2.02 18.47,-7.79 28.42,-9.51 5.56,-0.96 11.95,2.45 14.58,8.1 2.73,5.85 5.01,11.91 7.69,17.78 2.87,6.3 6.47,11.81 13.65,14.26 4.08,1.4 6.57,5.29 9.49,8.36 3.26,3.42 6.88,5.97 11.7,6.7 2.9,0.44 5.46,1.88 7.56,3.98 1.84,1.84 3.88,3.29 6.51,3.77 1.56,0.29 3.2,0.79 3,2.78 -0.27,2.76 1.92,3.37 3.56,4.38 11.73,7.24 23.85,13.78 36.18,19.92 6.44,3.2 11.47,7.84 15.57,13.61 6.4,9.01 12.76,18.05 19.14,27.08 1.97,2.79 3.7,5.7 4.84,8.94 3.24,9.21 1.1,16.41 -7,21.74 -15.97,10.52 -33.99,16.3 -52.16,21.41 -36.52,10.26 -73.59,18.06 -111.09,23.73 -9.06,1.37 -15.82,5.51 -20.61,13.31 -3.38,5.5 -7.1,10.8 -10.77,16.12 -1.54,2.24 -2.95,4.82 -5.06,6.36 -13.52,9.84 -19.02,25.93 -29.79,37.89 -2.59,2.87 -3.2,5.8 1.08,8.25 3.03,1.73 3.2,5.22 2.97,8.23 -0.45,5.82 2.32,9.7 6.71,12.87 1.24,0.9 2.45,1.83 3.71,2.7 5.28,3.64 10.19,7 12.73,13.83 2.22,5.99 7.4,10.89 11.27,16.27 2.89,4.01 5.63,8.1 7.15,12.87 0.62,1.97 1.47,4.19 0.42,5.96 -2.48,4.18 -0.37,7.11 2.16,9.97 4.05,4.58 7.99,9.31 12.41,13.52 13.22,12.58 20.92,27.61 23.01,45.91 2.49,21.81 8.81,42.92 13.16,64.39 1.45,7.16 2.3,14.36 5.9,20.95 1.85,3.4 1.82,7.32 -0.33,10.75 -1.34,2.13 -0.88,3.74 0.44,5.56 7.95,10.96 13.53,23.15 18.45,35.69 2.11,5.38 4.36,10.72 7.86,15.4 8.05,10.76 8.99,22.55 4.46,34.8 -1.73,4.68 -1.96,8.72 0.81,12.97 1.19,1.82 1.81,4.02 2.61,6.08 3.32,8.5 1.82,15.9 -4.81,22.36 -3.72,3.62 -8.27,6.48 -7.6,13.29 0.36,3.71 -4.04,6.07 -7.75,7.15 -3.33,0.96 -3.76,2.56 -2.53,5.57 2.77,6.82 5.78,13.37 12.3,17.57 0.95,0.61 1.8,1.68 2.24,2.73 4.07,9.6 11.65,15.7 20.38,20.68 0.85,0.49 1.83,0.98 2.01,2.53 -3.96,1.95 -7.15,1.38 -9.94,-2.38 -1.41,-1.91 -3.33,-5.7 -5.53,-3.88 -2.33,1.92 0.68,5.02 2.44,6.78 7.72,7.72 15.87,14.88 26.55,18.43 10.36,3.44 14.43,9.23 14.17,20.13 -0.16,6.55 -4.28,10.56 -9.61,13.41 -9.17,4.89 -19.2,6.71 -29.4,7.66 -10.43,0.97 -20.3,-0.26 -28.97,-7.05 -3.72,-2.92 -8.38,-3.53 -13.11,-3.23 -5.43,0.34 -10.87,0.68 -16.31,0.07 -7.23,-0.81 -10.71,-3.79 -12.14,-10.92 -2.81,-14 -7.24,-27.63 -9.51,-41.75 -0.73,-4.56 -0.99,-9.14 -0.57,-13.73 0.74,-8.07 4.65,-10.62 12.05,-7.84 2.18,0.82 2.85,0.33 2.57,-1.89 -0.44,-3.52 -0.48,-7.05 -2.51,-10.27 -2.37,-3.76 -3.32,-7.87 -0.76,-12.03 1.25,-2.02 0.48,-3.65 -0.92,-5.02 -1.45,-1.41 -3.06,-2.7 -4.74,-3.82 -8.03,-5.38 -8.89,-8.11 -4.33,-16.88 1.9,-3.64 2.23,-6.96 0.53,-10.67 -0.84,-1.84 -1.49,-3.84 -1.78,-5.83 -1.13,-7.91 -4.89,-14.43 -8.9,-21.3 -6.89,-11.8 -10.98,-24.86 -6.49,-38.87 0.82,-2.57 -0.39,-4.28 -1.44,-6.14 -8.76,-15.44 -18.95,-29.82 -31.3,-42.66 -12.15,-12.62 -24.02,-25.5 -36.12,-38.17 -13.15,-13.76 -33.57,-14.46 -47.85,-1.45 -8.04,7.33 -15.53,15.25 -23.43,22.74 -22.98,21.77 -47.5,41.78 -71.62,62.24 -14.67,12.44 -27.77,26.59 -42.74,38.67 -1.58,1.28 -2.54,2.7 -1.91,4.83 2.1,7.07 -0.85,12.59 -5.44,17.59 -2.18,2.38 -4.43,4.71 -6.58,7.12 -1.37,1.54 -2.36,3.27 -2.59,5.42 -1.65,15.77 -10.74,28.41 -17.89,41.82 -2.32,4.34 -7.35,5.88 -11.63,7.94 -2.78,1.33 -3.87,2.35 -1.56,5.58 6.17,8.6 3.41,14.93 -7.18,17.19 -3.06,0.66 -3.59,1.05 -2.12,4.49 3.78,8.87 6.7,18.12 9.73,27.29 1.07,3.25 -0.91,5.91 -2.92,8.3 -7.34,8.79 -15.49,16.74 -25.17,22.94 -3.64,2.33 -5.21,5.01 -4.24,9.29 0.94,4.17 -0.91,7.61 -3.34,10.83 -9.81,12.98 -23.3,15.57 -38.32,13.35 -6.58,-0.97 -12.94,-2.96 -18.64,-6.58 -5.71,-3.62 -7.38,-7.66 -6.29,-14.29 1.3,-7.9 4.49,-15.03 9.43,-21.22 7.02,-8.81 13.23,-18.31 18.55,-28.02 3.68,-6.71 5.24,-14.56 10.8,-20.56 1.22,-1.31 0.47,-4.6 0.36,-6.96 -0.19,-4.04 1.03,-6.59 5.61,-6.63 5.34,-0.05 8.23,-3.47 10.23,-7.93 0.48,-1.08 1.14,-2.25 0.11,-3.3 -0.82,-0.83 -1.92,-0.43 -2.88,-0.15 -1.81,0.53 -3.76,1.38 -5.19,-0.44 -1.54,-1.97 -0.3,-3.89 0.73,-5.66 2.19,-3.75 3.03,-7.91 3.77,-12.1 0.33,-1.85 0.43,-4.26 2.13,-4.98 3.91,-1.65 2.45,-3.56 0.76,-5.65 -4.83,-6.02 -5.42,-12.74 -2.93,-19.74 3.93,-11.05 5.72,-22.77 10.47,-33.55 1.37,-3.11 0.61,-5.92 -0.44,-8.87 -3.49,-9.89 -0.47,-21.4 8.01,-27.3 5.62,-3.91 9.05,-8.99 11.69,-14.99 14.84,-33.74 33.36,-65.4 54.2,-95.74 4.71,-6.86 9.57,-13.66 14.79,-20.14 6.08,-7.54 12.38,-14.81 16.47,-23.78 3.25,-7.11 9.1,-10.52 17.19,-10.47 7.15,0.05 9.48,-3.92 6.95,-10.77 -3.39,-9.17 1.24,-15.11 11.08,-13.94 4.92,0.58 8.5,-0.22 10.55,-5.49 1.13,-2.9 3.67,-5.27 5.64,-7.82 1.73,-2.25 1.77,-3.63 -1.3,-4.88 -8,-3.28 -8.82,-4.55 -5.77,-12.61 4.91,-12.98 6.92,-26.26 5.8,-40.02 -0.68,-8.34 3.4,-15.89 3.61,-24.12 0.15,-5.6 0.04,-11.1 -1.4,-16.54 z M 365.01,66.51 c -3.4,-1.17 -6.13,0.62 -8.68,3.16 -8.2,8.14 -16.37,16.32 -24.71,24.31 -2.57,2.46 -0.97,3.85 0.75,5.33 7.99,6.87 15.91,13.83 24.07,20.49 9.91,8.08 9.88,7.88 17.18,-2.47 8.75,-12.4 13.22,-26.75 18.99,-40.52 5.2,-12.41 12.29,-23.44 22.77,-32.13 1.96,-1.62 6.16,-3.18 4.94,-5.43 -1.3,-2.41 -5.57,-1.29 -8.55,-0.96 -1.47,0.16 -2.94,0.86 -4.3,1.53 -3.72,1.85 -7.75,2.96 -11.78,3.02 -7.99,0.1 -11.9,6.57 -17.48,10.41 -0.52,0.36 -0.62,1.51 -0.7,2.32 -0.77,7.82 -4.61,11.33 -12.51,10.95 z m 199.75,81.59 c -0.23,0.33 -0.47,0.67 -0.7,1 0.52,0.64 0.97,1.35 1.56,1.9 12.67,11.75 26.37,22.35 38.42,34.8 2.24,2.31 5.23,3.1 8.4,2.94 1.56,-0.08 3.8,0.95 4.42,-1.18 0.45,-1.56 -1.44,-2.55 -2.62,-3.42 -8.17,-6.05 -15.98,-12.56 -23.93,-18.89 -8,-6.37 -16.99,-11.49 -25.55,-17.15 z m -17.11,0.4 c -1.08,1.69 0.13,3.01 0.77,4.25 6.82,13.24 16.46,24 28.84,32.27 1.37,0.91 3.07,1.4 4.68,1.86 1.6,0.45 3.77,1.17 4.69,-0.47 1.09,-1.93 -1.19,-2.91 -2.42,-3.81 -12.24,-9.01 -22.76,-19.8 -32.67,-31.24 -1.03,-1.19 -1.79,-2.97 -3.89,-2.86 z M 325.54,343.95 c 0.54,-0.02 1.07,-0.05 1.61,-0.07 0.32,-5.27 0.64,-10.53 0.96,-15.8 -0.45,-0.02 -0.91,-0.03 -1.36,-0.05 -2.39,5.2 -3.22,10.49 -1.22,15.92 z M 570.82,185.74 c -2.01,-4.22 -5.83,-6.59 -9.34,-9.29 2.06,4.16 4.45,7.99 9.34,9.29 z"
       id="path1" />
  </g>
</svg>
