<?xml version="1.0" encoding="UTF-8" standalone="no"?>
<svg
   id="Layer_1"
   data-name="Layer 1"
   viewBox="0 0 614.6333 883.72705"
   version="1.1"
   width="614.6333"
   height="883.72705"
   sodipodi:docname="hh10simple.svg"
   inkscape:version="1.3.2 (091e20e, 2023-11-25, custom)"
   xmlns:inkscape="http://www.inkscape.org/namespaces/inkscape"
   xmlns:sodipodi="http://sodipodi.sourceforge.net/DTD/sodipodi-0.dtd"
   xmlns="http://www.w3.org/2000/svg"
   xmlns:svg="http://www.w3.org/2000/svg">
  <sodipodi:namedview
     id="namedview1"
     pagecolor="#ffffff"
     bordercolor="#000000"
     borderopacity="0.25"
     inkscape:showpageshadow="2"
     inkscape:pageopacity="0.0"
     inkscape:pagecheckerboard="0"
     inkscape:deskcolor="#d1d1d1"
     showgrid="false"
     inkscape:zoom="1.2402019"
     inkscape:cx="307.20803"
     inkscape:cy="441.86353"
     inkscape:window-width="2560"
     inkscape:window-height="1334"
     inkscape:window-x="-11"
     inkscape:window-y="1069"
     inkscape:window-maximized="1"
     inkscape:current-layer="Layer_1" />
  <defs
     id="defs1" />
  <g
     id="layer2"
     transform="translate(-125.0924,9.9231146)">
    <path
       d="m 353.94,328.04 c 4.52843,24.01573 -18.16298,39.58322 -21.43,8.96 -0.86099,-4.59054 -7.7726,28.01431 -14.54,0.045 -6.34632,-22.02319 21.10826,-52.03233 21.75312,-61.80734 -11.17251,9.8496 -31.77101,50.46836 -16.115,15.53593 0.80457,-18.68146 -29.98866,60.82154 -17.98812,18.03766 6.94515,-14.78912 39.26238,-66.50444 9.31527,-29.20066 -13.43653,15.15352 -30.42934,38.82745 -12.03371,8.69207 15.27039,-27.21952 29.91957,-52.96948 53.72719,-74.37766 12.20398,-27.8556 -36.79987,38.87996 -52.69428,47.00082 -23.54374,14.87134 30.55296,-26.22682 27.86553,-43.75051 20.09157,-27.5881 -67.63096,-8.91598 -23.46688,-19.28359 20.4817,8.86846 51.4154,-2.31153 23.63532,-23.82047 C 314.99115,145.50356 267.66863,109.91501 286.77801,75.744434 313.27051,54.91251 345.32604,42.859619 373.97422,26.068594 393.17981,11.909633 443.81036,-18.070179 452.23,22.69 478.28583,26.596341 523.64393,39.873917 531.97422,76.704844 540.3729,114.45419 570.00606,145.51527 608.8,151.8 c 18.63628,0.86259 46.37672,24.52099 12.76625,6.18375 -18.78964,-2.75504 -73.80374,-28.02528 -33.88656,1.3523 12.77043,14.01299 62.87631,50.52211 64.2039,16.87067 -2.57687,-32.18161 -47.36983,-25.74597 -48.55404,-55.55914 -13.23683,-22.702985 -84.07049,-28.911225 -61.75705,-60.48383 24.58241,-25.306706 54.14179,-11.625709 60.38625,20.19 24.63945,17.537522 47.19568,32.79154 72.66809,48.48418 28.99483,11.66818 80.46236,66.0426 33.99097,85.52691 -49.85212,21.61539 -104.2774,29.54572 -157.28672,39.63594 -21.44647,21.77523 -54.13111,52.75689 -58.78109,80.36922 5.49344,28.10271 45.60034,43.95126 43.89547,75.64906 27.81293,29.04677 43.64567,65.60632 46.38555,106.81317 8.36933,35.11059 10.72164,66.11953 29.87898,97.00777 20.08661,26.03868 12.64722,57.84049 14.94547,86.58625 -18.18888,20.07086 -28.95915,37.06179 -3.68172,57.91469 13.1227,8.788 26.09628,26.15064 4.84016,9.9389 -3.05717,20.55079 67.66305,31.99093 31.95609,59.18016 -32.28094,16.96368 -68.75387,-1.23206 -98.44656,-8.86969 -8.78666,-26.44049 -18.6073,-65.11454 2.39781,-75.05781 1.03744,-22.2996 -21.2462,-30.64204 -12.07125,-53.4425 -20.34289,-30.21833 -10.51234,-66.99652 -32.91375,-94.445 -27.33213,-24.13295 -51.50148,-83.18092 -95.34963,-64.21236 -46.60486,45.21637 -98.10165,85.27897 -145.19037,129.98361 -8.06081,26.22321 -20.65597,55.75845 -37.70625,79.50875 -15.10055,5.3502 -0.63948,25.30644 -17.41,30.375 26.14559,30.10049 -9.46339,47.45852 -22.6,67.82 -0.82875,34.35404 -74.34349,33.75267 -65.26281,-2.46797 15.33336,-24.6631 32.36317,-54.61483 43.42281,-77.61203 25.34526,-10.82636 -10.23696,-10.7639 6.77,-29.58 -0.35417,-20.81414 4.42891,-48.70733 9.99,-72.79 7.77849,-36.86689 38.09908,-72.08994 55.08369,-109.17634 24.00931,-28.38079 37.65124,-75.31645 74.37131,-86.04116 -16.0765,-26.28376 47.74663,-23.52993 18.78625,-44.615 7.37848,-28.55925 10.3401,-59.3703 9.29875,-88.7975 z M 365.01,66.51 c -18.75707,8.444695 -53.08112,35.16884 -14.64984,48.24484 35.04594,29.15172 34.71461,-47.095508 57.77203,-63.13359 34.24079,-27.137556 -38.58076,-6.336194 -37.95297,14.447813 L 365,66.52 Z m 199.75,81.59 c 9.0942,9.40778 44.65699,49.69595 49.48,36.04 -16.17237,-12.5003 -31.69392,-25.78886 -49.48,-36.04 z m -17.11,0.4 c -2.91196,22.41849 62.72476,55.50958 23.45709,23.2724 C 562.35763,165.1481 556.50576,154.41687 547.65,148.5 Z M 325.54,343.95 c 8.1157,-14.55335 -3.82598,-22.40935 -0.01,0 z M 570.82,185.74 c -8.76768,-14.15471 -11.82951,-5.24982 0,0 z"
       id="path1" />
  </g>
</svg>
