<?xml version="1.0" encoding="UTF-8"?>
<svg id="Layer_1" data-name="Layer 1" xmlns="http://www.w3.org/2000/svg" viewBox="0 0 864 864">
  <path d="M353.94,328.04c-3.44,8.47-2.14,17.48-3.81,26.65-2.55-1.47-4.95-3.12-7.05,.47-1,1.7-2.34-.07-3.25-.96-4.83-4.71-7.96-10.14-7.32-17.2,.1-1.11,.53-2.37-1.01-3.68-2.17,3.88-2.43,8.01-2.85,12.11-.15,1.46,.17,3.36-1.72,3.85-1.55,.4-2.35-1.15-3.22-2.12-5.52-6.25-7.74-13.48-6.14-21.73,3.24-16.74,12.02-30.93,20.84-45.09,1.33-2.14,2.78-4.21,4.42-6.69-4.14,1.31-8.03,5.56-14.79,16.2-3.89,6.12-7.54,12.4-11.66,18.43,2.35-8.09,6.29-15.48,10.06-23.32-6.47,3.56-15.7,19.29-23.4,39.98,.15-11.87,3.6-21.23,9.39-29.73,5.95-8.75,10.51-18.27,15.71-27.43,.63-1.11,1.49-2.3,.47-5.03-10.87,16.37-26.68,27.68-35.33,44.91,1.1-5.79,3.78-10.83,7.01-15.58,3.45-5.06,7.05-10.01,10.54-15.04,3.61-5.21,6.63-10.65,7.54-17.1,.67-4.7,3.17-8.51,6.46-11.9,8.88-9.15,17.73-18.34,26.49-27.6,3.87-4.09,7.08-8.7,9.62-13.75,.81-1.61,1.77-3.2,1.63-5.72-22.66,23.07-41.88,48.73-68.19,67.2,.14-2.5,2.01-3.63,3.5-4.95,6.74-6.01,12.9-12.58,19.16-19.07,9.95-10.32,13.48-23.8,18.19-36.7,.53-1.45,.27-2.85-1.63-2.97-11.65-.74-22.97-5.28-34.87-3.06-2.14,.4-4.29,.81-6.49,.9,6.77-4.01,14.08-5.12,21.81-4.04,6.39,.9,12.76,1.99,19.18,2.63,3.64,.36,7.08-.49,9.2-4.13,2.28-3.91,2.4-7.14-.79-11.01-12.88-15.61-25.98-31.05-37.4-47.8-7.76-11.39-15.26-22.94-20.86-35.6-7.22-16.31-6.29-20.01,8.21-30.17,22.79-15.97,47.52-28.46,72.75-40.01,4.79-2.19,9.56-4.05,11.68-9.73,1.25-3.33,4.9-4.11,8.23-4.06,4.47,.08,8.23-1.59,11.95-3.79,8.21-4.84,16.84-8.86,25.36-13.13,7.1-3.55,12.84,.13,18.48,3.15,3.46,1.86,6.08,5.25,9.21,7.79,3.42,2.79,4.98,6.02,2.98,10.27-1.65,3.51-.05,4.33,3.06,3.81,17.46-2.93,32.41,4.09,46.9,12.23,13.28,7.46,21.7,19.37,27.69,33.05,2.86,6.53,5.46,13.21,7.67,19.99,11.36,34.78,37.43,52.02,71.25,60.03,7.46,1.77,14.87,3.56,21.86,6.82,3.75,1.75,6.98,4.1,9.42,7.22-.22,1.02-.79,.97-1.18,.71-10.94-7.33-23.29-10.93-35.98-13.75-10.93-2.43-21.81-5.12-32.38-11.1,.14,3.29,2.05,4.56,3.53,5.89,11.88,10.71,24.35,20.69,37.33,30.04,2.76,1.99,5.68,3.85,8.08,6.22,9.88,9.77,21.26,4.95,32.27,3.52,2.2-.29,2.23-2.35,1.86-4.09-2.02-9.53-5.13-18.68-9.78-27.26-.77-1.42-1.8-2.56-3.64-2.16-4.12,.9-7.27-1.19-10.31-3.38-5.26-3.79-10.64-7.31-16.86-9.38-4.15-1.38-5.36-4.31-3.06-7.93,2.04-3.21,.98-5.29-1.33-7.51-14.05-13.53-28.58-26.02-48.3-31.03-12.83-3.26-19.43-14.23-25.99-24.64-2.09-3.32,.54-5.45,2.98-7.08,2.81-1.89,6-3.25,7.59-6.55,.2-.42,.71-.86,1.15-.95,9.86-2.02,18.47-7.79,28.42-9.51,5.56-.96,11.95,2.45,14.58,8.1,2.73,5.85,5.01,11.91,7.69,17.78,2.87,6.3,6.47,11.81,13.65,14.26,4.08,1.4,6.57,5.29,9.49,8.36,3.26,3.42,6.88,5.97,11.7,6.7,2.9,.44,5.46,1.88,7.56,3.98,1.84,1.84,3.88,3.29,6.51,3.77,1.56,.29,3.2,.79,3,2.78-.27,2.76,1.92,3.37,3.56,4.38,11.73,7.24,23.85,13.78,36.18,19.92,6.44,3.2,11.47,7.84,15.57,13.61,6.4,9.01,12.76,18.05,19.14,27.08,1.97,2.79,3.7,5.7,4.84,8.94,3.24,9.21,1.1,16.41-7,21.74-15.97,10.52-33.99,16.3-52.16,21.41-36.52,10.26-73.59,18.06-111.09,23.73-9.06,1.37-15.82,5.51-20.61,13.31-3.38,5.5-7.1,10.8-10.77,16.12-1.54,2.24-2.95,4.82-5.06,6.36-13.52,9.84-19.02,25.93-29.79,37.89-2.59,2.87-3.2,5.8,1.08,8.25,3.03,1.73,3.2,5.22,2.97,8.23-.45,5.82,2.32,9.7,6.71,12.87,1.24,.9,2.45,1.83,3.71,2.7,5.28,3.64,10.19,7,12.73,13.83,2.22,5.99,7.4,10.89,11.27,16.27,2.89,4.01,5.63,8.1,7.15,12.87,.62,1.97,1.47,4.19,.42,5.96-2.48,4.18-.37,7.11,2.16,9.97,4.05,4.58,7.99,9.31,12.41,13.52,13.22,12.58,20.92,27.61,23.01,45.91,2.49,21.81,8.81,42.92,13.16,64.39,1.45,7.16,2.3,14.36,5.9,20.95,1.85,3.4,1.82,7.32-.33,10.75-1.34,2.13-.88,3.74,.44,5.56,7.95,10.96,13.53,23.15,18.45,35.69,2.11,5.38,4.36,10.72,7.86,15.4,8.05,10.76,8.99,22.55,4.46,34.8-1.73,4.68-1.96,8.72,.81,12.97,1.19,1.82,1.81,4.02,2.61,6.08,3.32,8.5,1.82,15.9-4.81,22.36-3.72,3.62-8.27,6.48-7.6,13.29,.36,3.71-4.04,6.07-7.75,7.15-3.33,.96-3.76,2.56-2.53,5.57,2.77,6.82,5.78,13.37,12.3,17.57,.95,.61,1.8,1.68,2.24,2.73,4.07,9.6,11.65,15.7,20.38,20.68,.85,.49,1.83,.98,2.01,2.53-3.96,1.95-7.15,1.38-9.94-2.38-1.41-1.91-3.33-5.7-5.53-3.88-2.33,1.92,.68,5.02,2.44,6.78,7.72,7.72,15.87,14.88,26.55,18.43,10.36,3.44,14.43,9.23,14.17,20.13-.16,6.55-4.28,10.56-9.61,13.41-9.17,4.89-19.2,6.71-29.4,7.66-10.43,.97-20.3-.26-28.97-7.05-3.72-2.92-8.38-3.53-13.11-3.23-5.43,.34-10.87,.68-16.31,.07-7.23-.81-10.71-3.79-12.14-10.92-2.81-14-7.24-27.63-9.51-41.75-.73-4.56-.99-9.14-.57-13.73,.74-8.07,4.65-10.62,12.05-7.84,2.18,.82,2.85,.33,2.57-1.89-.44-3.52-.48-7.05-2.51-10.27-2.37-3.76-3.32-7.87-.76-12.03,1.25-2.02,.48-3.65-.92-5.02-1.45-1.41-3.06-2.7-4.74-3.82-8.03-5.38-8.89-8.11-4.33-16.88,1.9-3.64,2.23-6.96,.53-10.67-.84-1.84-1.49-3.84-1.78-5.83-1.13-7.91-4.89-14.43-8.9-21.3-6.89-11.8-10.98-24.86-6.49-38.87,.82-2.57-.39-4.28-1.44-6.14-8.76-15.44-18.95-29.82-31.3-42.66-12.15-12.62-24.02-25.5-36.12-38.17-13.15-13.76-33.57-14.46-47.85-1.45-8.04,7.33-15.53,15.25-23.43,22.74-22.98,21.77-47.5,41.78-71.62,62.24-14.67,12.44-27.77,26.59-42.74,38.67-1.58,1.28-2.54,2.7-1.91,4.83,2.1,7.07-.85,12.59-5.44,17.59-2.18,2.38-4.43,4.71-6.58,7.12-1.37,1.54-2.36,3.27-2.59,5.42-1.65,15.77-10.74,28.41-17.89,41.82-2.32,4.34-7.35,5.88-11.63,7.94-2.78,1.33-3.87,2.35-1.56,5.58,6.17,8.6,3.41,14.93-7.18,17.19-3.06,.66-3.59,1.05-2.12,4.49,3.78,8.87,6.7,18.12,9.73,27.29,1.07,3.25-.91,5.91-2.92,8.3-7.34,8.79-15.49,16.74-25.17,22.94-3.64,2.33-5.21,5.01-4.24,9.29,.94,4.17-.91,7.61-3.34,10.83-9.81,12.98-23.3,15.57-38.32,13.35-6.58-.97-12.94-2.96-18.64-6.58-5.71-3.62-7.38-7.66-6.29-14.29,1.3-7.9,4.49-15.03,9.43-21.22,7.02-8.81,13.23-18.31,18.55-28.02,3.68-6.71,5.24-14.56,10.8-20.56,1.22-1.31,.47-4.6,.36-6.96-.19-4.04,1.03-6.59,5.61-6.63,5.34-.05,8.23-3.47,10.23-7.93,.48-1.08,1.14-2.25,.11-3.3-.82-.83-1.92-.43-2.88-.15-1.81,.53-3.76,1.38-5.19-.44-1.54-1.97-.3-3.89,.73-5.66,2.19-3.75,3.03-7.91,3.77-12.1,.33-1.85,.43-4.26,2.13-4.98,3.91-1.65,2.45-3.56,.76-5.65-4.83-6.02-5.42-12.74-2.93-19.74,3.93-11.05,5.72-22.77,10.47-33.55,1.37-3.11,.61-5.92-.44-8.87-3.49-9.89-.47-21.4,8.01-27.3,5.62-3.91,9.05-8.99,11.69-14.99,14.84-33.74,33.36-65.4,54.2-95.74,4.71-6.86,9.57-13.66,14.79-20.14,6.08-7.54,12.38-14.81,16.47-23.78,3.25-7.11,9.1-10.52,17.19-10.47,7.15,.05,9.48-3.92,6.95-10.77-3.39-9.17,1.24-15.11,11.08-13.94,4.92,.58,8.5-.22,10.55-5.49,1.13-2.9,3.67-5.27,5.64-7.82,1.73-2.25,1.77-3.63-1.3-4.88-8-3.28-8.82-4.55-5.77-12.61,4.91-12.98,6.92-26.26,5.8-40.02-.68-8.34,3.4-15.89,3.61-24.12,.15-5.6,.04-11.1-1.4-16.54Zm11.07-261.53c-3.4-1.17-6.13,.62-8.68,3.16-8.2,8.14-16.37,16.32-24.71,24.31-2.57,2.46-.97,3.85,.75,5.33,7.99,6.87,15.91,13.83,24.07,20.49,9.91,8.08,9.88,7.88,17.18-2.47,8.75-12.4,13.22-26.75,18.99-40.52,5.2-12.41,12.29-23.44,22.77-32.13,1.96-1.62,6.16-3.18,4.94-5.43-1.3-2.41-5.57-1.29-8.55-.96-1.47,.16-2.94,.86-4.3,1.53-3.72,1.85-7.75,2.96-11.78,3.02-7.99,.1-11.9,6.57-17.48,10.41-.52,.36-.62,1.51-.7,2.32-.77,7.82-4.61,11.33-12.51,10.95Zm199.75,81.59c-.23,.33-.47,.67-.7,1,.52,.64,.97,1.35,1.56,1.9,12.67,11.75,26.37,22.35,38.42,34.8,2.24,2.31,5.23,3.1,8.4,2.94,1.56-.08,3.8,.95,4.42-1.18,.45-1.56-1.44-2.55-2.62-3.42-8.17-6.05-15.98-12.56-23.93-18.89-8-6.37-16.99-11.49-25.55-17.15Zm-17.11,.4c-1.08,1.69,.13,3.01,.77,4.25,6.82,13.24,16.46,24,28.84,32.27,1.37,.91,3.07,1.4,4.68,1.86,1.6,.45,3.77,1.17,4.69-.47,1.09-1.93-1.19-2.91-2.42-3.81-12.24-9.01-22.76-19.8-32.67-31.24-1.03-1.19-1.79-2.97-3.89-2.86Zm-222.11,195.45c.54-.02,1.07-.05,1.61-.07,.32-5.27,.64-10.53,.96-15.8-.45-.02-.91-.03-1.36-.05-2.39,5.2-3.22,10.49-1.22,15.92Zm245.28-158.21c-2.01-4.22-5.83-6.59-9.34-9.29,2.06,4.16,4.45,7.99,9.34,9.29Z"/>
</svg>