<?xml version="1.0" encoding="UTF-8" standalone="no"?>
<svg id="Layer_1" data-name="Layer 1" xmlns="http://www.w3.org/2000/svg" viewBox="0 0 864 864">
  <g id="layer1">
    <path
       id="path3"
       d="M 535.91406,398.56055 H 349.11328 c -0.87991,3.41442 -1.9378,6.80888 -3.21289,10.17968 -3.05,8.06 -2.23046,9.32938 5.76953,12.60938 3.07,1.25 3.03078,2.63086 1.30078,4.88086 -1.96999,2.55 -4.51062,4.92031 -5.64062,7.82031 -2.05,5.27 -5.63079,6.06828 -10.55078,5.48828 -9.83999,-1.17 -14.47008,4.77142 -11.08008,13.94141 2.53,6.84999 0.20077,10.81953 -6.94922,10.76953 -8.08999,-0.05 -13.93946,3.36071 -17.18945,10.4707 -4.09,8.96999 -10.39071,16.23931 -16.47071,23.7793 -5.21999,6.47999 -10.07906,13.28063 -14.78906,20.14062 -20.83998,30.33997 -39.36119,62.00027 -54.20117,95.74024 -2.64,5.99999 -6.06946,11.07828 -11.68945,14.98828 -8.48,5.89999 -11.49977,17.41079 -8.00977,27.30078 1.05,2.95 1.80945,5.75915 0.43945,8.86914 -4.74999,10.77999 -6.5407,22.50079 -10.4707,33.55078 -2.49,7 -1.89835,13.72024 2.93164,19.74024 1.69,2.09 3.14828,4.00039 -0.76172,5.65039 -1.7,0.72 -1.7989,3.13047 -2.1289,4.98047 -0.74,4.18999 -1.57954,8.34961 -3.76954,12.09961 -1.02999,1.77 -2.27046,3.69016 -0.73046,5.66015 1.42999,1.82 3.37945,0.96946 5.18945,0.43946 0.96,-0.28 2.06086,-0.67961 2.88086,0.15039 1.03,1.05 0.36867,2.21883 -0.11133,3.29883 -2,4.45999 -4.88852,7.87968 -10.22852,7.92968 -4.57999,0.04 -5.80132,2.59087 -5.61132,6.63086 0.11,2.36 0.86062,5.65094 -0.35938,6.96094 -5.55999,5.99999 -7.12078,13.8486 -10.80078,20.55859 -5.31999,9.70999 -11.52883,19.2115 -18.54883,28.02149 -4.93999,6.18999 -8.12969,13.31876 -9.42969,21.21875 -1.08999,6.62999 0.57907,10.67102 6.28907,14.29101 5.69999,3.62 12.06063,5.61008 18.64062,6.58008 15.01999,2.22 28.51032,-0.37157 38.32031,-13.35156 2.43,-3.22 4.27985,-6.66008 3.33985,-10.83008 -0.97,-4.28 0.60024,-6.95906 4.24023,-9.28906 9.67999,-6.2 17.82993,-14.14946 25.16992,-22.93946 2.01,-2.38999 3.98993,-5.05078 2.91993,-8.30078 -3.03,-9.16999 -5.95048,-18.41907 -9.73047,-27.28906 -1.47,-3.44 -0.94086,-3.83023 2.11914,-4.49023 10.58999,-2.26 13.35163,-8.59142 7.18164,-17.19141 -2.31,-3.23 -1.2214,-4.25008 1.55859,-5.58008 4.28,-2.06 9.31086,-3.59945 11.63086,-7.93945 7.15,-13.40999 16.24063,-26.05033 17.89063,-41.82031 0.23,-2.15 1.21984,-3.87993 2.58984,-5.41992 2.15,-2.41 4.40008,-4.73915 6.58008,-7.11915 4.58999,-4.99999 7.53945,-10.51985 5.43945,-17.58984 -0.63,-2.13 0.33016,-3.55008 1.91016,-4.83008 14.96998,-12.07999 28.07025,-26.22993 42.74023,-38.66992 24.11998,-20.45998 48.63917,-40.47026 71.61914,-62.24023 7.9,-7.49 15.3897,-15.41025 23.42969,-22.74024 14.27999,-13.00999 34.69962,-12.31077 47.84961,1.44922 12.09999,12.66999 23.97111,25.54994 36.12109,38.16992 12.34999,12.83999 22.53884,27.22017 31.29883,42.66016 1.05,1.86 2.26141,3.57063 1.44141,6.14062 -4.49,14.00999 -0.39976,27.07111 6.49023,38.8711 4.01,6.86999 7.76844,13.38883 8.89844,21.29883 0.29,1.98999 0.94125,3.99008 1.78125,5.83007 1.7,3.71 1.36875,7.02993 -0.53125,10.66993 -4.55999,8.76999 -3.69991,11.50086 4.33008,16.88085 1.68,1.12 3.29023,2.41032 4.74023,3.82032 1.4,1.37 2.16992,2.99953 0.91993,5.01953 -2.56,4.15999 -1.61024,8.2693 0.75976,12.0293 2.03,3.21999 2.07172,6.74953 2.51172,10.26953 0.28,2.21999 -0.39032,2.71062 -2.57031,1.89062 -7.4,-2.78 -11.31079,-0.23015 -12.05078,7.83985 -0.42,4.58999 -0.15969,9.17047 0.57031,13.73046 2.27,14.11999 6.69977,27.75002 9.50976,41.75 1.43,7.13 4.91064,10.10993 12.14063,10.91993 5.43999,0.61 10.8786,0.26968 16.30859,-0.0703 4.73,-0.3 9.39133,0.31048 13.11133,3.23047 8.66999,6.79 18.53876,8.01883 28.96875,7.04883 10.19999,-0.95 20.2304,-2.76821 29.40039,-7.6582 5.33,-2.85 9.45133,-6.86017 9.61133,-13.41016 0.26,-10.89999 -3.80993,-16.69086 -14.16992,-20.13086 -10.67999,-3.54999 -18.83079,-10.70969 -26.55078,-18.42969 -1.76,-1.75999 -4.76945,-4.85929 -2.43946,-6.77929 2.2,-1.82 4.1193,1.96891 5.5293,3.8789 2.79,3.76 5.97946,4.33086 9.93945,2.38086 -0.18,-1.55 -1.15976,-2.04125 -2.00976,-2.53125 -8.72999,-4.97999 -16.30891,-11.07969 -20.37891,-20.67968 -0.44,-1.05 -1.29023,-2.12047 -2.24023,-2.73047 -6.52,-4.2 -9.53079,-10.74837 -12.30078,-17.56836 -1.23,-3.01 -0.8007,-4.61032 2.52929,-5.57032 3.71,-1.07999 8.11,-3.44039 7.75,-7.15039 -0.67,-6.80999 3.88157,-9.67101 7.60156,-13.29101 6.63,-6.45999 8.1286,-13.85938 4.8086,-22.35938 -0.8,-2.05999 -1.41938,-4.26008 -2.60938,-6.08007 -2.76999,-4.25 -2.54054,-8.29071 -0.81054,-12.97071 4.52999,-12.24999 3.591,-24.03884 -4.45899,-34.79883 -3.49999,-4.67999 -5.74937,-10.02039 -7.85937,-15.40039 -4.92,-12.53998 -10.50118,-24.72946 -18.45117,-35.68945 -1.32,-1.82 -1.77946,-3.43055 -0.43946,-5.56055 2.15,-3.42999 2.18008,-7.35 0.33008,-10.75 -3.6,-6.58999 -4.45039,-13.78922 -5.90039,-20.94922 -4.35,-21.46997 -10.67016,-42.58064 -13.16016,-64.39062 -2.08999,-18.29998 -9.78978,-33.33017 -23.00976,-45.91016 -4.42,-4.20999 -8.36016,-8.93953 -12.41016,-13.51953 -2.53,-2.85999 -4.64015,-5.7907 -2.16015,-9.9707 1.04999,-1.77 0.20007,-3.98899 -0.41993,-5.95899 -0.2918,-0.91571 -0.80163,-1.71024 -1.17578,-2.58007 z"
       style="display:inline" />
  </g>
</svg>
