<?xml version="1.0" encoding="UTF-8" standalone="no"?>
<svg
   id="Layer_1"
   data-name="Layer 1"
   viewBox="0 0 706.13916 939.70007"
   version="1.1"
   width="706.13916"
   height="939.70007"
   xmlns="http://www.w3.org/2000/svg"
   xmlns:svg="http://www.w3.org/2000/svg">
  <defs
     id="defs1" />
  <g
     id="g2"
     transform="translate(-125.0924,26.217947)">
    <path
       id="path2"
       style="display:inline;fill:#ff0000"
       d="m 490.56819,-26.206137 c -9.49423,0.106331 -18.65692,3.413758 -26.92578,7.890625 -6.9112,3.431169 -13.797,6.918344 -20.54101,10.6699223 -12.89629,1.024127 -25.36517,7.67789397 -32.99805,18.1874997 -25.80906,11.912828 -51.24374,24.927527 -74.63452,41.167464 -5.55868,3.92094 -11.19756,7.8285 -15.91317,12.773668 -6.7655,6.91062 -11.62104,15.725577 -13.54061,25.224139 -1.98856,9.371802 -0.9552,19.203649 2.08129,28.234949 1.19542,3.69924 2.7692,7.25737 4.30471,10.77168 7.51798,17.08569 17.7656,32.79174 28.51204,47.99278 0.43503,0.61602 0.89734,1.24449 1.31721,1.85094 -6.78283,3.25563 -13.17604,7.80674 -17.37115,14.15869 -6.86662,10.1813 -8.58071,23.79854 -3.90019,35.22033 3.01579,7.69115 8.69376,14.26199 15.74791,18.53309 -3.17696,2.84954 -6.2904,5.83545 -8.64823,9.42101 -6.19414,8.99757 -9.03419,20.49311 -6.7867,31.27072 0.71297,3.41671 1.90261,6.73565 3.52477,9.82585 -3.38808,7.69001 -5.68181,16.06819 -5.24291,24.53224 0.63855,8.75124 4.47969,17.2027 10.5476,23.52635 2.47269,10.89373 10.05798,20.53289 20.13086,25.39258 4.06923,8.11066 9.71082,15.59449 17.09375,20.96094 3.06891,2.12735 6.43423,3.82152 9.96093,5.04687 -0.81874,5.05434 -2.60426,9.87099 -4.3199,14.67176 -1.10225,3.34182 -1.88942,6.79045 -2.30705,10.28528 -8.76316,5.89246 -15.38119,14.96534 -18.13476,25.17578 -9.61136,5.8885 -17.34181,14.73783 -22.0177,24.98256 -1.91741,3.33753 -4.25602,6.47042 -6.59949,9.42955 -2.37793,2.97938 -4.99202,6.08513 -7.3864,9.19285 -6.11624,8.15415 -12.07363,16.43037 -17.73492,24.9086 -7.69509,11.49791 -15.05398,23.21882 -22.14604,35.0981 -11.60775,19.66029 -22.10455,39.97742 -31.40647,60.82779 -5.65639,4.15376 -10.50422,9.39022 -14.32208,15.27281 -7.42193,11.42935 -10.93651,25.36795 -9.64701,38.94803 0.19038,2.28509 0.5095,4.56015 0.96128,6.80846 -2.95225,8.69626 -4.98687,17.66694 -7.73633,26.42578 -0.55326,1.71409 -1.19931,3.61451 -1.64222,5.44448 -1.50185,6.20932 -1.89003,12.66623 -1.43112,19.02811 0.29351,3.52278 0.90401,7.01837 1.80771,10.43561 -0.20572,1.40159 -0.34722,2.89026 -1.22059,4.06206 -2.19763,4.29039 -3.64996,8.96026 -4.28136,13.73872 -4.28175,6.17125 -6.84564,13.4967 -7.48633,20.97266 -3.92957,6.9964 -6.26709,14.8091 -10.74274,21.51184 -4.16058,6.91826 -9.13723,13.29001 -13.92018,19.77759 -7.42479,10.52833 -12.41357,22.80787 -14.23356,35.5719 -0.99402,7.19998 -0.97708,14.6431 1.00528,21.68141 2.86587,10.61826 9.37557,20.23514 18.2763,26.71781 9.87358,7.55567 21.78903,12.02847 33.90689,14.42317 15.63287,2.97648 32.19011,2.03439 47.05456,-3.85309 15.07719,-6.01728 28.22518,-17.1975 35.85003,-31.60674 1.9268,-3.66834 3.46167,-7.54977 4.48311,-11.56764 10.21409,-8.31685 19.41147,-17.92609 27.03522,-28.67575 7.65653,-12.03705 9.06993,-27.76677 3.74247,-40.99417 -0.20851,-0.77765 -0.64422,-1.5814 -0.71132,-2.34281 3.42339,-5.65442 5.60055,-12.07218 6.24027,-18.65524 4.94158,-5.95861 8.17309,-13.04067 12.08056,-19.6542 5.91166,-10.47608 11.23249,-21.46088 13.86696,-33.26434 0.071,-0.64208 0.34826,-1.18412 0.84799,-1.59643 5.91274,-6.54843 10.86654,-14.10883 13.58873,-22.55036 0.7309,-2.17202 1.33568,-4.38734 1.78959,-6.63389 12.60941,-11.31892 24.59302,-23.33848 37.66989,-34.13268 27.55197,-23.24717 55.34569,-46.31134 80.80472,-71.88099 2.26695,-2.21685 4.53898,-4.54735 6.9082,-6.70508 3.14845,3.44297 6.50839,6.86337 9.72664,10.30997 9.8648,10.46295 19.78057,20.85092 29.4906,31.46229 5.58518,6.51059 10.61266,13.48908 15.16557,20.75509 -1.6511,17.22607 2.69998,34.72126 11.00782,49.79882 1.47492,2.76139 3.12354,5.53713 4.52126,8.23556 0.79196,1.58818 1.72143,3.14932 1.97524,4.93434 0.12209,0.84168 0.52847,1.72401 0.0992,2.53438 -3.34821,10.27589 -3.25437,21.80202 1.06331,31.78325 1.19084,2.8768 2.68666,5.6259 4.43478,8.20193 -4.65228,8.27375 -6.55091,17.8486 -6.61502,27.27458 -0.21806,13.64698 2.97534,27.02882 6.22372,40.19155 2.026,8.23412 3.99968,16.4818 5.95802,24.73158 3.64537,13.34358 13.01903,25.19511 25.58097,31.16197 9.43027,4.54826 20.06709,5.91898 30.44326,5.72233 1.84432,-0.0273 3.68721,-0.10828 5.53014,-0.18358 13.27749,7.93883 29.08345,11.1505 44.4463,10.15786 12.73608,-0.70981 25.44065,-3.04165 37.41112,-7.50551 10.32243,-3.96283 20.15612,-9.84547 27.37478,-18.34423 7.60987,-8.90622 12.35666,-20.37829 12.5691,-32.14491 0.42114,-10.71351 -1.84371,-21.61788 -7.00638,-31.05188 -5.11522,-9.16538 -13.02008,-16.67746 -22.27148,-21.5918 -0.75778,-0.22032 -0.68931,-1.12059 -1.01865,-1.71155 -3.72084,-9.72861 -11.27519,-17.83122 -20.53305,-22.53892 -1.17253,-0.72781 -2.53879,-1.49104 -2.92439,-2.92114 -0.70779,-1.45978 -1.47567,-2.89065 -2.31102,-4.28151 0.0792,-0.54875 0.30727,-1.01642 0.74355,-1.35959 10.3161,-11.50358 15.76862,-27.22905 14.70927,-42.65191 -0.39088,-6.51321 -1.8402,-12.95838 -4.23798,-19.02561 4.25742,-17.6907 1.97701,-37.02087 -6.95403,-52.94387 -2.49607,-4.52741 -5.86639,-8.57568 -7.73435,-13.44017 -2.3706,-5.60681 -4.44209,-11.34492 -7.15749,-16.80079 -2.53249,-5.49328 -5.32244,-10.86857 -8.36897,-16.09447 0.36025,-8.62484 -1.74813,-17.24915 -5.50391,-24.98632 -1.49177,-5.43349 -2.18522,-11.04353 -3.54717,-16.50783 -3.09523,-14.22536 -6.6769,-28.25264 -9.39228,-42.51171 -1.07679,-5.78657 -1.82778,-11.62522 -2.64491,-17.4516 -3.58816,-23.75107 -15.31467,-46.1019 -32.50353,-62.83746 -1.3289,-1.34244 -2.67365,-2.6695 -3.9707,-4.04297 -1.15173,-10.28613 -5.49463,-19.94805 -11.00474,-28.60953 -3.08968,-4.78466 -6.64155,-9.24444 -10.03237,-13.81429 -0.69208,-0.93995 -1.54252,-1.97022 -1.99562,-3.12698 -1.63225,-3.44767 -3.44736,-6.82454 -5.75797,-9.87165 -3.60004,-4.90338 -7.90092,-9.27702 -12.63899,-13.08536 1.52248,-2.28758 3.01603,-4.62637 4.55151,-6.81638 1.86552,-2.61469 3.7227,-5.31047 6.28734,-7.29904 2.43341,-1.99996 4.92448,-3.97756 6.87507,-6.47562 4.41061,-5.27268 7.84244,-11.25743 11.77943,-16.87343 1.11756,-1.65807 2.21273,-3.33235 3.31329,-5.00233 23.00551,-3.70152 45.9286,-7.95682 68.64176,-13.16929 20.41475,-4.66317 40.69472,-9.9599 60.68155,-16.22029 16.8181,-5.46954 33.28821,-12.53233 47.85504,-22.66943 10.89871,-7.82101 19.16779,-19.56156 21.94455,-32.76655 3.08049,-14.48675 -0.0747,-29.90461 -7.47684,-42.61346 -4.66866,-8.12375 -10.573,-15.43159 -15.81732,-23.17561 -4.97823,-7.01282 -9.77697,-14.20801 -15.6236,-20.54395 -7.51375,-7.93074 -16.76944,-14.04638 -26.61862,-18.6872 -7.47555,-3.81054 -14.8623,-7.79965 -22.09042,-12.062417 -4.29264,-5.941875 -10.25602,-10.66221 -17.04812,-13.42837 -1.16637,-0.541965 -2.09228,-1.493509 -3.19407,-2.157568 -4.02142,-2.708271 -8.40886,-4.881669 -13.02149,-6.380859 -4.25677,-4.89847 -9.34642,-9.117789 -15.11132,-12.125 -3.83351,-8.854121 -7.09769,-18.153697 -13.07854,-25.856595 -9.91067,-12.812752 -26.20553,-20.559477 -42.43399,-19.655107 -10.62881,0.523702 -20.80988,4.074938 -30.54929,8.135449 -1.98589,0.809183 -3.97049,1.630399 -6.01635,2.278597 -7.2988,-6.770546 -15.82761,-12.253856 -24.6875,-16.626953 -10.55141,-5.47697 -21.73728,-9.925017 -33.45703,-12.1191407 -3.58727,-4.039469 -7.608,-7.664073 -11.61136,-11.2801993 -6.43423,-5.374319 -13.86856,-9.465326 -21.62946,-12.580848 -6.37407,-2.419081 -13.19737,-3.729818 -20.02481,-3.578406 z M 427.58773,84.940347 c 0.64161,0.201592 0.82809,0.793204 0.87654,1.399542 0.20081,0.528704 0.21061,1.15639 -0.33285,1.480305 -0.93344,0.92547 -2.7291,0.306947 -2.8687,-1.01542 -0.29279,-1.28203 1.13225,-2.388405 2.32501,-1.864427 z" />
  </g>
</svg>
