<?xml version="1.0" encoding="UTF-8" standalone="no"?>
<svg id="Layer_1" data-name="Layer 1" xmlns="http://www.w3.org/2000/svg" viewBox="0 0 864 864">
  <g id="layer1">
    <path
       id="path3"
       d="m 426.65039,0.05078125 c -1.62469,0.10703114 -3.31484,0.54218839 -5.08984,1.42968755 -8.51999,4.2699957 -17.15134,8.288911 -25.36133,13.1289062 -3.72,2.199998 -7.47922,3.871016 -11.94922,3.791016 -3.33,-0.05 -6.98047,0.73055 -8.23047,4.060547 -2.12,5.679994 -6.88969,7.538517 -11.67969,9.728515 -25.22997,11.549989 -49.96002,24.039782 -72.75,40.009766 -14.49998,10.15999 -15.42897,13.859938 -8.20898,30.169921 5.59999,12.65999 13.09938,24.21157 20.85937,35.60156 11.41999,16.74999 24.52041,32.18885 37.40039,47.79883 3.19,3.87 3.06907,7.09977 0.78907,11.00977 -2.12,3.63999 -5.55922,4.49086 -9.19922,4.13086 -6.41999,-0.64 -12.7897,-1.73086 -19.17969,-2.63086 -7.72999,-1.08 -15.04055,0.031 -21.81055,4.04101 2.2,-0.09 4.35024,-0.50039 6.49024,-0.90039 11.89999,-2.22 23.21915,2.32055 34.86914,3.06055 1.9,0.12 2.16086,1.51875 1.63086,2.96875 -4.71,12.89999 -8.24142,26.38118 -18.19141,36.70117 -6.25999,6.48999 -12.41821,13.06032 -19.1582,19.07031 -1.49,1.32 -3.36,2.44922 -3.5,4.94922 26.30997,-18.46998 45.52948,-44.12924 68.18945,-67.19922 0.14,2.52 -0.82086,4.10875 -1.63086,5.71875 -2.53999,5.05 -5.74914,9.66001 -9.61914,13.75 -8.75999,9.25999 -17.61024,18.44962 -26.49023,27.59961 -3.29,3.39 -5.79094,7.2004 -6.46094,11.90039 -0.91,6.45 -3.92907,11.88962 -7.53906,17.09961 -3.49,5.03 -7.09102,9.98102 -10.54102,15.04102 -3.22999,4.74999 -5.90976,9.79008 -7.00976,15.58008 8.64999,-17.22999 24.46009,-28.54018 35.33008,-44.91016 1.01999,2.73 0.16124,3.9193 -0.46876,5.0293 -5.19999,9.15999 -9.76094,18.68165 -15.71093,27.43164 -5.79,8.49999 -9.24063,17.85852 -9.39063,29.72851 7.69999,-20.68998 16.9304,-36.41852 23.40039,-39.97851 -3.76999,7.83999 -7.70859,15.22836 -10.05859,23.31836 4.12,-6.03 7.76821,-12.3097 11.6582,-18.42969 6.76,-10.63999 10.65102,-14.88922 14.79102,-16.19922 -1.64,2.48 -3.08993,4.54946 -4.41992,6.68945 -8.81999,14.15999 -17.59985,28.34986 -20.83985,45.08985 -1.6,8.24999 0.62063,15.48047 6.14063,21.73047 0.87,0.97 1.66875,2.51914 3.21875,2.11914 1.89,-0.49 1.5707,-2.38961 1.7207,-3.84961 0.42,-4.1 0.67961,-8.22938 2.84961,-12.10938 1.54,1.31 1.10977,2.56969 1.00977,3.67969 -0.64,7.05999 2.49031,12.48922 7.32031,17.19922 0.91,0.89 2.25,2.66093 3.25,0.96094 2.1,-3.59 4.50078,-1.94071 7.05078,-0.47071 1.66518,-9.14355 0.38423,-18.1275 3.78711,-26.57617 1.42689,5.42293 1.5421,10.90429 1.39258,16.48633 -0.21,8.22999 -4.29133,15.7811 -3.61133,24.12109 0.82914,10.18662 -0.0776,20.10633 -2.58594,29.83985 h 186.80078 c -1.57482,-3.66119 -3.63941,-7.05084 -5.97461,-10.29102 -3.86999,-5.37999 -9.04953,-10.27954 -11.26953,-16.26953 -2.54,-6.82999 -7.45047,-10.19008 -12.73047,-13.83008 -1.26,-0.87 -2.46898,-1.79922 -3.70898,-2.69922 -4.39,-3.16999 -7.16094,-7.0511 -6.71094,-12.87109 0.23,-3.01 0.0613,-6.50047 -2.96875,-8.23047 -4.27999,-2.45 -3.67007,-5.38 -1.08008,-8.25 10.76999,-11.95999 16.26908,-28.04868 29.78907,-37.88867 2.10999,-1.54 3.52054,-4.12133 5.06054,-6.36133 3.67,-5.31999 7.38954,-10.61915 10.76953,-16.11914 4.79,-7.79999 11.54939,-11.94055 20.60938,-13.31055 37.49996,-5.66999 74.56988,-13.46852 111.08984,-23.72851 18.16998,-5.11 36.19017,-10.89017 52.16016,-21.41016 8.09999,-5.32999 10.24,-12.53024 7,-21.74023 -1.14,-3.24 -2.86985,-6.15141 -4.83984,-8.94141 -6.38,-9.02999 -12.73868,-18.07009 -19.13868,-27.08008 -4.09999,-5.76999 -9.13032,-10.40938 -15.57031,-13.60937 -12.32999,-6.14 -24.4497,-12.67993 -36.17969,-19.91992 -1.64,-1.01 -3.83054,-1.61891 -3.56054,-4.37891 0.2,-1.99 -1.44001,-2.49125 -3,-2.78125 -2.63,-0.48 -4.66977,-1.92953 -6.50977,-3.76953 -2.1,-2.1 -4.66055,-3.54047 -7.56055,-3.98047 -4.81999,-0.73 -8.43922,-3.279223 -11.69922,-6.699219 -2.91999,-3.069997 -5.41023,-6.96133 -9.49023,-8.361329 C 603.2204,83.589065 599.62,78.079291 596.75,71.779297 594.07,65.909303 591.79054,59.849994 589.06055,54 c -2.63,-5.649994 -9.02009,-9.059608 -14.58008,-8.099609 -9.94999,1.719998 -18.55993,7.489767 -28.41992,9.509765 -0.44,0.09 -0.95039,0.529219 -1.15039,0.949219 -1.59,3.299997 -4.77985,4.660783 -7.58985,6.550781 -2.44,1.629999 -5.07046,3.760082 -2.98047,7.080078 6.56,10.40999 13.16025,21.380629 25.99024,24.640625 19.71998,5.009995 34.25079,17.499311 48.30078,31.029301 2.31,2.21999 3.37008,4.29977 1.33008,7.50976 -2.3,3.62 -1.0914,6.54969 3.05859,7.92969 6.22,2.07 11.60133,5.59086 16.86133,9.38086 3.04,2.19 6.1886,4.2789 10.30859,3.37891 1.84,-0.4 2.87063,0.74015 3.64063,2.16015 4.64999,8.57999 7.7593,17.72978 9.7793,27.25977 0.36999,1.74 0.34062,3.79984 -1.85938,4.08984 -11.00999,1.43 -22.38954,6.25046 -32.26953,-3.51953 -2.4,-2.37 -5.32008,-4.22875 -8.08008,-6.21875 -12.97999,-9.34999 -25.45009,-19.33103 -37.33008,-30.04102 -1.48,-1.32999 -3.39125,-2.60062 -3.53125,-5.89062 10.56999,5.97999 21.45087,8.67156 32.38086,11.10156 12.68999,2.82 25.04048,6.42001 35.98047,13.75 0.39,0.26 0.95969,0.30906 1.17969,-0.71094 -2.44,-3.11999 -5.66993,-5.4707 -9.41992,-7.2207 -6.99,-3.26 -14.39939,-5.04836 -21.85938,-6.81836 -33.81996,-8.00999 -59.89001,-25.25128 -71.25,-60.031249 -2.21,-6.779993 -4.80992,-13.460241 -7.66992,-19.990234 C 523.89087,58.099311 515.46944,46.190461 502.18945,38.730469 487.69947,30.590477 472.74905,23.570003 455.28906,26.5 c -3.10999,0.519999 -4.70859,-0.30055 -3.05859,-3.810547 2,-4.249996 0.43953,-7.479534 -2.98047,-10.269531 -3.13,-2.5399976 -5.75094,-5.9290645 -9.21094,-7.7890626 -4.22999,-2.2649978 -8.51461,-4.90117158 -13.38867,-4.58007815 z M 416.67578,37.742188 c 1.6025,-0.02 2.99453,0.302813 3.64453,1.507812 1.22,2.249998 -2.97945,3.809689 -4.93945,5.429688 -10.47999,8.689991 -17.57149,19.720871 -22.77148,32.130859 -5.77,13.769986 -10.24025,28.119543 -18.99024,40.519533 -7.29999,10.34999 -7.2697,10.55069 -17.17969,2.4707 -8.15999,-6.65999 -16.08032,-13.62024 -24.07031,-20.490233 -1.72,-1.479999 -3.32,-2.870081 -0.75,-5.330078 8.33999,-7.989992 16.51095,-16.170555 24.71094,-24.310547 2.55,-2.539998 5.27969,-4.330155 8.67969,-3.160156 l -0.01,0.0098 c 7.89999,0.38 11.73977,-3.129226 12.50977,-10.949219 0.08,-0.809999 0.18117,-1.960312 0.70117,-2.320312 5.57999,-3.839996 9.48852,-10.310156 17.47851,-10.410156 4.03,-0.06 8.06126,-1.169533 11.78125,-3.019532 1.36,-0.669999 2.82883,-1.37125 4.29883,-1.53125 1.49,-0.164999 3.30375,-0.526875 4.90625,-0.546874 z M 564.75977,148.09961 c 8.55999,5.65999 17.55078,10.7804 25.55078,17.15039 7.94999,6.32999 15.75969,12.84063 23.92968,18.89062 1.18,0.87 3.06914,1.85993 2.61915,3.41993 -0.62,2.12999 -2.85993,1.09968 -4.41993,1.17968 -3.16999,0.16 -6.16039,-0.62945 -8.40039,-2.93945 C 591.98907,173.35079 578.28913,162.74999 565.61914,151 c -0.59,-0.55 -1.03859,-1.26039 -1.55859,-1.90039 0.23,-0.33 0.46922,-0.67 0.69922,-1 z M 547.65039,148.5 c 2.1,-0.11 2.85867,1.66938 3.88867,2.85938 9.90999,11.43998 20.43189,22.23024 32.67188,31.24023 1.23,0.9 3.50992,1.88055 2.41992,3.81055 -0.92,1.63999 -3.09141,0.9207 -4.69141,0.4707 -1.61,-0.46 -3.30969,-0.95133 -4.67968,-1.86133 -12.37999,-8.26999 -22.01985,-19.02954 -28.83985,-32.26953 -0.64,-1.24 -1.84953,-2.56 -0.76953,-4.25 z m 13.83008,27.94922 c 3.51,2.7 7.32984,5.07102 9.33984,9.29101 -4.88999,-1.29999 -7.27984,-5.13102 -9.33984,-9.29101 z M 326.75,328.0293 c 0.45,0.02 0.90938,0.0308 1.35938,0.0508 -0.32,5.26999 -0.63899,10.53078 -0.95899,15.80078 -0.54,0.02 -1.07133,0.0484 -1.61133,0.0684 h -0.01 c -2,-5.43 -1.1693,-10.71993 1.2207,-15.91992 z"
       style="display:inline" />
  </g>
</svg>
