<?xml version="1.0" encoding="UTF-8"?>
<svg id="Layer_1" data-name="Layer 1" xmlns="http://www.w3.org/2000/svg" viewBox="0 0 864 864">
  <path d="M412.51,145.86c-2.23-.59-3.27,.48-4.46,1.05-5.06,2.43-7.79,1.5-10.79-3.08-2.89-4.42-5.05-9.46-9.77-12.51-.76-.49-1.54-1.66-1.54-2.51,0-3.32-1.6-4.4-4.75-4.53-2.35-.09-3.52-1.96-3.61-4.28-.07-2.05-.37-4.2,.08-6.15,1.78-7.65-4.46-10.91-8.29-15.42-1.3-1.53-3.26-.13-4.84,.32-10.63,3.03-21.41,4.79-32.5,4.22-4.22-.22-8.13-1.3-11.31-4.26-3.62-3.37-3.66-4.95,.77-7.29,9.69-5.13,19.51-10.05,29.41-14.76,12.08-5.74,12.06-5.6,11.82-18.63-.14-7.72,.32-15.43,1.82-23.04,1.67-8.51,5.95-15.16,13.47-19.78,6.62-4.07,13.58-7.31,20.97-9.64,3.41-1.07,7.01-1.65,9.69-4.43,1.15-1.2,3.16-1.46,4.35-.73,4.74,2.87,10.04,1.72,15.05,2.46,14.28,2.1,26.46,8.12,36.21,18.83,1.57,1.72,2.89,3.12,5.62,2.4,13.49-3.56,27.4-4.4,41.16-6.24,2.4-.32,4.85-.21,4.01-4.13-.51-2.4,1.79-3.52,3.72-2.59,1.91,.92,5.94-3.85,5.82,2.11-.07,3.52,2.54,2.61,4.38,2.51,15.79-.85,31.57-.7,47.29,1.03,26.85,2.94,53.27,7.83,78.35,18.33,10.94,4.58,12.4,7.78,8.56,19.14-7.21,21.31-20.02,39.33-33.88,56.67-13.95,17.44-30.34,32.69-44.81,49.67-1.94,2.28-5.78,4.5-4.92,7.29,1.26,4.1,4.06,7.93,8.1,10.28,1.48,.86,3.03,1.69,4.65,2.18,8.68,2.63,13.63,10.79,21.72,14.3-8.37-3.42-15.98-8.34-25.63-12.18,3.67,8.13,3.94,16.31,12.26,21.13,9.62,5.58,18.45,12.54,25.47,21.42,4.37,5.52,6.78,11.69,6.36,18.82-3.54-21.41-21.05-30.12-36.78-41.86-.45,4.29,1.71,5.9,3.37,7.73,6.08,6.74,12.67,13.12,15.83,21.95,.54,1.52,1.78,2.99,.88,5.2-3.14-4.77-4.6-10.51-9.86-14.33,.02,9.02,5.51,21.66,10.88,25.99,1.97-.74,.15-2.85,1.81-4.25-.59,6.02,2.22,10.12,6.26,13.62,.77,.66,1.31,1.59,1.98,2.36,6.15,7.04,9.81,17.56,23.06,14.73-.28,.53-.56,1.07-.83,1.6-2.1,.11-4.2,.22-7.17,.37,2.76,2.54,6.36,2.69,7.64,5.71-7.29,.34-6.82,.23-5.21,7.36,1.36,6.02,4.2,10.69,8.67,14.72,2.52,2.26,4.44,5.08,5.35,8.57-3.75-7.36-11.24-10.17-17.38-14.55-4.95-3.54-8.18-1.97-8.72,4.08-.2,2.19-1.33,1.64-2.36,1.37-.77-.2-1.43-.89-2.1-1.41q-7.29-5.65-11.63,2.86c-1.68,3.3-4.03,6.4-1.88,10.48,.57,1.09,.76,2.06,2.17,2.43,1.84,.48,2.81,1.12,.13,2.2-.62,.25,.56,1.45,1.19,1.89,1.53,1.07,3.17,1.99,5.1,3.18-2.17,1.07-3.68-1.31-5.75-.23,1.54,10.75,8.39,19.42,12.01,29.46-6.52-10.61-14.78-19.47-25.25-26.26,5.2,7.08,12.58,12.34,16.69,20.37-2.1-2.28-4.21-4.56-6.31-6.84-.36,.3-.73,.6-1.09,.9,2.88,5.61,7.98,9.93,9.92,16.22-7.86-8.07-15.98-15.78-25.31-22.27,10.22,10.67,17.06,23.24,22.02,36.95-5.14-9.08-10.76-17.81-17.91-25.44-1.88-2-3.91-3.86-5.77-5.87-3.05-3.29-5.84-5.1-8.2,1.83,3.06-6.74-1.11-9.68-4.63-12.92-4.75-4.38-8.99-9.35-14.98-13.43-.72,5.33,1.24,9.54,2.46,13.77,2.05,7.1,5.66,13.6,8.62,20.34,4.55,10.38,8.12,21.01,8.04,32.62-3.56-11.68-9.11-22.41-15.36-33.11-.45,3.94-.9,7.87-1.35,11.81-4.04-6.2-4.9-13.7-9.85-19.47,1.28,3.7,2.57,7.4,3.85,11.1-.21,.16-.42,.32-.64,.48-2.85-3.79-5.74-7.54-8.54-11.37-2.53-3.46-4.93-7.02-7.47-10.47-.66-.9-1.27-2.29-2.75-1.85-1.39,.41-1.29,1.91-1.62,3-.89,2.93-.22,5.77,.72,8.57,.82,2.43,1.96,4.81,2.39,7.31,.56,3.25,1.15,5.95,5.23,6.29,2.06,.17,3.02,2.12,3.88,3.81,7.75,15.1,15.43,30.24,23.24,45.3,1.57,3.04,.82,4.84-2.17,6.01-1.58,.61-3.18,1.15-4.87,1.76,.87,2.86,4.85,1.14,5.35,4.13,.38,2.29-1.11,4.63-.62,6.53,.88,3.46,.46,8.06,5.84,9.03,2.99,.54,4.91,2.53,3.45,6.05-.19,.45-.41,1.15-.21,1.47,4.96,7.53,6.49,16.96,13.12,23.55,.6,.6,1.83,1.38,1.72,1.76-1.79,6.08,4.29,9.99,4.19,15.61-.06,3.5,1.96,6.52,3.01,9.76,8.71,26.95,19.42,53.11,31.05,78.92,1.27,2.82,2.54,5.17,6.02,6.39,3.23,1.13,3.62,4.7,2.49,7.93-1.87,5.35,2.45,11,8.32,10.48,1.98-.18,3.61,.52,3.2,2.12-1.06,4.03,1.85,5.67,4,7.62,26.72,24.24,40.72,55.06,46.76,90.02,.46,2.64,2.01,4.4,3.4,6.53,2.61,4.01,4.73,9.84,3.35,13.7-2.19,6.1-.26,11.43,.06,17,.37,6.33,2.27,12.2,4.92,18.32,8.78,20.24,17.04,40.86,14.13,63.94-.67,5.31,.92,10.89,1.34,16.36,.43,5.48-.51,10.35-6.42,12.66-.31,.12-.69,.29-.85,.55-7.32,11.97-19.67,12.81-31.61,13.72-13.68,1.05-27.43,.63-41.14-.38-3.58-.26-3.89-1.45-3.57-4.74,.58-5.89,2.85-10.42,7.64-13.89,5.66-4.1,8.01-10.6,11.16-16.44,3.06-5.67,5.6-11.61,8.45-17.62-2.46-.62-2.79,3.14-4.56,1.65-1.59-1.34,0-3.22,.49-4.74,1.29-3.94,3.42-7.5,5.86-10.82,1.85-2.52,2.35-4.87,.34-7.46-5.22-6.71-5.11-13.08,1.14-19.15,3.24-3.15,3.27-6.84,1.81-10.91-3.67-10.21-8.98-19.64-13.78-29.3-.43-.87-.85-2.15-2.09-1.99-7.69,.98-8.26-5-10.29-9.97-1.25-3.04-3.47-5.75-5.55-8.37-13.25-16.63-23.69-34.82-31.35-54.68-3.56-9.25-11-15.62-18.14-22.07-5.48-4.96-10.35-10.36-14.86-16.29-12.86-16.92-22.46-36.08-37.33-51.68-17.78-18.66-36.51-36.28-55.45-53.69-10.58-9.74-23.22-12.64-37.11-7.36-8.68,3.3-17.22,6.86-23.86,13.75-30.58,31.74-62.72,62.04-89.78,97.03-4.14,5.35-8.64,10.37-8.31,18.19,.21,5.09-5.81,8-12.25,6.26,3.77,4.01,1.81,6.67-.29,10.14-2.71,4.47-3.88,9.86-5.91,14.76-4.61,11.14-10.11,21.88-17.85,31.14-10.39,12.43-19.63,25.51-26.69,40.13-1.07,2.21-2.08,4.67-5.53,4.45-2.22-.14-2.41,2.28-2.69,3.83-.57,3.19-2.35,5.33-4.41,7.78-3.54,4.23-8.59,8.11-6.63,15.11,.48,1.72-.29,4.3-1.38,5.87-4.03,5.8-2.24,11.6,0,17.08,5.21,12.72,7.81,26.3,13.16,38.95,1.36,3.22,.56,5.43-2.26,7.48-8.35,6.06-18.16,7.8-27.91,9.73-3.02,.6-6.12,.77-9.19,1.11-5.11,.56-10.03,2.17-13.25,6.14-10.18,12.53-24.15,15.53-39.08,16.22-14.41,.67-28.82,.58-43.19-.85-6.08-.61-6.22-1.03-5.07-7.01,.9-4.68,3.36-8.2,6.95-11.05,7.66-6.07,15.35-12.11,23.08-18.1,1.8-1.39,3.5-2.56,3.15-5.31-.24-1.95,1-3.66,2.24-5.06,4.42-4.98,6.57-11.61,11.74-16.06,1.03-.88,1.97-2.15,1.12-3.62-.92-1.59-2.54-1.49-4.12-1.24-2.99,.47-5.33,2.25-7.77,3.85-1.39,.91-2.58,2.14-4.17-.08-1.79-2.49,.56-2.95,1.63-3.76,4.9-3.69,10.53-4.08,16.17-2.56,3.74,1.01,5.87,.1,8.12-3.05,2.53-3.54,4.3-8.42,10.22-8.16,1.82,.08,1.85-2.24,2.28-3.65,1.7-5.57,3.2-11.21,4.98-16.76,.72-2.26,1.57-5.61,3.87-5.7,5.9-.24,8.03-5.4,12.03-8.01,.66-.43,1.2-1.22,1.5-1.97,3.04-7.5,5.45-15.34,6.3-23.24,.39-3.58-.33-7.32,.37-11.3,.65-3.71,2.94-6.06,4.22-9.1,7.38-17.54,12.7-35.89,20.8-53.15,3.94-8.4,8.26-16.6,13.58-24.2,3.31-4.73,5.47-10.21,9.48-14.48,.69-.73,1.15-1.72,1.91-2.35,7.33-6.03,10.63-13.79,9.96-23.21-.13-1.88-.22-3.64,1.94-4.09,3.44-.72,3.7-3.38,4.52-6.08,10.27-33.93,22.95-66.85,42.79-96.49,3.63-5.41,8.43-10.49,11.85-15.84,3.45-5.4,6.94-11.13,9.96-16.96,1.26-2.42,1.8-5.21,4.67-6.45,1.43-.62,1.14-1.91,1.04-3.11-.11-1.24,.24-3.18,1.11-3.16,7.55,.2,2.96-7.02,5.98-9.49-4.57-11.61,3.1-20.55,6.65-30.39,.83-2.29,.2-4.39-.72-6.46-1.41-3.16-1.05-6.26,1.36-8.57,2.84-2.71,2.09-5,.63-8.08-5.33-11.18-1.04-21.19,4.98-30.44,2.38-3.66,3.17-6.67,2.19-10.83-3.16-13.41-2.8-27.27-4.85-40.84-.68-4.53-2.15-8.56-5.15-12.1-9.06-10.68-11.52-22.99-9.2-36.62,2.1-12.37-5.53-25.21-16.87-30.52-11.21-5.24-23.34-5.15-35.11-7.17-20.29-3.49-40.51-7.24-59.94-14.31-8.11-2.95-15.65-6.95-22.5-12.26-4.32-3.34-5.66-7.39-4.06-12.69,3.16-10.5,9.09-19.57,14.67-28.8,13.32-22.02,27.83-43.25,42.73-64.25,9.19-12.96,19.68-24.05,32.57-33.14,4.85-3.42,10.63-3.27,15.98-4.62,1.94-.49,4.12-.36,6.24-1.18,3.87-1.5,7.2-.64,8.45,3.88,.86,3.13,1.51,6.32,2.1,9.51,.59,3.16-.34,7.05,4.95,7.24,1.71,.06,2.11,2.17,1.42,3.77-1.21,2.83-2.06,6.14-4.71,7.85-9.93,6.42-19.75,13.6-32.73,10.28-5.18-1.32-8.46,.84-11.17,5.04-4.88,7.54-8.41,15.73-11.72,24-6.25,15.61-11.5,31.56-15.42,47.94-.78,3.26-.55,4.95,3.64,4.83,13.75-.38,27.38,1.33,41.03,2.78,11.99,1.27,24.01-.28,35.95-1.24,9.33-.76,18.8,.18,28.02-2.68,3.23-1,7.13,.13,10.72,.32,.42,.02,.83,.23,1.25,.35-1.87,3.1-.17,3.56,2.42,3.14,2.46-.4,4.95-.55,5.22-4.18,.16-2.1,1.55-4.1,2.51-6.45Zm154.2,113.33c.41,3.73,1.85,6.89,5.81,10.26-1.76-5.99-3.15-10.68-4.65-15.79-1.81,1.98-1.5,3.64-1.17,5.3-1.06-1.61-1.74-3.38-1.59-5.3,.45-6.16-4.2-8.37-8.39-11.05,1.99,5.44,4.6,10.5,7.27,15.53,.55,1.04,1.7,.98,2.72,1.04Zm-3.73-150.97c2.48,.41,4.94,1.52,7.29-.6,12.71-11.46,25.88-22.44,36.86-35.72,2.94-3.56,2.27-5.3-1.61-7.16-10.66-5.11-21.28-10.29-32.35-14.46-14.76-5.57-29.57-11-45.6-11.55-1.41-.05-3.29-1.13-4.1,.88-2.04,5.09-4.2,3.01-5.79-.04-1.42-2.71-3.31-3.46-6.16-3.49-11.7-.12-22.59,2.02-31.86,9.88-1.88,1.6-1.84,2.81-1.14,4.78,1.9,5.39,3.1,11.13,1.88,16.65-.88,3.99,.5,5.94,3.06,8.3,9.61,8.86,20.71,15.77,30.88,23.89,2.28,1.82,5.14,2.6,8.15,2.74,5.13,.24,10.28,.41,15.38,1.02,7.26,.87,14.68,1.09,21.55,4.1-11.79-1.96-23.56-4-35.57-3.92-1.3,0-3.34-.41-3.63,1.06-.4,2.1,1.9,2.13,3.24,2.33,6.96,1.02,14.27,1.82,20.08,5.65,7.34,4.83,13.16,1.64,19.47-1.3,2.42-1.13,1.67-2.05-.04-3.04Zm48.68,187.7c.41-2.23-1.13-2.58-2.32-3.1-2.96-1.3-5.96-2.5-8.95-3.76-.93-.39-1.96-1.15-2.85-.43-1.1,.89-.58,2.2-.2,3.32,1.56,4.55,4.17,8.56,6.62,12.65,.72,1.2,1.82,1.75,2.87,.48,2.3-2.79,3.69-6.1,4.81-9.16Zm-75.62-6.71c-1.18,6.27-.24,11.6-1.78,16.61-.19,.61,.45,1.68,.99,2.27,2.07,2.23,4.27,4.29,5.57,7.19,.28,.62,2.6,3.71,3.59,.32,1.07-3.68,1.72-7.61,1.23-12.08-2.61,1.84-.52,4.57-2.65,5.79-1.07-1.77,.16-4.34-2.36-5.18-.06-.02-.58,1.3-1.12,2.55-.23-6.05-.14-11.46-3.47-17.47Zm51.09-97c-1.05-7.25-4.98-12.54-10.68-16.67-.84-.61-1.9-1.07-2.81-.29-1.01,.86-.4,1.92,.13,2.76,3.55,5.58,8.05,10.25,13.36,14.2Zm28.99,143.23c-.26-9.99-4.72-15.01-12.74-15.31,3.13,5.89,8.26,9.49,12.74,15.31Zm-87.11-222.09c2.97,2.13,5.88,4.36,8.95,6.34,1.79,1.16,3.6-.01,5.29-.71,1.86-.76,1.98-1.86,.15-2.74-4.41-2.12-8.98-3.7-14.38-2.89Zm114.9,179.79c-.74-2.81-1.66-5.57-3.36-7.95-.82-1.15-3.08-1.9-3.26-.61-.32,2.22-3.01,4.41-.98,6.63,1.69,1.84,3.85,3.45,6.51,3.74,1.11,.12,1.25-.87,1.08-1.8Zm-91.62,42.18c-.32-5.91-2.27-11.28-5.41-16.24-3.11,7.07,3.31,10.93,5.41,16.24Zm68.23-77.51c1.13,5.3,4.06,9.35,7.95,12.73,.54,.46,1.72,.74,2.3,.47,1.02-.48,.52-1.58-.01-2.18-3.3-3.77-5.63-8.43-10.24-11.02Zm-14.05-17.08c-1.11-5.63-2.39-11.08-7.06-14.88,3.11,4.66,.86,11.77,7.06,14.88Zm-47.31-12.89c-3.51,6.65-1.85,10.64,4.81,12.63-1.59-4.17-3.1-8.13-4.81-12.63Zm16.99-35.61c2.19,7.05,7.71,11.74,12.06,17.29-2.25-6.97-8.19-11.42-12.06-17.29Z"/>
</svg>