<?xml version="1.0" encoding="UTF-8" standalone="no"?>
<!-- Created with Inkscape (http://www.inkscape.org/) -->

<svg
   width="210mm"
   height="297mm"
   viewBox="0 0 210 297"
   version="1.1"
   id="svg1"
   inkscape:version="1.3.2 (091e20e, 2023-11-25, custom)"
   sodipodi:docname="r.svg"
   xmlns:inkscape="http://www.inkscape.org/namespaces/inkscape"
   xmlns:sodipodi="http://sodipodi.sourceforge.net/DTD/sodipodi-0.dtd"
   xmlns="http://www.w3.org/2000/svg"
   xmlns:svg="http://www.w3.org/2000/svg">
  <sodipodi:namedview
     id="namedview1"
     pagecolor="#ffffff"
     bordercolor="#000000"
     borderopacity="0.25"
     inkscape:showpageshadow="2"
     inkscape:pageopacity="0.0"
     inkscape:pagecheckerboard="0"
     inkscape:deskcolor="#d1d1d1"
     inkscape:document-units="mm"
     showguides="false"
     inkscape:zoom="3.9054994"
     inkscape:cx="236.07736"
     inkscape:cy="267.57141"
     inkscape:window-width="2560"
     inkscape:window-height="1334"
     inkscape:window-x="-11"
     inkscape:window-y="1069"
     inkscape:window-maximized="1"
     inkscape:current-layer="layer1" />
  <defs
     id="defs1" />
  <g
     inkscape:label="Layer 1"
     inkscape:groupmode="layer"
     id="layer1">
    <path
       d="M 91.343306,81.024635 H 84.968502 L 72.615767,66.340261 H 65.69526 V 81.024635 H 60.783932 V 44.090456 h 10.343554 q 3.348633,0 5.581055,0.446485 2.232422,0.421679 4.018359,1.53789 2.00918,1.265039 3.125391,3.199805 1.141015,1.909961 1.141015,4.861718 0,3.993555 -2.009179,6.697266 -2.00918,2.678906 -5.531446,4.043164 z M 79.858736,54.48362 q 0,-1.5875 -0.570508,-2.80293 -0.545703,-1.240234 -1.835547,-2.083593 -1.066601,-0.719336 -2.530078,-0.992188 -1.463476,-0.297656 -3.447851,-0.297656 H 65.69526 v 13.940234 h 4.960937 q 2.331641,0 4.067969,-0.396875 1.736328,-0.42168 2.951758,-1.53789 1.116211,-1.041797 1.637109,-2.38125 0.545703,-1.364258 0.545703,-3.447852 z"
       id="text1"
       style="font-size:50.8px;font-family:Verdana;-inkscape-font-specification:'Verdana, Normal';fill:#ff0000;stroke:#000000;stroke-width:0.254"
       aria-label="R" />
  </g>
</svg>
