<?xml version="1.0" encoding="UTF-8" standalone="no"?>
<!-- Created with Inkscape (http://www.inkscape.org/) -->

<svg
   width="11in"
   height="8.5in"
   viewBox="0 0 279.4 215.9"
   version="1.1"
   id="svg864"
   inkscape:version="1.1 (c68e22c387, 2021-05-23)"
   sodipodi:docname="albert2.svg"
   xmlns:inkscape="http://www.inkscape.org/namespaces/inkscape"
   xmlns:sodipodi="http://sodipodi.sourceforge.net/DTD/sodipodi-0.dtd"
   xmlns="http://www.w3.org/2000/svg"
   xmlns:svg="http://www.w3.org/2000/svg">
  <sodipodi:namedview
     id="namedview866"
     pagecolor="#ffffff"
     bordercolor="#666666"
     borderopacity="1.0"
     inkscape:pageshadow="2"
     inkscape:pageopacity="0.0"
     inkscape:pagecheckerboard="0"
     inkscape:document-units="mm"
     showgrid="false"
     units="in"
     inkscape:zoom="2"
     inkscape:cx="626.25"
     inkscape:cy="462.75"
     inkscape:window-width="2560"
     inkscape:window-height="1377"
     inkscape:window-x="2552"
     inkscape:window-y="-8"
     inkscape:window-maximized="1"
     inkscape:current-layer="layer1" />
  <defs
     id="defs861" />
  <g
     inkscape:label="Layer 1"
     inkscape:groupmode="layer"
     id="layer1">
    <path
       style="display:inline;fill:#333333;fill-opacity:1;stroke-width:0.26039"
       d="m 13.937741,201.3768 c -0.808441,-0.3899 -0.740265,-0.76957 0.08205,-0.45692 1.167658,0.44394 3.146447,0.27651 6.032765,-0.51045 3.3294,-0.90775 5.300672,-1.74958 6.680085,-2.85272 0.556746,-0.44523 1.084475,-0.80952 1.172732,-0.80952 0.08825,0 0.812278,-0.61517 1.608936,-1.36705 2.030999,-1.91683 3.444326,-3.05248 3.803565,-3.05631 0.292248,-0.004 0.60094,-0.34585 1.77653,-1.97253 0.286428,-0.39633 0.64056,-0.84773 0.786963,-1.0031 0.417133,-0.44271 2.18892,-3.18589 2.404242,-3.72238 0.827002,-2.06058 4.173521,-5.20019 6.801428,-6.38091 0.948697,-0.42625 2.427955,-1.10716 3.28724,-1.51313 0.859286,-0.40596 1.873231,-0.8562 2.253212,-1.00052 0.589976,-0.22409 0.80655,-0.63552 1.482964,-2.81724 1.02067,-3.2921 0.950044,-4.00202 -0.646396,-6.49766 -0.485638,-0.75917 -1.115864,-1.50495 -1.400501,-1.65728 -0.28464,-0.15234 -0.517525,-0.43222 -0.517525,-0.62196 0,-0.18974 0.867678,-1.07151 1.928173,-1.95947 1.060494,-0.88797 2.220715,-1.96761 2.578269,-2.39921 0.357552,-0.4316 1.247503,-1.41066 1.977672,-2.17572 0.730167,-0.76505 1.327574,-1.47321 1.327574,-1.57368 0,-0.26802 3.351926,-4.0095 6.426556,-7.17345 1.498832,-1.54236 2.914567,-3.26197 3.215652,-3.90584 0.295844,-0.63267 0.936149,-1.90301 1.422902,-2.82297 l 0.885015,-1.67268 -0.765394,-1.58698 c -1.712923,-3.55164 -2.597532,-8.1818 -2.44057,-12.77417 0.07711,-2.25673 0.528087,-7.87834 0.783286,-9.76462 0.33504,-2.47639 0.601822,-3.97512 1.089223,-6.11916 0.706247,-3.10675 0.93052,-5.29904 0.707762,-6.91867 -0.156176,-1.13554 -0.359016,-1.49525 -1.39209,-2.46873 -0.665108,-0.62674 -2.439623,-1.921332 -3.94338,-2.876872 -1.503749,-0.95554 -3.378551,-2.22618 -4.166235,-2.82364 -1.982864,-1.50403 -3.411059,-2.27871 -5.988959,-3.24852 -1.217322,-0.45795 -2.564839,-0.99101 -2.994482,-1.18454 -0.699036,-0.31491 -3.754002,-1.32643 -6.85462,-2.26961 -1.03068,-0.313526 -1.177266,-0.469816 -1.730824,-1.845342 -0.881455,-2.190321 -2.027765,-3.428827 -5.911091,-6.386477 -1.908695,-1.453715 -3.847078,-3.085541 -4.307519,-3.626273 -0.460441,-0.540732 -1.196535,-1.393265 -1.635763,-1.894517 -0.813794,-0.928705 -2.60467,-4.292279 -2.60467,-4.892019 0,-0.181829 -0.411288,-1.197302 -0.913974,-2.256612 -0.502686,-1.059305 -0.983712,-2.315605 -1.068949,-2.791774 -0.08524,-0.476172 -0.372259,-1.627405 -0.637829,-2.558298 -0.543782,-1.906099 -0.698816,-3.379846 -0.405477,-3.854476 0.211484,-0.342188 1.204419,0.134869 4.680277,2.248642 0.981335,0.59678 1.833679,1.085054 1.894103,1.085054 0.06043,0 0.719053,0.419054 1.463625,0.931228 0.74457,0.512175 2.332866,1.392084 3.529542,1.955351 1.196678,0.563271 2.550848,1.310205 3.009266,1.659859 0.458419,0.349654 1.091278,0.731097 1.406355,0.847648 0.766748,0.283638 3.89225,2.875557 6.369244,5.281889 2.614836,2.540249 3.910495,3.657555 5.280643,4.553747 1.292092,0.845138 2.223944,1.352092 4.817211,2.620674 7.996531,3.911782 9.611858,4.668005 9.690234,4.849979 0.196539,0.03642 0.15788,0.114704 0.494649,0.213922 0.267513,0.07881 1.308272,0.454013 2.287521,1.00892 1.457928,0.826151 4.443037,2.031715 5.624673,2.27158 0.143216,0.02908 0.611922,0.19824 1.041563,0.375929 0.42964,0.177698 0.956934,0.349976 1.171754,0.382846 0.21482,0.0329 1.404451,0.36072 2.643621,0.72855 1.953801,0.57994 2.758973,0.67084 6.062218,0.68434 3.410675,0.0139 8.039115,-0.46201 8.746935,-0.89946 0.14033,-0.0867 0.81141,-0.25484 1.49128,-0.37359 0.67989,-0.11875 1.93921,-0.460324 2.79849,-0.759052 1.433087,-0.498206 5.291887,-1.693264 5.598377,-1.733805 1.05739,-0.139854 2.53814,-0.530145 3.90585,-1.029485 0.93089,-0.33986 2.7471,-0.867162 4.03603,-1.171771 1.28894,-0.304616 2.98798,-0.772853 3.77565,-1.040534 0.78768,-0.267681 2.07662,-0.563768 2.8643,-0.657979 2.35194,-0.281305 2.88022,-0.390056 3.83727,-0.789944 0.50233,-0.209888 1.16589,-0.381616 1.47457,-0.381616 0.30868,0 0.79237,-0.155244 1.07486,-0.344987 0.28248,-0.189734 1.21668,-0.48958 2.07596,-0.666314 1.66779,-0.343019 2.58008,-0.631419 4.03604,-1.275896 0.50126,-0.221875 1.55582,-0.607791 2.34351,-0.857595 1.74437,-0.553198 3.00086,-0.997199 4.03603,-1.4262 0.42965,-0.178054 1.83575,-0.617025 3.12469,-0.975499 1.28892,-0.358474 4.20291,-1.365547 6.47551,-2.237933 2.2726,-0.872386 4.61611,-1.714648 5.20779,-1.871683 0.59169,-0.157043 1.42731,-0.443904 1.85695,-0.637478 0.42965,-0.193574 1.77717,-0.725047 2.99448,-1.181061 1.21732,-0.456006 2.32464,-0.931557 2.46068,-1.056775 0.13607,-0.125218 0.49345,-0.227674 0.7942,-0.227674 0.30075,0 0.65812,-0.0988 0.79419,-0.219551 0.23743,-0.210738 2.30651,-0.875829 3.84812,-1.236959 0.40504,-0.09488 1.31258,-0.450452 2.01674,-0.790146 0.70416,-0.339697 1.40507,-0.617629 1.5576,-0.617629 0.33039,0 6.91869,-2.775306 7.66713,-3.229754 0.28641,-0.17392 1.10664,-0.529773 1.82272,-0.790783 0.71607,-0.261012 1.41326,-0.576336 1.54931,-0.700717 0,0 0.45648,-0.160005 0.71207,-0.226151 0.24742,-0.06403 1.13124,-0.341302 1.94593,-0.758452 l 1.48123,-0.758456 -1.28193,-0.15716 c -3.86455,-0.473785 -6.71432,-1.422832 -4.98581,-1.660411 0.8386,-0.115268 2.13515,-0.519189 4.35484,-1.356702 4.57211,-1.725094 5.68895,-2.482282 9.37404,-6.355378 4.40981,-4.634791 10.64055,-10.211852 11.17459,-10.305396 0.34581,-0.135554 0.42877,-0.487379 0.75743,-0.636406 0.2521,-0.107395 0.75506,-0.413024 1.09752,-0.733619 1.03603,-0.710406 3.60348,-2.110619 4.20596,-2.554217 0.11491,-0.01393 0.73858,-0.57356 1.70619,-1.186934 0.9676,-0.613372 1.88584,-1.223584 2.04052,-1.356024 0.15469,-0.132439 1.15142,-0.659342 2.21498,-1.170892 1.20899,-0.581501 2.1021,-1.203094 2.38297,-1.658504 0.24706,-0.400625 1.46043,-1.782991 2.69638,-3.07192 1.23593,-1.288929 3.01398,-3.339498 3.9512,-4.55682 0.93722,-1.217322 1.94943,-2.4586 2.24936,-2.758396 0.48878,-0.488575 1.7988,-1.980363 3.2721,-3.726091 0.35239,-0.375899 0.35982,-0.680472 0.58899,-0.921546 0,0 0.49429,-0.364309 0.5822,-0.641261 0.2033,-0.640555 2.00961,-2.628684 2.38828,-2.628684 0.47247,0 0.88333,2.835271 0.65091,4.491723 -0.20056,1.429496 -0.23467,1.625954 0.40589,1.165503 0.17492,-0.125739 0.50117,-0.519751 0.85921,-0.749543 0.35804,-0.229793 0.97925,-0.724975 1.38046,-1.100406 0.40123,-0.375429 0.92628,-0.574674 1.0975,-0.6826 0.2024,-0.127577 0.34459,-0.287508 0.64673,-0.520779 0.25714,-0.19853 0.46587,-0.417843 0.62824,-0.52078 0.23478,-0.14884 0.4165,-0.225693 0.68736,-0.407038 0.39818,-0.266589 0.35963,-0.368041 0.56976,0.0075 0.49326,0.881412 -2.31359,7.605113 -3.97402,9.519607 -0.28338,0.326747 -0.41895,0.777667 -0.51524,0.944828 l -0.20203,0.350742 c -0.0555,0.0963 -0.43219,0.516827 -0.71346,1.148505 -0.17245,0.393377 -0.648,1.198997 -0.648,1.198997 -0.18566,0.426738 -0.75875,2.015853 -1.32831,2.701696 -0.13192,0.158835 -0.93843,1.355902 -1.79226,2.66015 -0.85383,1.304244 -1.73109,2.51964 -1.94947,2.700876 -0.51062,0.423784 -0.50687,0.959583 0.009,1.248136 0.22318,0.124899 0.72186,0.704514 1.10815,1.288031 0.38631,0.583518 1.34617,1.753178 2.13302,2.599244 1.59711,1.717294 4.24045,4.93543 5.19703,6.327101 0.34452,0.501249 1.07954,1.462199 1.63334,2.13544 0.9762,1.186723 1.00734,1.286704 1.02039,3.276308 0.007,1.12873 -0.0707,3.061736 -0.17342,4.295574 -0.16996,2.040335 -0.13514,2.327043 0.38481,3.168336 0.31442,0.508748 0.66107,0.924996 0.77032,0.924996 0.19541,0 2.01572,1.524428 4.5761,3.832301 0.71606,0.645454 1.44426,1.424044 1.6182,1.730204 1.65043,1.681492 3.74847,3.740858 5.24464,5.359889 0.33742,0.365723 0.91295,0.986597 1.27895,1.379714 l 0.66544,0.714768 -0.73745,1.368349 c -0.4056,0.752596 -0.98114,1.617141 -1.27895,1.921223 -1.06493,1.087328 -1.71324,1.971014 -1.71324,2.335254 0,0.708532 -2.87069,2.358647 -3.42399,2.30373 -0.74506,0.271752 -1.51051,0.570952 -2.1093,0.67524 -1.96773,0.329127 -3.93617,1.263366 -4.95916,2.002819 -0.34524,0.249546 -0.39761,0.279278 -0.55032,0.409044 -0.26417,0.224469 -0.41995,0.435889 -0.53701,0.473469 -0.28745,0.293242 -0.89431,1.230298 -1.45999,1.082368 -0.27527,-0.07201 -0.44372,-0.241213 -0.5005,-0.343359 -0.0797,-0.143438 -0.27428,-0.231278 -0.58587,-0.396017 -0.29853,-0.157834 -1.42999,-0.577555 -2.46167,-1.059108 -1.03167,-0.481553 -2.00493,-0.821441 -2.13881,-0.888709 -0.10474,-0.05262 -0.0891,-0.07849 -0.27446,-0.195299 -0.20973,-0.275399 -0.94688,-0.692071 -2.35088,-1.213516 -1.39634,-0.518611 -3.9231,-1.733522 -5.03118,-2.419089 -1.45512,-0.900267 -3.17318,-0.848313 -5.21678,0.157747 -0.88666,0.436493 -1.81105,1.0044 -2.05423,1.262012 -1.73939,1.842645 -2.04417,2.304159 -2.41715,3.660334 -0.22615,0.822279 -0.50964,1.736907 -0.62997,2.032508 -0.21982,0.540019 -0.18555,2.407296 0.12396,6.753457 0.27042,3.7974 0.26732,4.11655 -0.0412,4.22016 -0.16178,0.0544 -0.60613,-0.43357 -0.98743,-1.08423 -0.82637,-1.41007 -1.18831,-1.50353 -1.14289,-0.2951 0.0184,0.48834 -0.094,1.22069 -0.24977,1.62743 -0.15573,0.40675 -0.65294,1.794122 -1.10489,3.083052 -1.20692,3.44207 -2.53216,6.27265 -3.88304,8.29378 -0.36866,0.55159 -0.87429,1.37181 -1.12361,1.82273 -0.44867,0.81149 -2.85092,3.37243 -4.27656,4.55907 -0.40607,0.338 -1.26576,1.09964 -1.91043,1.69253 -1.19701,1.10089 -3.79158,3.33926 -4.765,4.11082 -0.49163,0.38969 -0.5463,0.73517 -0.59745,3.77565 -0.0488,2.89837 0.0431,3.76532 0.68553,6.4714 0.68372,2.8799 0.74909,3.60407 0.83456,9.24439 0.0822,5.42221 0.15062,6.23839 0.60067,7.16073 l 0.50796,1.04099 2.28279,0.0365 c 1.25553,0.02 2.77881,-0.0755 3.38506,-0.21224 0.60625,-0.13678 1.53378,-0.27325 2.06118,-0.30326 0.90908,-0.0517 1.00295,0.0214 1.80657,1.4072 0.87345,1.50623 0.98579,1.58372 3.87447,2.67245 2.51026,0.9461 3.46781,1.21645 4.31491,1.21823 0.41948,7.8e-4 1.08294,0.16867 1.47436,0.37286 0.3914,0.20418 0.77163,0.2742 0.84493,0.15559 0.13197,-0.21352 3.84681,0.67507 5.60412,1.34051 2.58122,0.97743 8.41881,4.52789 9.04374,5.50045 0.11006,0.17126 0.66879,0.70292 1.24164,1.18146 1.50738,1.25917 6.37956,6.10589 6.37956,6.3462 0,0.56322 -0.82715,0.0341 -2.42901,-1.5537 -0.97524,-0.9667 -2.14589,-2.08389 -2.60146,-2.48264 -0.45557,-0.39875 -1.53135,-1.38073 -2.39065,-2.18216 -3.50785,-3.2717 -8.76072,-6.07239 -13.41006,-7.14991 -0.64446,-0.14936 -1.40611,-0.32983 -1.69253,-0.40104 -0.28643,-0.0712 -0.69655,-0.13548 -0.91137,-0.14282 -0.21482,-0.007 -1.26939,-0.2415 -2.3435,-0.52038 -1.07411,-0.27886 -2.24587,-0.57212 -2.6039,-0.65167 -0.35803,-0.0796 -0.76815,-0.22993 -0.91136,-0.33418 -0.14322,-0.10424 -0.61192,-0.26984 -1.04156,-0.368 -0.42965,-0.0982 -0.97558,-0.236 -1.2132,-0.30634 -0.31931,-0.0945 -0.60836,0.2449 -1.1079,1.30084 -0.63076,1.3333 -0.80421,1.4888 -2.59767,2.32869 -1.37299,0.64298 -2.68384,1.0117 -4.59036,1.29124 -1.46772,0.2152 -2.7408,0.49699 -2.82907,0.62619 -0.25521,0.37352 -2.64158,1.62732 -3.33747,1.75351 -0.87294,0.15829 -2.30678,-0.69267 -3.8564,-2.28872 -1.19165,-1.22738 -2.73125,-3.31616 -2.73125,-3.70552 0,-0.0877 -0.45447,-0.82258 -1.00992,-1.63301 -0.55546,-0.81045 -1.16623,-1.84598 -1.35728,-2.3012 -0.35344,-0.84216 -0.92984,-1.08683 -2.97078,-1.26105 -0.42965,-0.0367 -1.32232,-0.15212 -1.98369,-0.25652 -0.74674,-0.11788 -1.26498,-0.0887 -1.36731,0.0768 -0.0906,0.14665 -0.39902,0.20538 -0.68531,0.13052 -0.40797,-0.10669 -0.52615,-0.004 -0.54657,0.48012 -0.0143,0.33894 -0.0545,1.37788 -0.0893,2.30878 -0.11935,3.19208 -1.73488,6.64103 -3.27248,6.9863 -0.21057,0.0473 -0.46255,0.2149 -0.55993,0.37248 -0.0974,0.15757 -0.86312,0.33612 -1.70161,0.39677 -1.75932,0.12725 -1.65817,0.25365 -3.46445,-4.32889 -0.62344,-1.58167 -0.26684,-6.49546 0.54324,-7.48552 0.26285,-0.32126 -0.29933,-0.65418 -2.10537,-1.2468 -0.64447,-0.21147 -1.52328,-0.56201 -1.95292,-0.77897 -0.42965,-0.21697 -1.1327,-0.4573 -1.56234,-0.53408 -1.63891,-0.29288 -2.35232,-0.47896 -2.6039,-0.67917 -0.14322,-0.11396 -1.31497,-0.20837 -2.6039,-0.2098 -2.42965,-0.003 -4.63116,0.4661 -6.96878,1.48389 -0.68211,0.29698 -1.32656,0.55753 -1.43213,0.57899 -0.10557,0.0215 -0.46321,0.14214 -0.79477,0.2682 -0.33156,0.12606 -0.77329,0.2292 -0.98164,0.2292 -0.20834,0 -0.84285,0.29293 -1.41002,0.65097 -0.56717,0.35804 -1.15822,0.65098 -1.31345,0.65098 -0.15525,0 -0.88992,0.27679 -1.63261,0.6151 -0.7427,0.3383 -1.6433,0.70379 -2.00134,0.8122 -0.66256,0.20059 -2.38449,0.93158 -3.75055,1.59214 -0.41585,0.2011 -0.88907,0.36563 -1.05162,0.36563 -0.16253,0 -0.74773,0.23054 -1.30044,0.51233 -0.55272,0.28179 -1.0862,0.34678 -1.22681,0.37522 -0.10756,0.0217 -0.14579,0.0594 -0.22189,0.13864 -0.10519,0.10954 -0.18849,0.16413 -0.30174,0.21581 -0.32236,0.14709 -3.39626,1.22404 -4.77585,1.88311 -1.1751,0.56137 -2.55516,1.00124 -3.67211,1.1704 -0.41498,0.0628 -1.75051,0.29436 -2.96783,0.51448 -2.45082,0.44316 -6.94267,1.11467 -7.55131,1.12889 -0.21482,0.004 -1.09362,0.14727 -1.95292,0.31611 -0.85928,0.16884 -1.91172,0.34402 -2.33875,0.38929 -0.42704,0.0453 -1.18868,0.20311 -1.69253,0.35072 -0.50387,0.14762 -1.85353,0.51425 -2.99924,0.8147 -1.14571,0.30047 -2.55181,0.67497 -3.12467,0.83223 -0.60823,0.16698 -2.958207,0.26715 -5.648447,0.24079 -4.07458,-0.04 -4.79666,0.0185 -6.24934,0.50584 -0.90336,0.30303 -1.82746,0.71667 -2.05355,0.91918 -0.22611,0.20253 -0.51439,0.36822 -0.64063,0.36822 -0.12625,0 -0.93725,0.73897 -1.802233,1.64216 -0.864974,0.90318 -2.217148,2.0667 -3.004824,2.58559 -1.493664,0.98396 -3.698865,2.02162 -4.296321,2.02162 -0.530105,0 -0.608375,0.54065 -0.252461,1.74385 0.177803,0.60109 0.274938,1.14123 0.215841,1.20033 -0.131317,0.13132 1.912329,2.00322 2.187008,2.00322 0.392736,0 0.857911,1.52541 0.714104,2.34169 -0.192893,1.0949 -0.996021,1.76615 -1.54096,2.07675 l -0.323101,0.18416 c -0.322298,0.1837 -0.889923,1.38636 -1.421153,1.38636 -0.253012,0 -0.522086,0.10043 -0.59795,0.22318 -0.07582,0.12273 -0.777827,0.2892 -1.559939,0.36993 -0.782103,0.0807 -1.81082,0.31535 -2.286039,0.5214 -1.862335,0.8075 -2.227653,0.89312 -4.022379,0.94285 -2.080355,0.0577 -2.429716,-0.13912 -3.121116,-1.75782 -0.285249,-0.66781 -0.37098,-1.47136 -0.288271,-2.70174 0.06472,-0.96317 0.02195,-1.69205 -0.09506,-1.61972 -0.271529,0.16782 -1.876471,3.48452 -2.524082,5.21614 -0.436809,1.16801 -0.532154,2.40546 -0.354108,4.59595 0.03613,0.44458 1.526113,1.24035 2.322392,1.24035 0.583718,0 2.084608,1.21818 2.502916,2.03148 0.198758,0.38644 0.793792,1.97039 1.322293,3.5199 0.998049,2.92618 1.079819,4.1979 0.345489,5.37374 -0.30716,0.49185 -0.444163,0.56998 -0.89394,0.50979 -0.0914,-0.0122 -0.244337,0.10421 -0.33986,0.25878 -0.45036,0.7287 -6.247117,0.99506 -7.459549,0.34276 -0.299465,-0.16112 -1.061108,-0.32231 -1.692536,-0.35822 -0.631427,-0.0359 -1.440982,-0.21681 -1.799018,-0.40198 -0.358039,-0.18517 -0.768152,-0.34052 -0.911367,-0.34523 -0.24123,-0.008 -1.644162,-1.18186 -3.295179,-2.7573 -0.380205,-0.3628 -0.966082,-1.38361 -1.301948,-2.26846 -0.57337,-1.51057 -0.610666,-1.95869 -0.610666,-7.33741 0,-3.15071 0.07933,-6.11994 0.176274,-6.59828 0.170352,-0.84052 0.152861,-0.86389 -0.52078,-0.69584 -0.38338,0.0956 -1.28293,0.47058 -1.999001,0.8332 -0.716072,0.36261 -1.742643,0.81746 -2.281269,1.01078 -0.538629,0.19331 -1.533192,0.73253 -2.210146,1.19829 -1.394116,0.95919 -4.492029,4.01469 -4.492029,4.43053 0,0.3596 -1.793,3.35084 -2.322179,3.87407 -0.226553,0.22401 -0.76344,0.86317 -1.193082,1.42035 -1.000706,1.29778 -1.566872,1.86608 -2.978361,2.98958 -0.629741,0.50125 -2.077105,1.6967 -3.216365,2.65658 -2.627401,2.21369 -5.278041,3.58263 -8.919742,4.6067 -2.991525,0.84123 -5.454663,1.02551 -6.562973,0.49099 z m 50.450501,-3.18005 c 0.991019,-0.12996 3.232837,-0.95811 3.232837,-0.95811 0.139332,-0.19989 0.02968,-0.21216 0.296763,-0.50729 0.589518,-0.6514 0.583362,-2.01063 -0.01652,-3.64522 -0.233353,-0.63588 -0.539363,-1.61953 -0.680028,-2.18588 -0.376018,-1.51405 -1.27251,-2.96467 -2.034307,-3.29177 -0.367715,-0.15789 -1.308093,-0.53906 -2.089727,-0.84706 -1.577588,-0.62165 -1.765622,-0.95126 -1.804939,-3.16391 -0.03483,-1.962 0.347409,-3.04085 3.183114,-8.98344 0.307524,-0.64447 0.918977,-1.75763 1.358775,-2.47371 0.949174,-1.54544 2.186692,-4.07747 2.315652,-4.73794 0.05046,-0.25842 0.591178,-1.67752 1.201611,-3.15358 0.920597,-2.22602 1.402466,-3.00105 2.825425,-4.54435 1.609276,-1.74537 2.004127,-2.13041 3.535788,-3.4479 0.332991,-0.28643 1.290006,-1.12936 2.126688,-1.87319 2.123649,-1.88795 4.749321,-3.90824 5.752587,-4.42625 0.513308,-0.2923 0.820148,-0.60966 1.171754,-0.8638 0.179018,-0.002 0.852776,-0.41169 1.497237,-0.91177 0.644461,-0.5001 1.400641,-1.08484 1.680401,-1.29943 0.27975,-0.2146 0.66057,-0.39017 0.84626,-0.39017 0.18569,0 0.33762,-0.10351 0.33762,-0.23002 0,-0.20463 3.83034,-3.1394 4.96744,-3.80602 0.66902,-0.39221 5.11006,-4.40366 7.943307,-7.17493 2.10847,-2.06234 4.09807,-2.88574 8.44121,-3.4934 0.64446,-0.0902 1.34907,-0.21576 1.56579,-0.27907 0.21673,-0.0634 0.91978,-0.16463 1.56234,-0.22512 0.64256,-0.0605 1.28547,-0.1403 1.42869,-0.17734 0.42319,-0.10945 3.20387,0.29197 5.85877,0.84579 1.36053,0.28381 2.64946,0.50961 2.86428,0.50179 1.81918,-0.0662 4.33258,0.0405 5.78179,0.24567 1.79698,0.25439 9.36294,0.34291 10.75295,0.12581 1.54916,-0.24196 7.32489,-0.19614 8.85326,0.0702 0.85928,0.14977 1.7381,0.27191 1.95292,0.27143 0.21483,-5.1e-4 0.8007,0.0756 1.30195,0.16902 1.46177,0.27246 7.59108,0.545 7.71536,0.34306 0.0624,-0.10131 -0.21271,-0.35566 -0.61123,-0.56522 -0.39852,-0.20954 -1.42763,-1.08167 -2.28692,-1.93807 -3.72045,-3.70787 -11.267,-11.47917 -12.04072,-12.39929 -0.89453,-1.06378 -3.80117,-6.77018 -4.1197,-8.0879 -0.10386,-0.42964 -0.40233,-1.24988 -0.66328,-1.82274 -0.76982,-1.68997 -2.04744,-7.09 -2.33589,-9.872962 -0.4602,-4.44003 -0.48836,-8.44191 -0.078,-11.088394 0.21096,-1.36054 0.43433,-2.82123 0.49639,-3.245977 0.062,-0.424748 0.28328,-1.596502 0.4916,-2.603899 0.72444,-3.503283 0.72503,-3.524156 0.0994,-3.524156 -0.60253,0 -1.91815,0.386183 -3.2411,0.951393 -0.45129,0.192805 -1.07058,0.350552 -1.3762,0.350552 -0.30564,0 -0.84451,0.18924 -1.19751,0.420536 -0.35299,0.231295 -0.64182,0.341844 -0.64182,0.245665 0,-0.09617 -0.32222,-0.0049 -0.71606,0.203188 -0.39384,0.207927 -1.41912,0.582795 -2.27842,0.833029 -0.85928,0.250241 -1.73809,0.515459 -1.95291,0.58938 -0.21483,0.07395 -0.4908,0.111675 -0.61329,0.08392 -0.12248,-0.02778 -0.35683,0.05467 -0.52078,0.183149 -0.16394,0.12849 -0.64961,0.328099 -1.07925,0.44358 -0.42963,0.115482 -0.83975,0.227675 -0.91136,0.24931 -1.55931,0.471161 -2.54352,0.690801 -3.44807,0.769484 -2.24914,0.195655 -3.72687,0.476555 -4.26408,0.810567 -0.30328,0.188576 -1.50673,0.524078 -2.67431,0.745564 -1.16759,0.221487 -3.20437,0.746075 -4.52618,1.165744 -2.42457,0.769792 -5.41771,1.681066 -5.65815,1.722644 -0.28886,0.04998 -1.46397,0.433503 -1.95292,0.637429 -0.75889,0.316516 -4.278097,1.273672 -5.327337,1.448952 -0.49539,0.0827 -1.06203,0.28433 -1.2592,0.44796 -0.71518,0.59356 -7.61482,1.23029 -11.424269,1.0543 -2.16547,-0.10005 -3.562048,-0.32204 -6.075235,-0.96571 -0.21482,-0.055 -1.119226,-0.34616 -2.009804,-0.64696 -0.890571,-0.30081 -1.747349,-0.54692 -1.903946,-0.54692 -0.672146,0 -7.078557,-3.547309 -7.530093,-3.706451 l -0.277973,-0.09797 c -0.295089,-0.04671 -1.501807,-0.449012 -3.05712,-1.366062 -0.702157,-0.414007 -1.706694,-0.908245 -2.232295,-1.098303 -0.525609,-0.190067 -0.955654,-0.439207 -0.955654,-0.553651 0,-0.114445 -0.227432,-0.208081 -0.505408,-0.208081 -0.277976,0 -0.571601,-0.10709 -0.652487,-0.23797 -0.08092,-0.130888 -0.99592,-0.562869 -2.033392,-0.959964 -1.03747,-0.397102 -2.045278,-0.842019 -2.23957,-0.988718 C 54.142881,80.216981 53.706664,79.95301 52.37921,79.207883 51.538073,78.735734 49.904644,77.48012 48.563701,76.274913 48.2193,75.96538 47.8249,75.613848 47.687259,75.493749 47.549616,75.373642 46.817263,74.630905 46.05981,73.843228 c -1.782683,-1.853814 -2.916932,-2.864281 -3.215152,-2.864281 -0.131111,0 -0.522452,-0.303588 -0.869651,-0.674633 -0.943827,-1.008669 -2.623148,-2.077464 -6.142952,-3.909652 -1.742499,-0.907033 -3.728127,-2.004261 -4.412506,-2.43828 -0.68438,-0.434023 -1.387385,-0.78913 -1.562234,-0.78913 -0.174847,0 -0.356964,-0.100268 -0.404703,-0.222819 -0.04774,-0.122552 -0.994346,-0.718712 -2.103573,-1.324802 -1.109228,-0.606092 -2.08284,-1.208875 -2.163582,-1.339521 -0.08074,-0.130642 -0.261491,-0.237534 -0.40166,-0.237534 -0.306174,0 -0.142737,1.367668 0.420076,3.515261 0.22519,0.859285 0.509661,1.945803 0.632158,2.414482 0.122497,0.46868 0.388866,1.113144 0.591934,1.432143 0.203068,0.318998 0.644388,1.341639 0.980711,2.272531 0.698082,1.93219 1.926101,4.489142 2.473501,5.150264 1.332778,1.609672 3.617233,3.734983 4.934569,4.590796 2.029719,1.318615 1.980449,1.277791 4.279683,3.54601 1.305022,1.287414 2.246734,2.493828 2.743959,3.515262 0.770842,1.583502 1.540993,2.55538 1.811011,2.285367 0.238969,-0.238966 6.895428,1.957376 9.714195,3.205276 2.833475,1.25439 5.472726,2.72421 5.814837,3.23832 0.185806,0.27921 2.682372,1.93797 3.97949,2.64403 0.60396,0.32876 1.156704,0.6625 1.228308,0.74168 0.0716,0.0791 0.598898,0.41928 1.171754,0.75583 1.925419,1.131132 3.45201,2.828722 3.782441,4.206152 0.416915,1.73788 0.08011,5.18722 -0.938045,9.60609 -0.08249,0.35804 -0.189499,1.02657 -0.237808,1.48564 -0.04828,0.45907 -0.154013,0.94178 -0.234916,1.07268 -0.168739,0.27304 -0.350948,1.88856 -0.543809,4.8217 -0.07387,1.12311 -0.183895,2.12232 -0.244539,2.22044 -0.06067,0.0981 -0.178079,2.03167 -0.260958,4.29676 -0.175495,4.7959 -0.07071,5.44273 1.850769,11.42568 0.241469,0.75188 0.578874,1.50776 0.749793,1.67976 0.56636,0.56992 0.705987,2.12609 0.233199,2.59888 -0.662248,0.66225 -1.580464,2.22069 -1.77676,3.0156 -0.177163,0.71745 -2.463914,3.62323 -3.857868,4.9022 -0.404149,0.37082 -0.734816,0.81022 -0.734816,0.97646 0,0.16625 -0.101412,0.30227 -0.225358,0.30227 -0.123946,0 -0.968476,0.90811 -1.876721,2.01802 -2.363718,2.88853 -5.389355,6.23519 -6.751167,7.46746 -0.644463,0.58317 -1.802628,1.66814 -2.573696,2.41105 -1.302522,1.25496 -1.371489,1.3812 -0.972522,1.78016 0.770672,0.77067 1.74371,2.14557 1.680253,2.37418 -0.03412,0.12291 0.203989,0.73246 0.529127,1.35456 0.747538,1.43025 0.703837,3.53659 -0.10868,5.2383 -1.437412,3.01043 -1.716125,4.61362 -1.790365,10.29829 -0.08493,6.50335 0.31377,8.56877 1.914008,9.91527 2.120373,1.78418 3.469083,2.49887 5.170358,2.7398 0.940094,0.13313 1.835582,0.34563 1.989968,0.47222 0.549714,0.45072 1.572971,0.49292 4.056358,0.16727 z m 8.019656,-18.14421 c 0.902057,-0.27837 1.552779,-0.26181 1.887827,-0.35304 0.154484,-0.0421 0,0 0.247714,-0.0944 0.127225,-0.0485 0.276899,-0.31703 0.615341,-0.40197 1.051777,-0.26398 3.767537,-2.23429 4.157754,-3.01649 0.577603,-1.15784 0.269868,-2.01536 -0.987722,-2.75237 -0.803172,-0.47069 -1.181555,-0.90603 -1.407845,-1.61975 -0.853667,-2.69253 -0.767199,-5.54666 0.208008,-6.8657 0.303167,-0.41005 0.621724,-1.09814 0.707916,-1.5291 0.08619,-0.43095 0.249188,-0.78356 0.362216,-0.78356 0.113027,0 0.596378,-0.60377 1.074108,-1.34171 1.950869,-3.01349 2.51616,-3.77563 3.96943,-5.35166 0.702958,-0.76233 2.226236,-2.01186 3.385068,-2.77672 1.15883,-0.76488 2.61838,-1.72992 3.24343,-2.14454 0.62505,-0.41463 1.52877,-0.99415 2.00826,-1.28784 2.11129,-1.29317 8.963387,-9.11062 8.963387,-10.22619 0,-0.16853 0.11719,-0.30641 0.2604,-0.30641 0.14321,0 0.26038,-0.18412 0.26038,-0.40917 0,-0.22506 0.17576,-0.58495 0.39059,-0.79977 0.42618,-0.42619 0.52738,-1.13456 0.16208,-1.13456 -0.12568,0 -0.37438,0.17577 -0.55267,0.39058 -0.17828,0.21482 -0.48556,0.39058 -0.68285,0.39058 -0.19728,0 -0.3587,0.10244 -0.3587,0.22763 0,0.1252 -0.540337,0.74037 -1.200757,1.36705 -0.66043,0.62668 -1.47533,1.40306 -1.81089,1.7253 -0.33558,0.32223 -0.7115,0.58587 -0.83541,0.58587 -0.12389,0 -0.45618,0.26365 -0.73842,0.58588 -0.28223,0.32224 -1.02018,0.996 -1.63987,1.49724 -0.61971,0.50125 -1.25944,1.03292 -1.42163,1.18151 -0.16221,0.14857 -0.76361,0.55184 -1.33648,0.89615 -1.07129,0.64393 -3.26126,2.31013 -3.54436,2.69669 -0.0876,0.11965 -0.2048,0.17922 -0.26039,0.1324 -0.12029,-0.10133 -2.145835,1.38648 -2.270996,1.6681 -0.04771,0.10741 -0.256478,0.19529 -0.463855,0.19529 -0.207384,0 -0.444503,0.17576 -0.526937,0.39058 -0.08244,0.21483 -0.266822,0.39059 -0.409747,0.39059 -0.142932,0 -0.780734,0.35152 -1.417346,0.78116 -0.636603,0.42965 -1.311115,0.68255 -1.404807,0.78118 l -0.247333,0.26038 c -0.09864,0.10384 -0.17944,0.26039 -0.398755,0.26039 0,0 -0.466204,0.17576 -0.548638,0.39058 -0.08244,0.21483 -0.235531,0.39059 -0.340216,0.39059 -0.454839,0 -5.270176,4.61746 -7.044861,6.75536 -0.501253,0.60384 -1.057836,1.25593 -1.236854,1.4491 -0.179018,0.19316 -0.325483,0.47834 -0.325483,0.63373 0,0.15538 -0.109933,0.48599 -0.244296,0.73467 -0.574614,1.06349 -1.838821,3.99285 -1.838821,4.26081 0,0.16062 -0.410119,1.20033 -0.911363,2.31049 -0.501253,1.11016 -0.818496,2.28188 -0.911364,2.57158 -0.09939,0.31005 -0.207174,0.55309 -0.207174,0.55309 -0.113942,0 -0.236609,0.43721 -0.272597,0.97155 -0.03596,0.53435 -0.150879,1.38387 -0.25532,1.88783 -0.104433,0.50395 -0.124052,1.5413 -0.04358,2.30521 0.202978,1.92715 0.857466,2.41319 2.991994,2.22195 0.859289,-0.0769 2.300384,-0.36774 3.202449,-0.64611 z m 6.447301,-12.59091 c 0.278,-0.21027 0.718324,-0.38603 0.978504,-0.39058 0.67865,-0.0119 2.096167,-1.1157 4.404237,-3.42959 3.462173,-3.47088 6.964503,-4.47812 12.714023,-3.65641 0.79594,0.11376 1.78943,0.1153 2.20773,0.004 0.41831,-0.11187 1.173187,-0.26828 1.677517,-0.34758 0.50432,-0.0793 1.52731,-0.37175 2.27329,-0.64992 1.48846,-0.555 9.70043,-2.22859 12.18392,-2.48305 0.85929,-0.088 1.85528,-0.21102 2.21331,-0.27327 0.35804,-0.0623 1.35403,-0.22434 2.21331,-0.36021 4.27644,-0.67611 12.17552,-3.4246 18.00631,-6.26527 1.1674,-0.56874 2.28644,-1.03407 2.48673,-1.03407 0.2003,0 0.50479,-0.14061 0.67665,-0.31247 0.25577,-0.0905 0.49421,-0.0873 0.49421,-0.0873 0.16551,-0.24326 1.44087,-0.8058 4.63546,-2.03405 0.42965,-0.16519 0.85477,-0.40133 0.94473,-0.52476 0.09,-0.12341 0.52937,-0.23935 0.97647,-0.25762 0.44709,-0.0183 0.69,-0.22439 0.8129,-0.27467 l 0.17134,-0.0701 c 0,0 0.29928,-0.0311 0.45568,-0.0576 0.54047,-0.43519 4.44288,-1.35957 6.1272,-1.45137 1.70641,-0.093 4.39417,0.2295 5.3539,0.64242 0.28643,0.12323 1.1536,0.42348 1.92706,0.66721 2.29973,0.72467 3.88988,1.52499 4.01537,1.76709 0.0623,0.12016 0.20876,0.10383 0.69195,0.11963 0.65021,0.0213 0.93991,-0.28431 1.28832,-0.78758 0.2663,-0.38466 0.50642,-0.68338 0.60506,-0.72229 0.0986,-0.0768 0.10467,-0.16237 0.19529,-0.34584 0.0838,-0.16973 0.35051,-0.80447 0.77891,-1.36705 0.42841,-0.56257 1.07603,-1.947 1.43917,-3.07653 0.64562,-2.0082 0.65,-2.07289 0.19755,-2.92097 -0.68868,-1.29087 -3.98503,-4.58103 -4.33627,-4.32814 -1.37501,0.99003 -8.3264,1.81714 -11.3092,1.34562 -0.72008,-0.11382 -2.16054,-0.28499 -3.20101,-0.38035 -1.04049,-0.0954 -2.13397,-0.24116 -2.42998,-0.32396 -0.29601,-0.0828 -5.22522,-0.15982 -10.95378,-0.17115 -5.72858,-0.0113 -10.53277,-0.0968 -10.67598,-0.18995 -0.24464,-0.1591 -3.67534,-0.45429 -5.98896,-0.51531 -0.57286,-0.015 -1.62745,-0.21567 -2.34351,-0.44568 -1.7631,-0.56635 -7.21214,-0.52492 -10.67598,0.0812 -1.43214,0.25059 -2.66248,0.53296 -2.7341,0.6275 -0.22556,0.2978 -1.59224,0.82452 -1.80238,0.69463 -0.27714,-0.17127 -1.35787,1.07475 -2.02173,2.33094 -0.55839,1.05662 -2.00764,3.73605 -2.53512,4.68701 -0.60916,1.09823 -2.692247,3.7171 -3.600667,4.5268 -0.25062,0.22339 -0.45568,0.49167 -0.45568,0.59618 0,0.49418 -3.82148,3.90648 -5.51644,4.92579 -1.04757,0.62998 -2.72489,1.71265 -3.7274,2.40596 -1.00249,0.6933 -2.203545,1.49639 -2.668987,1.78464 -0.46545,0.28825 -0.846272,0.6297 -0.846272,0.75877 0,0.12906 -0.175761,0.23467 -0.390582,0.23467 -0.21482,0 -0.390582,0.12731 -0.390582,0.28292 0,0.34453 -1.389214,2.38026 -2.738893,4.0135 -0.355047,0.42965 -0.645683,0.86069 -0.645854,0.95787 -1.78e-4,0.0972 -0.153908,0.33153 -0.341625,0.52078 -0.187718,0.18925 -0.667246,1.04714 -1.065612,1.90642 -0.398374,0.85929 -0.88925,1.87335 -1.090843,2.25348 -0.569471,1.07384 -0.476167,1.78256 0.234681,1.78256 0.330658,0 0.828655,-0.17203 1.106655,-0.38231 z M 193.2824,159.51147 c 0.12048,0 0.59088,-0.37182 1.04531,-0.82626 0.87485,-0.87484 2.09678,-1.21156 4.50481,-1.24134 1.56821,-0.0194 4.79364,-1.32313 5.69172,-2.30062 1.04043,-1.13241 1.54847,-2.89023 0.99521,-3.44347 -0.0716,-0.0716 -0.32779,-0.48159 -0.5693,-0.91108 -0.54853,-0.9755 -1.31461,-1.1721 -2.81576,-0.72263 -0.64448,0.19296 -1.43785,0.15778 -1.77946,0.20066 -0.30903,0.0388 0,0 -0.44273,0.11674 -0.19071,0.0503 -0.10582,0.22078 -0.56406,0.14274 -0.40096,-0.0683 -1.31489,-0.17544 -2.03096,-0.23812 -0.71607,-0.0627 -1.37541,-0.12222 -1.46518,-0.1323 -0.0898,-0.0101 -0.40821,-0.58784 -0.70763,-1.28387 -0.56134,-1.30487 -0.6039,-1.83946 -0.94167,-11.82788 -0.0808,-2.391 -0.24524,-3.82527 -0.49245,-4.29643 -0.63776,-1.2155 -0.9558,-3.1995 -1.01906,-6.35691 l -0.061,-3.04575 -0.64421,0.42099 c -0.77396,0.50576 -0.9044,0.60578 -2.15499,1.6524 -0.53705,0.44946 -0.97645,0.74339 -0.97645,0.65317 0,-0.0902 -0.52745,0.36342 -1.1721,1.00807 -0.64465,0.64466 -1.52347,1.35381 -1.95293,1.57588 -0.42945,0.22208 -0.72766,0.42415 -0.72766,0.47503 0,0.0508 0.24292,0.90037 0.60479,1.86178 0.91818,2.43939 1.18865,4.65156 0.74897,6.12568 -0.57835,1.93899 -1.18152,2.94405 -2.38307,3.97094 -0.62841,0.53706 -0.99299,0.89037 -0.9854,0.97647 0.007,0.0848 -0.0232,0.19733 -0.13317,0.54246 -0.13631,0.42779 -0.21342,0.87089 -0.005,1.75763 0.1565,0.66834 0.33841,1.77689 0.40421,2.46344 0.0659,0.68655 0.35723,1.78532 0.64758,2.4417 0.29036,0.65639 0.44898,1.35806 0.52791,1.55092 0.20862,0.38231 0.43025,0.65352 0.52173,0.86699 0.0631,0.10901 0.30791,0.27447 0.41,0.59616 0.10211,0.32167 0.3286,0.70249 0.50333,0.84626 0.17472,0.14376 0.59707,0.78868 0.93856,1.43314 1.30851,2.46947 4.81038,5.47277 5.91508,5.07292 0.19072,-0.069 0.44536,-0.12551 0.56583,-0.12551 z m -20.6923,-1.0461 c 1.76413,-0.80364 2.48037,-2.64219 2.60606,-6.68955 l 0.0744,-2.39767 1.3804,-1.89876 c 0.75922,-1.04433 2.23139,-2.66042 3.2715,-3.59131 5.19881,-4.65291 5.91939,-5.69029 5.87826,-8.46266 -0.0211,-1.41837 -1.01024,-5.0697 -2.04574,-7.55131 -0.17928,-0.42964 -0.52045,-1.27011 -0.75815,-1.86772 -0.23772,-0.59761 -0.78836,-1.01021 -0.80845,-1.23095 -0.023,-0.25311 0,0 -0.072,-0.63159 -0.0524,-0.45973 0.19568,-0.7101 -0.25415,-1.63334 -0.30711,-0.63038 -0.70503,-1.84919 -0.88424,-2.70847 -0.30474,-1.46115 -0.34757,-2.13945 -0.23927,-3.78897 0.0441,-0.67153 3.06238,-6.16732 3.78267,-6.88761 0.49996,-0.49996 0.94797,-0.49968 0.94797,6e-4 0,0.21482 -0.1056,0.39058 -0.23467,0.39058 -0.24071,0 -0.65208,0.6329 -2.42652,3.73315 -1.53897,2.68883 -1.74665,5.30534 -0.61942,7.80422 0.20619,0.45713 0.45226,1.09968 0.54681,1.4279 0.25926,0.90005 0.8413,0.57089 3.29278,-1.86217 1.19631,-1.1873 3.05393,-2.90072 4.12803,-3.80757 1.07411,-0.90685 3.07903,-2.77286 4.45538,-4.14669 l 2.50247,-2.49786 -0.20092,-1.82273 c -0.11049,-1.00251 -0.32614,-2.70154 -0.47922,-3.77565 -0.15308,-1.07411 -0.46267,-3.30044 -0.68798,-4.947412 -0.2253,-1.64696 -0.46203,-3.346 -0.52605,-3.77565 -0.064,-0.42964 -0.1859,-1.48422 -0.27085,-2.34351 -0.34549,-3.49502 -3.18183,-9.284272 -6.63591,-13.54458 -1.73317,-2.13772 -3.68568,-3.957457 -4.66666,-4.349303 -0.72391,-0.289162 -6.43476,-0.32882 -8.46267,-0.05881 -1.07143,0.142681 -2.98696,0.525763 -6.40261,1.280432 -0.22751,0.0503 -0.87198,0.211912 -1.43215,0.35921 -0.56017,0.147299 -1.78012,0.460469 -2.71101,0.695944 -2.05887,0.52079 -3.54019,1.004101 -5.59839,1.826583 -0.85928,0.343383 -1.79668,0.660895 -2.08311,0.705583 -0.28644,0.04471 -1.32487,0.458508 -2.30765,0.919609 -0.98278,0.461092 -1.8476,0.83835 -1.92182,0.83835 -0.0742,0 -0.70096,0.406628 -1.39272,0.90362 -0.69178,0.496983 -1.67247,1.076878 -2.17932,1.288661 -0.50685,0.211775 -0.92194,0.420317 -0.92241,0.463425 -5.3e-4,0.04309 -0.22712,1.244517 -0.50365,2.669785 -0.27653,1.425259 -0.44999,2.676801 -0.38547,2.781191 0.0645,0.1044 -0.005,0.26459 -0.15158,0.35599 -0.14788,0.0914 -0.21261,0.25722 -0.14384,0.36849 0.0688,0.11127 0.19441,0.9527 0.2792,1.86983 0.32436,3.50796 0.78462,6.718 1.30316,9.088632 0.4462,2.03997 0.59128,2.69009 0.62468,2.79919 0.0109,0.0358 0.009,0.14245 -0.004,0.23698 -0.0128,0.0945 0.16294,0.27612 0.39059,0.40353 0.22765,0.12739 0.41759,0.37228 0.42208,0.54417 0.009,0.36296 1.1985,2.76316 2.02519,4.08821 0.31273,0.50125 0.56904,1.11642 0.56957,1.36705 5.2e-4,0.25062 0.10906,0.45567 0.24117,0.45567 0.13211,0 0.38444,0.43941 0.56075,0.97647 0.36063,1.09852 1.7823,3.35834 2.87432,4.56888 0.23207,0.25725 0.64253,0.89851 0.91214,1.42502 0.56703,1.10734 0.45694,0.9502 2.32241,3.31503 2.77738,3.52085 6.79585,7.86328 7.04556,7.61356 0.0638,-0.0638 -0.47636,-1.3848 -1.20045,-2.93547 -0.72409,-1.55066 -1.59659,-3.64771 -1.93888,-4.6601 -0.3423,-1.0124 -0.92396,-2.51782 -1.29258,-3.34538 -0.36863,-0.82757 -0.67022,-1.66733 -0.67022,-1.86613 0,-0.1988 -0.0878,-0.40052 -0.19529,-0.44826 -0.16526,-0.0734 -0.69312,-1.58182 -1.62506,-4.64362 -0.53965,-1.77298 -0.80741,-3.42248 -0.64274,-3.95957 0.17085,-0.55723 1.53162,-2.38975 2.49565,-3.36079 0.23272,-0.23443 0.46706,-0.53889 0.52076,-0.67659 0.20598,-0.52811 6.16816,-5.543302 6.59003,-5.543302 0.42714,0 -0.11732,0.75017 -1.13095,1.55824 -2.45926,1.960562 -5.87016,5.421172 -6.94494,7.046152 l -1.12708,1.70408 0.64319,2.07158 c 0.35375,1.13936 0.70597,2.41831 0.78272,2.84209 0.0768,0.42379 0.27934,0.8827 0.38437,1.06552 0.0705,0.43348 0.28679,0.62522 0.3972,0.94661 0.14344,0.34454 0.78758,2.68212 1.14369,3.20632 0.0973,0.14321 0.33555,0.78767 0.52947,1.43213 0.19391,0.64448 0.44936,1.28308 0.56768,1.41913 0.1183,0.13606 0.21511,0.45472 0.21511,0.70815 0,0.25343 0.23435,0.87802 0.52078,1.38799 0.28643,0.50997 0.52078,1.06498 0.52078,1.23336 0,0.38245 1.87448,4.17737 2.17046,4.39412 0.11963,0.0877 0.21648,0.2634 0.21521,0.39059 -0.002,0.1272 0.24144,0.66498 0.53937,1.19506 0.45209,0.80442 0.70878,1.57675 1.12001,1.77698 0.40698,0.96457 0.26836,0.97199 1.50619,2.23497 1.18252,1.19798 2.00203,2.25991 2.09231,2.7113 0.2545,1.27256 -0.58927,3.87317 -1.9828,6.11121 -3.78225,6.07435 -3.5387,5.50021 -3.52337,8.30582 0.007,1.37651 0.22452,2.37344 0.25547,2.50277 0.0336,0.14032 0,0 0.0738,0.2718 0.046,0.1696 -0.0652,0.41312 0.0605,0.58588 0.12566,0.17273 0.38278,0.78277 0.57135,1.35563 0.60669,1.843 0.96299,2.21331 2.12956,2.21331 0.57741,0 1.56874,-0.23639 2.20296,-0.5253 z m 10.27545,-9.82569 c 0,-0.38807 -1.0339,-5.61191 -1.12966,-5.70767 -0.14017,-0.14016 -4.28355,4.01227 -4.60751,4.61758 -0.24421,0.45632 -0.17559,0.50758 0.71551,0.53442 1.274,0.0384 2.04676,0.14278 3.32912,0.4498 1.35154,0.32358 1.69254,0.34491 1.69254,0.10587 z m -18.95606,-15.26642 c 0.75886,-0.1978 1.83161,-0.54854 2.38388,-0.77944 0.55226,-0.2309 1.27937,-0.30788 1.27937,-0.30788 0.12618,-0.51423 -2.24203,-2.8413 -5.87696,-6.32715 -0.54425,-0.52192 -1.58062,-1.7399 -2.30304,-2.70659 -0.72244,-0.9667 -1.39882,-1.75763 -1.5031,-1.75763 -0.10427,0 -0.4523,-0.52605 -0.77341,-1.16901 -0.32111,-0.64295 -1.34847,-2.23388 -2.28302,-3.53539 -0.93454,-1.30151 -1.93958,-2.9139 -2.23338,-3.58311 -0.29383,-0.66918 -0.60547,-1.27531 -0.69254,-1.34691 -0.087,-0.0716 -0.67855,-1.18478 -1.31441,-2.4737 -0.63586,-1.28893 -1.41696,-2.8708 -1.73577,-3.51527 -0.31881,-0.64445 -0.65695,-1.64045 -0.75142,-2.21331 -0.0945,-0.57285 -0.27501,-1.3345 -0.4012,-1.69253 -0.12619,-0.35803 -0.2932,-1.23686 -0.37113,-1.95292 -0.22931,-2.107052 -0.36987,-2.992892 -0.51117,-3.221532 -0.0731,-0.11816 -0.25343,-1.48805 -0.40087,-3.04419 -0.26911,-2.8402 -0.12769,-4.497319 0.59862,-7.014151 0.35639,-1.234966 0.35839,-1.245464 0.40006,-2.098491 0.0182,-0.371814 0.12475,-0.535217 0.29294,-0.505408 0.16952,0.03005 0.19316,-0.005 0.26039,-0.09728 0.0836,-0.114788 0.23365,-0.332367 0.51924,-0.423006 0.28558,-0.09065 0.67092,-0.303596 0.85633,-0.473234 0.83191,-0.761157 4.4384,-2.613465 6.17573,-3.171887 0.78768,-0.253174 1.54932,-0.542206 1.69253,-0.642282 0.52488,-0.366784 6.23913,-2.238459 9.11363,-2.985117 0.93971,-0.244094 1.94779,-0.494861 4.94741,-1.230722 3.1564,-0.77432 3.70396,-0.831311 8.10582,-0.843664 3.5712,-0.01004 4.82281,0.07144 5.13983,0.334563 0.23049,0.191289 0.36399,0.436946 0.29665,0.545899 -0.0673,0.108945 0.17672,0.417903 0.54234,0.686564 1.02429,0.752652 1.91983,1.648537 3.62187,3.623244 0.85928,0.996948 1.63336,1.871221 1.72016,1.942833 0.30445,0.251133 2.56483,4.392209 3.57818,6.555306 0.86879,1.854523 1.74712,5.308633 1.55977,6.133853 -0.025,0.11007 0.0328,0.61024 0.12849,1.11149 0.0957,0.50125 0.22445,1.23166 0.2862,1.62314 0.0617,0.39147 0.1681,0.80213 0.23634,0.91256 0.0683,0.11042 0.19233,1.19622 0.27573,2.412902 0.0834,1.21666 0.33507,3.03234 0.55927,4.03484 0.6865,3.06965 0.99128,6.37955 0.58744,6.37955 -0.29994,0 -0.98799,0.66288 -0.99422,0.95786 -0.003,0.11764 -0.66278,0.79977 -1.46735,1.51584 -0.80456,0.71607 -1.82782,1.65353 -2.27389,2.08324 -0.44608,0.42971 -1.27976,1.12804 -1.85263,1.55184 -0.57285,0.4238 -1.97895,1.6652 -3.12466,2.75865 -1.14572,1.09346 -2.63525,2.4858 -3.31005,3.09409 -0.67481,0.6083 -1.29516,1.32098 -1.37856,1.58374 -0.18205,0.5736 0.57265,3.00256 1.09531,3.52523 0.32039,0.32039 0.4684,0.3211 1.07117,0.004 0.38466,-0.2016 0.94014,-0.58155 1.23439,-0.84433 0.53324,-0.47622 0.79056,-0.65689 2.39439,-1.68125 0.46545,-0.29728 0.84707,-0.61681 0.84805,-0.71007 8.1e-4,-0.0933 0.44039,-0.46236 0.97645,-0.82021 1.2382,-0.82652 1.62567,-1.19456 1.62567,-1.54408 0,-0.15344 0.0919,-0.24969 0.20434,-0.21389 0.29045,0.0925 5.84762,-4.65938 9.09005,-7.77287 0.61164,-0.58729 1.17659,-0.85524 1.24682,-0.93306 0.0824,-0.0913 0,0 0.13476,-0.17833 0.10382,-0.13738 0.2373,-0.57254 0.52733,-0.88966 0.7262,-0.79401 2.31368,-3.2053 2.75859,-4.19014 0.20202,-0.44719 0.47201,-0.98883 0.59997,-1.20365 1.22902,-2.06315 3.26588,-8.624562 3.3673,-10.847202 0.0574,-1.25868 0.0222,-1.33837 -0.66689,-1.50802 -1.83503,-0.45177 -4.94939,-3.07358 -6.46677,-5.444048 -0.26185,-0.409067 -1.51087,-1.81517 -2.7756,-3.124681 -1.26471,-1.309519 -2.73224,-3.02539 -3.26117,-3.813075 -1.23717,-1.842377 -2.49526,-3.49958 -3.68317,-4.851641 -0.51996,-0.591794 -1.12113,-1.333859 -1.33596,-1.64903 -0.41149,-0.603717 -1.35896,-1.692438 -2.62539,-3.016788 -0.41782,-0.43693 -0.75967,-0.884148 -0.75967,-0.993838 0,-0.109682 -0.29294,-0.583483 -0.65097,-1.052895 -0.35804,-0.469411 -0.65179,-0.988882 -0.65097,-1.154379 0,0 -0.0758,-0.04617 -0.25544,-0.300915 -0.081,-0.114797 -0.2628,-0.301205 -0.41881,-0.650973 -0.15037,-0.337135 -0.37909,-0.650973 -0.37909,-0.650973 -0.2232,0 -2.40556,-4.349301 -2.72307,-5.42689 -0.14092,-0.478257 -0.30053,-0.572696 -0.74042,-0.438103 -0.30842,0.09437 -0.91506,0.26252 -1.34807,0.373668 -0.43301,0.11115 -1.05865,0.409656 -1.34993,0.461859 -0.39444,0.07069 -0.92805,0.165262 -1.27413,0.342453 -0.40479,0.207247 -0.41245,0.191549 -0.41245,0.191549 0,0 -0.85108,0.556306 -1.95364,1.042537 -1.10253,0.486233 -2.42139,1.070037 -2.93079,1.297345 -0.5094,0.227306 -1.09668,0.414411 -1.09668,0.414411 l -0.22009,0.143458 c -0.2769,0.180486 -3.40654,1.506302 -3.98489,1.375389 -0.11508,-0.02605 -0.38818,0.131569 -0.60687,0.350264 -0.2187,0.218692 -0.5002,0.334238 -0.62556,0.256754 -0.12536,-0.07752 -0.67251,0.05573 -1.21586,0.296014 -0.54336,0.240287 -1.22228,0.478621 -1.5087,0.529627 -0.28643,0.05103 -0.75514,0.195639 -1.04157,0.3214 -0.28643,0.125752 -1.01877,0.418438 -1.62743,0.650405 -0.60867,0.231968 -1.54606,0.590191 -2.08311,0.796052 -0.53706,0.20587 -2.2654,0.861144 -3.84076,1.45617 -1.57535,0.595026 -3.09863,1.17761 -3.38506,1.294623 -0.89613,0.366095 -1.55565,0.604721 -1.73594,0.628074 -0.0955,0.01239 -0.26147,0.11037 -0.36888,0.217784 -0.1074,0.107406 -0.41011,0.195291 -0.67267,0.195291 -0.26256,0 -0.47738,0.09224 -0.47738,0.204979 0,0.112736 -0.25481,0.224176 -0.56625,0.247633 -0.56497,0.04252 -1.47081,0.346648 -2.94902,0.989982 -0.42964,0.186981 -1.1045,0.420576 -1.49969,0.519097 -0.39519,0.09851 -0.78293,0.283313 -0.86165,0.410662 -0.0788,0.127348 -0.36655,0.231546 -0.63966,0.231546 -1.04388,0 -2.28037,0.828736 -2.48212,1.663586 -0.10768,0.445565 -0.23755,0.985876 -0.28862,1.200696 -0.051,0.214828 -0.19921,1.152225 -0.32921,2.083117 -0.13001,0.930893 -0.36337,2.102647 -0.51859,2.603899 -0.15522,0.501252 -0.36978,1.731594 -0.47679,2.73409 -0.24795,2.322735 -0.23469,9.868685 0.0194,11.066565 0.10633,0.50124 0.22727,1.32147 0.26875,1.822732 0.1223,1.47823 0.9602,5.27137 1.36038,6.15851 0.20359,0.45128 0.37015,1.00094 0.37015,1.22148 0,0.22053 0.11717,0.47338 0.26039,0.5619 0.14322,0.0885 0.26039,0.44347 0.26039,0.78881 0,0.34534 0.29294,1.26832 0.65098,2.05106 0.35803,0.78275 0.65097,1.49585 0.65097,1.58467 0,0.0888 0.34106,0.8489 0.75791,1.68907 0.41686,0.84017 0.70927,1.57625 0.64979,1.63572 -0.0595,0.0595 0.53686,0.7848 1.3252,1.61184 0.78834,0.82704 1.43333,1.66626 1.43333,1.86494 0,0.19867 0.0939,0.33193 0.20854,0.29613 0.1147,-0.0358 0.97989,0.81371 1.92266,1.88782 0.94277,1.07411 2.84091,3.03908 4.21809,4.3666 1.37718,1.32753 2.50396,2.46213 2.50396,2.52135 0,0.21114 3.37394,3.52764 3.58874,3.52764 0.1204,0 0.48113,0.2443 0.80162,0.54288 0.5824,0.54259 1.82715,1.27521 2.17177,1.27824 0.10043,7.8e-4 0.80349,-0.16022 1.56234,-0.35802 z m 48.97782,-39.812222 c -0.1174,-1.55224 -0.22552,-1.95175 -0.47267,-1.74663 -0.17625,0.14627 -0.39543,0.73481 -0.48707,1.30785 -0.13347,0.83474 -0.0531,1.1955 0.4047,1.81461 0.31421,0.42498 0.60188,0.74213 0.63927,0.70473 0.0374,-0.0374 -5.2e-4,-0.97364 -0.0842,-2.08056 z m -2.30722,-0.44251 c 0.36737,-0.13967 0.66793,-0.43419 0.66793,-0.6545 0,-0.22031 0.10733,-0.60403 0.2385,-0.85271 0.62605,-1.18687 1.07721,-2.43253 0.95352,-2.632673 -0.18258,-0.295423 0.94671,-4.674923 1.41848,-5.500969 0.20448,-0.358036 0.49169,-0.876347 0.63828,-1.151804 0.39197,-0.736671 3.43927,-3.027245 4.39011,-3.29994 0.45118,-0.129406 1.19902,-0.174846 1.65296,-0.235273 0.47919,-0.06379 0.75143,-0.190456 1.00659,-0.281491 0.44065,-0.157213 1.1557,-0.118681 3.94525,1.211234 1.33059,0.634351 2.57315,1.057908 2.68064,1.153375 0,0 0.13359,0.09696 0.26139,0.232162 0.0877,0.09279 0.32223,0.309566 0.71607,0.404174 0.39384,0.09462 1.18477,0.49657 1.75763,0.893244 0.57287,0.396665 1.45167,0.87484 1.95293,1.062598 0.50124,0.187758 1.69624,0.735909 2.65552,1.21811 0.95929,0.482202 1.83812,0.873351 1.95292,0.86922 0.11483,-0.0041 0.81706,-0.579013 1.56052,-1.277524 1.47312,-1.384039 3.02594,-2.077675 5.91357,-2.641532 2.04291,-0.398909 4.52985,-1.745769 4.32201,-2.340681 -0.24058,-0.688703 -0.13143,-5.423064 0.13099,-5.681267 0.14278,-0.140487 0.78066,-0.303037 1.4175,-0.361236 0.63684,-0.05816 1.08362,-0.21256 1.13577,-0.369019 0.087,-0.261217 -0.86184,-1.443137 -6.12746,-6.821005 -1.03582,-1.057907 -2.48441,-2.367518 -3.21907,-2.910248 -1.71194,-1.264685 -2.75436,-2.257918 -3.39872,-3.238369 -0.41416,-0.630164 -0.47661,-1.007676 -0.3231,-1.952922 0.29466,-1.8144 0.25809,-6.003285 -0.0625,-7.160717 -0.15869,-0.572857 -0.65603,-1.465401 -1.1052,-1.983428 -0.44918,-0.518029 -1.34398,-1.612606 -1.98844,-2.432396 -0.64447,-0.819788 -1.52329,-1.931728 -1.95293,-2.470973 -0.42963,-0.539249 -1.03674,-1.305587 -1.34911,-1.702976 -0.31236,-0.39739 -1.07587,-1.263705 -1.69669,-1.925143 -0.62081,-0.661443 -1.46151,-1.650463 -1.86821,-2.197825 -0.40671,-0.547362 -0.87828,-1.048477 -1.04796,-1.113588 -0.16967,-0.06511 -1.35832,0.912423 -2.64145,2.172294 -1.28312,1.259872 -3.21175,2.961505 -4.28587,3.781407 -3.43856,2.62478 -3.32551,2.486886 -3.46591,4.227172 -0.27376,3.393027 -0.75965,7.818177 -0.87122,7.934345 -0.30132,0.31372 -0.59448,-0.74998 -0.46441,-1.684992 0.1514,-1.088257 0.18999,-1.512563 0.51477,-5.659073 0.16906,-2.158476 0.27962,-2.58853 0.7454,-2.899359 0.3008,-0.200729 0.83983,-0.610653 1.19787,-0.91094 1.01226,-0.848992 1.0761,-0.898513 2.73168,-2.118799 0.85797,-0.632382 1.84827,-1.492443 2.20066,-1.911249 0.35241,-0.418803 1.15665,-1.243788 1.78721,-1.833298 1.01024,-0.94448 3.08733,-3.445679 3.82623,-4.607499 0.14322,-0.225183 0.79788,-1.220822 1.45484,-2.212532 0.65695,-0.991707 1.27341,-1.978867 1.36991,-2.193688 0.0965,-0.214822 0.40679,-0.742111 0.68951,-1.171754 0.5713,-0.868163 1.04256,-1.867898 1.04256,-2.211665 0,-0.123662 0.154,-0.379678 0.34225,-0.568925 0.63551,-0.638943 2.14947,-3.193902 3.38086,-5.705562 1.56896,-3.200195 1.66132,-4.485329 0.21262,-2.95831 -0.34159,0.360065 -0.66154,0.474452 -0.75542,0.520328 l -0.42046,0.205454 c -0.21952,0.107268 -1.38996,1.149101 -2.73909,2.13826 -2.88617,2.116117 -2.86017,2.095299 -5.87953,4.707705 -3.43472,2.971789 -4.0539,3.660839 -5.72175,6.367521 -0.83121,1.348929 -1.87583,2.879715 -2.3214,3.401745 -0.44555,0.522031 -1.10304,1.383387 -1.46108,1.914125 -0.35802,0.530739 -0.84979,1.181262 -1.0928,1.44561 -0.24301,0.264347 -0.62242,0.809096 -0.84315,1.210552 -0.63897,1.162181 -2.17275,2.749129 -2.47592,2.56176 -0.28941,-0.178866 0.66665,-1.558166 1.73793,-2.665674 0.34621,-0.357921 0.52704,-0.624275 0.52704,-0.686401 0,-0.209473 2.25154,-3.425475 2.51841,-3.608306 0.4888,-0.334871 -0.0888,-0.544234 -1.50151,-0.544234 -1.08105,0 -1.87381,0.223491 -3.45637,0.974412 -1.12945,0.535925 -2.12525,1.089963 -2.21286,1.23119 -0.0877,0.14123 -0.39059,0.249809 -0.39059,0.249809 0,0 -1.16868,0.601201 -2.3144,1.344525 -1.14571,0.743328 -2.67584,1.703152 -3.40029,2.132949 -3.2981,1.956696 -6.14989,4.547943 -14.35937,13.047538 -1.25969,1.304202 -2.81763,2.638166 -3.4621,2.964361 -0.64446,0.326196 -1.23033,0.671879 -1.30195,0.768182 -0.0716,0.0963 -0.5403,0.332489 -1.04155,0.524859 -0.50125,0.192371 -1.26289,0.505593 -1.69254,0.696053 -0.42964,0.190457 -1.24105,0.503851 -1.80313,0.696433 l -1.02198,0.350144 1.81509,0.299755 c 1.29403,0.213704 2.09896,0.221368 2.80401,0.02669 0.54391,-0.150184 1.03982,-0.222182 1.102,-0.159995 0.26795,0.267953 -0.45149,1.472568 -1.19616,2.002823 -0.51858,0.369262 -0.73201,0.68477 -0.59317,0.876873 0.11928,0.16504 0.37516,0.768774 0.56864,1.341632 0.19347,0.572857 0.56943,1.321007 0.83548,1.662552 0.26604,0.341546 0.4837,0.742433 0.4837,0.890861 0,0.148427 0.16654,0.454856 0.37008,0.680955 0.20355,0.2261 0.4086,0.58227 0.45569,0.791497 0.0806,0.358499 0.24981,0.629937 0.86677,1.391024 0.14322,0.176669 0.48696,0.729186 0.76386,1.227814 0.4429,0.79751 0.88924,1.353032 2.49101,3.100259 0.21482,0.234333 0.56314,0.756467 0.77404,1.160308 0.21089,0.403842 0.88465,1.272462 1.49724,1.930279 0.61258,0.657809 1.04108,1.316277 1.11378,1.406047 0.0935,0.115514 0.12572,0.227573 0.25242,0.268498 0.26669,0.24516 2.11101,2.359657 2.11604,2.55413 0,0.25451 0.58697,0.780892 1.01661,1.251291 0.42964,0.470399 0.78131,0.935914 0.78149,1.034491 1.7e-4,0.09857 0.29311,0.519672 0.65098,0.935793 0.35786,0.416114 0.65065,0.83456 0.65065,0.92988 0,0.09531 0.73248,0.926616 1.62773,1.847319 0.89525,0.920711 2.38924,2.548219 3.31997,3.616683 2.18808,2.51189 2.56725,2.770132 2.86399,2.87455 0.12818,0.04511 0.20401,0.100676 0.26039,0.19864 0.0903,0.156856 0.92064,0.73396 1.3501,0.81095 0.0981,0.0175 0.4789,-0.0823 0.84626,-0.22198 z M 232.1598,61.249701 c 0.10637,-0.277216 0.025,-0.501656 -0.21519,-0.593842 -0.2124,-0.08151 -0.38619,-0.259752 -0.38619,-0.396098 0,-0.136342 0.0994,-0.186446 0.22095,-0.111339 0.12153,0.07511 0.46816,-0.09374 0.77028,-0.375217 0.30213,-0.281476 0.73466,-0.511775 0.96118,-0.511775 0.22651,0 0.87121,-0.234351 1.43265,-0.520779 0.56145,-0.286429 1.31842,-0.52078 1.68216,-0.52078 0.71488,0 0.82205,0.433368 0.50239,2.031644 -0.15841,0.792053 -0.16581,0.795121 -2.14821,0.889801 -1.09409,0.05225 -2.21465,0.198289 -2.49015,0.324522 -0.40978,0.187769 -0.46978,0.148458 -0.32987,-0.216137 z m -1.2099,-5.898067 c 0.41689,-0.434051 2.57571,-0.654671 2.80327,-0.286478 0.10607,0.171631 -0.0132,0.295842 -0.29156,0.303662 -0.25908,0.0073 -0.99834,0.07733 -1.6428,0.155676 -0.91296,0.110983 -1.10487,0.07281 -0.86891,-0.17286 z M 220.53517,31.458113 c 0.45346,-0.676573 1.09399,-1.757424 1.42339,-2.401888 0.72518,-1.418822 5.28744,-5.947001 7.91738,-7.858251 1.68213,-1.222445 1.97012,-1.557487 2.44594,-2.845602 0.95879,-2.595574 0.68828,-4.825943 -0.45933,-3.787363 -0.26914,0.243567 -0.70867,0.850109 -0.97673,1.347874 -0.26806,0.497763 -0.63489,0.808263 -0.68856,0.905025 l -0.20119,0.362726 c -0.0968,0.17446 -0.2343,0.343732 -0.39058,0.512606 -0.20419,0.220639 -0.39058,0.463079 -0.39058,0.463079 0,0 -0.498,0.791923 -1.10665,1.377032 -0.60867,0.585109 -2.15744,2.29336 -3.44173,3.796112 -1.28429,1.502754 -3.48133,4.000761 -4.88231,5.551128 -1.40097,1.550369 -2.54723,2.910228 -2.54723,3.021912 0,0.212763 1.41149,0.731715 2.08311,0.765881 0.21482,0.01093 0.7616,-0.533694 1.21507,-1.210271 z"
       id="path51"
       sodipodi:nodetypes="sssssscssssssssssssssssscssssssssscssssssssssssssssssscsssscscssssssssssssssssssssssssssssssscssssccccsssssssccsssssssssscsssccssscssssccsssccscsssccsscssssscssssssscsssssssssssssccsssscsssssssscsscsssssssssssssssscsssssssssssscssssssssssssssscscssssscsssssssssssssssscsssssssssssssscsssscssssssssssssssssssssssssssccssssssscssssssssscscssssscsssssscssssscsssscsccssssscsssscsssssssssssssssssssssssssssccsscsscssssssssssssssssssssscsssssssssssssssssssssssssssscsssssssssssssssssssssssccccssscsscccssccscssccsssssscsssssssssscsssssssssssssssssssscccsssssssssssscsscsssssssssssccsccsssscccccsscsssssssssssssssscssssssssssssssssscsscscsccscsssssssssssssssssssscscccssssssccsccsscsssssccsssssscscsssssccssssscsscsssssssssssssssssccssscssssssscsscsssssssscssssssssssssssssssscsscsssssssssssssssssscsscssssssssssssssssssssscccsssssssssssscsssssssssssssssscsssssssssssssssssssssssssssscsssssssssssssssssccsssssssscssssssssscssssssccsssssssscsssssssssssssssssssssssssssscssssss" />
  </g>
</svg>
