<?xml version="1.0" encoding="UTF-8" standalone="no"?>
<!-- Created with Inkscape (http://www.inkscape.org/) -->

<svg
   width="18in"
   height="13in"
   viewBox="0 0 457.20001 330.20001"
   version="1.1"
   id="svg5"
   inkscape:version="1.1 (c68e22c387, 2021-05-23)"
   sodipodi:docname="albert-big.svg"
   xmlns:inkscape="http://www.inkscape.org/namespaces/inkscape"
   xmlns:sodipodi="http://sodipodi.sourceforge.net/DTD/sodipodi-0.dtd"
   xmlns="http://www.w3.org/2000/svg"
   xmlns:svg="http://www.w3.org/2000/svg">
  <sodipodi:namedview
     id="namedview7"
     pagecolor="#ffffff"
     bordercolor="#666666"
     borderopacity="1.0"
     inkscape:pageshadow="2"
     inkscape:pageopacity="0.0"
     inkscape:pagecheckerboard="0"
     inkscape:document-units="mm"
     showgrid="false"
     units="in"
     inkscape:zoom="0.5499273"
     inkscape:cx="86.375053"
     inkscape:cy="1313.81"
     inkscape:window-width="2560"
     inkscape:window-height="1377"
     inkscape:window-x="2552"
     inkscape:window-y="-8"
     inkscape:window-maximized="1"
     inkscape:current-layer="layer1" />
  <defs
     id="defs2" />
  <g
     inkscape:label="Layer 1"
     inkscape:groupmode="layer"
     id="layer1">
    <path
       style="font-style:normal;font-weight:normal;font-size:12px;font-family:Dialog;display:inline;color-interpolation:auto;fill:#333333;fill-opacity:1;stroke:#000000;stroke-width:0.384276;stroke-linecap:square;stroke-linejoin:miter;stroke-miterlimit:10;stroke-dasharray:none;stroke-dashoffset:0;stroke-opacity:1;color-rendering:auto;image-rendering:auto;shape-rendering:auto;text-rendering:auto"
       d="m 39.136295,297.19719 c -1.193067,-0.57541 -1.092454,-1.1357 0.12109,-0.67432 1.723188,0.65517 4.643413,0.4081 8.90294,-0.75329 4.913411,-1.33964 7.822547,-2.58199 9.858232,-4.20995 0.821621,-0.65703 1.600428,-1.19467 1.730674,-1.19467 0.130236,0 1.198729,-0.90784 2.374408,-2.01742 2.997279,-2.82879 5.083019,-4.50474 5.613172,-4.51043 0.43129,-0.006 0.886841,-0.51038 2.621741,-2.91095 0.422698,-0.58488 0.945311,-1.25105 1.16137,-1.48034 0.615587,-0.65334 3.230329,-4.70165 3.548094,-5.49339 1.220459,-3.0409 6.159132,-7.67424 10.037307,-9.41668 1.400054,-0.62907 3.583091,-1.63393 4.851189,-2.23302 1.268108,-0.59913 2.764451,-1.26357 3.325211,-1.47654 0.870665,-0.33071 1.190281,-0.93789 2.188509,-4.15759 1.506268,-4.85836 1.402041,-5.90603 -0.953929,-9.58901 -0.716687,-1.12036 -1.646756,-2.22096 -2.066811,-2.44576 -0.420063,-0.22482 -0.763743,-0.63786 -0.763743,-0.91786 0,-0.28002 1.280485,-1.5813 2.845527,-2.89172 1.565042,-1.31044 3.277256,-2.90373 3.80492,-3.54068 0.527661,-0.63693 1.841014,-2.08179 2.918584,-3.21084 1.07755,-1.12904 1.9592,-2.17411 1.9592,-2.32238 0,-0.39554 4.94665,-5.91708 9.48407,-10.58633 2.21193,-2.27616 4.30122,-4.8139 4.74555,-5.7641 0.43659,-0.93367 1.38153,-2.80839 2.09986,-4.16604 l 1.30608,-2.46848 -1.12954,-2.34201 c -2.52787,-5.24139 -3.83335,-12.07441 -3.60171,-18.85167 0.1138,-3.3304 0.77933,-11.62657 1.15595,-14.41027 0.49444,-3.65458 0.88814,-5.86635 1.60744,-9.03045 1.04225,-4.58482 1.37322,-7.82013 1.04448,-10.21032 -0.23048,-1.67579 -0.52982,-2.20664 -2.05439,-3.64326 -0.98154,-0.92493 -3.60031,-2.83544 -5.8195,-4.24559 -2.21918,-1.41015 -4.98594,-3.28532 -6.14838,-4.16703 -2.92624,-2.21959 -5.03393,-3.36284 -8.838308,-4.79405 -1.796481,-0.67582 -3.785097,-1.4625 -4.419152,-1.7481 -1.031611,-0.46474 -5.540021,-1.9575 -10.115804,-3.34941 -1.521039,-0.46269 -1.737365,-0.69334 -2.55429,-2.72329 -1.300816,-3.2324 -2.992501,-5.06015 -8.723374,-9.42494 -2.816788,-2.14534 -5.677381,-4.55353 -6.356889,-5.35153 -0.6795,-0.79799 -1.765798,-2.05612 -2.414,-2.79586 -1.200965,-1.37054 -3.84388,-6.33439 -3.84388,-7.21947 0,-0.26833 -0.60696,-1.76693 -1.348806,-3.33022 -0.741844,-1.563277 -1.451727,-3.417287 -1.57752,-4.120007 -0.125794,-0.702716 -0.549365,-2.401664 -0.941282,-3.775444 -0.802497,-2.812949 -1.03129,-4.987856 -0.598387,-5.688295 0.312097,-0.504992 1.777437,0.19903 6.90698,3.318465 1.448221,0.880705 2.706081,1.601282 2.795249,1.601282 0.08918,0 1.061159,0.618421 2.159971,1.374277 1.098809,0.755849 3.442761,2.054387 5.208772,2.885635 1.766012,0.83126 3.764452,1.93356 4.440968,2.44957 0.676521,0.516 1.610471,1.078927 2.07545,1.250917 1.131535,0.41859 5.74404,4.24365 9.399503,7.79483 3.858884,3.74881 5.770967,5.39769 7.792987,6.72026 1.906822,1.24722 3.282015,1.99537 7.109072,3.8675 11.801,5.77287 14.18485,6.88887 14.30051,7.15742 0.29004,0.0537 0.23299,0.16928 0.72998,0.3157 0.39479,0.11631 1.9307,0.67002 3.37584,1.48893 2.15156,1.21921 6.55688,2.99833 8.3007,3.35232 0.21135,0.0429 0.90305,0.29255 1.5371,0.55478 0.63405,0.26224 1.41221,0.51648 1.72923,0.56499 0.31703,0.0486 2.07264,0.53234 3.90137,1.07516 2.88335,0.85586 4.07159,0.99001 8.9464,1.00993 5.03335,0.0205 11.86385,-0.68182 12.90842,-1.32739 0.20709,-0.12795 1.19745,-0.37608 2.20078,-0.55133 1.00336,-0.17524 2.86181,-0.67933 4.12991,-1.12018 2.1149,-0.73524 7.80958,-2.49886 8.26189,-2.55869 1.56046,-0.20639 3.7457,-0.78237 5.76411,-1.51927 1.37378,-0.50156 4.05407,-1.27973 5.95623,-1.72926 1.90218,-0.44955 4.40956,-1.14056 5.57197,-1.53559 1.16243,-0.39503 3.06461,-0.83199 4.22704,-0.97102 3.47091,-0.41514 4.25052,-0.57563 5.6629,-1.16577 0.74132,-0.30974 1.72058,-0.56318 2.17612,-0.56318 0.45554,0 1.16936,-0.2291 1.58624,-0.50911 0.41688,-0.28001 1.79554,-0.72251 3.06363,-0.98333 2.46127,-0.50621 3.80759,-0.93183 5.95625,-1.88292 0.73974,-0.32743 2.29602,-0.89696 3.45847,-1.26561 2.57428,-0.81639 4.42856,-1.47163 5.95622,-2.10473 0.63407,-0.26277 2.70914,-0.91059 4.61131,-1.43961 1.90214,-0.52903 6.20251,-2.01523 9.55633,-3.30267 3.35382,-1.28743 6.81229,-2.53041 7.68547,-2.76216 0.8732,-0.23176 2.10638,-0.65509 2.74042,-0.94076 0.63407,-0.28568 2.62269,-1.07 4.41915,-1.74297 1.79648,-0.67296 3.43061,-1.37476 3.63137,-1.55956 0.20082,-0.18479 0.72824,-0.33599 1.17205,-0.33599 0.44384,0 0.97124,-0.1458 1.17206,-0.324 0.35038,-0.311 3.40386,-1.29252 5.6789,-1.82546 0.59775,-0.14002 1.93707,-0.664757 2.97626,-1.166067 1.03918,-0.50132 2.07351,-0.91148 2.29862,-0.91148 0.48758,0 10.21038,-4.095697 11.31491,-4.766355 0.42267,-0.25667 1.63311,-0.781828 2.68988,-1.167014 1.05675,-0.385191 2.08566,-0.850535 2.28643,-1.034089 0,0 0.67363,-0.23613 1.05087,-0.333746 0.36512,-0.0945 1.66944,-0.503682 2.87168,-1.119301 l 2.18599,-1.119304 -1.89182,-0.231928 c -5.7032,-0.699194 -9.90878,-2.099768 -7.35788,-2.450378 1.23756,-0.170106 3.15095,-0.766202 6.4267,-2.002174 6.74735,-2.545826 8.39555,-3.663256 13.83387,-9.379042 6.50785,-6.839858 15.70294,-15.07028 16.49108,-15.208335 0.51033,-0.200046 0.63276,-0.719259 1.11779,-0.939183 0.37203,-0.158491 1.11427,-0.609526 1.6197,-1.082649 1.52889,-1.048393 5.31783,-3.11478 6.20697,-3.769426 0.16957,-0.02056 1.08997,-0.846436 2.51793,-1.751637 1.42798,-0.905187 2.78305,-1.80572 3.01135,-2.001168 0.22829,-0.19545 1.69924,-0.973034 3.26877,-1.727959 1.78419,-0.85816 3.10222,-1.775486 3.51671,-2.447565 0.36462,-0.591227 2.15527,-2.631273 3.97926,-4.533426 1.82393,-1.902156 4.44791,-4.928317 5.83102,-6.724796 1.38316,-1.796481 2.87686,-3.628318 3.31948,-4.070744 0.72136,-0.721024 2.65468,-2.922548 4.82886,-5.498835 0.52007,-0.554736 0.53105,-1.004213 0.86924,-1.359984 0,0 0.72945,-0.537631 0.85918,-0.946349 0.30004,-0.945311 2.96577,-3.879318 3.52451,-3.879318 0.69734,0 1.30363,4.18419 0.96065,6.628725 -0.29596,2.109599 -0.34634,2.399527 0.59899,1.720011 0.25816,-0.185566 0.73957,-0.767035 1.26799,-1.106154 0.52835,-0.33912 1.44513,-1.06989 2.03721,-1.623938 0.59214,-0.554046 1.36695,-0.848085 1.61965,-1.007359 0.29872,-0.188272 0.50853,-0.424293 0.95441,-0.768546 0.37946,-0.292984 0.68752,-0.616638 0.92715,-0.768548 0.34647,-0.219655 0.61463,-0.333068 1.01436,-0.600692 0.58764,-0.393422 0.53075,-0.543141 0.84082,0.01105 0.72795,1.300757 -3.41429,11.223352 -5.86465,14.048697 -0.41823,0.482203 -0.61833,1.147657 -0.76039,1.394347 l -0.29818,0.517614 c -0.0819,0.142111 -0.63781,0.762712 -1.05288,1.694921 -0.25451,0.580531 -0.95629,1.769436 -0.95629,1.769436 -0.274,0.629766 -1.11974,2.974922 -1.96024,3.987069 -0.19471,0.234403 -1.38494,2.000994 -2.64496,3.925753 -1.26008,1.924756 -2.55469,3.718396 -2.877,3.985855 -0.75354,0.625409 -0.74801,1.416119 0.0135,1.841955 0.32938,0.184322 1.06532,1.039699 1.63539,1.900833 0.57007,0.861134 1.98665,2.587278 3.14783,3.835874 2.35696,2.534319 6.25792,7.283529 7.66958,9.337307 0.50842,0.73973 1.59311,2.157862 2.41038,3.151407 1.44063,1.751324 1.48659,1.898872 1.50585,4.835059 0.0106,1.66574 -0.1043,4.518403 -0.25588,6.339255 -0.25088,3.011056 -0.19947,3.43417 0.56788,4.675719 0.464,0.75079 0.97554,1.365081 1.13681,1.365081 0.28837,0 2.97471,2.249694 6.75322,5.655572 1.05675,0.952537 2.13143,2.101552 2.38813,2.553372 2.43562,2.481487 5.53183,5.520627 7.73983,7.909927 0.49795,0.53973 1.34726,1.45599 1.88746,2.03614 l 0.98203,1.05483 -1.08832,2.01936 c -0.59856,1.11066 -1.44793,2.38652 -1.88745,2.83527 -1.5716,1.60464 -2.52834,2.90876 -2.52834,3.44629 0,1.04563 -4.23642,3.48081 -5.05298,3.39977 -1.09956,0.40103 -2.2292,0.84258 -3.11282,0.99649 -2.90394,0.48571 -5.80888,1.86443 -7.31859,2.95569 -0.50946,0.36827 -0.58677,0.41215 -0.81211,0.60365 -0.38989,0.33126 -0.61976,0.64327 -0.79254,0.69873 -0.42418,0.43275 -1.31976,1.81563 -2.15458,1.59732 -0.40621,-0.10627 -0.65479,-0.35598 -0.73861,-0.50672 -0.11758,-0.21168 -0.40473,-0.34131 -0.8646,-0.58443 -0.44053,-0.23292 -2.11035,-0.85233 -3.63284,-1.56299 -1.52249,-0.71066 -2.95878,-1.21226 -3.15637,-1.31153 -0.15457,-0.0777 -0.1315,-0.11583 -0.40508,-0.28821 -0.30948,-0.40642 -1.39732,-1.02133 -3.46932,-1.79086 -2.06066,-0.76535 -5.78959,-2.55828 -7.42482,-3.57001 -2.14744,-1.32858 -4.68286,-1.25191 -7.69871,0.23279 -1.30855,0.64417 -2.67274,1.48226 -3.03165,1.86244 -2.56686,2.71931 -3.0167,3.40039 -3.56711,5.40179 -0.33375,1.21349 -0.75208,2.56327 -0.92964,2.9995 -0.32441,0.79695 -0.27387,3.55261 0.18288,9.96652 0.3991,5.60406 0.39449,6.07506 -0.0608,6.22796 -0.23873,0.0803 -0.89453,-0.63985 -1.45724,-1.60007 -1.21949,-2.08093 -1.75363,-2.21886 -1.68662,-0.4355 0.0274,0.72067 -0.13869,1.80145 -0.36859,2.4017 -0.22984,0.60027 -0.96364,2.64771 -1.63057,4.54986 -1.78112,5.07969 -3.73687,9.25696 -5.73045,12.23967 -0.54404,0.81402 -1.29022,2.02447 -1.6582,2.68992 -0.66209,1.19757 -4.20724,4.97691 -6.31118,6.72811 -0.59926,0.49881 -1.86796,1.62282 -2.81935,2.49778 -1.76649,1.62465 -5.59549,4.92796 -7.03199,6.0666 -0.72557,0.5751 -0.80627,1.08494 -0.8817,5.57197 -0.072,4.27732 0.0636,5.55673 1.01166,9.55027 1.00902,4.25005 1.10548,5.31875 1.23164,13.64254 0.12128,8.0019 0.22227,9.20639 0.88643,10.56755 l 0.74964,1.53626 3.36884,0.0539 c 1.85288,0.0295 4.10088,-0.11142 4.99557,-0.31322 0.89466,-0.20185 2.26348,-0.40325 3.04181,-0.44754 1.34159,-0.0763 1.48013,0.0316 2.6661,2.0767 1.289,2.22284 1.45476,2.3372 5.71775,3.94391 3.70456,1.39622 5.11768,1.7952 6.36783,1.79782 0.61905,10e-4 1.59814,0.24891 2.1758,0.55025 0.57759,0.30132 1.13872,0.40466 1.24693,0.22962 0.19474,-0.31511 5.67698,0.99624 8.27035,1.97828 3.80928,1.44245 12.42417,6.6821 13.34645,8.11736 0.16238,0.25274 0.98695,1.03735 1.83235,1.74356 2.22454,1.85824 9.4147,9.01086 9.4147,9.3655 0,0.83118 -1.22066,0.0503 -3.58461,-2.2929 -1.43922,-1.42662 -3.16685,-3.07533 -3.83915,-3.66379 -0.67231,-0.58846 -2.25992,-2.03763 -3.52804,-3.22035 -5.17675,-4.82826 -12.92876,-8.96142 -19.79006,-10.55159 -0.95113,-0.22041 -2.07508,-0.48675 -2.4978,-0.59184 -0.42273,-0.10507 -1.02796,-0.19993 -1.34496,-0.21077 -0.31702,-0.0103 -1.87333,-0.35639 -3.45847,-0.76796 -1.58515,-0.41153 -3.31438,-0.84431 -3.84276,-0.96171 -0.52837,-0.11747 -1.13358,-0.33932 -1.34493,-0.49317 -0.21137,-0.15383 -0.90305,-0.39822 -1.53712,-0.54308 -0.63405,-0.14492 -1.4397,-0.34828 -1.79038,-0.45209 -0.4712,-0.13946 -0.89781,0.36142 -1.63497,1.91974 -0.93088,1.96763 -1.18687,2.19711 -3.83357,3.4366 -2.02621,0.94889 -3.96074,1.49303 -6.77432,1.90557 -2.16601,0.31758 -4.04476,0.73343 -4.17504,0.9241 -0.37664,0.55123 -3.89835,2.40155 -4.9253,2.58777 -1.28826,0.2336 -3.40429,-1.02222 -5.69116,-3.37761 -1.75858,-1.81132 -4.03069,-4.89387 -4.03069,-5.46848 0,-0.12942 -0.67067,-1.21393 -1.4904,-2.40994 -0.81973,-1.19603 -1.72109,-2.72423 -2.003,-3.39603 -0.5216,-1.24283 -1.37223,-1.6039 -4.3842,-1.86101 -0.63405,-0.0542 -1.95141,-0.22449 -2.92745,-0.37856 -1.10199,-0.17396 -1.86682,-0.13091 -2.01782,0.11334 -0.13372,0.21642 -0.58886,0.30309 -1.01137,0.19261 -0.60206,-0.15745 -0.77645,-0.006 -0.80661,0.70855 -0.0209,0.50019 -0.0804,2.03343 -0.13176,3.40721 -0.17616,4.71076 -2.5603,9.8006 -4.82944,10.31014 -0.31076,0.0698 -0.68263,0.31714 -0.82632,0.54969 -0.14375,0.23254 -1.27376,0.49603 -2.51119,0.58554 -2.59633,0.18779 -2.44705,0.37433 -5.1127,-6.38842 -0.92005,-2.33417 -0.39379,-9.58577 0.80171,-11.04687 0.38791,-0.4741 -0.44172,-0.96542 -3.10704,-1.83998 -0.95107,-0.31208 -2.248,-0.8294 -2.88205,-1.14958 -0.63405,-0.3202 -1.67159,-0.67487 -2.30563,-0.78818 -2.41866,-0.43222 -3.47147,-0.70683 -3.84275,-1.00229 -0.21136,-0.16818 -1.94059,-0.3075 -3.84275,-0.30961 -3.58559,-0.004 -6.8345,0.68785 -10.28427,2.18986 -1.00664,0.43828 -1.95769,0.82279 -2.11349,0.85446 -0.1558,0.0317 -0.68359,0.20976 -1.17289,0.3958 -0.48931,0.18603 -1.1412,0.33825 -1.44867,0.33825 -0.30746,0 -1.24385,0.43229 -2.08086,0.96067 -0.83701,0.52838 -1.70926,0.9607 -1.93835,0.9607 -0.22911,0 -1.3133,0.40847 -2.40934,0.90774 -1.09605,0.49925 -2.42513,1.03863 -2.95351,1.19862 -0.97778,0.29602 -3.51895,1.37479 -5.53492,2.34962 -0.61371,0.29678 -1.31206,0.53959 -1.55195,0.53959 -0.23986,0 -1.10347,0.34021 -1.91914,0.75608 -0.81569,0.41585 -1.60298,0.51176 -1.81049,0.55373 -0.15873,0.032 -0.21515,0.0877 -0.32746,0.2046 -0.15523,0.16165 -0.27816,0.24222 -0.44529,0.31849 -0.47573,0.21707 -5.01208,1.80639 -7.04803,2.77902 -1.73417,0.82845 -3.77082,1.4776 -5.41917,1.72724 -0.61242,0.0927 -2.58335,0.4344 -4.37982,0.75925 -3.61684,0.654 -10.24575,1.64499 -11.14396,1.66597 -0.31702,0.006 -1.61392,0.21734 -2.88205,0.46651 -1.2681,0.24917 -2.82125,0.50769 -3.45144,0.5745 -0.63021,0.0669 -1.75421,0.29974 -2.49778,0.51758 -0.74359,0.21785 -2.73537,0.75891 -4.42617,1.2023 -1.6908,0.44342 -3.76587,0.9961 -4.61128,1.22818 -0.8976,0.24642 -4.36562,0.39425 -8.33577,0.35535 -6.01312,-0.059 -7.07874,0.0273 -9.22257,0.7465 -1.33314,0.4472 -2.69689,1.05764 -3.03055,1.35649 -0.33368,0.29889 -0.75912,0.54341 -0.94541,0.54341 -0.18632,0 -1.38317,1.09054 -2.65968,2.42344 -1.2765,1.33288 -3.27199,3.04996 -4.43441,3.81572 -2.2043,1.4521 -5.45865,2.98343 -6.34036,2.98343 -0.78231,0 -0.89781,0.79788 -0.37257,2.57352 0.26239,0.88707 0.40574,1.68419 0.31853,1.7714 -0.1938,0.1938 2.82214,2.95629 3.22751,2.95629 0.57958,0 1.26608,2.25114 1.05385,3.45578 -0.28467,1.6158 -1.4699,2.60643 -2.2741,3.06479 l -0.47682,0.27178 c -0.47563,0.27109 -1.31331,2.04594 -2.09729,2.04594 -0.37338,0 -0.77047,0.14819 -0.88243,0.32933 -0.11189,0.18113 -1.14789,0.4268 -2.3021,0.54597 -1.1542,0.11906 -2.67235,0.46535 -3.37366,0.76943 -2.74837,1.19168 -3.28749,1.31805 -5.93608,1.39144 -3.07011,0.0851 -3.58569,-0.20531 -4.60604,-2.59413 -0.42095,-0.98552 -0.54747,-2.17135 -0.42542,-3.98711 0.0955,-1.42142 0.0324,-2.49708 -0.14028,-2.39034 -0.40071,0.24767 -2.76923,5.14232 -3.72495,7.6978 -0.64462,1.72368 -0.78533,3.54989 -0.52258,6.78252 0.0533,0.65611 2.25218,1.83046 3.4273,1.83046 0.86144,0 3.07639,1.79777 3.69372,2.998 0.29332,0.57028 1.17145,2.90785 1.95139,5.19453 1.47288,4.31837 1.59356,6.19514 0.50986,7.93036 -0.45329,0.72588 -0.65548,0.84119 -1.31924,0.75234 -0.13489,-0.018 -0.36059,0.15381 -0.50155,0.3819 -0.66463,1.0754 -9.21928,1.46849 -11.00854,0.50586 -0.44194,-0.23778 -1.56594,-0.47567 -2.49778,-0.52866 -0.93184,-0.053 -2.12656,-0.31997 -2.65493,-0.59323 -0.52839,-0.27329 -1.13362,-0.50255 -1.34498,-0.50948 -0.356,-0.0119 -2.426391,-1.74413 -4.86291,-4.06913 -0.561091,-0.53539 -1.425707,-2.04187 -1.921369,-3.34772 -0.846156,-2.22922 -0.901195,-2.89055 -0.901195,-10.82829 0,-4.64968 0.117073,-9.03157 0.260138,-9.73748 0.251397,-1.24042 0.225587,-1.27489 -0.768548,-1.0269 -0.565782,0.14107 -1.893303,0.69445 -2.950056,1.2296 -1.056754,0.53514 -2.571729,1.20636 -3.366614,1.49166 -0.794891,0.2853 -2.26263,1.08106 -3.261657,1.7684 -2.057389,1.41552 -6.629175,5.92473 -6.629175,6.53841 0,0.5307 -2.64605,4.94506 -3.426991,5.71725 -0.334338,0.33057 -1.126657,1.27381 -1.760705,2.09608 -1.476811,1.91524 -2.312341,2.75389 -4.395361,4.41193 -0.929349,0.73972 -3.06532,2.50393 -4.746598,3.92049 -3.877427,3.26686 -7.789146,5.28709 -13.163439,6.79838 -4.414785,1.24148 -8.0498,1.51342 -9.685406,0.72459 z m 74.453075,-4.69302 c 1.4625,-0.19174 4.7709,-1.41393 4.7709,-1.41393 0.20563,-0.29499 0.0438,-0.31308 0.43796,-0.74864 0.86999,-0.96131 0.8609,-2.9672 -0.0244,-5.37951 -0.34438,-0.9384 -0.79597,-2.39003 -1.00356,-3.2258 -0.55492,-2.23441 -1.87793,-4.37518 -3.00216,-4.85791 -0.54266,-0.23302 -1.93044,-0.79552 -3.08395,-1.25005 -2.32814,-0.91741 -2.60563,-1.40382 -2.66366,-4.66921 -0.0514,-2.89544 0.51269,-4.48757 4.69752,-13.25741 0.45384,-0.95108 1.3562,-2.59385 2.00523,-3.65061 1.40076,-2.28071 3.22705,-6.01739 3.41736,-6.99208 0.0745,-0.38138 0.87244,-2.47563 1.7733,-4.65395 1.35858,-3.28508 2.06971,-4.42884 4.16966,-6.70639 2.37492,-2.57575 2.95762,-3.14398 5.21799,-5.08829 0.49142,-0.4227 1.90375,-1.66667 3.13849,-2.76439 3.13401,-2.78617 7.00888,-5.76764 8.48946,-6.5321 0.75753,-0.43136 1.21035,-0.89972 1.72924,-1.27476 0.26419,-0.003 1.2585,-0.60756 2.20957,-1.34556 0.95107,-0.73803 2.06702,-1.60097 2.47988,-1.91766 0.41284,-0.31669 0.97484,-0.57579 1.24888,-0.57579 0.27403,0 0.49824,-0.15276 0.49824,-0.33946 0,-0.30199 5.65268,-4.63302 7.33078,-5.61679 0.98731,-0.57881 7.54124,-6.49876 11.72245,-10.58851 3.1116,-3.04353 6.04778,-4.25867 12.45723,-5.15544 0.95108,-0.13311 1.99091,-0.31841 2.31074,-0.41184 0.31985,-0.0936 1.35738,-0.24295 2.30565,-0.33222 0.94827,-0.0893 1.89705,-0.20704 2.10841,-0.26171 0.62453,-0.16152 4.72816,0.43088 8.64616,1.24818 2.00782,0.41885 3.90999,0.75207 4.22701,0.74053 2.68468,-0.0977 6.39387,0.0598 8.53256,0.36255 2.65192,0.37542 13.81749,0.50605 15.86882,0.18567 2.2862,-0.35708 10.80982,-0.28946 13.06533,0.1036 1.2681,0.22102 2.56503,0.40127 2.88205,0.40056 0.31704,-7.9e-4 1.18165,0.11157 1.92137,0.24944 2.15723,0.40208 11.20264,0.80429 11.38605,0.50627 0.0921,-0.14951 -0.31391,-0.52487 -0.90202,-0.83413 -0.58813,-0.30923 -2.10685,-1.59629 -3.37496,-2.86013 -5.49051,-5.47195 -16.62744,-16.94056 -17.76927,-18.29844 -1.32011,-1.56989 -5.60963,-9.99119 -6.0797,-11.93584 -0.15328,-0.63404 -0.59375,-1.84452 -0.97885,-2.68993 -1.13607,-2.49399 -3.02154,-10.46317 -3.44722,-14.57016 -0.67915,-6.55244 -0.72071,-12.45827 -0.11511,-16.36386 0.31133,-2.00784 0.64097,-4.16348 0.73255,-4.7903 0.0915,-0.62683 0.41806,-2.35606 0.72549,-3.84274 1.0691,-5.17003 1.06997,-5.20083 0.14669,-5.20083 -0.8892,0 -2.83074,0.56992 -4.7831,1.40403 -0.666,0.28454 -1.57992,0.51734 -2.03095,0.51734 -0.45105,0 -1.2463,0.27927 -1.76724,0.62061 -0.52093,0.34134 -0.94718,0.50448 -0.94718,0.36254 0,-0.14192 -0.47552,-0.007 -1.05673,0.29986 -0.58122,0.30686 -2.09429,0.86007 -3.36242,1.22936 -1.26809,0.36929 -2.565,0.76069 -2.88203,0.86978 -0.31704,0.10913 -0.7243,0.16481 -0.90507,0.12385 -0.18075,-0.041 -0.5266,0.0807 -0.76855,0.27028 -0.24193,0.18962 -0.95867,0.4842 -1.59272,0.65462 -0.63403,0.17043 -1.23927,0.336 -1.34495,0.36793 -2.30118,0.69532 -3.75364,1.01945 -5.08855,1.13557 -3.3192,0.28874 -5.49998,0.70328 -6.29277,1.19621 -0.44757,0.27829 -2.22358,0.77341 -3.94665,1.10027 -1.7231,0.32687 -4.7289,1.10104 -6.67958,1.72037 -3.57809,1.13603 -7.99527,2.48086 -8.3501,2.54221 -0.42629,0.0738 -2.16047,0.63975 -2.88205,0.9407 -1.11994,0.46711 -6.31346,1.87964 -7.8619,2.13831 -0.73107,0.12205 -1.5673,0.41961 -1.85827,0.66109 -1.05544,0.87595 -11.23769,1.81561 -16.85954,1.55589 -3.19572,-0.14764 -5.25675,-0.47525 -8.96562,-1.42516 -0.31702,-0.0812 -1.65171,-0.51085 -2.96599,-0.95476 -1.31428,-0.44392 -2.57868,-0.80712 -2.80978,-0.80712 -0.99193,0 -10.44628,-5.23499 -11.11264,-5.46985 l -0.41022,-0.14458 c -0.43549,-0.0689 -2.21632,-0.66264 -4.5116,-2.01599 -1.03621,-0.61097 -2.51867,-1.34035 -3.29433,-1.62084 -0.77568,-0.28049 -1.41032,-0.64816 -1.41032,-0.81705 0,-0.16889 -0.33564,-0.30708 -0.74586,-0.30708 -0.41023,0 -0.84355,-0.15804 -0.96292,-0.35119 -0.11942,-0.19316 -1.46975,-0.83066 -3.00081,-1.41668 -1.53108,-0.58603 -3.018365,-1.24262 -3.305092,-1.45912 -0.572402,-0.43217 -1.216152,-0.82173 -3.175161,-1.92136 -1.241322,-0.69678 -3.65188,-2.54977 -5.630796,-4.32837 -0.508257,-0.4568 -1.090295,-0.97558 -1.293421,-1.15281 -0.203129,-0.17725 -1.283906,-1.27336 -2.401731,-2.43578 -2.630821,-2.7358 -4.304705,-4.22701 -4.744805,-4.22701 -0.19349,0 -0.77102,-0.44803 -1.283401,-0.9956 -1.392867,-1.48856 -3.871151,-3.06585 -9.065554,-5.769727 -2.571517,-1.33857 -5.501835,-2.957813 -6.511819,-3.598324 -1.00998,-0.640517 -2.047457,-1.164577 -2.305492,-1.164577 -0.258029,0 -0.52679,-0.147973 -0.597241,-0.328827 -0.07046,-0.180858 -1.467421,-1.060645 -3.10438,-1.955096 -1.636958,-0.894448 -3.073781,-1.784011 -3.192936,-1.976813 -0.119155,-0.192799 -0.3859,-0.350549 -0.592754,-0.350549 -0.451847,0 -0.210648,2.018358 0.619935,5.187701 0.332324,1.268106 0.752136,2.871545 0.93291,3.563215 0.180782,0.69166 0.573876,1.64273 0.873559,2.1135 0.299678,0.47077 0.95096,1.979947 1.447297,3.353717 1.030203,2.85146 2.842469,6.62492 3.650303,7.60058 1.966867,2.3755 5.338183,5.51195 7.282262,6.77493 2.995387,1.94597 2.922677,1.88572 6.315805,5.23308 1.925907,1.89992 3.315647,3.6803 4.049435,5.18769 1.137586,2.33688 2.274149,3.77115 2.67263,3.37267 0.35266,-0.35266 10.176025,2.88863 14.335863,4.73023 4.181544,1.85119 8.076464,4.0203 8.581344,4.779 0.27421,0.41205 3.95855,2.85999 5.87278,3.90196 0.89131,0.48518 1.70703,0.9777 1.8127,1.09455 0.10566,0.11673 0.88383,0.61876 1.72923,1.11543 2.84147,1.66929 5.09435,4.17453 5.58199,6.20729 0.61527,2.5647 0.11823,7.65512 -1.38433,14.17633 -0.12174,0.52838 -0.27965,1.51497 -0.35095,2.19245 -0.0712,0.67748 -0.22728,1.38984 -0.34668,1.58302 -0.24901,0.40295 -0.51792,2.78707 -0.80253,7.1157 -0.10901,1.65745 -0.27139,3.13205 -0.36088,3.27685 -0.0895,0.14477 -0.26281,2.99826 -0.38512,6.341 -0.25899,7.07762 -0.10435,8.03219 2.7313,16.86161 0.35635,1.1096 0.85428,2.2251 1.10652,2.47893 0.83582,0.84107 1.04187,3.13761 0.34414,3.83534 -0.97732,0.97732 -2.33239,3.27722 -2.62207,4.45031 -0.26145,1.05879 -3.63616,5.34704 -5.6933,7.2345 -0.59644,0.54725 -1.08442,1.1957 -1.08442,1.44103 0,0.24534 -0.14966,0.44607 -0.33258,0.44607 -0.18291,0 -1.42924,1.34016 -2.76959,2.97813 -3.48829,4.26279 -7.95343,9.20167 -9.963148,11.02021 -0.951074,0.86062 -2.660256,2.46178 -3.79817,3.55814 -1.922217,1.85203 -2.023997,2.03833 -1.435217,2.6271 1.137336,1.13732 2.573309,3.16635 2.479665,3.50373 -0.05035,0.18138 0.301037,1.08094 0.780867,1.99901 1.103188,2.11071 1.038696,5.21917 -0.160388,7.7305 -2.121283,4.44269 -2.532599,6.80861 -2.642163,15.19784 -0.125333,9.59744 0.463055,12.64547 2.824631,14.63262 3.129163,2.633 5.119553,3.68774 7.630243,4.04328 1.38736,0.19648 2.70889,0.51007 2.93672,0.69689 0.81125,0.66519 2.32134,0.72744 5.98623,0.24683 z m 11.83512,-26.77657 c 1.33123,-0.4108 2.29154,-0.38637 2.78599,-0.52102 0.22798,-0.0621 0,0 0.36556,-0.1393 0.18776,-0.0716 0.40864,-0.46784 0.90811,-0.5932 1.55217,-0.38957 5.55999,-3.29729 6.13586,-4.45163 0.8524,-1.7087 0.39826,-2.97419 -1.45765,-4.06185 -1.18529,-0.69463 -1.74369,-1.33708 -2.07765,-2.39037 -1.25981,-3.97354 -1.1322,-8.18556 0.30698,-10.13215 0.4474,-0.60514 0.91752,-1.6206 1.04471,-2.25659 0.1272,-0.63598 0.36775,-1.15635 0.53455,-1.15635 0.1668,0 0.88012,-0.89103 1.58513,-1.98005 2.87902,-4.4472 3.71326,-5.57194 5.85794,-7.89779 1.03741,-1.12502 3.2854,-2.96903 4.99557,-4.09779 1.71016,-1.12878 3.86411,-2.55295 4.78654,-3.16484 0.92243,-0.61189 2.2561,-1.46712 2.96372,-1.90055 3.11576,-1.90841 13.22785,-13.44512 13.22785,-15.09145 0,-0.2487 0.17295,-0.45218 0.38429,-0.45218 0.21134,0 0.38426,-0.27172 0.38426,-0.60384 0,-0.33213 0.25938,-0.86325 0.57641,-1.18027 0.62895,-0.62896 0.7783,-1.67435 0.2392,-1.67435 -0.18547,0 -0.5525,0.2594 -0.81561,0.57641 -0.2631,0.31702 -0.71657,0.5764 -1.00773,0.5764 -0.29114,0 -0.52936,0.15118 -0.52936,0.33593 0,0.18477 -0.79741,1.09261 -1.77203,2.01745 -0.97464,0.92482 -2.17724,2.07058 -2.67245,2.54613 -0.49524,0.47554 -1.05001,0.86461 -1.23287,0.86461 -0.18283,0 -0.67321,0.38908 -1.08973,0.86462 -0.4165,0.47555 -1.50555,1.46986 -2.42006,2.20957 -0.91455,0.73973 -1.85864,1.52435 -2.09799,1.74363 -0.23939,0.21926 -1.12692,0.81439 -1.97233,1.32251 -1.58098,0.95029 -4.81286,3.40921 -5.23065,3.97968 -0.12927,0.17657 -0.30224,0.26448 -0.38427,0.19539 -0.17752,-0.14954 -3.16675,2.04612 -3.35146,2.46172 -0.0704,0.15852 -0.3785,0.2882 -0.68454,0.2882 -0.30605,0 -0.65598,0.25939 -0.77763,0.57641 -0.12166,0.31704 -0.39377,0.57642 -0.6047,0.57642 -0.21093,0 -1.15217,0.51876 -2.09167,1.15281 -0.93947,0.63406 -1.93489,1.00728 -2.07316,1.15284 l -0.365,0.38426 c -0.14557,0.15324 -0.26481,0.38427 -0.58847,0.38427 0,0 -0.68801,0.25938 -0.80966,0.5764 -0.12166,0.31704 -0.34759,0.57642 -0.50208,0.57642 -0.67124,0 -7.77754,6.81429 -10.39656,9.96932 -0.73973,0.89113 -1.56111,1.85346 -1.8253,2.13853 -0.26419,0.28506 -0.48034,0.70592 -0.48034,0.93524 0,0.2293 -0.16223,0.71721 -0.36052,1.0842 -0.84799,1.56946 -2.71367,5.89251 -2.71367,6.28795 0,0.23704 -0.60524,1.77141 -1.34495,3.40974 -0.73973,1.63834 -1.20791,3.36752 -1.34496,3.79505 -0.14668,0.45756 -0.30574,0.81623 -0.30574,0.81623 -0.16815,0 -0.34918,0.64522 -0.40229,1.43378 -0.0531,0.78857 -0.22266,2.04226 -0.37679,2.78599 -0.15412,0.74371 -0.18307,2.27459 -0.0643,3.40193 0.29955,2.84403 1.26542,3.56132 4.41548,3.27909 1.2681,-0.11348 3.39482,-0.54269 4.72606,-0.95351 z m 9.5147,-18.5812 c 0.41026,-0.31032 1.06007,-0.5697 1.44404,-0.57641 1.00153,-0.0175 3.09345,-1.64651 6.49962,-5.06127 5.10935,-5.1222 10.27797,-6.60865 18.7629,-5.396 1.17462,0.16788 2.64078,0.17016 3.25809,0.006 0.61733,-0.16509 1.73135,-0.39592 2.47562,-0.51294 0.74426,-0.11703 2.25395,-0.54862 3.35484,-0.95913 2.19662,-0.81905 14.31555,-3.28888 17.9806,-3.6644 1.26811,-0.12986 2.73796,-0.31141 3.26632,-0.40328 0.52839,-0.0919 1.99823,-0.33107 3.26633,-0.53159 6.31102,-0.99777 17.9682,-5.0539 26.57307,-9.24606 1.72281,-0.83933 3.37426,-1.52604 3.66983,-1.52604 0.2956,0 0.74495,-0.20751 0.99858,-0.46113 0.37746,-0.13356 0.72934,-0.12884 0.72934,-0.12884 0.24425,-0.35899 2.12639,-1.18917 6.84085,-3.00178 0.63406,-0.24378 1.26143,-0.59227 1.39419,-0.77442 0.13282,-0.18213 0.78123,-0.35323 1.44104,-0.38019 0.6598,-0.027 1.01828,-0.33115 1.19965,-0.40535 l 0.25286,-0.10345 c 0,0 0.44166,-0.0459 0.67248,-0.085 0.7976,-0.64224 6.55664,-2.0064 9.0423,-2.14188 2.51826,-0.13725 6.48476,0.33869 7.9011,0.94806 0.4227,0.18186 1.70244,0.62496 2.84388,0.98464 3.39386,1.06944 5.74055,2.25053 5.92575,2.60781 0.0919,0.17733 0.30808,0.15323 1.02116,0.17655 0.95954,0.0314 1.38705,-0.41958 1.90124,-1.16229 0.39299,-0.56766 0.74734,-1.0085 0.89292,-1.06592 0.14552,-0.11334 0.15446,-0.23963 0.28821,-0.51038 0.12366,-0.25048 0.51726,-1.18721 1.14948,-2.01745 0.63222,-0.83022 1.58798,-2.87331 2.12386,-4.54023 0.9528,-2.96363 0.95925,-3.0591 0.29155,-4.31066 -1.01632,-1.90502 -5.88095,-6.76053 -6.39929,-6.38732 -2.02921,1.46105 -12.28782,2.68167 -16.68972,1.98582 -1.06267,-0.16797 -3.18845,-0.42058 -4.72394,-0.56131 -1.53552,-0.14079 -3.14924,-0.35589 -3.58608,-0.47809 -0.43684,-0.12219 -7.7112,-0.23585 -16.1652,-0.25258 -8.45403,-0.0167 -15.54388,-0.14285 -15.75523,-0.28032 -0.36103,-0.23479 -5.42394,-0.67042 -8.8383,-0.76048 -0.84541,-0.0221 -2.40173,-0.31827 -3.45847,-0.65771 -2.60192,-0.8358 -10.64342,-0.77466 -15.75523,0.11983 -2.1135,0.36981 -3.92919,0.78653 -4.03489,0.92604 -0.33287,0.43949 -2.34977,1.2168 -2.65989,1.02511 -0.40899,-0.25275 -2.0039,1.58609 -2.98359,3.43992 -0.82406,1.55932 -2.96281,5.51353 -3.74124,6.91693 -0.89898,1.62072 -3.97313,5.48556 -5.31375,6.68049 -0.36985,0.32967 -0.67247,0.72558 -0.67247,0.87982 0,0.7293 -5.6396,5.76504 -8.14096,7.26931 -1.54597,0.9297 -4.0213,2.52747 -5.50077,3.55062 -1.47944,1.02316 -3.25191,2.20833 -3.9388,2.63371 -0.68689,0.42539 -1.2489,0.92929 -1.2489,1.11977 0,0.19046 -0.25938,0.34632 -0.57641,0.34632 -0.31701,0 -0.5764,0.18788 -0.5764,0.41752 0,0.50845 -2.05015,3.51271 -4.04196,5.92298 -0.52397,0.63406 -0.95288,1.27018 -0.95313,1.41359 -2.5e-4,0.14345 -0.22713,0.48926 -0.50416,0.76855 -0.27703,0.27929 -0.98469,1.54534 -1.57259,2.81343 -0.58791,1.26811 -1.31233,2.76463 -1.60983,3.3256 -0.8404,1.58474 -0.70271,2.63064 0.34634,2.63064 0.48797,0 1.22289,-0.25387 1.63316,-0.5642 z M 303.8068,235.41383 c 0.1778,0 0.87198,-0.54872 1.54262,-1.21937 1.29109,-1.29105 3.09439,-1.78797 6.64806,-1.83192 2.31428,-0.0286 7.07427,-1.95263 8.39962,-3.39517 1.53548,-1.67118 2.2852,-4.2653 1.4687,-5.08176 -0.10567,-0.10566 -0.48374,-0.71071 -0.84013,-1.34453 -0.80949,-1.43962 -1.94003,-1.72975 -4.15541,-1.06644 -0.9511,0.28476 -2.12194,0.23285 -2.62607,0.29613 -0.45607,0.0573 0,0 -0.65334,0.17228 -0.28144,0.0742 -0.15621,0.32582 -0.83246,0.21065 -0.59171,-0.10079 -1.94045,-0.25891 -2.9972,-0.35141 -1.05677,-0.0925 -2.0298,-0.18037 -2.16228,-0.19524 -0.13253,-0.0149 -0.60243,-0.86752 -1.04431,-1.89469 -0.82838,-1.92569 -0.89114,-2.71461 -1.38964,-17.45517 -0.11925,-3.52855 -0.36193,-5.6452 -0.72676,-6.34052 -0.94118,-1.79379 -1.41052,-4.72171 -1.50389,-9.3813 l -0.09,-4.49481 -0.95073,0.62128 c -1.14215,0.74638 -1.33467,0.89399 -3.18021,2.43855 -0.79259,0.6633 -1.44106,1.09707 -1.44106,0.96393 0,-0.13312 -0.77837,0.53632 -1.72971,1.48767 -0.95139,0.95137 -2.2483,1.99791 -2.88208,2.32563 -0.63376,0.32774 -1.07386,0.62595 -1.07386,0.70104 0,0.075 0.35848,1.32873 0.89254,2.74754 1.35504,3.59997 1.75416,6.86461 1.10527,9.04006 -0.85349,2.8615 -1.74363,4.34473 -3.51681,5.86018 -0.92739,0.79257 -1.46542,1.31397 -1.45426,1.44103 0.0103,0.12515 -0.0342,0.29122 -0.19648,0.80055 -0.20116,0.63132 -0.31496,1.28523 -0.007,2.59385 0.23093,0.98631 0.4994,2.62227 0.59651,3.63545 0.0973,1.01319 0.52715,2.63472 0.95567,3.60338 0.42849,0.96868 0.6626,2.00418 0.77907,2.28879 0.30789,0.5642 0.63497,0.96445 0.76996,1.27948 0.0931,0.16087 0.45442,0.40505 0.60505,0.87979 0.15068,0.47471 0.48495,1.03671 0.74279,1.24888 0.25786,0.21216 0.88117,1.1639 1.38509,2.11497 1.93107,3.64436 7.09901,8.07653 8.7293,7.48644 0.28143,-0.10183 0.65722,-0.18522 0.835,-0.18522 z m -30.53699,-1.5438 c 2.60347,-1.18598 3.66045,-3.89925 3.84595,-9.8722 l 0.10978,-3.5384 2.03718,-2.80212 c 1.12041,-1.54119 3.29301,-3.92615 4.82794,-5.29993 7.67222,-6.8666 8.73566,-8.39752 8.67494,-12.48889 -0.0311,-2.09318 -1.49087,-7.48168 -3.01905,-11.14396 -0.26456,-0.63404 -0.76803,-1.87438 -1.11885,-2.75631 -0.35081,-0.88194 -1.16342,-1.49083 -1.19308,-1.8166 -0.034,-0.37353 0,0 -0.10623,-0.93207 -0.0774,-0.67845 0.28879,-1.04794 -0.37507,-2.41043 -0.45324,-0.93029 -1.04045,-2.72897 -1.30493,-3.99706 -0.44971,-2.15632 -0.51295,-3.15733 -0.35314,-5.59163 0.0651,-0.99102 4.51938,-9.10151 5.58237,-10.16449 0.73784,-0.73782 1.39898,-0.73741 1.39898,7.9e-4 0,0.31703 -0.15587,0.57641 -0.34631,0.57641 -0.35523,0 -0.96232,0.93401 -3.58101,5.50925 -2.27115,3.96808 -2.57762,7.82943 -0.91408,11.51719 0.30427,0.67461 0.66739,1.62287 0.80695,2.10724 0.38259,1.32827 1.24156,0.84251 4.85939,-2.74812 1.76544,-1.75218 4.50686,-4.28078 6.09198,-5.61908 1.58512,-1.3383 4.54393,-4.09209 6.57508,-6.11954 l 3.69306,-3.68624 -0.29652,-2.68993 c -0.16306,-1.47947 -0.48128,-3.98684 -0.70721,-5.57197 -0.22587,-1.58513 -0.68281,-4.87067 -1.01528,-7.30122 -0.3325,-2.43053 -0.68186,-4.9379 -0.77632,-5.57197 -0.0944,-0.63404 -0.27439,-2.19036 -0.3997,-3.45846 -0.50988,-5.15783 -4.69567,-13.7014 -9.79308,-19.98861 -2.55775,-3.15477 -5.4392,-5.84028 -6.88686,-6.41855 -1.06834,-0.42673 -9.49622,-0.48526 -12.48894,-0.0868 -1.58118,0.21057 -4.40807,0.7759 -9.44875,1.88961 -0.33576,0.0742 -1.2868,0.31274 -2.11349,0.53011 -0.82669,0.21738 -2.62704,0.67955 -4.00083,1.02705 -3.0384,0.76857 -5.22449,1.48182 -8.2619,2.69561 -1.26809,0.50675 -2.65147,0.97533 -3.07417,1.04128 -0.42272,0.066 -1.9552,0.67664 -3.40555,1.35712 -1.45036,0.68046 -2.72663,1.23721 -2.83616,1.23721 -0.1095,0 -1.03445,0.60008 -2.05533,1.33353 -1.0209,0.73343 -2.46816,1.58922 -3.21616,1.90176 -0.74799,0.31253 -1.36056,0.62029 -1.36126,0.6839 -7.9e-4,0.0636 -0.33517,1.83662 -0.74326,3.93998 -0.4081,2.10335 -0.66408,3.95032 -0.56887,4.10438 0.0952,0.15407 -0.007,0.39047 -0.22369,0.52536 -0.21824,0.13488 -0.31377,0.3796 -0.21228,0.5438 0.10153,0.16421 0.2869,1.40597 0.41203,2.75943 0.47869,5.17693 1.15792,9.91419 1.92316,13.41268 0.65849,3.01052 0.87259,3.96994 0.92188,4.13094 0.0161,0.0528 0.0133,0.21023 -0.006,0.34973 -0.0189,0.13946 0.24046,0.40749 0.57642,0.59552 0.33596,0.188 0.61627,0.5494 0.62289,0.80307 0.0133,0.53564 1.7687,4.07777 2.9887,6.03323 0.46152,0.73973 0.83977,1.64758 0.84055,2.01744 8e-4,0.36986 0.16095,0.67246 0.35591,0.67246 0.19497,0 0.56734,0.64847 0.82754,1.44105 0.5322,1.62115 2.63025,4.95612 4.24181,6.74259 0.34249,0.37964 0.94823,1.32598 1.34611,2.10299 0.8368,1.63418 0.67434,1.40228 3.42733,4.89221 4.09877,5.19594 10.02909,11.60434 10.3976,11.23582 0.0941,-0.0942 -0.703,-2.04364 -1.7716,-4.33207 -1.06857,-2.28841 -2.35619,-5.38315 -2.86133,-6.87721 -0.50515,-1.49406 -1.36353,-3.7157 -1.90754,-4.93699 -0.54401,-1.22129 -0.9891,-2.46058 -0.9891,-2.75397 0,-0.29338 -0.12956,-0.59107 -0.28818,-0.66152 -0.24389,-0.10832 -1.02288,-2.33439 -2.39821,-6.8529 -0.7964,-2.61649 -1.19155,-5.05076 -0.94853,-5.84339 0.25213,-0.82233 2.26031,-3.5267 3.683,-4.95973 0.34343,-0.34597 0.68927,-0.79527 0.76851,-0.99849 0.30398,-0.77936 9.10273,-8.18061 9.72532,-8.18061 0.63035,0 -0.17314,1.10708 -1.66899,2.2996 -3.6293,2.89333 -8.66299,8.00037 -10.24912,10.39846 l -1.6633,2.51482 0.94919,3.05716 c 0.52205,1.68143 1.04185,3.56886 1.15512,4.19426 0.11335,0.62542 0.41225,1.30266 0.56724,1.57246 0.10403,0.63971 0.42323,0.92268 0.58618,1.39697 0.21167,0.50846 1.16226,3.95818 1.68781,4.73177 0.14359,0.21135 0.49519,1.16242 0.78139,2.11349 0.28615,0.9511 0.66313,1.89352 0.83775,2.0943 0.17457,0.20079 0.31745,0.67107 0.31745,1.04507 0,0.374 0.34583,1.29575 0.76856,2.04834 0.4227,0.7526 0.76853,1.57166 0.76853,1.82015 0,0.56441 2.76631,6.16482 3.20311,6.48469 0.17653,0.12942 0.31946,0.38871 0.31758,0.57642 -0.003,0.18771 0.35632,0.98135 0.796,1.76362 0.66715,1.18714 1.04595,2.32691 1.65285,2.62241 0.60061,1.42348 0.39603,1.43443 2.22277,3.29829 1.74511,1.76794 2.95452,3.3351 3.08779,4.00124 0.37558,1.878 -0.86966,5.71588 -2.92618,9.01871 -5.58168,8.96431 -5.22227,8.11701 -5.19962,12.25743 0.0103,2.03141 0.33131,3.50264 0.377,3.6935 0.0496,0.20708 0,0 0.10891,0.40112 0.0679,0.25028 -0.0962,0.60967 0.0893,0.86462 0.18545,0.2549 0.56489,1.15518 0.84315,2.00059 0.89532,2.71983 1.42113,3.26632 3.14272,3.26632 0.85212,0 2.31511,-0.34886 3.25104,-0.77522 z m 15.16417,-14.5004 c 0,-0.5727 -1.52578,-8.28186 -1.66712,-8.42318 -0.20685,-0.20685 -6.3215,5.92117 -6.79958,6.81446 -0.36041,0.67342 -0.25916,0.74907 1.0559,0.78868 1.88013,0.0567 3.02057,0.2107 4.91302,0.66379 1.99451,0.47753 2.49778,0.50902 2.49778,0.15625 z m -27.97467,-22.52965 c 1.1199,-0.2919 2.703,-0.80951 3.51803,-1.15027 0.815,-0.34075 1.88808,-0.45435 1.88808,-0.45435 0.18621,-0.75889 -3.30874,-4.1931 -8.67303,-9.33739 -0.8032,-0.77023 -2.33262,-2.56768 -3.39875,-3.99429 -1.06615,-1.42662 -2.06433,-2.59384 -2.21822,-2.59384 -0.15388,0 -0.66749,-0.77633 -1.14137,-1.72519 -0.47389,-0.94885 -1.99003,-3.29668 -3.3692,-5.2174 -1.37917,-1.92073 -2.86236,-4.30023 -3.29595,-5.28783 -0.43362,-0.98755 -0.89353,-1.88206 -1.02202,-1.98772 -0.1284,-0.10567 -1.00138,-1.74846 -1.93976,-3.6506 -0.93838,-1.90215 -2.0911,-4.23663 -2.56159,-5.18771 -0.47049,-0.95106 -0.9695,-2.42092 -1.10892,-3.26632 -0.13946,-0.8454 -0.40585,-1.96941 -0.59208,-2.49778 -0.18622,-0.52837 -0.43269,-1.82531 -0.5477,-2.88205 -0.33841,-3.10952 -0.54584,-4.41681 -0.75436,-4.75422 -0.10788,-0.17438 -0.374,-2.19602 -0.5916,-4.49251 -0.39713,-4.19147 -0.18843,-6.63698 0.88343,-10.35124 0.52595,-1.82252 0.5289,-1.83801 0.59039,-3.09687 0.0269,-0.54871 0.18411,-0.78986 0.43232,-0.74587 0.25017,0.0443 0.28506,-0.007 0.38427,-0.14356 0.12337,-0.1694 0.34481,-0.4905 0.76628,-0.62426 0.42145,-0.13378 0.99012,-0.44804 1.26374,-0.69838 1.2277,-1.12329 6.55003,-3.85686 9.11392,-4.68096 1.16243,-0.37363 2.28643,-0.80017 2.49778,-0.94785 0.7746,-0.54129 9.20749,-3.30345 13.44955,-4.40534 1.38683,-0.36022 2.87448,-0.73029 7.30122,-1.81625 4.65812,-1.14271 5.46616,-1.22682 11.96229,-1.24505 5.27026,-0.0149 7.11734,0.10543 7.58521,0.49374 0.34012,0.2823 0.53713,0.64483 0.43778,0.80562 -0.0994,0.16077 0.2608,0.61672 0.80033,1.0132 1.51162,1.11074 2.83322,2.43285 5.34504,5.34706 1.26809,1.47126 2.41043,2.76148 2.53854,2.86716 0.44932,0.37062 3.7851,6.48187 5.28056,9.67409 1.28214,2.73684 2.57836,7.83429 2.30184,9.05212 -0.0371,0.16244 0.0484,0.90057 0.18966,1.6403 0.14121,0.73973 0.3312,1.81764 0.42235,2.39537 0.091,0.57772 0.24808,1.18376 0.34878,1.34672 0.1008,0.16296 0.28381,1.76535 0.40693,3.56088 0.12308,1.7955 0.49448,4.47502 0.82531,5.95447 1.01314,4.53008 1.46291,9.41472 0.86696,9.41472 -0.44267,0 -1.45807,0.97825 -1.46725,1.41357 -0.004,0.17361 -0.97811,1.18027 -2.16545,2.23703 -1.18732,1.05675 -2.69746,2.44022 -3.35571,3.07437 -0.65837,0.63415 -1.88865,1.66472 -2.73405,2.29015 -0.84545,0.62543 -2.9205,2.45744 -4.61129,4.07112 -1.69082,1.61368 -3.88903,3.66845 -4.88487,4.56614 -0.99586,0.89771 -1.91135,1.94946 -2.03441,2.33723 -0.26865,0.8465 0.84511,4.43107 1.6164,5.20241 0.47281,0.47282 0.69125,0.47387 1.5808,0.006 0.56767,-0.29751 1.38742,-0.85823 1.82166,-1.24603 0.78695,-0.70279 1.16671,-0.96942 3.53356,-2.48113 0.68691,-0.43872 1.25008,-0.91027 1.25153,-1.0479 0,-0.13768 0.64993,-0.68233 1.44103,-1.21043 1.82727,-1.21975 2.39908,-1.76289 2.39908,-2.2787 0,-0.22644 0.13566,-0.36849 0.30155,-0.31565 0.42865,0.1365 8.62973,-6.87615 13.4148,-11.47093 0.90262,-0.8667 1.73638,-1.26213 1.84002,-1.37698 0.12157,-0.13473 0,0 0.19886,-0.26317 0.15322,-0.20274 0.35017,-0.84493 0.77822,-1.31293 1.07172,-1.17177 3.41447,-4.73026 4.07103,-6.18366 0.29814,-0.65995 0.69657,-1.45928 0.88543,-1.7763 1.81375,-3.04473 4.81965,-12.72783 4.96935,-16.00792 0.0847,-1.85751 0.0328,-1.97512 -0.98419,-2.22548 -2.70809,-0.66671 -7.30412,-4.53588 -9.54345,-8.03413 -0.38645,-0.60369 -2.22967,-2.67877 -4.09614,-4.6113 -1.8664,-1.93254 -4.03209,-4.46476 -4.81272,-5.62719 -1.82578,-2.71892 -3.68244,-5.16456 -5.43549,-7.15989 -0.76732,-0.87334 -1.6545,-1.96846 -1.97155,-2.43358 -0.60724,-0.89094 -2.00551,-2.49764 -3.87448,-4.45206 -0.61655,-0.64481 -1.12106,-1.3048 -1.12106,-1.46668 0,-0.16186 -0.4323,-0.86108 -0.96068,-1.55382 -0.5284,-0.69275 -0.96192,-1.45936 -0.96067,-1.70359 0,0 -0.11187,-0.0681 -0.37698,-0.44408 -0.11957,-0.16941 -0.38783,-0.44451 -0.61809,-0.96069 -0.22191,-0.49753 -0.55941,-0.960677 -0.55941,-0.960677 -0.32941,0 -3.55005,-6.41855 -4.01863,-8.008815 -0.20796,-0.705792 -0.44352,-0.845164 -1.0927,-0.646539 -0.45514,0.139269 -1.35038,0.387419 -1.9894,0.55145 -0.63905,0.164029 -1.56234,0.604549 -1.99221,0.681591 -0.58211,0.104322 -1.36959,0.243887 -1.88031,0.505383 -0.59738,0.305845 -0.60868,0.282678 -0.60868,0.282678 0,0 -1.256,0.820984 -2.88311,1.538542 -1.62708,0.717566 -3.57341,1.579123 -4.32517,1.91458 -0.75173,0.33545 -1.61845,0.61157 -1.61845,0.61157 l -0.32478,0.21171 c -0.40865,0.26635 -5.02727,2.22295 -5.88076,2.02975 -0.16984,-0.0385 -0.57288,0.19417 -0.89559,0.51691 -0.32274,0.322737 -0.73816,0.493257 -0.92316,0.378907 -0.18502,-0.1144 -0.9925,0.0823 -1.79434,0.43685 -0.80187,0.3546 -1.80379,0.70633 -2.22649,0.7816 -0.4227,0.0753 -1.1144,0.28872 -1.53712,0.47431 -0.4227,0.18558 -1.50344,0.61752 -2.4017,0.95984 -0.89824,0.34234 -2.28161,0.87099 -3.07417,1.17479 -0.79259,0.30382 -3.3432,1.27085 -5.66806,2.14897 -2.32485,0.87812 -4.57285,1.73787 -4.99555,1.91056 -1.32248,0.54027 -2.29578,0.89242 -2.56184,0.92689 -0.14094,0.0182 -0.38587,0.16288 -0.54438,0.32139 -0.1585,0.15851 -0.60523,0.28821 -0.9927,0.28821 -0.38748,0 -0.7045,0.13612 -0.7045,0.30249 0,0.16638 -0.37604,0.33084 -0.83565,0.36545 -0.83377,0.0627 -2.17058,0.51158 -4.35206,1.46098 -0.63405,0.27594 -1.62999,0.62067 -2.21319,0.76607 -0.58322,0.14538 -1.15543,0.4181 -1.2716,0.60604 -0.11629,0.18793 -0.54093,0.34171 -0.94398,0.34171 -1.54053,0 -3.3653,1.22302 -3.66303,2.45506 -0.15891,0.65755 -0.35056,1.45492 -0.42593,1.77194 -0.0753,0.31704 -0.29399,1.70042 -0.48584,3.0742 -0.19187,1.37377 -0.53625,3.103 -0.76532,3.84273 -0.22907,0.73973 -0.5457,2.55542 -0.70363,4.03488 -0.36591,3.42781 -0.34635,14.56385 0.0286,16.33164 0.15692,0.73972 0.3354,1.95018 0.39662,2.68993 0.18048,2.18152 1.41702,7.7793 2.0076,9.08851 0.30045,0.66598 0.54625,1.47715 0.54625,1.80261 0,0.32545 0.17292,0.6986 0.38428,0.82924 0.21136,0.1306 0.38427,0.65445 0.38427,1.16409 0,0.50964 0.43231,1.87174 0.9607,3.02688 0.52836,1.15516 0.96067,2.20752 0.96067,2.3386 0,0.13105 0.50333,1.25278 1.1185,2.49268 0.61519,1.23988 1.04671,2.32617 0.95894,2.41393 -0.0878,0.0878 0.79227,1.15818 1.95568,2.3787 1.1634,1.22051 2.11525,2.459 2.11525,2.75221 0,0.29319 0.13858,0.48985 0.30776,0.43701 0.16927,-0.0528 1.44609,1.20085 2.8374,2.78598 1.3913,1.58514 4.19251,4.48497 6.2249,6.44408 2.0324,1.95912 3.69526,3.63353 3.69526,3.72092 0,0.31159 4.97914,5.20596 5.29613,5.20596 0.1777,0 0.71004,0.36053 1.18301,0.80116 0.85947,0.80074 2.69645,1.88191 3.20503,1.88639 0.14819,0.001 1.18575,-0.23645 2.30563,-0.52836 z m 72.27973,-58.75346 c -0.17323,-2.29074 -0.33282,-2.88033 -0.69755,-2.57761 -0.26009,0.21586 -0.58354,1.0844 -0.71879,1.93008 -0.19696,1.23187 -0.0784,1.76427 0.59724,2.67793 0.46368,0.62717 0.88823,1.09521 0.9434,1.04002 0.0552,-0.0552 0,-1.43687 -0.12428,-3.07042 z m -3.4049,-0.65304 c 0.54216,-0.20612 0.98568,-0.64076 0.98568,-0.96589 0,-0.32513 0.15841,-0.89141 0.35195,-1.2584 0.92395,-1.75154 1.58975,-3.58984 1.40718,-3.8852 -0.26945,-0.43598 1.39714,-6.89909 2.09339,-8.11814 0.3017,-0.52838 0.72559,-1.29328 0.94194,-1.69979 0.57843,-1.08715 5.07556,-4.4675 6.47875,-4.86993 0.66587,-0.19098 1.7695,-0.25804 2.4394,-0.34721 0.70715,-0.0941 1.10892,-0.28107 1.48551,-0.41542 0.65026,-0.23201 1.7055,-0.17514 5.82223,1.7875 1.96361,0.93615 3.79733,1.56122 3.956,1.70211 0,0 0.19714,0.14309 0.38573,0.34262 0.12944,0.13693 0.47557,0.45684 1.05675,0.59646 0.58124,0.13964 1.74845,0.73282 2.59382,1.31822 0.84547,0.58539 2.14238,1.29106 2.8821,1.56814 0.73973,0.27709 2.50325,1.08603 3.91893,1.79765 1.41571,0.71161 2.71259,1.28886 2.882,1.28276 0.16947,-0.006 1.20581,-0.85449 2.30301,-1.88533 2.17398,-2.04251 4.46556,-3.06615 8.72705,-3.89827 3.01482,-0.5887 6.68493,-2.57634 6.37823,-3.4543 -0.35505,-1.01636 -0.19394,-8.00316 0.19333,-8.38421 0.21069,-0.20732 1.15205,-0.44721 2.0919,-0.5331 0.9398,-0.0858 1.59912,-0.31369 1.67611,-0.54458 0.1284,-0.3855 -1.27188,-2.12973 -9.04269,-10.066197 -1.52863,-1.561227 -3.66641,-3.493905 -4.75057,-4.294846 -2.52642,-1.866376 -4.06482,-3.332157 -5.01573,-4.779074 -0.61119,-0.92997 -0.70337,-1.48709 -0.47681,-2.88205 0.43482,-2.677631 0.38087,-8.859435 -0.0923,-10.567532 -0.23415,-0.845402 -0.96811,-2.162588 -1.63099,-2.927075 -0.66289,-0.764487 -1.98337,-2.379824 -2.93444,-3.589642 -0.95113,-1.209815 -2.24804,-2.85078 -2.88208,-3.646575 -0.63405,-0.795803 -1.52998,-1.926741 -1.99097,-2.513192 -0.46095,-0.586454 -1.58771,-1.864932 -2.50393,-2.841056 -0.91618,-0.976133 -2.15681,-2.435694 -2.75702,-3.243472 -0.6002,-0.807778 -1.29614,-1.547307 -1.54654,-1.643396 -0.2504,-0.09608 -2.00459,1.346523 -3.89816,3.205795 -1.89357,1.859278 -4.7398,4.370483 -6.32494,5.580467 -5.07452,3.873559 -4.90768,3.67006 -5.11485,6.238312 -0.40402,5.007308 -1.12109,11.537788 -1.28571,11.709225 -0.44469,0.462976 -0.87731,-1.106792 -0.68538,-2.486655 0.22341,-1.606007 0.28038,-2.232186 0.75967,-8.351453 0.2495,-3.185406 0.41265,-3.820065 1.10009,-4.278778 0.44384,-0.296228 1.23933,-0.901177 1.7677,-1.34433 1.49389,-1.252913 1.58811,-1.325991 4.03135,-3.126851 1.26614,-0.933241 2.72762,-2.202492 3.24769,-2.820551 0.52006,-0.618053 1.70688,-1.835541 2.63749,-2.705518 1.49085,-1.393827 4.55616,-5.085011 5.64658,-6.799582 0.21135,-0.332317 1.17748,-1.801649 2.14702,-3.265176 0.96951,-1.463529 1.87925,-2.920341 2.02165,-3.23737 0.1424,-0.317024 0.60032,-1.095182 1.01756,-1.729227 0.84312,-1.281207 1.53856,-2.756582 1.53856,-3.263899 0,-0.182499 0.22727,-0.560319 0.50509,-0.8396 0.93786,-0.942927 3.17214,-4.713449 4.9893,-8.420066 2.31544,-4.722737 2.45173,-6.619288 0.31382,-4.36577 -0.50409,0.531371 -0.97629,0.70018 -1.11482,0.767882 l -0.62048,0.303202 c -0.32395,0.1583 -2.05126,1.695804 -4.04225,3.155568 -4.25934,3.122888 -4.22095,3.092165 -8.67682,6.947464 -5.06884,4.385662 -5.9826,5.40254 -8.44397,9.396963 -1.22663,1.990701 -2.76823,4.249782 -3.42585,5.020175 -0.65749,0.770395 -1.6278,2.041548 -2.15622,2.824794 -0.52832,0.783247 -1.25408,1.743266 -1.61264,2.133381 -0.35869,0.390112 -0.91861,1.194041 -1.24433,1.78649 -0.94295,1.715106 -3.20646,4.057071 -3.65387,3.780557 -0.42712,-0.263964 0.98382,-2.299485 2.56476,-3.933909 0.51094,-0.528209 0.7778,-0.921282 0.7778,-1.012968 0,-0.309131 3.32271,-5.055193 3.71657,-5.325007 0.72136,-0.494189 -0.13102,-0.803161 -2.21588,-0.803161 -1.59539,0 -2.76527,0.329819 -5.1008,1.438005 -1.66679,0.790893 -3.13634,1.608524 -3.26564,1.816944 -0.12944,0.20842 -0.5764,0.36866 -0.5764,0.36866 0,0 -1.72469,0.887227 -3.41553,1.984203 -1.69082,1.096976 -3.94891,2.513452 -5.01804,3.147727 -4.86722,2.887625 -9.07581,6.711696 -21.19106,19.255091 -1.85899,1.924698 -4.15814,3.89332 -5.10923,4.374703 -0.95108,0.481388 -1.81565,0.991531 -1.92138,1.133655 -0.10565,0.142115 -0.79732,0.490672 -1.53705,0.774568 -0.73974,0.283895 -1.86375,0.746138 -2.49782,1.02721 -0.63402,0.281072 -1.8315,0.743566 -2.66097,1.027771 l -1.50823,0.516731 2.67867,0.442368 c 1.90966,0.315378 3.09756,0.326689 4.13803,0.03939 0.80269,-0.221636 1.53456,-0.327887 1.62629,-0.236114 0.39544,0.395436 -0.66625,2.173161 -1.76522,2.955695 -0.76531,0.544941 -1.0803,1.010558 -0.8754,1.294056 0.17605,0.243565 0.55366,1.134533 0.83917,1.979935 0.28552,0.845405 0.84037,1.949495 1.23299,2.453537 0.39259,0.504039 0.71385,1.095658 0.71385,1.314699 0,0.219052 0.24574,0.671262 0.54612,1.004932 0.30041,0.33367 0.60301,0.8593 0.67252,1.16807 0.11893,0.52905 0.36864,0.92964 1.27913,2.052817 0.21135,0.26072 0.71863,1.07611 1.12728,1.81196 0.65363,1.17694 1.31231,1.99676 3.67612,4.57526 0.31703,0.34582 0.83109,1.11636 1.14231,1.71234 0.31123,0.59597 1.30554,1.87785 2.20957,2.84863 0.90405,0.97077 1.53641,1.94252 1.64372,2.07499 0.13793,0.17048 0.18553,0.33585 0.37248,0.39625 0.39357,0.3618 3.11536,3.4823 3.12277,3.76929 0,0.3756 0.86625,1.15241 1.5003,1.84661 0.63407,0.6942 1.15302,1.38119 1.15326,1.52667 0,0.14546 0.43259,0.76691 0.96073,1.38101 0.52811,0.61408 0.96017,1.23161 0.96017,1.37228 0,0.14066 1.08101,1.36747 2.40218,2.72621 1.32117,1.35875 3.52594,3.76057 4.89948,5.33737 3.2291,3.70696 3.78867,4.08807 4.22656,4.24216 0.1892,0.0666 0.30109,0.14858 0.3843,0.29314 0.13327,0.23149 1.35866,1.08316 1.99245,1.19678 0.14478,0.0258 0.70673,-0.12146 1.24886,-0.32759 z m 31.84657,-47.030889 c 0.15698,-0.409107 0.0367,-0.740325 -0.31755,-0.876369 -0.3135,-0.120292 -0.56996,-0.383336 -0.56996,-0.584549 0,-0.20121 0.14668,-0.275148 0.32607,-0.164311 0.17939,0.110847 0.69093,-0.138335 1.13675,-0.553731 0.44588,-0.415393 1.08419,-0.755258 1.41849,-0.755258 0.33425,0 1.28571,-0.345851 2.11426,-0.768549 0.82857,-0.422706 1.94566,-0.768546 2.48245,-0.768546 1.055,0 1.21314,0.639543 0.74139,2.998222 -0.23373,1.168886 -0.24464,1.173416 -3.17024,1.313143 -1.61459,0.0771 -3.26826,0.292629 -3.67488,0.478917 -0.60467,0.277106 -0.69326,0.21909 -0.48678,-0.318969 z m -1.78554,-8.704154 c 0.61527,-0.640559 3.80114,-0.966144 4.13698,-0.42278 0.15655,0.253291 -0.0196,0.436597 -0.4303,0.448135 -0.38232,0.01077 -1.47328,0.11412 -2.4244,0.229743 -1.34731,0.163783 -1.6305,0.107448 -1.28228,-0.255098 z M 344.0255,46.437224 c 0.66916,-0.998464 1.61444,-2.593547 2.10058,-3.544626 1.07016,-2.093841 7.80299,-8.776369 11.68419,-11.596925 2.48242,-1.804041 2.90742,-2.298483 3.60965,-4.19944 1.41492,-3.830455 1.01571,-7.121955 -0.67789,-5.589256 -0.39721,0.359448 -1.04581,1.254561 -1.44145,1.989145 -0.39557,0.734581 -0.93691,1.192807 -1.01613,1.335606 l -0.29689,0.535297 c -0.14287,0.25746 -0.34578,0.507266 -0.57644,0.756488 -0.30131,0.32561 -0.57637,0.683395 -0.57637,0.683395 0,0 -0.73494,1.168691 -1.63317,2.032175 -0.89826,0.863481 -3.18386,3.384457 -5.07918,5.602165 -1.89534,2.217714 -5.1376,5.904183 -7.20516,8.192156 -2.06751,2.287982 -3.75909,4.294815 -3.75909,4.459634 0,0.313987 2.08303,1.079842 3.07419,1.130261 0.317,0.01614 1.12392,-0.787607 1.79316,-1.786075 z"
       id="path51-8"
       sodipodi:nodetypes="sssssscssssssssssssssssscssssssssscssssssssssssssssssscsssscscssssssssssssssssssssssssssssssscssssccccsssssssccsssssssssscsssccssscssssccsssccscsssccsscssssscssssssscsssssssssssssccsssscsssssssscsscsssssssssssssssscsssssssssssscssssssssssssssscscssssscsssssssssssssssscsssssssssssssscsssscssssssssssssssssssssssssssccssssssscssssssssscscssssscsssssscssssscsssscsccssssscsssscsssssssssssssssssssssssssssccsscsscssssssssssssssssssssscsssssssssssssssssssssssssssscsssssssssssssssssssssssccccssscsscccssccscssccsssssscsssssssssscsssssssssssssssssssscccsssssssssssscsscsssssssssssccsccsssscccccsscsssssssssssssssscssssssssssssssssscsscscsccscsssssssssssssssssssscscccssssssccsccsscsssssccsssssscscsssssccssssscsscsssssssssssssssssccssscssssssscsscsssssssscssssssssssssssssssscsscsssssssssssssssssscsscssssssssssssssssssssscccsssssssssssscsssssssssssssssscsssssssssssssssssssssssssssscsssssssssssssssssccsssssssscssssssssscssssssccsssssssscsssssssssssssssssssssssssssscssssss"
       inkscape:transform-center-x="69.007553"
       inkscape:transform-center-y="-73.684167" />
  </g>
</svg>
