<?xml version="1.0" encoding="UTF-8" standalone="no"?>
<svg
   style="fill-opacity:1; color-rendering:auto; color-interpolation:auto; text-rendering:auto; stroke:black; stroke-linecap:square; stroke-miterlimit:10; shape-rendering:auto; stroke-opacity:1; fill:black; stroke-dasharray:none; font-weight:normal; stroke-width:1; font-family:'Dialog'; font-style:normal; stroke-linejoin:miter; font-size:12px; stroke-dashoffset:0; image-rendering:auto;"
   width="1704"
   height="1224"
   version="1.1"
   id="svg523"
   sodipodi:docname="times-7x5.svg"
   inkscape:version="1.1 (c68e22c387, 2021-05-23)"
   xmlns:inkscape="http://www.inkscape.org/namespaces/inkscape"
   xmlns:sodipodi="http://sodipodi.sourceforge.net/DTD/sodipodi-0.dtd"
   xmlns="http://www.w3.org/2000/svg"
   xmlns:svg="http://www.w3.org/2000/svg">
  <sodipodi:namedview
     id="namedview525"
     pagecolor="#ffffff"
     bordercolor="#666666"
     borderopacity="1.0"
     inkscape:pageshadow="2"
     inkscape:pageopacity="0.0"
     inkscape:pagecheckerboard="0"
     showgrid="false"
     inkscape:zoom="1.0824912"
     inkscape:cx="779.22112"
     inkscape:cy="689.613"
     inkscape:window-width="2560"
     inkscape:window-height="1377"
     inkscape:window-x="2552"
     inkscape:window-y="-8"
     inkscape:window-maximized="1"
     inkscape:current-layer="svg523" />
  <!--Generated by the Batik Graphics2D SVG Generator-->
  <defs
     id="genericDefs" />
  <g
     id="g521"
     sodipodi:insensitive="true">
    <g
       style="fill:#ffffff;stroke:#ffffff;stroke-linecap:round"
       id="g5">
      <rect
         x="0"
         width="1704"
         height="1224"
         y="0"
         style="stroke:none"
         id="rect3" />
    </g>
    <g
       style="font-size:32px;font-family:'Cooper Black';fill:#ff0000;stroke:#ff0000;stroke-linecap:round"
       id="g519">
      <line
         y2="12"
         style="fill:none"
         x1="24"
         x2="240"
         y1="12"
         id="line7" />
      <line
         y2="240"
         style="fill:none"
         x1="12"
         x2="12"
         y1="24"
         id="line9" />
      <line
         y2="240"
         style="fill:none"
         x1="252"
         x2="252"
         y1="24"
         id="line11" />
      <line
         y2="252"
         style="fill:none"
         x1="24"
         x2="240"
         y1="252"
         id="line13" />
      <path
         style="fill:none"
         d="m 240,12 a 12,12 0 0 1 12,12"
         id="path15" />
      <path
         style="fill:none"
         d="M 12,24 A 12,12 0 0 1 24,12"
         id="path17" />
      <path
         style="fill:none"
         d="m 252,240 a 12,12 0 0 1 -12,12"
         id="path19" />
      <path
         style="fill:none"
         d="M 24,252 A 12,12 0 0 1 12,240"
         id="path21" />
      <text
         x="225"
         y="44"
         style="fill:#000000;stroke:none;text-rendering:optimizeLegibility"
         xml:space="preserve"
         id="text23">1</text>
      <line
         y2="12"
         style="fill:none"
         x1="264"
         x2="480"
         y1="12"
         id="line25" />
      <line
         y2="240"
         style="fill:none"
         x1="492"
         x2="492"
         y1="24"
         id="line27" />
      <line
         y2="252"
         style="fill:none"
         x1="264"
         x2="480"
         y1="252"
         id="line29" />
      <path
         style="fill:none"
         d="m 480,12 a 12,12 0 0 1 12,12"
         id="path31" />
      <path
         style="fill:none"
         d="M 252,24 A 12,12 0 0 1 264,12"
         id="path33" />
      <path
         style="fill:none"
         d="m 492,240 a 12,12 0 0 1 -12,12"
         id="path35" />
      <path
         style="fill:none"
         d="M 264,252 A 12,12 0 0 1 252,240"
         id="path37" />
      <text
         x="465"
         y="44"
         style="fill:#000000;stroke:none;text-rendering:optimizeLegibility"
         xml:space="preserve"
         id="text39">2</text>
      <line
         y2="12"
         style="fill:none"
         x1="504"
         x2="720"
         y1="12"
         id="line41" />
      <line
         y2="240"
         style="fill:none"
         x1="732"
         x2="732"
         y1="24"
         id="line43" />
      <line
         y2="252"
         style="fill:none"
         x1="504"
         x2="720"
         y1="252"
         id="line45" />
      <path
         style="fill:none"
         d="m 720,12 a 12,12 0 0 1 12,12"
         id="path47" />
      <path
         style="fill:none"
         d="M 492,24 A 12,12 0 0 1 504,12"
         id="path49" />
      <path
         style="fill:none"
         d="m 732,240 a 12,12 0 0 1 -12,12"
         id="path51" />
      <path
         style="fill:none"
         d="M 504,252 A 12,12 0 0 1 492,240"
         id="path53" />
      <text
         x="705"
         y="44"
         style="fill:#000000;stroke:none;text-rendering:optimizeLegibility"
         xml:space="preserve"
         id="text55">3</text>
      <line
         y2="12"
         style="fill:none"
         x1="744"
         x2="960"
         y1="12"
         id="line57" />
      <line
         y2="240"
         style="fill:none"
         x1="972"
         x2="972"
         y1="24"
         id="line59" />
      <line
         y2="252"
         style="fill:none"
         x1="744"
         x2="960"
         y1="252"
         id="line61" />
      <path
         style="fill:none"
         d="m 960,12 a 12,12 0 0 1 12,12"
         id="path63" />
      <path
         style="fill:none"
         d="M 732,24 A 12,12 0 0 1 744,12"
         id="path65" />
      <path
         style="fill:none"
         d="m 972,240 a 12,12 0 0 1 -12,12"
         id="path67" />
      <path
         style="fill:none"
         d="M 744,252 A 12,12 0 0 1 732,240"
         id="path69" />
      <text
         x="945"
         y="44"
         style="fill:#000000;stroke:none;text-rendering:optimizeLegibility"
         xml:space="preserve"
         id="text71">4</text>
      <line
         y2="12"
         style="fill:none"
         x1="984"
         x2="1200"
         y1="12"
         id="line73" />
      <line
         y2="240"
         style="fill:none"
         x1="1212"
         x2="1212"
         y1="24"
         id="line75" />
      <line
         y2="252"
         style="fill:none"
         x1="984"
         x2="1200"
         y1="252"
         id="line77" />
      <path
         style="fill:none"
         d="m 1200,12 a 12,12 0 0 1 12,12"
         id="path79" />
      <path
         style="fill:none"
         d="M 972,24 A 12,12 0 0 1 984,12"
         id="path81" />
      <path
         style="fill:none"
         d="m 1212,240 a 12,12 0 0 1 -12,12"
         id="path83" />
      <path
         style="fill:none"
         d="M 984,252 A 12,12 0 0 1 972,240"
         id="path85" />
      <text
         x="1185"
         y="44"
         style="fill:#000000;stroke:none;text-rendering:optimizeLegibility"
         xml:space="preserve"
         id="text87">5</text>
      <line
         y2="12"
         style="fill:none"
         x1="1224"
         x2="1440"
         y1="12"
         id="line89" />
      <line
         y2="240"
         style="fill:none"
         x1="1452"
         x2="1452"
         y1="24"
         id="line91" />
      <line
         y2="252"
         style="fill:none"
         x1="1224"
         x2="1440"
         y1="252"
         id="line93" />
      <path
         style="fill:none"
         d="m 1440,12 a 12,12 0 0 1 12,12"
         id="path95" />
      <path
         style="fill:none"
         d="m 1212,24 a 12,12 0 0 1 12,-12"
         id="path97" />
      <path
         style="fill:none"
         d="m 1452,240 a 12,12 0 0 1 -12,12"
         id="path99" />
      <path
         style="fill:none"
         d="m 1224,252 a 12,12 0 0 1 -12,-12"
         id="path101" />
      <text
         x="1425"
         y="44"
         style="fill:#000000;stroke:none;text-rendering:optimizeLegibility"
         xml:space="preserve"
         id="text103">6</text>
      <line
         y2="12"
         style="fill:none"
         x1="1464"
         x2="1680"
         y1="12"
         id="line105" />
      <line
         y2="240"
         style="fill:none"
         x1="1692"
         x2="1692"
         y1="24"
         id="line107" />
      <line
         y2="252"
         style="fill:none"
         x1="1464"
         x2="1680"
         y1="252"
         id="line109" />
      <path
         style="fill:none"
         d="m 1680,12 a 12,12 0 0 1 12,12"
         id="path111" />
      <path
         style="fill:none"
         d="m 1452,24 a 12,12 0 0 1 12,-12"
         id="path113" />
      <path
         style="fill:none"
         d="m 1692,240 a 12,12 0 0 1 -12,12"
         id="path115" />
      <path
         style="fill:none"
         d="m 1464,252 a 12,12 0 0 1 -12,-12"
         id="path117" />
      <text
         x="1665"
         y="44"
         style="fill:#000000;stroke:none;text-rendering:optimizeLegibility"
         xml:space="preserve"
         id="text119">7</text>
      <line
         y2="480"
         style="fill:none"
         x1="12"
         x2="12"
         y1="264"
         id="line121" />
      <line
         y2="480"
         style="fill:none"
         x1="252"
         x2="252"
         y1="264"
         id="line123" />
      <line
         y2="492"
         style="fill:none"
         x1="24"
         x2="240"
         y1="492"
         id="line125" />
      <path
         style="fill:none"
         d="m 240,252 a 12,12 0 0 1 12,12"
         id="path127" />
      <path
         style="fill:none"
         d="M 12,264 A 12,12 0 0 1 24,252"
         id="path129" />
      <path
         style="fill:none"
         d="m 252,480 a 12,12 0 0 1 -12,12"
         id="path131" />
      <path
         style="fill:none"
         d="M 24,492 A 12,12 0 0 1 12,480"
         id="path133" />
      <text
         x="225"
         y="284"
         style="fill:#000000;stroke:none;text-rendering:optimizeLegibility"
         xml:space="preserve"
         id="text135">8</text>
      <line
         y2="480"
         style="fill:none"
         x1="492"
         x2="492"
         y1="264"
         id="line137" />
      <line
         y2="492"
         style="fill:none"
         x1="264"
         x2="480"
         y1="492"
         id="line139" />
      <path
         style="fill:none"
         d="m 480,252 a 12,12 0 0 1 12,12"
         id="path141" />
      <path
         style="fill:none"
         d="m 252,264 a 12,12 0 0 1 12,-12"
         id="path143" />
      <path
         style="fill:none"
         d="m 492,480 a 12,12 0 0 1 -12,12"
         id="path145" />
      <path
         style="fill:none"
         d="M 264,492 A 12,12 0 0 1 252,480"
         id="path147" />
      <text
         x="465"
         y="284"
         style="fill:#000000;stroke:none;text-rendering:optimizeLegibility"
         xml:space="preserve"
         id="text149">9</text>
      <line
         y2="480"
         style="fill:none"
         x1="732"
         x2="732"
         y1="264"
         id="line151" />
      <line
         y2="492"
         style="fill:none"
         x1="504"
         x2="720"
         y1="492"
         id="line153" />
      <path
         style="fill:none"
         d="m 720,252 a 12,12 0 0 1 12,12"
         id="path155" />
      <path
         style="fill:none"
         d="m 492,264 a 12,12 0 0 1 12,-12"
         id="path157" />
      <path
         style="fill:none"
         d="m 732,480 a 12,12 0 0 1 -12,12"
         id="path159" />
      <path
         style="fill:none"
         d="M 504,492 A 12,12 0 0 1 492,480"
         id="path161" />
      <text
         x="686"
         y="284"
         style="fill:#000000;stroke:none;text-rendering:optimizeLegibility"
         xml:space="preserve"
         id="text163">10</text>
      <line
         y2="480"
         style="fill:none"
         x1="972"
         x2="972"
         y1="264"
         id="line165" />
      <line
         y2="492"
         style="fill:none"
         x1="744"
         x2="960"
         y1="492"
         id="line167" />
      <path
         style="fill:none"
         d="m 960,252 a 12,12 0 0 1 12,12"
         id="path169" />
      <path
         style="fill:none"
         d="m 732,264 a 12,12 0 0 1 12,-12"
         id="path171" />
      <path
         style="fill:none"
         d="m 972,480 a 12,12 0 0 1 -12,12"
         id="path173" />
      <path
         style="fill:none"
         d="M 744,492 A 12,12 0 0 1 732,480"
         id="path175" />
      <text
         x="926"
         y="284"
         style="fill:#000000;stroke:none;text-rendering:optimizeLegibility"
         xml:space="preserve"
         id="text177">11</text>
      <line
         y2="480"
         style="fill:none"
         x1="1212"
         x2="1212"
         y1="264"
         id="line179" />
      <line
         y2="492"
         style="fill:none"
         x1="984"
         x2="1200"
         y1="492"
         id="line181" />
      <path
         style="fill:none"
         d="m 1200,252 a 12,12 0 0 1 12,12"
         id="path183" />
      <path
         style="fill:none"
         d="m 972,264 a 12,12 0 0 1 12,-12"
         id="path185" />
      <path
         style="fill:none"
         d="m 1212,480 a 12,12 0 0 1 -12,12"
         id="path187" />
      <path
         style="fill:none"
         d="M 984,492 A 12,12 0 0 1 972,480"
         id="path189" />
      <text
         x="1166"
         y="284"
         style="fill:#000000;stroke:none;text-rendering:optimizeLegibility"
         xml:space="preserve"
         id="text191">12</text>
      <line
         y2="480"
         style="fill:none"
         x1="1452"
         x2="1452"
         y1="264"
         id="line193" />
      <line
         y2="492"
         style="fill:none"
         x1="1224"
         x2="1440"
         y1="492"
         id="line195" />
      <path
         style="fill:none"
         d="m 1440,252 a 12,12 0 0 1 12,12"
         id="path197" />
      <path
         style="fill:none"
         d="m 1212,264 a 12,12 0 0 1 12,-12"
         id="path199" />
      <path
         style="fill:none"
         d="m 1452,480 a 12,12 0 0 1 -12,12"
         id="path201" />
      <path
         style="fill:none"
         d="m 1224,492 a 12,12 0 0 1 -12,-12"
         id="path203" />
      <text
         x="1406"
         y="284"
         style="fill:#000000;stroke:none;text-rendering:optimizeLegibility"
         xml:space="preserve"
         id="text205">13</text>
      <line
         y2="480"
         style="fill:none"
         x1="1692"
         x2="1692"
         y1="264"
         id="line207" />
      <line
         y2="492"
         style="fill:none"
         x1="1464"
         x2="1680"
         y1="492"
         id="line209" />
      <path
         style="fill:none"
         d="m 1680,252 a 12,12 0 0 1 12,12"
         id="path211" />
      <path
         style="fill:none"
         d="m 1452,264 a 12,12 0 0 1 12,-12"
         id="path213" />
      <path
         style="fill:none"
         d="m 1692,480 a 12,12 0 0 1 -12,12"
         id="path215" />
      <path
         style="fill:none"
         d="m 1464,492 a 12,12 0 0 1 -12,-12"
         id="path217" />
      <text
         x="1646"
         y="284"
         style="fill:#000000;stroke:none;text-rendering:optimizeLegibility"
         xml:space="preserve"
         id="text219">14</text>
      <line
         y2="720"
         style="fill:none"
         x1="12"
         x2="12"
         y1="504"
         id="line221" />
      <line
         y2="720"
         style="fill:none"
         x1="252"
         x2="252"
         y1="504"
         id="line223" />
      <line
         y2="732"
         style="fill:none"
         x1="24"
         x2="240"
         y1="732"
         id="line225" />
      <path
         style="fill:none"
         d="m 240,492 a 12,12 0 0 1 12,12"
         id="path227" />
      <path
         style="fill:none"
         d="M 12,504 A 12,12 0 0 1 24,492"
         id="path229" />
      <path
         style="fill:none"
         d="m 252,720 a 12,12 0 0 1 -12,12"
         id="path231" />
      <path
         style="fill:none"
         d="M 24,732 A 12,12 0 0 1 12,720"
         id="path233" />
      <text
         x="206"
         y="524"
         style="fill:#000000;stroke:none;text-rendering:optimizeLegibility"
         xml:space="preserve"
         id="text235">15</text>
      <line
         y2="720"
         style="fill:none"
         x1="492"
         x2="492"
         y1="504"
         id="line237" />
      <line
         y2="732"
         style="fill:none"
         x1="264"
         x2="480"
         y1="732"
         id="line239" />
      <path
         style="fill:none"
         d="m 480,492 a 12,12 0 0 1 12,12"
         id="path241" />
      <path
         style="fill:none"
         d="m 252,504 a 12,12 0 0 1 12,-12"
         id="path243" />
      <path
         style="fill:none"
         d="m 492,720 a 12,12 0 0 1 -12,12"
         id="path245" />
      <path
         style="fill:none"
         d="M 264,732 A 12,12 0 0 1 252,720"
         id="path247" />
      <text
         x="446"
         y="524"
         style="fill:#000000;stroke:none;text-rendering:optimizeLegibility"
         xml:space="preserve"
         id="text249">16</text>
      <line
         y2="720"
         style="fill:none"
         x1="732"
         x2="732"
         y1="504"
         id="line251" />
      <line
         y2="732"
         style="fill:none"
         x1="504"
         x2="720"
         y1="732"
         id="line253" />
      <path
         style="fill:none"
         d="m 720,492 a 12,12 0 0 1 12,12"
         id="path255" />
      <path
         style="fill:none"
         d="m 492,504 a 12,12 0 0 1 12,-12"
         id="path257" />
      <path
         style="fill:none"
         d="m 732,720 a 12,12 0 0 1 -12,12"
         id="path259" />
      <path
         style="fill:none"
         d="M 504,732 A 12,12 0 0 1 492,720"
         id="path261" />
      <text
         x="686"
         y="524"
         style="fill:#000000;stroke:none;text-rendering:optimizeLegibility"
         xml:space="preserve"
         id="text263">17</text>
      <line
         y2="720"
         style="fill:none"
         x1="972"
         x2="972"
         y1="504"
         id="line265" />
      <line
         y2="732"
         style="fill:none"
         x1="744"
         x2="960"
         y1="732"
         id="line267" />
      <path
         style="fill:none"
         d="m 960,492 a 12,12 0 0 1 12,12"
         id="path269" />
      <path
         style="fill:none"
         d="m 732,504 a 12,12 0 0 1 12,-12"
         id="path271" />
      <path
         style="fill:none"
         d="m 972,720 a 12,12 0 0 1 -12,12"
         id="path273" />
      <path
         style="fill:none"
         d="M 744,732 A 12,12 0 0 1 732,720"
         id="path275" />
      <text
         x="926"
         y="524"
         style="fill:#000000;stroke:none;text-rendering:optimizeLegibility"
         xml:space="preserve"
         id="text277">18</text>
      <line
         y2="720"
         style="fill:none"
         x1="1212"
         x2="1212"
         y1="504"
         id="line279" />
      <line
         y2="732"
         style="fill:none"
         x1="984"
         x2="1200"
         y1="732"
         id="line281" />
      <path
         style="fill:none"
         d="m 1200,492 a 12,12 0 0 1 12,12"
         id="path283" />
      <path
         style="fill:none"
         d="m 972,504 a 12,12 0 0 1 12,-12"
         id="path285" />
      <path
         style="fill:none"
         d="m 1212,720 a 12,12 0 0 1 -12,12"
         id="path287" />
      <path
         style="fill:none"
         d="M 984,732 A 12,12 0 0 1 972,720"
         id="path289" />
      <text
         x="1166"
         y="524"
         style="fill:#000000;stroke:none;text-rendering:optimizeLegibility"
         xml:space="preserve"
         id="text291">19</text>
      <line
         y2="720"
         style="fill:none"
         x1="1452"
         x2="1452"
         y1="504"
         id="line293" />
      <line
         y2="732"
         style="fill:none"
         x1="1224"
         x2="1440"
         y1="732"
         id="line295" />
      <path
         style="fill:none"
         d="m 1440,492 a 12,12 0 0 1 12,12"
         id="path297" />
      <path
         style="fill:none"
         d="m 1212,504 a 12,12 0 0 1 12,-12"
         id="path299" />
      <path
         style="fill:none"
         d="m 1452,720 a 12,12 0 0 1 -12,12"
         id="path301" />
      <path
         style="fill:none"
         d="m 1224,732 a 12,12 0 0 1 -12,-12"
         id="path303" />
      <text
         x="1406"
         y="524"
         style="fill:#000000;stroke:none;text-rendering:optimizeLegibility"
         xml:space="preserve"
         id="text305">20</text>
      <line
         y2="720"
         style="fill:none"
         x1="1692"
         x2="1692"
         y1="504"
         id="line307" />
      <line
         y2="732"
         style="fill:none"
         x1="1464"
         x2="1680"
         y1="732"
         id="line309" />
      <path
         style="fill:none"
         d="m 1680,492 a 12,12 0 0 1 12,12"
         id="path311" />
      <path
         style="fill:none"
         d="m 1452,504 a 12,12 0 0 1 12,-12"
         id="path313" />
      <path
         style="fill:none"
         d="m 1692,720 a 12,12 0 0 1 -12,12"
         id="path315" />
      <path
         style="fill:none"
         d="m 1464,732 a 12,12 0 0 1 -12,-12"
         id="path317" />
      <text
         x="1646"
         y="524"
         style="fill:#000000;stroke:none;text-rendering:optimizeLegibility"
         xml:space="preserve"
         id="text319">21</text>
      <line
         y2="960"
         style="fill:none"
         x1="12"
         x2="12"
         y1="744"
         id="line321" />
      <line
         y2="960"
         style="fill:none"
         x1="252"
         x2="252"
         y1="744"
         id="line323" />
      <line
         y2="972"
         style="fill:none"
         x1="24"
         x2="240"
         y1="972"
         id="line325" />
      <path
         style="fill:none"
         d="m 240,732 a 12,12 0 0 1 12,12"
         id="path327" />
      <path
         style="fill:none"
         d="M 12,744 A 12,12 0 0 1 24,732"
         id="path329" />
      <path
         style="fill:none"
         d="m 252,960 a 12,12 0 0 1 -12,12"
         id="path331" />
      <path
         style="fill:none"
         d="M 24,972 A 12,12 0 0 1 12,960"
         id="path333" />
      <text
         x="206"
         y="764"
         style="fill:#000000;stroke:none;text-rendering:optimizeLegibility"
         xml:space="preserve"
         id="text335">22</text>
      <line
         y2="960"
         style="fill:none"
         x1="492"
         x2="492"
         y1="744"
         id="line337" />
      <line
         y2="972"
         style="fill:none"
         x1="264"
         x2="480"
         y1="972"
         id="line339" />
      <path
         style="fill:none"
         d="m 480,732 a 12,12 0 0 1 12,12"
         id="path341" />
      <path
         style="fill:none"
         d="m 252,744 a 12,12 0 0 1 12,-12"
         id="path343" />
      <path
         style="fill:none"
         d="m 492,960 a 12,12 0 0 1 -12,12"
         id="path345" />
      <path
         style="fill:none"
         d="M 264,972 A 12,12 0 0 1 252,960"
         id="path347" />
      <text
         x="446"
         y="764"
         style="fill:#000000;stroke:none;text-rendering:optimizeLegibility"
         xml:space="preserve"
         id="text349">23</text>
      <line
         y2="960"
         style="fill:none"
         x1="732"
         x2="732"
         y1="744"
         id="line351" />
      <line
         y2="972"
         style="fill:none"
         x1="504"
         x2="720"
         y1="972"
         id="line353" />
      <path
         style="fill:none"
         d="m 720,732 a 12,12 0 0 1 12,12"
         id="path355" />
      <path
         style="fill:none"
         d="m 492,744 a 12,12 0 0 1 12,-12"
         id="path357" />
      <path
         style="fill:none"
         d="m 732,960 a 12,12 0 0 1 -12,12"
         id="path359" />
      <path
         style="fill:none"
         d="M 504,972 A 12,12 0 0 1 492,960"
         id="path361" />
      <text
         x="686"
         y="764"
         style="fill:#000000;stroke:none;text-rendering:optimizeLegibility"
         xml:space="preserve"
         id="text363">24</text>
      <line
         y2="960"
         style="fill:none"
         x1="972"
         x2="972"
         y1="744"
         id="line365" />
      <line
         y2="972"
         style="fill:none"
         x1="744"
         x2="960"
         y1="972"
         id="line367" />
      <path
         style="fill:none"
         d="m 960,732 a 12,12 0 0 1 12,12"
         id="path369" />
      <path
         style="fill:none"
         d="m 732,744 a 12,12 0 0 1 12,-12"
         id="path371" />
      <path
         style="fill:none"
         d="m 972,960 a 12,12 0 0 1 -12,12"
         id="path373" />
      <path
         style="fill:none"
         d="M 744,972 A 12,12 0 0 1 732,960"
         id="path375" />
      <text
         x="926"
         y="764"
         style="fill:#000000;stroke:none;text-rendering:optimizeLegibility"
         xml:space="preserve"
         id="text377">25</text>
      <line
         y2="960"
         style="fill:none"
         x1="1212"
         x2="1212"
         y1="744"
         id="line379" />
      <line
         y2="972"
         style="fill:none"
         x1="984"
         x2="1200"
         y1="972"
         id="line381" />
      <path
         style="fill:none"
         d="m 1200,732 a 12,12 0 0 1 12,12"
         id="path383" />
      <path
         style="fill:none"
         d="m 972,744 a 12,12 0 0 1 12,-12"
         id="path385" />
      <path
         style="fill:none"
         d="m 1212,960 a 12,12 0 0 1 -12,12"
         id="path387" />
      <path
         style="fill:none"
         d="M 984,972 A 12,12 0 0 1 972,960"
         id="path389" />
      <text
         x="1166"
         y="764"
         style="fill:#000000;stroke:none;text-rendering:optimizeLegibility"
         xml:space="preserve"
         id="text391">26</text>
      <line
         y2="960"
         style="fill:none"
         x1="1452"
         x2="1452"
         y1="744"
         id="line393" />
      <line
         y2="972"
         style="fill:none"
         x1="1224"
         x2="1440"
         y1="972"
         id="line395" />
      <path
         style="fill:none"
         d="m 1440,732 a 12,12 0 0 1 12,12"
         id="path397" />
      <path
         style="fill:none"
         d="m 1212,744 a 12,12 0 0 1 12,-12"
         id="path399" />
      <path
         style="fill:none"
         d="m 1452,960 a 12,12 0 0 1 -12,12"
         id="path401" />
      <path
         style="fill:none"
         d="m 1224,972 a 12,12 0 0 1 -12,-12"
         id="path403" />
      <text
         x="1406"
         y="764"
         style="fill:#000000;stroke:none;text-rendering:optimizeLegibility"
         xml:space="preserve"
         id="text405">27</text>
      <line
         y2="960"
         style="fill:none"
         x1="1692"
         x2="1692"
         y1="744"
         id="line407" />
      <line
         y2="972"
         style="fill:none"
         x1="1464"
         x2="1680"
         y1="972"
         id="line409" />
      <path
         style="fill:none"
         d="m 1680,732 a 12,12 0 0 1 12,12"
         id="path411" />
      <path
         style="fill:none"
         d="m 1452,744 a 12,12 0 0 1 12,-12"
         id="path413" />
      <path
         style="fill:none"
         d="m 1692,960 a 12,12 0 0 1 -12,12"
         id="path415" />
      <path
         style="fill:none"
         d="m 1464,972 a 12,12 0 0 1 -12,-12"
         id="path417" />
      <text
         x="1646"
         y="764"
         style="fill:#000000;stroke:none;text-rendering:optimizeLegibility"
         xml:space="preserve"
         id="text419">28</text>
      <line
         y2="1200"
         style="fill:none"
         x1="12"
         x2="12"
         y1="984"
         id="line421" />
      <line
         y2="1200"
         style="fill:none"
         x1="252"
         x2="252"
         y1="984"
         id="line423" />
      <line
         y2="1212"
         style="fill:none"
         x1="24"
         x2="240"
         y1="1212"
         id="line425" />
      <path
         style="fill:none"
         d="m 240,972 a 12,12 0 0 1 12,12"
         id="path427" />
      <path
         style="fill:none"
         d="M 12,984 A 12,12 0 0 1 24,972"
         id="path429" />
      <path
         style="fill:none"
         d="m 252,1200 a 12,12 0 0 1 -12,12"
         id="path431" />
      <path
         style="fill:none"
         d="M 24,1212 A 12,12 0 0 1 12,1200"
         id="path433" />
      <text
         x="206"
         y="1004"
         style="fill:#000000;stroke:none;text-rendering:optimizeLegibility"
         xml:space="preserve"
         id="text435">29</text>
      <line
         y2="1200"
         style="fill:none"
         x1="492"
         x2="492"
         y1="984"
         id="line437" />
      <line
         y2="1212"
         style="fill:none"
         x1="264"
         x2="480"
         y1="1212"
         id="line439" />
      <path
         style="fill:none"
         d="m 480,972 a 12,12 0 0 1 12,12"
         id="path441" />
      <path
         style="fill:none"
         d="m 252,984 a 12,12 0 0 1 12,-12"
         id="path443" />
      <path
         style="fill:none"
         d="m 492,1200 a 12,12 0 0 1 -12,12"
         id="path445" />
      <path
         style="fill:none"
         d="m 264,1212 a 12,12 0 0 1 -12,-12"
         id="path447" />
      <text
         x="446"
         y="1004"
         style="fill:#000000;stroke:none;text-rendering:optimizeLegibility"
         xml:space="preserve"
         id="text449">30</text>
      <line
         y2="1200"
         style="fill:none"
         x1="732"
         x2="732"
         y1="984"
         id="line451" />
      <line
         y2="1212"
         style="fill:none"
         x1="504"
         x2="720"
         y1="1212"
         id="line453" />
      <path
         style="fill:none"
         d="m 720,972 a 12,12 0 0 1 12,12"
         id="path455" />
      <path
         style="fill:none"
         d="m 492,984 a 12,12 0 0 1 12,-12"
         id="path457" />
      <path
         style="fill:none"
         d="m 732,1200 a 12,12 0 0 1 -12,12"
         id="path459" />
      <path
         style="fill:none"
         d="m 504,1212 a 12,12 0 0 1 -12,-12"
         id="path461" />
      <text
         x="686"
         y="1004"
         style="fill:#000000;stroke:none;text-rendering:optimizeLegibility"
         xml:space="preserve"
         id="text463">31</text>
      <line
         y2="1200"
         style="fill:none"
         x1="972"
         x2="972"
         y1="984"
         id="line465" />
      <line
         y2="1212"
         style="fill:none"
         x1="744"
         x2="960"
         y1="1212"
         id="line467" />
      <path
         style="fill:none"
         d="m 960,972 a 12,12 0 0 1 12,12"
         id="path469" />
      <path
         style="fill:none"
         d="m 732,984 a 12,12 0 0 1 12,-12"
         id="path471" />
      <path
         style="fill:none"
         d="m 972,1200 a 12,12 0 0 1 -12,12"
         id="path473" />
      <path
         style="fill:none"
         d="m 744,1212 a 12,12 0 0 1 -12,-12"
         id="path475" />
      <text
         x="926"
         y="1004"
         style="fill:#000000;stroke:none;text-rendering:optimizeLegibility"
         xml:space="preserve"
         id="text477">32</text>
      <line
         y2="1200"
         style="fill:none"
         x1="1212"
         x2="1212"
         y1="984"
         id="line479" />
      <line
         y2="1212"
         style="fill:none"
         x1="984"
         x2="1200"
         y1="1212"
         id="line481" />
      <path
         style="fill:none"
         d="m 1200,972 a 12,12 0 0 1 12,12"
         id="path483" />
      <path
         style="fill:none"
         d="m 972,984 a 12,12 0 0 1 12,-12"
         id="path485" />
      <path
         style="fill:none"
         d="m 1212,1200 a 12,12 0 0 1 -12,12"
         id="path487" />
      <path
         style="fill:none"
         d="m 984,1212 a 12,12 0 0 1 -12,-12"
         id="path489" />
      <text
         x="1166"
         y="1004"
         style="fill:#000000;stroke:none;text-rendering:optimizeLegibility"
         xml:space="preserve"
         id="text491">33</text>
      <line
         y2="1200"
         style="fill:none"
         x1="1452"
         x2="1452"
         y1="984"
         id="line493" />
      <line
         y2="1212"
         style="fill:none"
         x1="1224"
         x2="1440"
         y1="1212"
         id="line495" />
      <path
         style="fill:none"
         d="m 1440,972 a 12,12 0 0 1 12,12"
         id="path497" />
      <path
         style="fill:none"
         d="m 1212,984 a 12,12 0 0 1 12,-12"
         id="path499" />
      <path
         style="fill:none"
         d="m 1452,1200 a 12,12 0 0 1 -12,12"
         id="path501" />
      <path
         style="fill:none"
         d="m 1224,1212 a 12,12 0 0 1 -12,-12"
         id="path503" />
      <text
         x="1406"
         y="1004"
         style="fill:#000000;stroke:none;text-rendering:optimizeLegibility"
         xml:space="preserve"
         id="text505">34</text>
      <line
         y2="1200"
         style="fill:none"
         x1="1692"
         x2="1692"
         y1="984"
         id="line507" />
      <line
         y2="1212"
         style="fill:none"
         x1="1464"
         x2="1680"
         y1="1212"
         id="line509" />
      <path
         style="fill:none"
         d="m 1680,972 a 12,12 0 0 1 12,12"
         id="path511" />
      <path
         style="fill:none"
         d="m 1452,984 a 12,12 0 0 1 12,-12"
         id="path513" />
      <path
         style="fill:none"
         d="m 1692,1200 a 12,12 0 0 1 -12,12"
         id="path515" />
      <path
         style="fill:none"
         d="m 1464,1212 a 12,12 0 0 1 -12,-12"
         id="path517" />
    </g>
  </g>
  <path
     style="display:inline;fill:#333333;fill-opacity:1;stroke-width:1.45238"
     d="m 147.50358,1123.3028 c -4.50923,-2.1748 -4.12896,-4.2924 0.45766,-2.5486 6.51284,2.4762 17.54991,1.5424 33.64891,-2.8471 18.57037,-5.0632 29.56553,-9.7587 37.25946,-15.9116 3.10534,-2.4833 6.04886,-4.5153 6.54113,-4.5153 0.49223,0 4.53063,-3.4312 8.97414,-7.6249 11.3283,-10.6915 19.21141,-17.0258 21.21514,-17.0473 1.63007,-0.023 3.35184,-1.929 9.90894,-11.002 1.5976,-2.2106 3.57283,-4.7284 4.38943,-5.595 2.32663,-2.4693 12.20912,-17.77 13.41012,-20.7624 4.61276,-11.4932 23.27861,-29.005 37.93628,-35.5906 5.29154,-2.37759 13.54239,-6.17549 18.3352,-8.43979 4.79285,-2.2644 10.44832,-4.7757 12.56773,-5.58063 3.2907,-1.24991 4.4987,-3.54475 8.27153,-15.71371 5.69298,-18.36231 5.29905,-22.32202 -3.6054,-36.24194 -2.70874,-4.23443 -6.22396,-8.39416 -7.81157,-9.24381 -1.58764,-0.84969 -2.88659,-2.41079 -2.88659,-3.46908 0,-1.05832 4.83963,-5.97657 10.75475,-10.92933 5.91512,-4.95283 12.38648,-10.97472 14.3808,-13.38208 1.99431,-2.40732 6.95818,-7.86821 11.03084,-12.13548 4.07263,-4.26722 7.40481,-8.21712 7.40481,-8.77751 0,-1.49492 18.69601,-22.36376 35.84535,-40.01131 8.36002,-8.60281 16.25655,-18.19426 17.93592,-21.78558 1.65012,-3.52884 5.22155,-10.6144 7.9365,-15.74565 l 4.93634,-9.32969 -4.26912,-8.85171 c -9.55416,-19.80995 -14.48825,-45.63555 -13.61275,-71.25038 0.4301,-12.58735 2.9455,-43.94296 4.36894,-54.46404 1.86874,-13.81256 3.35676,-22.17201 6.07535,-34.13081 3.93921,-17.32848 5.19013,-29.5564 3.94765,-38.59021 -0.87109,-6.33369 -2.00248,-8.34004 -7.76463,-13.76981 -3.70976,-3.49578 -13.60747,-10.71661 -21.99497,-16.04631 -8.38745,-5.32971 -18.84452,-12.41695 -23.23797,-15.7494 -11.05981,-8.38902 -19.02584,-12.70994 -33.40458,-18.11924 -6.78985,-2.5543 -14.30588,-5.52756 -16.70231,-6.60701 -3.899,-1.75647 -20.93866,-7.39842 -38.23296,-12.65918 -5.74881,-1.74875 -6.56642,-2.62048 -9.65401,-10.29275 -4.91647,-12.21694 -11.31024,-19.12496 -32.97023,-35.62181 -10.64613,-8.10839 -21.45782,-17.21021 -24.02604,-20.22625 -2.56819,-3.01603 -6.67388,-7.77119 -9.12378,-10.56703 -4.53908,-5.18002 -14.52805,-23.941 -14.52805,-27.28618 0,-1.01418 -2.29402,-6.67817 -5.09785,-12.58667 -2.80382,-5.90848 -5.48684,-12.91575 -5.96228,-15.57167 -0.47544,-2.65595 -2.07634,-9.07717 -3.5576,-14.26941 -3.03306,-10.63162 -3.89779,-18.85174 -2.26162,-21.49907 1.17958,-1.90863 6.71787,0.75224 26.10512,12.54223 5.47359,3.32865 10.22771,6.05209 10.56472,6.05209 0.33707,0 4.01068,2.33734 8.16367,5.19412 4.15298,2.85675 13.01201,7.76461 19.6867,10.90634 6.67469,3.14176 14.22785,7.30793 16.78476,9.2582 2.55693,1.95025 6.08682,4.07783 7.84422,4.7279 4.27667,1.58205 21.70976,16.03897 35.52568,29.46076 14.58476,14.16873 21.81153,20.40072 29.45381,25.3994 7.20689,4.71391 12.40447,7.54155 26.86892,14.61732 44.6022,21.81872 53.612,26.0367 54.04916,27.05169 1.09622,0.20314 0.8806,0.63979 2.75898,1.1932 1.49212,0.43957 7.29714,2.53234 12.75908,5.62745 8.13189,4.60801 24.78191,11.33227 31.37271,12.67017 0.79882,0.16219 3.41312,1.10572 5.80953,2.09682 2.39638,0.99113 5.33747,1.95205 6.53567,2.1354 1.1982,0.18349 7.83359,2.01197 14.74532,4.0636 10.8977,3.23474 15.3887,3.74175 33.81318,3.81705 19.02369,0.0774 44.83974,-2.57696 48.78773,-5.01691 0.78271,-0.48359 4.5258,-1.42142 8.31791,-2.08376 3.7922,-0.66235 10.81629,-2.56755 15.60911,-4.23376 7.99332,-2.77885 29.51651,-9.44452 31.22602,-9.67064 5.8978,-0.78006 14.15697,-2.95698 21.78563,-5.74214 5.19224,-1.89564 15.32247,-4.83677 22.51174,-6.53578 7.18932,-1.69906 16.66603,-4.31075 21.05941,-5.80379 4.39344,-1.49304 11.58276,-3.14454 15.9762,-3.67001 13.11839,-1.56902 16.06498,-2.1756 21.4031,-4.40606 2.80185,-1.17068 6.50298,-2.12853 8.22469,-2.12853 1.72174,0 4.41962,-0.8659 5.99524,-1.92423 1.5756,-1.05829 6.78629,-2.73073 11.57908,-3.71649 9.30242,-1.91325 14.3909,-3.52188 22.51179,-7.11657 2.79586,-1.23754 8.67787,-3.39007 13.07139,-4.78339 9.72955,-3.08559 16.73787,-5.56208 22.51171,-7.95491 2.39647,-0.99313 10.23927,-3.44159 17.42858,-5.44104 7.18919,-1.99946 23.44253,-7.6166 36.1184,-12.48251 12.67587,-4.8659 25.74724,-9.56377 29.04745,-10.43966 3.30027,-0.87594 7.9611,-2.47596 10.3575,-3.55566 2.39647,-1.0797 9.91251,-4.04409 16.70229,-6.58759 6.78984,-2.54347 12.96607,-5.19595 13.72487,-5.89439 0.759,-0.69841 2.7524,-1.26988 4.4298,-1.26988 1.6775,0 3.6708,-0.55107 4.4298,-1.22457 1.3243,-1.17543 12.865,-4.88511 21.46359,-6.89938 2.2592,-0.52922 7.3212,-2.5125 11.24885,-4.4072 3.9276,-1.89473 7.8369,-3.44495 8.6877,-3.44495 1.8428,0 38.5904,-15.4798 42.765,-18.01457 1.5975,-0.97009 6.1724,-2.95494 10.1665,-4.41076 3.994,-1.45584 7.8828,-3.21462 8.6416,-3.90837 0,0 2.546,-0.89246 3.9718,-1.2614 1.38,-0.35715 6.3097,-1.90368 10.8536,-4.23043 l 8.262,-4.23044 -7.1502,-0.87658 c -21.5554,-2.64262 -37.4505,-7.93613 -27.8093,-9.26127 4.6774,-0.64292 11.9091,-2.89588 24.2899,-7.56727 25.5018,-9.62202 31.7312,-13.84538 52.2855,-35.44835 24.5966,-25.85143 59.3497,-56.95854 62.3285,-57.48032 1.9288,-0.75608 2.3915,-2.71846 4.2247,-3.54967 1.4061,-0.59902 4.2114,-2.30372 6.1217,-4.0919 5.7785,-3.96243 20.0989,-11.7724 23.4594,-14.24665 0.6409,-0.0777 4.1196,-3.19913 9.5166,-6.62036 5.3971,-3.42118 10.5186,-6.82477 11.3815,-7.56347 0.8628,-0.73871 6.4223,-3.67761 12.3544,-6.53087 6.7434,-3.24344 11.7249,-6.7105 13.2915,-9.25064 1.3781,-2.23456 8.1459,-9.94497 15.0397,-17.13421 6.8936,-7.18925 16.811,-18.62671 22.0385,-25.41655 5.2277,-6.78985 10.8732,-13.71333 12.5461,-15.38549 2.7264,-2.72513 10.0334,-11.04585 18.2508,-20.782999 1.9656,-2.096639 2.0071,-3.795449 3.2853,-5.140098 0,0 2.757,-2.03199 3.2473,-3.576752 1.134,-3.572827 11.2092,-14.661987 13.321,-14.661987 2.6356,0 4.9271,15.814259 3.6308,25.053447 -1.1186,7.973289 -1.309,9.069079 2.2639,6.500829 0.9757,-0.70135 2.7952,-2.89903 4.7924,-4.18074 1.9969,-1.28171 5.4619,-4.043679 7.6997,-6.137718 2.238,-2.09403 5.1664,-3.205359 6.1215,-3.807339 1.129,-0.71158 1.922,-1.60363 3.6072,-2.904741 1.4342,-1.107341 2.5985,-2.330603 3.5042,-2.904749 1.3095,-0.830192 2.323,-1.258841 3.8338,-2.270331 2.221,-1.48695 2.006,-2.052818 3.1779,0.04176 2.7513,4.916244 -12.9044,42.418968 -22.1656,53.097438 -1.5807,1.8225 -2.337,4.3376 -2.8739,5.26997 l -1.127,1.95634 c -0.3094,0.53711 -2.4106,2.88269 -3.9794,6.406 -0.9619,2.19413 -3.6143,6.68763 -3.6143,6.68763 -1.0356,2.38022 -4.2321,11.2438 -7.4088,15.06924 -0.7359,0.88593 -5.2344,7.56281 -9.9967,14.83749 -4.7625,7.27467 -9.6555,14.05378 -10.8737,15.06465 -2.848,2.36375 -2.8271,5.35226 0.051,6.96172 1.2449,0.69665 4.0264,3.92957 6.181,7.18425 2.1546,3.25468 7.5086,9.77869 11.8973,14.49779 8.9082,9.57853 23.652,27.5283 28.9874,35.29061 1.9216,2.79583 6.0212,8.1557 9.1101,11.91083 5.4449,6.61918 5.6186,7.17684 5.6914,18.27424 0.04,6.29571 -0.3942,17.07743 -0.9671,23.95939 -0.9482,11.38037 -0.7539,12.97954 2.1463,17.67201 1.7537,2.83763 3.6871,5.15936 4.2966,5.15936 1.0899,0 11.243,8.50278 25.524,21.37539 3.994,3.60014 8.0558,7.94289 9.026,9.65055 9.2055,9.37884 20.9077,20.86535 29.2529,29.8958 1.882,2.0399 5.092,5.50295 7.1337,7.69563 l 3.7116,3.98677 -4.1133,7.63222 c -2.2623,4.19776 -5.4725,9.01991 -7.1337,10.71598 -5.9399,6.06479 -9.5559,10.99372 -9.5559,13.02534 0,3.95198 -16.0117,13.15582 -19.0979,12.84951 -4.1558,1.51574 -8.4253,3.18459 -11.765,3.76627 -10.9755,1.83578 -21.9548,7.04666 -27.6608,11.17111 -1.9255,1.39189 -2.2177,1.55773 -3.0694,2.28152 -1.4736,1.25202 -2.3424,2.43126 -2.9954,2.64086 -1.6032,1.63562 -4.9881,6.86224 -8.1433,6.03712 -1.5353,-0.40165 -2.4748,-1.34542 -2.7916,-1.91516 -0.4444,-0.80004 -1.5297,-1.28998 -3.2678,-2.20885 -1.665,-0.88035 -7.9761,-3.22142 -13.7304,-5.90739 -5.7543,-2.68595 -11.1828,-4.58174 -11.9296,-4.95694 -0.5842,-0.2935 -0.497,-0.43778 -1.531,-1.08932 -1.1697,-1.53608 -5.2812,-3.86015 -13.1124,-6.7686 -7.7883,-2.89266 -21.8819,-9.66907 -28.0623,-13.49295 -8.1163,-5.02141 -17.699,-4.73162 -29.0975,0.87986 -4.9457,2.43464 -10.1017,5.60224 -11.4582,7.03912 -9.7015,10.27771 -11.4017,12.85188 -13.482,20.41623 -1.2614,4.58641 -2.8425,9.68792 -3.5136,11.3367 -1.2261,3.01206 -1.0351,13.42716 0.6912,37.66871 1.5084,21.18072 1.491,22.96085 -0.2297,23.53874 -0.9023,0.30343 -3.3809,-2.41832 -5.5077,-6.04749 -4.6091,-7.86493 -6.6279,-8.38623 -6.3746,-1.64597 0.1034,2.72378 -0.5242,6.80863 -1.3931,9.07728 -0.8687,2.26874 -3.6421,10.00708 -6.1628,17.19633 -6.7318,19.19881 -14.1236,34.98692 -21.6584,46.26016 -2.0562,3.07661 -4.8764,7.65153 -6.2672,10.16662 -2.5024,4.52625 -15.9014,18.81038 -23.8533,25.4291 -2.2649,1.88526 -7.06,6.13346 -10.6558,9.44041 -6.6765,6.14042 -21.1483,18.62536 -26.5776,22.92888 -2.7423,2.17359 -3.0473,4.10057 -3.3324,21.05943 -0.2723,16.16622 0.2403,21.0018 3.8236,36.09548 3.8136,16.06318 4.1782,20.10239 4.655,51.56236 0.4584,30.24342 0.8401,34.79583 3.3503,39.94036 l 2.8333,5.80633 12.7326,0.20358 c 7.003,0.11157 15.4994,-0.42112 18.8809,-1.18382 3.3814,-0.7629 8.5549,-1.52409 11.4966,-1.69149 5.0706,-0.28836 5.5942,0.1194 10.0766,7.84894 4.8718,8.40129 5.4983,8.83351 21.6104,14.9061 14.0015,5.27706 19.3424,6.785 24.0674,6.79493 2.3397,0.004 6.0402,0.94077 8.2235,2.07968 2.183,1.13886 4.3038,1.52943 4.7128,0.86785 0.736,-1.19097 21.4563,3.76532 31.258,7.47695 14.3973,5.4518 46.9575,25.25519 50.4433,30.67981 0.6137,0.95524 3.7302,3.92068 6.9254,6.58982 8.4077,7.02327 35.5831,34.05678 35.5831,35.39716 0,3.14147 -4.6135,0.1902 -13.5481,-8.66606 -5.4396,-5.39196 -11.9692,-11.62329 -14.5102,-13.84741 -2.541,-2.22409 -8.5414,-7.70127 -13.3343,-12.17141 -19.5657,-18.24854 -48.8646,-33.86993 -74.7971,-39.88 -3.5948,-0.83307 -7.8428,-1.83968 -9.4405,-2.23687 -1.5977,-0.39715 -3.8852,-0.75567 -5.0833,-0.79663 -1.1982,-0.0391 -7.0803,-1.347 -13.0714,-2.90251 -5.9911,-1.5554 -12.5268,-3.1911 -14.5238,-3.63481 -1.997,-0.44399 -4.2844,-1.28248 -5.0832,-1.86395 -0.7989,-0.58141 -3.4131,-1.50509 -5.8096,-2.0526 -2.3964,-0.54773 -5.4414,-1.31634 -6.7668,-1.70867 -1.7809,-0.5271 -3.3933,1.36598 -6.1794,7.25568 -3.5183,7.43674 -4.4858,8.30407 -14.4891,12.98874 -7.6581,3.58634 -14.9697,5.64295 -25.6037,7.20215 -8.1865,1.2003 -15.2873,2.77204 -15.7797,3.49268 -1.4235,2.08337 -14.7339,9.07669 -18.6153,9.78054 -4.869,0.88289 -12.8666,-3.86351 -21.5099,-12.76578 -6.6466,-6.84595 -15.2341,-18.49652 -15.2341,-20.66826 0,-0.48916 -2.5348,-4.5881 -5.633,-9.10843 -3.0982,-4.52044 -6.5049,-10.29632 -7.5704,-12.83539 -1.9714,-4.69731 -5.1864,-6.06201 -16.5702,-7.03375 -2.3964,-0.20471 -7.3754,-0.84848 -11.0644,-1.43079 -4.165,-0.65749 -7.0557,-0.49475 -7.6264,0.42837 -0.5054,0.81796 -2.2256,1.14554 -3.8225,0.728 -2.2755,-0.5951 -2.9346,-0.0223 -3.0486,2.67796 -0.079,1.8905 -0.304,7.6854 -0.498,12.87767 -0.6658,17.80445 -9.6767,37.04163 -18.253,38.96745 -1.1745,0.26381 -2.58,1.19863 -3.1231,2.07757 -0.5433,0.87887 -4.8142,1.87477 -9.4911,2.21306 -9.8129,0.70975 -9.2487,1.41477 -19.3236,-24.14522 -3.47735,-8.82206 -1.48835,-36.22969 3.0301,-41.75195 1.4661,-1.79188 -1.6695,-3.64881 -11.74315,-6.95426 -3.5946,-1.17951 -8.49639,-3.13473 -10.89279,-4.34485 -2.3964,-1.21021 -6.3178,-2.55069 -8.7142,-2.97894 -9.1414,-1.63359 -13.1205,-2.67148 -14.52377,-3.78819 -0.79885,-0.63564 -7.33451,-1.16222 -14.52376,-1.1702 -13.55184,-0.0167 -25.83119,2.59976 -38.86971,8.27666 -3.80461,1.65648 -7.39915,3.10973 -7.98799,3.22943 -0.58883,0.11998 -2.58363,0.79282 -4.43298,1.49595 -1.84934,0.70312 -4.31317,1.27841 -5.47529,1.27841 -1.16205,0 -4.70116,1.63387 -7.86466,3.6309 -3.16349,1.99704 -6.46018,3.63098 -7.32602,3.63098 -0.86593,0 -4.96368,1.54384 -9.10619,3.43082 -4.14256,1.88696 -9.16583,3.92554 -11.16286,4.53022 -3.69557,1.11883 -13.29997,5.19607 -20.91941,8.88048 -2.3195,1.12168 -4.95896,2.03937 -5.86563,2.03937 -0.90653,0 -4.17059,1.28586 -7.25345,2.85762 -3.08289,1.57173 -6.0585,1.93422 -6.84278,2.09285 -0.59992,0.12102 -0.81316,0.33132 -1.23763,0.7733 -0.5867,0.61097 -1.05133,0.91546 -1.683,1.20372 -1.79803,0.82043 -18.9433,6.82732 -26.63823,10.50341 -6.55434,3.13114 -14.25191,5.58462 -20.48191,6.52813 -2.31463,0.35027 -9.7638,1.64185 -16.55363,2.86961 -13.66994,2.47182 -38.72409,6.2173 -42.11889,6.2966 -1.19821,0.0223 -6.09987,0.82142 -10.89279,1.76317 -4.79281,0.94174 -10.66298,1.91884 -13.04482,2.17135 -2.38189,0.25265 -6.63009,1.13288 -9.44042,1.9562 -2.81044,0.82337 -10.33841,2.86832 -16.72885,4.54414 -6.3904,1.67592 -14.23319,3.76479 -17.42843,4.64192 -3.39254,0.93137 -16.49999,1.4901 -31.50529,1.34305 -22.72677,-0.22309 -26.75431,0.10317 -34.85694,2.82142 -5.03865,1.69021 -10.19299,3.99738 -11.45406,5.12692 -1.26116,1.12965 -2.86911,2.05381 -3.57322,2.05381 -0.70419,0 -5.22771,4.12174 -10.05231,9.15948 -4.82458,5.03765 -12.36659,11.5274 -16.75999,14.4216 -8.3312,5.48825 -20.63113,11.27597 -23.96356,11.27597 -2.95677,0 -3.39332,3.01559 -1.40815,9.72667 0.99173,3.3527 1.53351,6.36544 1.20389,6.69508 -0.73245,0.73246 10.66638,11.17335 12.19846,11.17335 2.19056,0 4.78518,8.50826 3.98306,13.06122 -1.0759,6.10697 -5.55551,9.85107 -8.59501,11.58347 l -1.80215,1.0272 c -1.79768,1.0246 -4.96371,7.73269 -7.92676,7.73269 -1.41122,0 -2.91203,0.5601 -3.33518,1.2447 -0.42291,0.6846 -4.33849,1.6131 -8.70086,2.0635 -4.36232,0.45 -10.1002,1.7588 -12.75082,2.9081 -10.38754,4.504 -12.42518,4.9816 -22.43559,5.259 -11.60358,0.3218 -13.55222,-0.776 -17.40865,-9.8046 -1.59101,-3.7248 -2.0692,-8.20669 -1.60789,-15.06939 0.36101,-5.37231 0.12249,-9.43778 -0.5302,-9.03435 -1.51449,0.93605 -10.46637,19.43554 -14.07857,29.09404 -2.43637,6.5147 -2.96819,13.4169 -1.97509,25.6347 0.20152,2.4798 8.51219,6.9183 12.95359,6.9183 3.25581,0 11.62731,6.7947 13.9605,11.331 1.10861,2.1554 4.42754,10.9903 7.37533,19.6329 5.56681,16.3214 6.02291,23.4147 1.92704,29.973 -1.71324,2.7435 -2.47741,3.1793 -4.98611,2.8435 -0.50981,-0.068 -1.36284,0.5813 -1.89563,1.4434 -2.51198,4.0645 -34.84451,5.5502 -41.60709,1.9119 -1.67032,-0.8987 -5.91852,-1.7978 -9.44044,-1.9981 -3.52191,-0.2002 -8.03736,-1.2093 -10.03437,-2.2421 -1.99704,-1.0329 -4.28451,-1.8994 -5.08334,-1.9256 -1.3455,-0.045 -9.1706,-6.592 -18.37949,-15.3794 -2.12066,-2.0235 -5.3885,-7.7173 -7.26187,-12.6528 -3.19807,-8.4254 -3.40609,-10.9249 -3.40609,-40.9258 0,-17.5736 0.44248,-34.1351 0.9832,-36.80309 0.95016,-4.6882 0.85261,-4.8185 -2.90475,-3.8812 -2.13839,0.5332 -7.15579,2.6247 -11.14982,4.6473 -3.99403,2.02259 -9.71992,4.55949 -12.72421,5.63779 -3.00431,1.0783 -8.55167,4.0859 -12.32752,6.6837 -7.77596,5.35 -25.05515,22.3927 -25.05515,24.7121 0,2.0058 -10.00082,18.69 -12.95241,21.6085 -1.26364,1.2494 -4.25823,4.8144 -6.65463,7.9222 -5.58165,7.2387 -8.73956,10.4084 -16.61239,16.675 -3.5125,2.7958 -11.58546,9.4637 -17.9399,14.8176 -14.65484,12.3472 -29.43929,19.9827 -49.75158,25.6947 -16.6858,4.6922 -30.42444,5.72 -36.60626,2.7386 z m 281.39741,-17.7374 c 5.52758,-0.7247 18.03176,-5.344 18.03176,-5.344 0.77716,-1.1149 0.16555,-1.1833 1.65526,-2.8295 3.28815,-3.6333 3.2538,-11.2146 -0.0921,-20.332 -1.30158,-3.5467 -3.00839,-9.0332 -3.79298,-12.192 -2.09731,-8.445 -7.09767,-16.5361 -11.34674,-18.3606 -2.05101,-0.8807 -7.29615,-3.0067 -11.65586,-4.7246 -8.79929,-3.4674 -9.84809,-5.3058 -10.06739,-17.6474 -0.19426,-10.9434 1.93773,-16.9609 17.75442,-50.10675 1.71528,-3.59466 5.12578,-9.80353 7.57883,-13.7976 5.29421,-8.61999 12.1967,-22.74289 12.916,-26.42677 0.28147,-1.4414 3.29741,-9.3567 6.70221,-17.5897 5.13482,-12.41607 7.82253,-16.73893 15.75937,-25.347 8.97605,-9.73512 11.1784,-11.88276 19.72152,-19.23132 1.85733,-1.59762 7.19527,-6.29923 11.86203,-10.44809 11.84506,-10.5304 26.49025,-21.79896 32.08615,-24.68826 2.86308,-1.63035 4.57453,-3.40051 6.5357,-4.81801 0.9985,-0.0118 4.75652,-2.29628 8.35113,-5.08557 3.59459,-2.78941 7.81234,-6.05091 9.37276,-7.24784 1.56035,-1.19696 3.68445,-2.17623 4.72018,-2.17623 1.0357,0 1.88312,-0.57736 1.88312,-1.28299 0,-1.14137 21.36448,-17.51061 27.70688,-21.22881 3.73159,-2.18763 28.50233,-24.56226 44.30532,-40.01955 11.7604,-11.50311 22.85778,-16.09578 47.08247,-19.48513 3.5946,-0.5031 7.5247,-1.20344 8.73349,-1.55656 1.20887,-0.35362 5.13026,-0.91825 8.71427,-1.25566 3.584,-0.33743 7.16995,-0.78252 7.96879,-0.98913 2.36043,-0.61048 17.8702,1.62851 32.67841,4.71755 7.58862,1.58302 14.77787,2.84245 15.97608,2.79884 10.14683,-0.36925 24.1658,0.2259 32.24904,1.37027 10.023,1.41891 52.2236,1.91263 59.97665,0.70173 8.64076,-1.34959 40.856,-1.09401 49.38077,0.39155 4.79281,0.83537 9.6946,1.51663 10.8928,1.51396 1.19825,-0.003 4.46606,0.42167 7.26187,0.94274 8.15331,1.51969 42.34066,3.03985 43.03386,1.91348 0.3481,-0.56508 -1.1864,-1.98376 -3.4092,-3.15262 -2.22284,-1.16876 -7.9629,-6.03323 -12.75575,-10.80996 -20.75153,-20.68136 -62.84385,-64.0273 -67.15944,-69.15943 -4.9894,-5.93345 -21.20176,-37.762 -22.97841,-45.11184 -0.5793,-2.39638 -2.24408,-6.97142 -3.69958,-10.16666 -4.29382,-9.42614 -11.42,-39.54584 -13.02888,-55.06835 -2.56684,-24.76513 -2.72392,-47.08638 -0.43505,-61.84766 1.17667,-7.58868 2.42256,-15.73596 2.76871,-18.10505 0.3458,-2.36914 1.58005,-8.90482 2.742,-14.52376 4.0407,-19.54025 4.04399,-19.65668 0.55441,-19.65668 -3.36073,0 -10.69884,2.15402 -18.07785,5.30659 -2.51716,1.07541 -5.97137,1.95528 -7.67603,1.95528 -1.70477,0 -4.71042,1.05552 -6.67933,2.34562 -1.96889,1.29009 -3.57988,1.9067 -3.57988,1.37024 0,-0.53641 -1.79725,-0.0272 -3.99397,1.13333 -2.19673,1.15976 -7.91542,3.25064 -12.70833,4.64638 -4.79279,1.39576 -9.69452,2.87507 -10.89273,3.28737 -1.19825,0.41247 -2.73752,0.62289 -3.42073,0.46809 -0.68317,-0.15495 -1.99029,0.30493 -2.90476,1.02154 -0.9144,0.71668 -3.62332,1.83004 -6.01973,2.47416 -2.39634,0.64413 -4.68387,1.26991 -5.08329,1.39057 -8.69733,2.62799 -14.18695,3.85307 -19.23227,4.29194 -12.54501,1.09131 -20.78733,2.65806 -23.78372,4.5211 -1.69161,1.05182 -8.40408,2.92314 -14.91647,4.15852 -6.51248,1.2354 -17.87301,4.16138 -25.24565,6.50216 -13.5235,4.29367 -30.21833,9.37648 -31.55943,9.60838 -1.61117,0.27878 -8.16556,2.41795 -10.89278,3.55539 -4.23286,1.76544 -23.86192,7.10415 -29.71426,8.08181 -2.76313,0.46127 -5.92367,1.5859 -7.02341,2.49859 -3.98906,3.31068 -42.47314,6.86216 -63.72109,5.88055 -12.07831,-0.55804 -19.86801,-1.79624 -33.88579,-5.38644 -1.1982,-0.30677 -6.2427,-1.93078 -11.21007,-3.60854 -4.96733,-1.67782 -9.74617,-3.05054 -10.61962,-3.05054 -3.74902,0 -39.48202,-19.7858 -42.00055,-20.67346 l -1.55044,-0.54644 c -1.64592,-0.26053 -8.37663,-2.50446 -17.05169,-7.61947 -3.91642,-2.30921 -9.51942,-5.06592 -12.45104,-6.12602 -2.93169,-1.06012 -5.33036,-2.44973 -5.33036,-3.08807 0,-0.63833 -1.26854,-1.1606 -2.819,-1.1606 -1.55047,0 -3.18821,-0.59732 -3.63937,-1.32734 -0.45135,-0.73005 -5.55495,-3.13951 -11.34164,-5.35439 -5.7867,-2.21492 -11.40794,-4.69651 -12.49163,-5.51477 -2.16341,-1.6334 -4.59648,-3.10576 -12.00061,-7.26183 -4.69161,-2.63351 -13.80238,-9.63694 -21.28175,-16.35921 -1.92097,-1.72648 -4.1208,-3.68722 -4.88852,-4.35709 -0.76773,-0.66991 -4.85256,-4.81268 -9.07741,-9.2061 -9.94326,-10.34002 -16.26975,-15.97608 -17.93312,-15.97608 -0.7313,0 -2.91409,-1.69333 -4.85065,-3.76291 -5.26438,-5.62603 -14.63112,-11.58745 -34.26351,-21.80684 -9.71912,-5.05914 -20.79434,-11.17913 -24.6116,-13.59996 -3.81725,-2.42085 -7.73842,-4.40155 -8.71367,-4.40155 -0.97523,0 -1.99102,-0.55927 -2.25729,-1.24281 -0.26629,-0.68356 -5.54616,-4.00874 -11.73309,-7.38934 -6.18693,-3.38059 -11.61744,-6.74272 -12.06779,-7.47142 -0.45035,-0.72869 -1.45852,-1.32491 -2.24033,-1.32491 -1.70777,0 -0.79615,7.62844 2.34306,19.60706 1.25603,4.79284 2.84272,10.85308 3.52596,13.46725 0.68327,2.61415 2.16898,6.20877 3.30164,7.98805 1.13264,1.77927 3.59418,7.48325 5.4701,12.67548 3.89368,10.77715 10.74319,25.03905 13.79642,28.72659 7.43383,8.97825 20.17581,20.83258 27.52351,25.60604 11.32115,7.35484 11.04634,7.12714 23.87076,19.77856 7.27902,7.1808 12.53158,13.9098 15.30495,19.60704 4.29954,8.8323 8.59521,14.25314 10.10128,12.74709 1.33289,-1.33289 38.46057,10.91764 54.18279,17.87804 15.80425,6.9966 30.52518,15.19482 32.43337,18.06236 1.03638,1.55735 14.96145,10.80939 22.19637,14.74757 3.36871,1.83373 6.45175,3.69522 6.85114,4.13687 0.39935,0.44119 3.34046,2.33861 6.53567,4.21579 10.73941,6.30912 19.25425,15.77776 21.09729,23.46063 2.32543,9.69336 0.44683,28.93272 -5.23212,53.57981 -0.46011,1.99704 -1.05695,5.72589 -1.32642,8.28645 -0.26929,2.56056 -0.85903,5.25295 -1.31029,5.98308 -0.94116,1.52293 -1.95748,10.5338 -3.0332,26.89396 -0.41201,6.26437 -1.02571,11.83766 -1.36395,12.38494 -0.33841,0.54717 -0.99328,11.33202 -1.45555,23.96599 -0.97887,26.75006 -0.3944,30.35788 10.323,63.72894 1.34685,4.19375 3.22879,8.40982 4.18214,9.36918 3.15898,3.17884 3.93777,11.85869 1.30069,14.49576 -3.69382,3.69383 -8.81533,12.38634 -9.9102,16.82009 -0.98817,4.00171 -13.74296,20.20927 -21.518,27.34297 -2.25424,2.06834 -4.09859,4.51917 -4.09859,5.44641 0,0.92729 -0.56564,1.68595 -1.25698,1.68595 -0.69132,0 -5.40186,5.06516 -10.46777,11.2559 -13.18409,16.11134 -30.06017,34.77797 -37.65593,41.6512 -3.59461,3.25274 -10.05451,9.30437 -14.35529,13.4481 -7.26507,6.99979 -7.64975,7.70391 -5.42444,9.92918 4.29859,4.29855 9.72589,11.96732 9.37196,13.24244 -0.19032,0.68556 1.13778,4.08546 2.95131,7.55534 4.16953,7.97749 3.92578,19.726 -0.60619,29.21761 -8.01745,16.79127 -9.57203,25.73336 -9.98613,57.44066 -0.4737,36.2738 1.75013,47.7939 10.67577,55.3044 11.82677,9.9515 19.34946,13.9379 28.83866,15.2817 5.24355,0.7426 10.23831,1.9278 11.09943,2.6339 3.06614,2.5141 8.77355,2.7494 22.62513,0.9329 z m 44.73117,-101.2028 c 5.03141,-1.5526 8.66093,-1.4603 10.52971,-1.9692 0.86168,-0.2348 0,0 1.38167,-0.5265 0.70963,-0.2705 1.54446,-1.7682 3.4322,-2.242 5.86648,-1.4724 21.01416,-12.46219 23.19067,-16.82505 3.22168,-6.45808 1.50524,-11.24106 -5.50922,-15.35188 -4.47985,-2.62536 -6.59035,-5.05354 -7.85254,-9.03446 -4.76148,-15.01811 -4.27919,-30.93757 1.16023,-38.29476 1.69096,-2.28713 3.46778,-6.12509 3.94852,-8.52884 0.48074,-2.40372 1.3899,-4.37047 2.02034,-4.37047 0.63043,0 3.32642,-3.36765 5.99104,-7.48364 10.88135,-16.80833 14.03438,-21.05931 22.14026,-29.84993 3.92089,-4.25203 12.41726,-11.22153 18.88088,-15.4877 6.4636,-4.26625 14.60452,-9.64895 18.09086,-11.96158 3.48634,-2.31266 8.52701,-5.54505 11.20146,-7.18318 11.77612,-7.21289 49.99502,-50.81623 49.99502,-57.03855 0,-0.94 0.65366,-1.70904 1.45243,-1.70904 0.79878,0 1.45233,-1.02698 1.45233,-2.28223 0,-1.25531 0.98033,-3.26268 2.17858,-4.46087 2.3771,-2.37716 2.94157,-6.32824 0.90403,-6.32824 -0.70099,0 -2.08816,0.9804 -3.08261,2.17854 -0.9944,1.19821 -2.70831,2.17854 -3.80873,2.17854 -1.10038,0 -2.00073,0.57137 -2.00073,1.26964 0,0.69834 -3.01384,4.12956 -6.69745,7.625 -3.68368,3.49541 -8.22895,7.82583 -10.10059,9.62317 -1.87178,1.79731 -3.96854,3.26782 -4.65966,3.26782 -0.69102,0 -2.54443,1.47055 -4.11868,3.26786 -1.57418,1.79735 -5.69026,5.55539 -9.14669,8.35115 -3.45654,2.79581 -7.02477,5.76131 -7.92941,6.5901 -0.90477,0.82867 -4.2592,3.07798 -7.45448,4.99843 -5.97533,3.59165 -18.19032,12.8852 -19.76937,15.04132 -0.4886,0.66737 -1.14231,0.99963 -1.45236,0.73848 -0.67094,-0.56519 -11.96881,7.73336 -12.66692,9.30415 -0.26611,0.59911 -1.43056,1.08927 -2.58725,1.08927 -1.15673,0 -2.47931,0.98034 -2.93909,2.17853 -0.45982,1.19826 -1.48824,2.17861 -2.28545,2.17861 -0.79722,0 -4.35469,1.96067 -7.90553,4.35706 -3.55076,2.39646 -7.31297,3.80705 -7.83556,4.35719 l -1.37956,1.45232 c -0.55018,0.57919 -1.00085,1.45237 -2.22411,1.45237 0,0 -2.60035,0.98033 -3.06014,2.17854 -0.45983,1.19826 -1.31373,2.17859 -1.89763,2.17859 -2.53696,0 -29.39543,25.75477 -39.29407,37.67931 -2.79583,3.36804 -5.90029,7.00521 -6.89879,8.08265 -0.9985,1.07739 -1.81544,2.66804 -1.81544,3.53476 0,0.86665 -0.61318,2.7107 -1.36262,4.09775 -3.20501,5.93182 -10.25638,22.27089 -10.25638,23.76548 0,0.89591 -2.28753,6.69508 -5.08328,12.88721 -2.79584,6.19214 -4.56533,12.72763 -5.08333,14.34348 -0.55435,1.72936 -1.15554,3.08497 -1.15554,3.08497 -0.63553,0 -1.31974,2.43863 -1.52046,5.41901 -0.20059,2.98044 -0.84157,7.71879 -1.4241,10.52973 -0.5825,2.81089 -0.69192,8.5969 -0.24309,12.8577 1.13217,10.74909 4.78269,13.46009 16.68844,12.39339 4.79283,-0.4289 12.83082,-2.0511 17.86227,-3.6038 z m 35.96106,-70.22816 c 1.5506,-1.17285 4.00659,-2.15318 5.4578,-2.17854 3.7853,-0.0663 11.69177,-6.22305 24.56548,-19.1292 19.31093,-19.35952 38.84587,-24.97759 70.91492,-20.39433 4.43951,0.63449 9.9809,0.6431 12.31403,0.0223 2.33323,-0.62397 6.5437,-1.49639 9.35668,-1.93869 2.81296,-0.44231 8.51887,-2.07351 12.67971,-3.62506 8.30218,-3.09561 54.10602,-12.43039 67.95818,-13.84968 4.79285,-0.49084 10.34817,-1.17701 12.34514,-1.52422 1.99705,-0.3475 7.55238,-1.25129 12.34517,-2.00915 23.85267,-3.77112 67.9113,-19.10137 100.43366,-34.94576 6.51141,-3.17226 12.75308,-5.76771 13.87022,-5.76771 1.11722,0 2.81557,-0.78428 3.77416,-1.74286 1.4266,-0.50479 2.75655,-0.48693 2.75655,-0.48693 0.92316,-1.35683 8.03674,-4.49452 25.85517,-11.34532 2.39645,-0.92137 4.76764,-2.23849 5.26941,-2.92696 0.502,-0.68834 2.95267,-1.33502 5.44644,-1.43692 2.49373,-0.10209 3.84862,-1.25158 4.53411,-1.53202 l 0.95569,-0.39099 c 0,0 1.66928,-0.17346 2.54164,-0.32127 3.01458,-2.42736 24.78102,-7.58326 34.17564,-8.0953 9.51784,-0.51873 24.50934,1.28009 29.86244,3.58322 1.5976,0.68733 6.4344,2.36204 10.7485,3.72149 12.82719,4.04198 21.69659,8.50592 22.39654,9.85629 0.3475,0.67021 1.1644,0.57912 3.8595,0.66726 3.6266,0.11878 5.2424,-1.5858 7.1858,-4.39289 1.4853,-2.14552 2.8246,-3.81168 3.3748,-4.0287 0.55,-0.42837 0.5838,-0.90567 1.0893,-1.92899 0.4674,-0.94669 1.955,-4.48708 4.3445,-7.62499 2.3895,-3.13785 6.0018,-10.85977 8.0272,-17.15995 3.6011,-11.20113 3.6255,-11.56194 1.1019,-16.29225 -3.8412,-7.20009 -22.2272,-25.55159 -24.1863,-24.14105 -7.66945,5.52209 -46.44213,10.13545 -63.07925,7.50546 -4.01639,-0.63486 -12.05083,-1.58959 -17.85426,-2.12147 -5.80354,-0.53212 -11.90264,-1.34513 -13.55368,-1.80696 -1.65105,-0.46184 -29.14468,-0.89142 -61.09683,-0.95463 -31.95225,-0.063 -58.74853,-0.53991 -59.54733,-1.05948 -1.36453,-0.8874 -20.49992,-2.53389 -33.40458,-2.87425 -3.19523,-0.0837 -9.07741,-1.20293 -13.07137,-2.48586 -9.83403,-3.15893 -40.2271,-2.92785 -59.54735,0.45291 -7.98802,1.39771 -14.85048,2.9727 -15.24996,3.50001 -1.25809,1.66104 -8.88102,4.59892 -10.05313,3.87443 -1.5458,-0.95529 -7.57379,5.99464 -11.27658,13.00127 -3.11453,5.8935 -11.198,20.83854 -14.14012,26.1427 -3.39771,6.12559 -15.01653,20.73286 -20.08343,25.2491 -1.39786,1.246 -2.54163,2.74238 -2.54163,3.32531 0,2.7564 -21.31503,21.78915 -30.769,27.47455 -5.84303,3.51384 -15.19861,9.55264 -20.79031,13.4197 -5.59158,3.86703 -12.29069,8.34642 -14.88679,9.95418 -2.59614,1.60776 -4.72025,3.51227 -4.72025,4.23219 0,0.71985 -0.98033,1.30892 -2.17855,1.30892 -1.19818,0 -2.17854,0.71008 -2.17854,1.57803 0,1.92169 -7.7486,13.27637 -15.27669,22.38607 -1.98035,2.39646 -3.60143,4.80067 -3.60239,5.3427 -9.3e-4,0.54216 -0.85845,1.84918 -1.90548,2.90477 -1.04703,1.05557 -3.72168,5.84062 -5.94366,10.63341 -2.222,4.79287 -4.95996,10.44899 -6.08438,12.56922 -3.17633,5.98955 -2.65591,9.94257 1.30898,9.94257 1.84431,0 4.62198,-0.95953 6.17258,-2.1324 z M 1147.833,889.79088 c 0.672,0 3.2957,-2.07391 5.8304,-4.60863 4.8797,-4.87958 11.6953,-6.7577 25.1265,-6.9238 8.7469,-0.10817 26.7374,-7.38002 31.7466,-12.83216 5.8034,-6.31625 8.637,-16.12082 5.551,-19.20662 -0.3994,-0.39935 -1.8283,-2.68615 -3.1753,-5.08172 -3.0595,-5.44105 -7.3324,-6.53764 -15.7055,-4.03061 -3.5947,1.07626 -8.0199,0.88005 -9.9253,1.11922 -1.7237,0.2164 0,0 -2.4693,0.65113 -1.0637,0.28056 -0.5904,1.23144 -3.1463,0.79616 -2.2364,-0.38095 -7.334,-0.97855 -11.328,-1.32815 -3.9941,-0.34973 -7.6717,-0.68171 -8.1724,-0.73793 -0.5009,-0.0563 -2.2769,-3.2788 -3.947,-7.16104 -3.1309,-7.27817 -3.3681,-10.25995 -5.2522,-65.97228 -0.4507,-13.33626 -1.3679,-21.33619 -2.7468,-23.96417 -3.5572,-6.7797 -5.3311,-17.84583 -5.684,-35.4569 l -0.3402,-16.98825 -3.5933,2.34815 c -4.3168,2.82098 -5.0444,3.37886 -12.0197,9.21658 -2.9956,2.50695 -5.4465,4.14641 -5.4465,3.64319 0,-0.50312 -2.9419,2.02703 -6.5375,5.6227 -3.5958,3.59572 -8.4975,7.55114 -10.8929,8.78978 -2.3953,1.23868 -4.0587,2.36577 -4.0587,2.64957 0,0.28335 1.3549,5.02198 3.3734,10.38443 5.1214,13.60617 6.6299,25.94497 4.1774,34.16716 -3.2258,10.8151 -6.5901,16.42101 -13.2919,22.14869 -3.5051,2.99555 -5.5386,4.96621 -5.4964,5.44644 0.039,0.473 -0.1293,1.10066 -0.7426,3.02569 -0.7603,2.38607 -1.1904,4.85755 -0.028,9.80353 0.8728,3.72778 1.8875,9.91092 2.2545,13.74029 0.3676,3.82937 1.9924,9.95797 3.612,13.61906 1.6195,3.66114 2.5043,7.57484 2.9445,8.65055 1.1637,2.13241 2.3999,3.64515 2.9101,4.83582 0.3519,0.60802 1.7175,1.53089 2.2868,3.32518 0.5695,1.79418 1.8329,3.91828 2.8074,4.72018 0.9746,0.80186 3.3304,4.39902 5.235,7.99361 7.2985,13.77395 26.8309,30.52544 32.9926,28.2952 1.0637,-0.38486 2.484,-0.70005 3.1559,-0.70005 z m -115.4154,-5.83483 c 9.8399,-4.48246 13.8348,-14.73732 14.5359,-37.31225 l 0.4149,-13.37349 7.6996,-10.59069 c 4.2346,-5.82496 12.446,-14.839 18.2473,-20.03123 28.9974,-25.9525 33.0167,-31.73867 32.7872,-47.2021 -0.1177,-7.91124 -5.6348,-28.27723 -11.4106,-42.11891 -0.9999,-2.39638 -2.9028,-7.08427 -4.2287,-10.41756 -1.3259,-3.33329 -4.3972,-5.63463 -4.5093,-6.86587 -0.1283,-1.41176 0,0 -0.4015,-3.52279 -0.2924,-2.56423 1.0915,-3.96072 -1.4176,-9.11028 -1.713,-3.51606 -3.9324,-10.31423 -4.932,-15.10702 -1.6997,-8.14984 -1.9387,-11.9332 -1.3347,-21.13369 0.2461,-3.7456 17.0811,-34.39942 21.0987,-38.41699 2.7887,-2.78862 5.2875,-2.78705 5.2875,0.003 0,1.19821 -0.5891,2.17854 -1.3089,2.17854 -1.3426,0 -3.6371,3.53012 -13.5345,20.82236 -8.5839,14.99748 -9.7422,29.59155 -3.4548,43.52955 1.15,2.54972 2.5224,6.13368 3.0499,7.96438 1.446,5.02021 4.6925,3.18426 18.3662,-10.38662 6.6725,-6.62239 17.0338,-16.17932 23.0248,-21.23744 5.991,-5.05814 17.1739,-15.46617 24.8507,-23.12897 l 13.958,-13.93228 -1.1207,-10.16664 c -0.6163,-5.59171 -1.819,-15.06837 -2.6729,-21.05943 -0.8537,-5.99104 -2.5807,-18.40882 -3.8373,-27.59514 -1.2567,-9.18625 -2.5771,-18.66294 -2.9341,-21.05941 -0.357,-2.3964 -1.0371,-8.27853 -1.5107,-13.07137 -1.9271,-19.49416 -17.7474,-51.78483 -37.0132,-75.54751 -9.6671,-11.92354 -20.5576,-22.07348 -26.0291,-24.25907 -4.0378,-1.61286 -35.8912,-1.83406 -47.2023,-0.32803 -5.9761,0.79584 -16.6604,2.93255 -35.7118,7.14184 -1.269,0.28056 -4.8635,1.18199 -7.988,2.00356 -3.1245,0.82161 -9.92895,2.56837 -15.12124,3.88177 -11.4837,2.90481 -19.7461,5.60057 -31.22606,10.18813 -4.79281,1.91528 -10.02132,3.68628 -11.61894,3.93553 -1.59768,0.24937 -7.38973,2.55741 -12.87137,5.12929 -5.48165,2.57183 -10.30535,4.67606 -10.71932,4.67606 -0.41386,0 -3.90975,2.26804 -7.76818,5.04012 -3.85852,2.77201 -9.3285,6.00649 -12.15557,7.18775 -2.82705,1.18122 -5.14228,2.34441 -5.14492,2.58483 -0.003,0.24035 -1.2668,6.94154 -2.80919,14.89126 -1.5424,7.94966 -2.50991,14.93035 -2.15004,15.51262 0.35976,0.5823 -0.0279,1.47579 -0.84546,1.98559 -0.82483,0.5098 -1.18588,1.43471 -0.8023,2.05533 0.38374,0.62064 1.08436,5.31388 1.55728,10.42934 1.8092,19.56634 4.37638,37.47094 7.26863,50.6936 2.48878,11.37832 3.29798,15.00449 3.48428,15.613 0.0609,0.1997 0.0502,0.79457 -0.0223,1.32182 -0.0714,0.52709 0.90882,1.54012 2.17857,2.25077 1.26977,0.71054 2.32921,2.07646 2.35425,3.03522 0.0502,2.02446 6.68485,15.41206 11.29588,22.80277 1.74431,2.79583 3.17393,6.22705 3.17688,7.62498 0.003,1.39789 0.60831,2.54158 1.34517,2.54158 0.73688,0 2.14429,2.45091 3.12769,5.44646 2.01149,6.12721 9.94113,18.73179 16.03207,25.48381 1.29443,1.43487 3.58385,5.0116 5.08766,7.94832 3.1627,6.17641 2.54866,5.29994 12.95369,18.49023 15.4914,19.63821 37.90519,43.85895 39.29799,42.4661 0.3558,-0.35586 -2.657,-7.72399 -6.6958,-16.37317 -4.03869,-8.6491 -8.90529,-20.34579 -10.81449,-25.9926 -1.9092,-5.64684 -5.1535,-14.04362 -7.2096,-18.65949 -2.0561,-4.61593 -3.7383,-9.29986 -3.7383,-10.4087 0,-1.10884 -0.4897,-2.23398 -1.0892,-2.50025 -0.9218,-0.4094 -3.866,-8.82291 -9.0641,-25.90071 -3.01002,-9.88912 -4.50349,-19.08952 -3.58501,-22.08526 0.95294,-3.10804 8.54291,-13.32928 13.92001,-18.74544 1.298,-1.3076 2.6051,-3.00576 2.9046,-3.77382 1.1489,-2.94563 34.40404,-30.91884 36.75714,-30.91884 2.3824,0 -0.6544,4.18422 -6.308,8.69138 -13.71705,10.93543 -32.74204,30.23764 -38.73684,39.30128 l -6.2865,9.50485 3.5875,11.55462 c 1.9731,6.35499 3.9377,13.48859 4.3658,15.85231 0.4284,2.36377 1.5581,4.92343 2.1439,5.94315 0.3932,2.41781 1.5996,3.48728 2.2155,5.27989 0.8,1.92175 4.3928,14.96005 6.3791,17.88386 0.5427,0.7988 1.8716,4.39338 2.9533,7.988 1.0815,3.59471 2.5063,7.15661 3.1663,7.91546 0.6598,0.7589 1.1998,2.5363 1.1998,3.94985 0,1.41356 1.3071,4.89732 2.9048,7.74178 1.59759,2.84446 2.90469,5.94013 2.90469,6.8793 0,2.13319 10.45535,23.30009 12.10625,24.50905 0.6672,0.48917 1.2074,1.46917 1.2003,2.17859 -0.012,0.70949 1.3467,3.70907 3.0085,6.66568 2.5215,4.48681 3.9532,8.79462 6.247,9.91145 2.27,5.38008 1.4968,5.42146 8.401,12.46598 6.5957,6.68197 11.1667,12.60509 11.6704,15.12279 1.4195,7.09796 -3.2869,21.60335 -11.0596,34.08647 -21.0961,33.88085 -19.7377,30.67846 -19.6521,46.3273 0.039,7.67776 1.2522,13.23832 1.4249,13.95969 0.1874,0.78265 0,0 0.4116,1.51603 0.2566,0.94596 -0.3636,2.30426 0.3375,3.26785 0.7009,0.96343 2.135,4.36605 3.1867,7.5613 3.3839,10.27969 5.3712,12.34514 11.878,12.34514 3.2206,0 8.75,-1.3185 12.2874,-2.92995 z m 57.3134,-54.80468 c 0,-2.16454 -5.7667,-31.30151 -6.3009,-31.83564 -0.7818,-0.78177 -23.8923,22.37922 -25.6992,25.75544 -1.3622,2.54523 -0.9795,2.83113 3.9908,2.98084 7.106,0.21418 11.4163,0.79637 18.5689,2.50884 7.5383,1.80483 9.4404,1.92382 9.4404,0.59052 z M 983.99996,743.99996 c 4.2327,-1.10327 10.21609,-3.05959 13.29649,-4.34747 3.08035,-1.2879 7.13605,-1.71726 7.13605,-1.71726 0.7038,-2.86822 -12.50545,-15.84791 -32.77994,-35.2909 -3.0357,-2.91111 -8.8162,-9.70462 -12.84568,-15.09652 -4.02955,-5.39196 -7.80219,-9.80352 -8.38382,-9.80352 -0.58159,0 -2.52278,-2.93414 -4.31385,-6.52039 -1.79105,-3.58619 -7.52134,-12.45989 -12.73398,-19.71931 -5.21258,-7.25944 -10.81837,-16.25285 -12.45712,-19.98549 -1.63889,-3.73249 -3.37712,-7.11331 -3.86277,-7.51266 -0.48526,-0.39936 -3.78473,-6.60834 -7.33137,-13.79753 -3.54663,-7.18925 -7.90336,-16.01245 -9.68159,-19.6071 -1.77822,-3.59454 -3.66426,-9.14992 -4.19119,-12.34516 -0.5271,-3.19518 -1.53392,-7.44343 -2.23777,-9.44041 -0.70385,-1.99698 -1.63538,-6.89883 -2.07005,-10.89279 -1.27903,-11.7525 -2.06303,-16.69344 -2.85115,-17.96871 -0.40772,-0.65907 -1.41355,-8.2999 -2.23594,-16.97956 -1.50099,-15.84178 -0.71219,-25.08466 3.33892,-39.12279 1.98785,-6.88827 1.999,-6.9468 2.23142,-11.70473 0.10155,-2.07386 0.69582,-2.98529 1.63394,-2.81902 0.94553,0.16761 1.07739,-0.0279 1.45237,-0.5426 0.4663,-0.64024 1.30323,-1.85383 2.89616,-2.35939 1.59289,-0.50563 3.74219,-1.69337 4.77635,-2.63955 4.64014,-4.2455 24.75603,-14.57711 34.44633,-17.69181 4.39343,-1.41214 8.64162,-3.02427 9.44042,-3.58245 2.92761,-2.04581 34.79997,-12.48546 50.83296,-16.65008 5.24155,-1.36147 10.86415,-2.76017 27.59515,-6.86457 17.6055,-4.31893 20.6595,-4.6368 45.2118,-4.70572 19.9191,-0.0561 26.9002,0.39849 28.6685,1.86611 1.2855,1.06695 2.0301,2.43714 1.6546,3.04486 -0.3755,0.60765 0.9857,2.33093 3.0249,3.82944 5.7132,4.19805 10.7082,9.19502 20.2017,20.20934 4.7928,5.56067 9.1103,10.43708 9.5945,10.83652 1.6982,1.40075 14.3059,24.49839 19.958,36.56349 4.8459,10.34395 9.745,29.60992 8.6999,34.21275 -0.1402,0.61393 0.183,3.40371 0.7168,6.19954 0.5337,2.79582 1.2518,6.86983 1.5963,9.05338 0.3441,2.18349 0.9376,4.47403 1.3182,5.08997 0.381,0.61589 1.0727,6.67216 1.538,13.45843 0.4652,6.78616 1.8689,16.91346 3.1193,22.5051 3.8292,17.12156 5.5291,35.58316 3.2767,35.58316 -1.6731,0 -5.5108,3.69734 -5.5455,5.34265 -0.016,0.65617 -3.6968,4.46086 -8.1844,8.4549 -4.4875,3.99402 -10.1951,9.22288 -12.683,11.61967 -2.4883,2.39678 -7.1382,6.29185 -10.3334,8.6557 -3.1954,2.36381 -11.0381,9.28796 -17.4285,15.38689 -6.3905,6.09898 -14.6987,13.86503 -18.4625,17.25788 -3.7639,3.39291 -7.224,7.36803 -7.6891,8.83362 -1.0154,3.19935 3.1941,16.74736 6.1092,19.66265 1.787,1.78703 2.6126,1.79099 5.9747,0.0223 2.1455,-1.12446 5.2438,-3.24371 6.885,-4.70942 2.9743,-2.65621 4.4096,-3.66393 13.3552,-9.3775 2.5962,-1.65814 4.7247,-3.44038 4.7302,-3.96055 0,-0.52039 2.4564,-2.57889 5.4464,-4.57488 6.9062,-4.61007 9.0674,-6.66289 9.0674,-8.6124 0,-0.85584 0.5127,-1.3927 1.1397,-1.19301 1.6201,0.51593 32.6163,-25.9886 50.7016,-43.35468 3.4115,-3.27573 6.5627,-4.77027 6.9544,-5.20433 0.4595,-0.50923 0,0 0.7516,-0.99467 0.5791,-0.76626 1.3235,-3.19345 2.9413,-4.96225 4.0506,-4.42874 12.9051,-17.87817 15.3866,-23.37131 1.1268,-2.49429 2.6327,-5.51539 3.3465,-6.71359 6.8551,-11.50762 18.216,-48.10516 18.7818,-60.50235 0.32,-7.02053 0.124,-7.46502 -3.7198,-8.41128 -10.2353,-2.51984 -27.6061,-17.14349 -36.0697,-30.36522 -1.4606,-2.28165 -8.4271,-10.12448 -15.4815,-17.42852 -7.0541,-7.3041 -15.2394,-16.87468 -18.1898,-21.26815 -6.9006,-10.27623 -13.9179,-19.51959 -20.5436,-27.06097 -2.9001,-3.30084 -6.2532,-7.43986 -7.4515,-9.19778 -2.2951,-3.36735 -7.5799,-9.4399 -14.6437,-16.82672 -2.3303,-2.43706 -4.2371,-4.93151 -4.2371,-5.54333 0,-0.61177 -1.6339,-3.25449 -3.6309,-5.87272 -1.9971,-2.61825 -3.6356,-5.51569 -3.6309,-6.43877 0,0 -0.4228,-0.25751 -1.4248,-1.67841 -0.4519,-0.6403 -1.4658,-1.68003 -2.3361,-3.63093 -0.8387,-1.88043 -2.1143,-3.63093 -2.1143,-3.63093 -1.245,0 -13.4175,-24.25908 -15.1885,-30.26953 -0.786,-2.66756 -1.6763,-3.19432 -4.1299,-2.44361 -1.7202,0.52637 -5.1038,1.46426 -7.519,2.08422 -2.4153,0.61995 -5.9049,2.28491 -7.5296,2.57609 -2.2001,0.39429 -5.1764,0.92178 -7.1067,1.91011 -2.2578,1.15595 -2.3005,1.06839 -2.3005,1.06839 0,0 -4.7471,3.10293 -10.8968,5.81496 -6.1496,2.71206 -13.5058,5.96834 -16.3471,7.2362 -2.8412,1.26784 -6.117,2.31146 -6.117,2.31146 l -1.2275,0.80016 c -1.5445,1.00669 -19.0007,8.40168 -22.2265,7.67149 -0.6419,-0.14536 -2.1652,0.73386 -3.3849,1.95366 -1.2198,1.21981 -2.7899,1.86429 -3.4891,1.4321 -0.6993,-0.43238 -3.7512,0.31086 -6.78175,1.65109 -3.0307,1.34024 -6.8175,2.6696 -8.4151,2.95409 -1.59759,0.28464 -4.21189,1.09122 -5.80959,1.79268 -1.5976,0.7014 -5.6823,2.3339 -9.0773,3.62774 -3.3949,1.29386 -8.6234,3.2919 -11.6189,4.44014 -2.9956,1.14828 -12.63571,4.8032 -21.42259,8.12208 -8.78681,3.31887 -17.2832,6.56834 -18.88083,7.22101 -4.99834,2.04197 -8.67695,3.37295 -9.68254,3.5032 -0.53267,0.069 -1.45838,0.61561 -2.05749,1.21473 -0.59905,0.59909 -2.28747,1.08927 -3.75194,1.08927 -1.46449,0 -2.66268,0.51449 -2.66268,1.1433 0,0.62881 -1.42126,1.2504 -3.15837,1.38123 -3.15123,0.23717 -8.20374,1.93351 -16.44873,5.52181 -2.3964,1.04292 -6.16057,2.34584 -8.36481,2.89537 -2.20427,0.54946 -4.36695,1.58022 -4.80602,2.29054 -0.43952,0.71031 -2.04449,1.2915 -3.56783,1.2915 -5.82244,0 -12.71921,4.62243 -13.8445,9.27898 -0.60061,2.48521 -1.32497,5.4989 -1.60983,6.6971 -0.28447,1.19825 -1.11114,6.42676 -1.83624,11.619 -0.72516,5.19222 -2.02677,11.72791 -2.89254,14.52374 -0.86577,2.79583 -2.06251,9.65828 -2.6594,15.24993 -1.38297,12.9555 -1.30902,55.04447 0.10819,61.72587 0.59307,2.79578 1.26765,7.37077 1.49901,10.16666 0.68216,8.24511 5.35569,29.40208 7.58779,34.35027 1.13556,2.51709 2.06458,5.58294 2.06458,6.81303 0,1.23006 0.65354,2.64038 1.45237,3.13412 0.79884,0.49363 1.45238,2.47354 1.45238,4.39974 0,1.92619 1.63394,7.07429 3.63097,11.44018 1.99697,4.36593 3.63091,8.34337 3.63091,8.8388 0,0.49529 1.90232,4.7349 4.22739,9.42112 2.32511,4.68619 3.95607,8.79183 3.62432,9.12354 -0.33187,0.33187 2.99442,4.37736 7.39157,8.99035 4.3971,4.61296 7.99466,9.29388 7.99466,10.40206 0,1.10811 0.52374,1.8514 1.16318,1.6517 0.63975,-0.19966 5.46552,4.53864 10.72401,10.52969 5.25848,5.99106 15.84571,16.95106 23.52719,24.35556 7.6815,7.40455 13.96634,13.73302 13.96634,14.06332 0,1.17767 18.81878,19.67608 20.01688,19.67608 0.6716,0 2.6836,1.36263 4.4712,3.02802 3.2484,3.02641 10.1913,7.11273 12.1135,7.12965 0.5601,0.004 4.4816,-0.89367 8.7142,-1.99694 z M 1257.1832,521.93962 c -0.6547,-8.65791 -1.2579,-10.88627 -2.6364,-9.74216 -0.983,0.81585 -2.2055,4.09853 -2.7167,7.29479 -0.7444,4.6559 -0.2962,6.66813 2.2573,10.12134 1.7525,2.37039 3.3571,4.13937 3.5656,3.93077 0.2087,-0.20861 0,-5.43067 -0.4697,-11.60474 z m -12.8689,-2.46819 c 2.0491,-0.77902 3.7254,-2.42177 3.7254,-3.65061 0,-1.22882 0.5987,-3.36909 1.3302,-4.75614 3.4921,-6.62001 6.0085,-13.56789 5.3185,-14.68423 -1.0184,-1.64778 5.2805,-26.0753 7.912,-30.68273 1.1403,-1.99701 2.7424,-4.88798 3.5601,-6.42441 2.1862,-4.10892 19.1832,-16.88504 24.4866,-18.40604 2.5167,-0.72181 6.6879,-0.97525 9.2198,-1.31228 2.6727,-0.35581 4.1912,-1.06231 5.6145,-1.57008 2.4577,-0.8769 6.446,-0.66195 22.0053,6.75589 7.4215,3.53822 14.3521,5.9007 14.9518,6.43318 0,0 0.7451,0.54081 1.4579,1.29493 0.4892,0.51754 1.7974,1.72665 3.994,2.25436 2.1968,0.52776 6.6083,2.76971 9.8034,4.98225 3.1955,2.21247 8.0972,4.87957 10.893,5.92683 2.7958,1.04724 9.4611,4.10468 14.8117,6.79424 5.3507,2.68957 10.2523,4.87128 10.8926,4.84824 0.6405,-0.0228 4.5574,-3.22956 8.7043,-7.12564 8.2166,-7.71973 16.8777,-11.58863 32.9841,-14.73364 11.3946,-2.225 25.2659,-9.73736 24.1067,-13.0556 -1.3419,-3.84137 -0.733,-30.24819 0.7307,-31.68837 0.7963,-0.78359 4.3542,-1.69024 7.9064,-2.01486 3.552,-0.32439 6.0439,-1.18559 6.3349,-2.05828 0.4853,-1.45698 -4.8071,-8.04937 -34.1771,-38.04546 -5.7775,-5.90069 -13.8573,-13.2053 -17.9549,-16.23248 -9.5487,-7.05402 -15.3631,-12.59398 -18.9571,-18.06264 -2.31,-3.51485 -2.6584,-5.6205 -1.8021,-10.89279 1.6434,-10.12018 1.4395,-33.48448 -0.3487,-39.94028 -0.885,-3.19522 -3.659,-8.17356 -6.1644,-11.06296 -2.5054,-2.8894 -7.4962,-8.99461 -11.0908,-13.56715 -3.5948,-4.57253 -8.4965,-10.7746 -10.8929,-13.78233 -2.3964,-3.00776 -5.7826,-7.28217 -7.5249,-9.49868 -1.7422,-2.21652 -6.0008,-7.04856 -9.4637,-10.73785 -3.4627,-3.68932 -8.1517,-9.20577 -10.4202,-12.25879 -2.2685,-3.05302 -4.8988,-5.84809 -5.8452,-6.21126 -0.9464,-0.36315 -7.5764,5.08922 -14.7332,12.11639 -7.1568,7.02719 -17.9142,16.51836 -23.9053,21.09153 -19.1793,14.64022 -18.5487,13.87109 -19.3317,23.57787 -1.527,18.92526 -4.2372,43.60739 -4.8594,44.25534 -1.6807,1.74983 -3.3158,-4.18315 -2.5904,-9.39838 0.8444,-6.06995 1.0597,-8.43661 2.8712,-31.56455 0.943,-12.03933 1.5596,-14.43804 4.1578,-16.17176 1.6775,-1.1196 4.6841,-3.40602 6.6811,-5.08093 5.6462,-4.73542 6.0023,-5.01162 15.2366,-11.81802 4.7854,-3.52721 10.3091,-8.32438 12.2747,-10.66035 1.9656,-2.33595 6.4512,-6.93748 9.9685,-10.22558 5.6347,-5.26801 17.2201,-19.21894 21.3414,-25.69921 0.7988,-1.256 4.4503,-6.80938 8.1147,-12.34082 3.6643,-5.53145 7.1027,-11.03751 7.6409,-12.23573 0.5382,-1.1982 2.2689,-4.13927 3.8459,-6.53566 3.1866,-4.84236 5.815,-10.41858 5.815,-12.336 0,-0.68976 0.859,-2.11774 1.909,-3.17329 3.5447,-3.56382 11.9892,-17.81461 18.8572,-31.82387 8.7513,-17.849718 9.2664,-25.017785 1.1861,-16.500548 -1.9052,2.008329 -3.6899,2.646349 -4.2135,2.902229 l -2.3451,1.14596 c -1.2244,0.5983 -7.7528,6.409339 -15.2778,11.926559 -16.0983,11.80304 -15.9532,11.68692 -32.7943,26.25813 -19.1578,16.57573 -22.6114,20.41905 -31.9142,35.51608 -4.6361,7.52391 -10.4626,16.06217 -12.9481,18.97389 -2.485,2.91173 -6.1523,7.71609 -8.1495,10.67639 -1.9968,2.9603 -4.7398,6.58872 -6.095,8.06317 -1.3557,1.47444 -3.4719,4.51291 -4.703,6.75209 -3.5639,6.48229 -12.1189,15.33381 -13.8099,14.28872 -1.6143,-0.99766 3.7184,-8.69097 9.6936,-14.86832 1.9311,-1.99638 2.9397,-3.48201 2.9397,-3.82854 0,-1.16837 12.5583,-19.10624 14.0469,-20.12601 2.7264,-1.8678 -0.4952,-3.03557 -8.375,-3.03557 -6.0298,0 -10.4514,1.24656 -19.2786,5.43498 -6.2997,2.9892 -11.8539,6.07946 -12.3426,6.86719 -0.4892,0.78773 -2.1785,1.39336 -2.1785,1.39336 0,0 -6.5185,3.3533 -12.9091,7.49935 -6.3905,4.14605 -14.925,9.49966 -18.9658,11.89692 -18.3958,10.91386 -34.3023,25.36704 -80.0922,72.77515 -7.0261,7.27445 -15.7158,14.71491 -19.3105,16.53431 -3.5946,1.81942 -6.8623,3.74752 -7.2619,4.28468 -0.3993,0.53713 -3.0135,1.85451 -5.8093,2.9275 -2.7959,1.07299 -7.0441,2.82005 -9.4406,3.88237 -2.3963,1.06232 -6.9222,2.81033 -10.0572,3.88449 l -5.7004,1.953 10.1241,1.67194 c 7.2176,1.19198 11.7073,1.23473 15.6398,0.14887 3.0338,-0.83768 5.7999,-1.23926 6.1466,-0.8924 1.4946,1.49456 -2.5181,8.21352 -6.6717,11.17113 -2.8925,2.05962 -4.083,3.81943 -3.3086,4.89092 0.6654,0.92056 2.0926,4.288 3.1717,7.48322 1.0791,3.19523 3.1762,7.36817 4.6601,9.27321 1.4838,1.90503 2.698,4.14107 2.698,4.96894 0,0.8279 0.9288,2.53706 2.0641,3.79817 1.1354,1.26112 2.2791,3.24773 2.5418,4.41474 0.4495,1.99957 1.3933,3.51359 4.8345,7.7587 0.7988,0.9854 2.7161,4.06717 4.2606,6.84836 2.4704,4.44826 4.9599,7.54679 13.894,17.2923 1.1982,1.30704 3.1411,4.21933 4.3174,6.47184 1.1763,2.2525 4.9343,7.0974 8.3511,10.76649 3.4169,3.66906 5.8069,7.34179 6.2125,7.84249 0.5213,0.64431 0.7012,1.26934 1.4078,1.49761 1.4875,1.36743 11.7746,13.16145 11.8026,14.24615 0,1.41958 3.274,4.35558 5.6704,6.97932 2.3965,2.62374 4.3579,5.22025 4.3588,5.77008 0,0.54979 1.635,2.89856 3.6311,5.21956 1.996,2.32096 3.629,4.65492 3.629,5.18657 0,0.53163 4.0857,5.16839 9.0791,10.30381 4.9934,5.13543 13.3264,14.21317 18.5177,20.17273 12.2045,14.01056 14.3194,15.45095 15.9744,16.03336 0.7151,0.25159 1.138,0.56154 1.4525,1.10794 0.5037,0.8749 5.1351,4.09383 7.5305,4.52324 0.5472,0.0976 2.6711,-0.45904 4.7201,-1.23814 z m 120.365,-177.75453 c 0.5933,-1.54623 0.1387,-2.79808 -1.2002,-3.31226 -1.1849,-0.45465 -2.1542,-1.44883 -2.1542,-2.20932 0,-0.76048 0.5544,-1.03993 1.2324,-0.62102 0.678,0.41895 2.6114,-0.52284 4.2964,-2.09284 1.6852,-1.56999 4.0977,-2.85452 5.3612,-2.85452 1.2633,0 4.8594,-1.30715 7.9909,-2.90475 3.1316,-1.59763 7.3537,-2.90474 9.3825,-2.90474 3.9874,0 4.5851,2.41717 2.8021,11.33186 -0.8834,4.41784 -0.9246,4.43496 -11.982,4.96306 -6.1024,0.29142 -12.3525,1.106 -13.8893,1.81008 -2.2854,1.04733 -2.6202,0.82806 -1.8398,-1.20555 z m -6.7485,-32.89759 c 2.3254,-2.42101 14.3665,-3.65157 15.6358,-1.59791 0.5917,0.95732 -0.074,1.65013 -1.6263,1.69374 -1.445,0.0407 -5.5683,0.43132 -9.1631,0.86832 -5.0922,0.61902 -6.1625,0.4061 -4.8464,-0.96415 z m -58.0901,-133.27073 c 2.5291,-3.77372 6.1018,-9.80238 7.9392,-13.39701 4.0447,-7.91373 29.4916,-33.17053 44.1607,-43.8309 9.3824,-6.81842 10.9887,-8.68718 13.6428,-15.8719 5.3477,-14.477307 3.8389,-26.917623 -2.5621,-21.124745 -1.5013,1.358544 -3.9527,4.741648 -5.448,7.518028 -1.4951,2.776369 -3.5411,4.508248 -3.8405,5.047958 l -1.1221,2.02317 c -0.54,0.973079 -1.3069,1.917229 -2.1787,2.859169 -1.1388,1.23065 -2.1784,2.58291 -2.1784,2.58291 0,0 -2.7777,4.4171 -6.1726,7.68066 -3.395,3.26355 -12.0335,12.79165 -19.1969,21.17354 -7.1635,8.38191 -19.4177,22.31502 -27.2321,30.96248 -7.8142,8.64749 -14.2076,16.23237 -14.2076,16.85531 0,1.18672 7.8729,4.08129 11.619,4.27185 1.1981,0.061 4.2479,-2.97678 6.7773,-6.75052 z"
     id="path51-8"
     sodipodi:nodetypes="sssssscssssssssssssssssscssssssssscssssssssssssssssssscsssscscssssssssssssssssssssssssssssssscssssccccsssssssccsssssssssscsssccssscssssccsssccscsssccsscssssscssssssscsssssssssssssccsssscsssssssscsscsssssssssssssssscsssssssssssscssssssssssssssscscssssscsssssssssssssssscsssssssssssssscsssscssssssssssssssssssssssssssccssssssscssssssssscscssssscsssssscssssscsssscsccssssscsssscsssssssssssssssssssssssssssccsscsscssssssssssssssssssssscsssssssssssssssssssssssssssscsssssssssssssssssssssssccccssscsscccssccscssccsssssscsssssssssscsssssssssssssssssssscccsssssssssssscsscsssssssssssccsccsssscccccsscsssssssssssssssscssssssssssssssssscsscscsccscsssssssssssssssssssscscccssssssccsccsscsssssccsssssscscsssssccssssscsscsssssssssssssssssccssscssssssscsscsssssssscssssssssssssssssssscsscsssssssssssssssssscsscssssssssssssssssssssscccsssssssssssscsssssssssssssssscsssssssssssssssssssssssssssscsssssssssssssssssccsssssssscssssssssscssssssccsssssssscsssssssssssssssssssssssssssscssssss"
     inkscape:transform-center-x="69.007553"
     inkscape:transform-center-y="-73.684167" />
</svg>
