<?xml version="1.0" encoding="UTF-8" standalone="no"?>
<!-- Created with Inkscape (http://www.inkscape.org/) -->

<svg
   width="18in"
   height="13in"
   viewBox="0 0 457.20001 330.20001"
   version="1.1"
   id="svg5"
   inkscape:version="1.1 (c68e22c387, 2021-05-23)"
   sodipodi:docname="composite-7x5-v1-ROW5.svg"
   inkscape:export-filename="C:\Users\josep\github\funstuff\Processing\15puzzle\media\composite-7x5-v3.png"
   inkscape:export-xdpi="300"
   inkscape:export-ydpi="300"
   xmlns:inkscape="http://www.inkscape.org/namespaces/inkscape"
   xmlns:sodipodi="http://sodipodi.sourceforge.net/DTD/sodipodi-0.dtd"
   xmlns="http://www.w3.org/2000/svg"
   xmlns:svg="http://www.w3.org/2000/svg">
  <sodipodi:namedview
     id="namedview7"
     pagecolor="#ffffff"
     bordercolor="#666666"
     borderopacity="1.0"
     inkscape:pageshadow="2"
     inkscape:pageopacity="0.0"
     inkscape:pagecheckerboard="0"
     inkscape:document-units="mm"
     showgrid="false"
     units="in"
     inkscape:zoom="1.0998546"
     inkscape:cx="388.68774"
     inkscape:cy="913.30254"
     inkscape:window-width="2560"
     inkscape:window-height="1377"
     inkscape:window-x="2552"
     inkscape:window-y="-8"
     inkscape:window-maximized="1"
     inkscape:current-layer="layer1" />
  <defs
     id="defs2" />
  <g
     inkscape:label="Layer 1"
     inkscape:groupmode="layer"
     id="layer1">
    <path
       id="path51-8"
       style="font-style:normal;font-weight:normal;font-size:12px;font-family:Dialog;display:inline;color-interpolation:auto;fill:#333333;fill-opacity:1;stroke:#000000;stroke-width:1.45238;stroke-linecap:square;stroke-linejoin:miter;stroke-miterlimit:10;stroke-dasharray:none;stroke-dashoffset:0;stroke-opacity:1;color-rendering:auto;image-rendering:auto;shape-rendering:auto;text-rendering:auto"
       inkscape:transform-center-x="69.007553"
       inkscape:transform-center-y="-73.684167"
       d="M 379.89648 988.74609 C 379.26979 991.89406 378.24001 995.54463 376.83203 1000.0859 C 373.05922 1012.2549 371.85124 1014.5509 368.56055 1015.8008 C 366.44114 1016.6057 360.78504 1019.1164 355.99219 1021.3809 C 351.19938 1023.6451 342.94975 1027.4427 337.6582 1029.8203 C 323.00053 1036.4059 304.33346 1053.917 299.7207 1065.4102 C 298.5197 1068.4026 288.63913 1083.7045 286.3125 1086.1738 C 285.4959 1087.0404 283.51947 1089.557 281.92188 1091.7676 C 275.36477 1100.8406 273.64374 1102.7469 272.01367 1102.7695 C 270.00994 1102.791 262.12713 1109.1269 250.79883 1119.8184 C 246.35532 1124.012 242.31645 1127.4434 241.82422 1127.4434 C 241.33195 1127.4434 238.38854 1129.4738 235.2832 1131.957 C 227.58928 1138.11 216.59381 1142.8059 198.02344 1147.8691 C 181.92444 1152.2586 170.88784 1153.193 164.375 1150.7168 C 159.78838 1148.973 159.40679 1151.0908 163.91602 1153.2656 L 163.91797 1153.2656 C 170.09979 1156.247 183.83959 1155.2196 200.52539 1150.5273 C 220.83768 1144.8154 235.6225 1137.1792 250.27734 1124.832 C 256.63178 1119.4781 264.7043 1112.8114 268.2168 1110.0156 C 276.08963 1103.749 279.24648 1100.5785 284.82812 1093.3398 C 287.22453 1090.2321 290.22074 1086.6674 291.48438 1085.418 C 294.43596 1082.4995 304.43555 1065.8144 304.43555 1063.8086 C 304.43555 1061.4892 321.71428 1044.4477 329.49023 1039.0977 C 333.26608 1036.4998 338.81405 1033.4924 341.81836 1032.4141 C 344.82265 1031.3358 350.54894 1028.798 354.54297 1026.7754 C 358.537 1024.7528 363.55497 1022.6621 365.69336 1022.1289 C 369.45072 1021.1916 369.54782 1021.3216 368.59766 1026.0098 C 368.05694 1028.6778 367.61328 1045.2389 367.61328 1062.8125 C 367.61328 1092.8134 367.82148 1095.3129 371.01953 1103.7383 C 372.89292 1108.6738 376.16057 1114.3671 378.28125 1116.3906 C 387.49018 1125.178 395.3166 1131.7265 396.66211 1131.7715 C 397.46095 1131.7977 399.74903 1132.6644 401.74609 1133.6973 C 403.74308 1134.7301 408.25738 1135.7391 411.7793 1135.9395 C 415.30121 1136.1397 419.55038 1137.0388 421.2207 1137.9375 C 427.98326 1141.5758 460.31418 1140.0899 462.82617 1136.0254 C 463.35893 1135.1633 464.21284 1134.514 464.72266 1134.582 C 467.23136 1134.9178 467.99576 1134.4818 469.70898 1131.7383 C 473.80486 1125.18 473.34804 1118.087 467.78125 1101.7656 C 464.83345 1093.1231 461.51486 1084.2882 460.40625 1082.1328 C 458.07303 1077.5965 449.70115 1070.8008 446.44531 1070.8008 C 442.00391 1070.8008 433.69364 1066.3626 433.49219 1063.8828 C 432.49912 1051.665 433.03044 1044.7627 435.4668 1038.248 C 439.07897 1028.5895 448.03238 1010.0904 449.54688 1009.1543 C 450.19952 1008.7509 450.43712 1012.8152 450.07617 1018.1875 C 449.61488 1025.0502 450.0926 1029.533 451.68359 1033.2578 C 455.54003 1042.2864 457.48823 1043.3841 469.0918 1043.0625 C 479.10222 1042.7851 481.1398 1042.3067 491.52734 1037.8027 C 494.17796 1036.6535 499.91697 1035.3445 504.2793 1034.8945 C 508.64167 1034.4441 512.55758 1033.5166 512.98047 1032.832 C 513.40362 1032.1474 514.90325 1031.5879 516.31445 1031.5879 C 519.27753 1031.5879 522.44453 1024.8781 524.24219 1023.8535 L 526.04492 1022.8262 C 529.08442 1021.0938 533.56275 1017.3511 534.63867 1011.2441 C 535.4408 1006.6912 532.84679 998.18164 530.65625 998.18164 C 529.46251 998.18164 522.34449 991.89224 519.57617 988.74609 L 515.37305 988.74609 C 516.6498 992.49104 518.74319 994.87428 523.07031 997.41016 C 530.08478 1001.521 531.80175 1006.3036 528.58008 1012.7617 C 526.40356 1017.1246 511.25514 1028.1155 505.38867 1029.5879 C 503.50091 1030.0617 502.66668 1031.5595 501.95703 1031.8301 C 500.57539 1032.3566 501.43588 1032.1208 500.57422 1032.3555 C 498.70543 1032.8644 495.07634 1032.7716 490.04492 1034.3242 C 485.01346 1035.8769 476.97641 1037.5008 472.18359 1037.9297 C 460.27786 1038.9964 456.6263 1036.2842 455.49414 1025.5352 C 455.04525 1021.2743 455.15578 1015.4886 455.73828 1012.6777 C 456.32082 1009.8668 456.96142 1005.1289 457.16211 1002.1484 C 457.36284 999.16805 458.04611 996.72852 458.68164 996.72852 C 458.68164 996.72852 459.28351 995.37389 459.83789 993.64453 C 460.07046 992.91903 460.63674 990.97873 461.35352 988.74609 L 454.20703 988.74609 C 453.93575 989.20175 453.64314 989.76313 453.37891 990.19336 C 450.92588 994.18741 447.51608 1000.3956 445.80078 1003.9902 C 429.9841 1037.1361 427.85261 1043.1543 428.04688 1054.0977 C 428.2662 1066.4393 429.31401 1068.2768 438.11328 1071.7441 C 442.473 1073.462 447.71853 1075.588 449.76953 1076.4688 C 454.01859 1078.2932 459.0179 1086.3851 461.11523 1094.8301 C 461.89983 1097.9889 463.60661 1103.4748 464.9082 1107.0215 C 468.25422 1116.1389 468.2901 1123.7202 465.00195 1127.3535 C 463.51221 1128.9997 464.12289 1129.0687 463.3457 1130.1836 C 463.3457 1130.1836 450.84201 1134.8027 445.31445 1135.5273 C 431.4629 1137.3438 425.75559 1137.1079 422.68945 1134.5938 C 421.82836 1133.8877 416.83341 1132.7035 411.58984 1131.9609 C 402.10062 1130.6172 394.57682 1126.6312 382.75 1116.6797 C 373.82434 1109.1692 371.60054 1097.6488 372.07422 1061.375 C 372.48834 1029.6677 374.0431 1020.7249 382.06055 1003.9336 C 384.32829 999.18411 385.52231 993.87052 385.62695 988.74609 L 379.89648 988.74609 z "
       transform="scale(0.26458333)" />
    <path
       id="path1853"
       style="font-style:normal;font-weight:normal;font-size:32px;font-family:'Cooper Black';color-interpolation:auto;fill:#0000ff;fill-opacity:1;stroke:none;stroke-width:0.999999;stroke-linecap:round;stroke-linejoin:miter;stroke-miterlimit:10;stroke-dasharray:none;stroke-dashoffset:0;stroke-opacity:1;color-rendering:auto;image-rendering:auto;shape-rendering:auto;text-rendering:optimizeLegibility"
       d="M 1460.8672 1012.3242 C 1460.336 1012.3242 1459.7631 1012.4184 1459.1484 1012.6055 C 1458.5442 1012.7929 1458.0285 1013.0326 1457.6016 1013.3242 C 1456.6535 1013.9805 1455.1848 1015.5013 1453.1953 1017.8867 L 1449.2266 1022.6523 C 1447.8412 1024.3086 1447.0026 1025.4857 1446.7109 1026.1836 C 1446.4713 1026.7461 1446.3516 1027.5274 1446.3516 1028.5273 C 1446.3516 1029.2773 1446.4974 1029.8086 1446.7891 1030.1211 C 1447.091 1030.4231 1447.6067 1030.5742 1448.3359 1030.5742 L 1454.4297 1030.5742 C 1454.8464 1030.5742 1455.138 1030.6633 1455.3047 1030.8398 C 1455.4714 1031.0065 1455.5547 1031.3086 1455.5547 1031.7461 L 1455.5547 1033.3555 C 1455.5547 1033.7825 1455.6117 1034.0586 1455.7266 1034.1836 C 1455.8411 1034.3189 1456.0861 1034.3867 1456.4609 1034.3867 L 1461.8047 1034.3867 C 1462.4502 1034.3565 1462.7523 1034.0117 1462.7109 1033.3555 L 1462.7109 1031.5117 C 1462.7109 1031.1576 1462.7578 1030.9336 1462.8516 1030.8398 C 1462.9457 1030.7457 1463.1743 1030.6779 1463.5391 1030.6367 C 1464.1016 1030.5638 1464.3828 1030.2513 1464.3828 1029.6992 L 1464.3828 1026.5273 C 1464.3601 1025.9233 1464.1069 1025.6263 1463.6172 1025.6367 L 1462.9609 1025.6367 C 1462.7213 1025.6367 1462.5547 1025.5797 1462.4609 1025.4648 C 1462.3778 1025.3397 1462.3359 1025.1159 1462.3359 1024.793 L 1462.3359 1013.9961 C 1462.3359 1013.4023 1462.2212 1012.9754 1461.9922 1012.7148 C 1461.7631 1012.4544 1461.3881 1012.3242 1460.8672 1012.3242 z M 495.19531 1013.4023 C 492.86198 1013.4023 490.91929 1014.1367 489.36719 1015.6055 C 487.60676 1017.2617 486.72656 1019.543 486.72656 1022.4492 C 486.72656 1025.4284 487.69008 1027.8086 489.61719 1029.5898 C 491.24216 1031.1003 493.21093 1031.8555 495.52344 1031.8555 C 497.61718 1031.8555 499.48179 1031.1784 501.11719 1029.8242 C 503.25262 1028.043 504.32031 1025.7566 504.32031 1022.9648 C 504.32031 1021.4336 503.99225 1019.9909 503.33594 1018.6367 C 502.45051 1016.7826 501.112 1015.3867 499.32031 1014.4492 C 497.9974 1013.7513 496.62242 1013.4023 495.19531 1013.4023 z M 236.67969 1013.5117 C 233.9401 1013.5117 231.44531 1014.319 229.19531 1015.9336 C 228.58073 1016.3919 228.08594 1016.8815 227.71094 1017.4023 C 227.33593 1017.9128 227.14844 1018.3712 227.14844 1018.7773 C 227.14844 1019.2253 227.35155 1019.6419 227.75781 1020.0273 C 228.17448 1020.4023 228.62761 1020.5898 229.11719 1020.5898 C 229.49219 1020.5898 229.79427 1020.4957 230.02344 1020.3086 C 230.8776 1019.5898 231.42969 1019.168 231.67969 1019.043 C 231.9297 1018.9077 232.29427 1018.8398 232.77344 1018.8398 C 233.28386 1018.8398 233.6901 1018.9963 233.99219 1019.3086 C 234.29429 1019.6106 234.44531 1020.0221 234.44531 1020.543 C 234.44531 1021.1471 234.1953 1021.8659 233.69531 1022.6992 C 232.72656 1024.3346 231.23698 1026.1003 229.22656 1027.9961 C 228.14323 1029.0169 227.50261 1029.6471 227.30469 1029.8867 C 227.10675 1030.1158 227.00781 1030.3659 227.00781 1030.6367 C 227.00781 1031.168 227.47656 1031.4336 228.41406 1031.4336 L 239.05469 1031.4336 C 239.54427 1031.4336 239.87761 1031.4754 240.05469 1031.5586 C 240.24219 1031.6417 240.42969 1031.8292 240.61719 1032.1211 C 240.81512 1032.4231 240.99219 1032.6263 241.14844 1032.7305 C 241.30468 1032.845 241.51301 1032.9023 241.77344 1032.9023 C 242.41927 1032.9023 243.01302 1032.5898 243.55469 1031.9648 C 244.06511 1031.3815 244.46615 1030.6888 244.75781 1029.8867 C 245.05991 1029.0847 245.21094 1028.293 245.21094 1027.5117 C 245.21094 1025.9492 244.7526 1025.168 243.83594 1025.168 C 243.62761 1025.168 243.46093 1025.2059 243.33594 1025.2773 C 243.22134 1025.3503 242.98176 1025.5638 242.61719 1025.918 C 241.89844 1026.6263 241.08073 1026.9805 240.16406 1026.9805 C 239.77864 1026.9805 239.45052 1026.8816 239.17969 1026.6836 C 238.90885 1026.4753 238.77344 1026.2253 238.77344 1025.9336 C 238.77344 1025.5587 239.22134 1024.9961 240.11719 1024.2461 C 242.63802 1022.1107 243.89844 1020.1315 243.89844 1018.3086 C 243.89844 1017.5898 243.71093 1016.9023 243.33594 1016.2461 C 242.96093 1015.5898 242.46614 1015.0795 241.85156 1014.7148 C 240.48698 1013.9128 238.76302 1013.5117 236.67969 1013.5117 z M 255.41406 1013.5117 C 252.85156 1013.5117 250.66927 1014.168 248.86719 1015.4805 C 247.16927 1016.6992 246.32031 1018.4233 246.32031 1020.6523 C 246.32031 1021.767 246.52864 1022.8398 246.94531 1023.8711 C 247.3724 1024.9023 247.96614 1025.7721 248.72656 1026.4805 C 249.73698 1027.4388 251.07552 1027.918 252.74219 1027.918 C 252.95052 1027.918 253.09633 1027.9175 253.17969 1027.9023 C 253.74219 1027.8392 254.09635 1027.8086 254.24219 1027.8086 C 254.65885 1027.8086 254.86719 1028.0067 254.86719 1028.4023 C 254.86719 1028.8919 254.612 1029.5378 254.10156 1030.3398 C 253.54948 1031.2148 252.89323 1031.9024 252.13281 1032.4023 C 251.51823 1032.8086 251.21094 1033.1211 251.21094 1033.3398 C 251.21094 1033.6732 251.71094 1034.1055 252.71094 1034.6367 C 253.71094 1035.1784 254.52864 1035.4492 255.16406 1035.4492 C 255.53907 1035.4492 255.98698 1035.2618 256.50781 1034.8867 C 258.73698 1033.2409 260.66927 1031.0274 262.30469 1028.2461 C 263.78385 1025.7357 264.52344 1023.3398 264.52344 1021.0586 C 264.52344 1018.2357 263.38801 1016.194 261.11719 1014.9336 C 259.39844 1013.9857 257.4974 1013.5117 255.41406 1013.5117 z M 474.94531 1013.5117 C 473.9245 1013.5117 472.862 1013.6369 471.75781 1013.8867 C 470.66406 1014.1263 469.72658 1014.4441 468.94531 1014.8398 C 467.69531 1015.4649 467.07031 1016.1316 467.07031 1016.8398 C 467.07031 1017.2461 467.18465 1017.6315 467.41406 1017.9961 C 467.65368 1018.3608 467.90362 1018.543 468.16406 1018.543 C 468.28916 1018.543 468.46116 1018.486 468.67969 1018.3711 C 469.41927 1017.9753 469.92447 1017.7305 470.19531 1017.6367 C 470.47651 1017.5426 470.81511 1017.4961 471.21094 1017.4961 C 471.86718 1017.4961 472.4297 1017.715 472.89844 1018.1523 C 473.36721 1018.5794 473.60156 1019.0898 473.60156 1019.6836 C 473.60156 1020.2253 473.37252 1020.7305 472.91406 1021.1992 C 472.30991 1021.8138 471.67968 1022.2305 471.02344 1022.4492 C 470.29425 1022.699 469.86198 1022.8711 469.72656 1022.9648 C 469.59126 1023.048 469.52344 1023.2147 469.52344 1023.4648 C 469.52344 1023.9858 469.66404 1024.5221 469.94531 1025.0742 C 470.23709 1025.6263 470.51822 1025.9023 470.78906 1025.9023 C 470.92437 1025.9023 471.12771 1025.8605 471.39844 1025.7773 C 471.85678 1025.642 472.38803 1025.5742 472.99219 1025.5742 C 473.94009 1025.5742 474.71616 1025.8138 475.32031 1026.293 C 475.92447 1026.7617 476.22656 1027.3659 476.22656 1028.1055 C 476.22656 1028.8971 475.83595 1029.6004 475.05469 1030.2148 C 474.31511 1030.7879 473.32032 1031.0742 472.07031 1031.0742 C 471.37242 1031.0742 470.83594 1031.0273 470.46094 1030.9336 C 469.3151 1030.6732 468.61197 1030.543 468.35156 1030.543 C 467.88279 1030.543 467.48175 1030.6995 467.14844 1031.0117 C 466.82567 1031.3137 466.66406 1031.6888 466.66406 1032.1367 C 466.66406 1032.8555 467.14846 1033.4023 468.11719 1033.7773 C 469.64846 1034.3711 471.48179 1034.668 473.61719 1034.668 C 475.44013 1034.668 477.11201 1034.4492 478.63281 1034.0117 C 480.74742 1033.3971 482.34632 1032.4388 483.42969 1031.1367 C 484.57549 1029.7826 485.14844 1028.2879 485.14844 1026.6523 C 485.14844 1024.0482 483.74219 1022.4857 480.92969 1021.9648 C 480.33592 1021.8503 480.03906 1021.6421 480.03906 1021.3398 C 480.03906 1021.1837 480.20575 1020.9702 480.53906 1020.6992 C 481.71616 1019.7617 482.30469 1018.7305 482.30469 1017.6055 C 482.30469 1016.9909 482.1225 1016.418 481.75781 1015.8867 C 481.40367 1015.3451 480.91928 1014.9232 480.30469 1014.6211 C 478.75262 1013.8815 476.96615 1013.5117 474.94531 1013.5117 z M 714.94531 1013.5117 C 713.9245 1013.5117 712.862 1013.6369 711.75781 1013.8867 C 710.66406 1014.1263 709.72658 1014.4441 708.94531 1014.8398 C 707.69531 1015.4649 707.07031 1016.1316 707.07031 1016.8398 C 707.07031 1017.2461 707.18502 1017.6315 707.41406 1017.9961 C 707.65368 1018.3608 707.90362 1018.543 708.16406 1018.543 C 708.28916 1018.543 708.46078 1018.486 708.67969 1018.3711 C 709.41927 1017.9753 709.92447 1017.7305 710.19531 1017.6367 C 710.47651 1017.5426 710.81511 1017.4961 711.21094 1017.4961 C 711.86718 1017.4961 712.4297 1017.715 712.89844 1018.1523 C 713.36721 1018.5794 713.60156 1019.0898 713.60156 1019.6836 C 713.60156 1020.2253 713.37252 1020.7305 712.91406 1021.1992 C 712.30991 1021.8138 711.67968 1022.2305 711.02344 1022.4492 C 710.29425 1022.699 709.86198 1022.8711 709.72656 1022.9648 C 709.59126 1023.048 709.52344 1023.2147 709.52344 1023.4648 C 709.52344 1023.9858 709.66404 1024.5221 709.94531 1025.0742 C 710.23709 1025.6263 710.51822 1025.9023 710.78906 1025.9023 C 710.92437 1025.9023 711.12771 1025.8605 711.39844 1025.7773 C 711.85674 1025.642 712.38799 1025.5742 712.99219 1025.5742 C 713.94009 1025.5742 714.71616 1025.8138 715.32031 1026.293 C 715.92447 1026.7617 716.22656 1027.3659 716.22656 1028.1055 C 716.22656 1028.8971 715.83595 1029.6004 715.05469 1030.2148 C 714.31511 1030.7879 713.32032 1031.0742 712.07031 1031.0742 C 711.37242 1031.0742 710.83594 1031.0273 710.46094 1030.9336 C 709.3151 1030.6732 708.61201 1030.543 708.35156 1030.543 C 707.88283 1030.543 707.48175 1030.6995 707.14844 1031.0117 C 706.82567 1031.3137 706.66406 1031.6888 706.66406 1032.1367 C 706.66406 1032.8555 707.14846 1033.4023 708.11719 1033.7773 C 709.64846 1034.3711 711.48179 1034.668 713.61719 1034.668 C 715.44013 1034.668 717.11201 1034.4492 718.63281 1034.0117 C 720.74738 1033.3971 722.34632 1032.4388 723.42969 1031.1367 C 724.57549 1029.7826 725.14844 1028.2879 725.14844 1026.6523 C 725.14844 1024.0482 723.74219 1022.4857 720.92969 1021.9648 C 720.33592 1021.8503 720.03906 1021.6421 720.03906 1021.3398 C 720.03906 1021.1837 720.20575 1020.9702 720.53906 1020.6992 C 721.71616 1019.7617 722.30469 1018.7305 722.30469 1017.6055 C 722.30469 1016.9909 722.12254 1016.418 721.75781 1015.8867 C 721.40367 1015.3451 720.91928 1014.9232 720.30469 1014.6211 C 718.75262 1013.8815 716.96615 1013.5117 714.94531 1013.5117 z M 738.53906 1013.5117 C 735.21614 1013.5117 732.08073 1014.1367 729.13281 1015.3867 C 728.53905 1015.6365 728.07554 1015.9284 727.74219 1016.2617 C 727.40883 1016.5845 727.24219 1016.9128 727.24219 1017.2461 C 727.24219 1017.5587 727.35148 1017.8138 727.57031 1018.0117 C 727.78915 1018.1992 728.07555 1018.293 728.42969 1018.293 C 728.58578 1018.293 728.76831 1018.2826 728.97656 1018.2637 C 729.24755 1018.2334 729.45575 1018.2168 729.60156 1018.2168 C 730.20572 1018.2168 730.62241 1018.3245 730.85156 1018.543 C 731.0806 1018.7618 731.19531 1019.1523 731.19531 1019.7148 C 731.19531 1023.4232 731.15737 1025.6732 731.08594 1026.4648 C 730.95063 1027.8607 730.44012 1028.5586 729.55469 1028.5586 C 729.4088 1028.5586 729.21114 1028.5374 728.96094 1028.498 C 728.41929 1028.4251 728.07554 1028.3887 727.92969 1028.3887 C 727.54429 1028.4 727.22135 1028.5186 726.96094 1028.748 C 726.70053 1028.9771 726.57031 1029.2481 726.57031 1029.5605 C 726.57031 1030.1438 726.97135 1030.5813 727.77344 1030.873 C 728.59635 1031.175 729.75264 1031.4304 731.24219 1031.6387 C 732.42972 1031.7951 733.6901 1031.873 735.02344 1031.873 C 737.05467 1031.873 739.03387 1031.7011 740.96094 1031.3574 C 742.34636 1031.1072 743.03906 1030.5865 743.03906 1029.7949 C 743.03906 1029.0341 742.54947 1028.6332 741.57031 1028.5918 C 740.70575 1028.5498 740.1016 1028.425 739.75781 1028.2168 C 739.41425 1028.0085 739.17968 1027.6282 739.05469 1027.0762 C 738.98174 1026.722 738.94027 1026.4459 738.92969 1026.248 C 738.91835 1026.05 738.87221 1024.5553 738.78906 1021.7637 C 738.84122 1019.0033 738.91408 1017.42 739.00781 1017.0137 C 739.10154 1016.6074 739.47134 1016.2636 740.11719 1015.9824 C 740.52345 1015.8052 740.79427 1015.6438 740.92969 1015.498 C 741.06499 1015.3416 741.13281 1015.1284 741.13281 1014.8574 C 741.13281 1014.3886 740.92458 1014.0502 740.50781 1013.8418 C 740.10159 1013.623 739.44532 1013.5137 738.53906 1013.5137 L 738.53906 1013.5117 z M 954.94531 1013.5117 C 953.9245 1013.5117 952.862 1013.6369 951.75781 1013.8867 C 950.66406 1014.1263 949.72658 1014.4441 948.94531 1014.8398 C 947.69531 1015.4649 947.07031 1016.1316 947.07031 1016.8398 C 947.07031 1017.2461 947.18502 1017.6315 947.41406 1017.9961 C 947.65368 1018.3608 947.90365 1018.543 948.16406 1018.543 C 948.28916 1018.543 948.46074 1018.486 948.67969 1018.3711 C 949.41927 1017.9753 949.92447 1017.7305 950.19531 1017.6367 C 950.47651 1017.5426 950.81511 1017.4961 951.21094 1017.4961 C 951.86718 1017.4961 952.4297 1017.715 952.89844 1018.1523 C 953.36721 1018.5794 953.60156 1019.0898 953.60156 1019.6836 C 953.60156 1020.2253 953.37252 1020.7305 952.91406 1021.1992 C 952.30987 1021.8138 951.67968 1022.2305 951.02344 1022.4492 C 950.29425 1022.699 949.86198 1022.8711 949.72656 1022.9648 C 949.59126 1023.048 949.52344 1023.2147 949.52344 1023.4648 C 949.52344 1023.9858 949.66404 1024.5221 949.94531 1025.0742 C 950.23709 1025.6263 950.51822 1025.9023 950.78906 1025.9023 C 950.92437 1025.9023 951.12771 1025.8605 951.39844 1025.7773 C 951.85674 1025.642 952.38799 1025.5742 952.99219 1025.5742 C 953.94009 1025.5742 954.71616 1025.8138 955.32031 1026.293 C 955.92447 1026.7617 956.22656 1027.3659 956.22656 1028.1055 C 956.22656 1028.8971 955.83595 1029.6004 955.05469 1030.2148 C 954.31511 1030.7879 953.32032 1031.0742 952.07031 1031.0742 C 951.37242 1031.0742 950.83594 1031.0273 950.46094 1030.9336 C 949.3151 1030.6732 948.61201 1030.543 948.35156 1030.543 C 947.88283 1030.543 947.48175 1030.6995 947.14844 1031.0117 C 946.82567 1031.3137 946.66406 1031.6888 946.66406 1032.1367 C 946.66406 1032.8555 947.14846 1033.4023 948.11719 1033.7773 C 949.64846 1034.3711 951.48179 1034.668 953.61719 1034.668 C 955.44013 1034.668 957.11197 1034.4492 958.63281 1034.0117 C 960.74738 1033.3971 962.34632 1032.4388 963.42969 1031.1367 C 964.57549 1029.7826 965.14844 1028.2879 965.14844 1026.6523 C 965.14844 1024.0482 963.74219 1022.4857 960.92969 1021.9648 C 960.33592 1021.8503 960.03906 1021.6421 960.03906 1021.3398 C 960.03906 1021.1837 960.20575 1020.9702 960.53906 1020.6992 C 961.71616 1019.7617 962.30469 1018.7305 962.30469 1017.6055 C 962.30469 1016.9909 962.12254 1016.418 961.75781 1015.8867 C 961.40367 1015.3451 960.91928 1014.9232 960.30469 1014.6211 C 958.75262 1013.8815 956.96615 1013.5117 954.94531 1013.5117 z M 975.88281 1013.5117 C 973.14326 1013.5117 970.64847 1014.319 968.39844 1015.9336 C 967.78389 1016.3919 967.28907 1016.8815 966.91406 1017.4023 C 966.53913 1017.9128 966.35156 1018.3712 966.35156 1018.7773 C 966.35156 1019.2253 966.55487 1019.6419 966.96094 1020.0273 C 967.37759 1020.4023 967.83075 1020.5898 968.32031 1020.5898 C 968.69524 1020.5898 968.99741 1020.4957 969.22656 1020.3086 C 970.08074 1019.5898 970.6328 1019.168 970.88281 1019.043 C 971.13264 1018.9077 971.49743 1018.8398 971.97656 1018.8398 C 972.48699 1018.8398 972.89321 1018.9963 973.19531 1019.3086 C 973.4973 1019.6106 973.64844 1020.0221 973.64844 1020.543 C 973.64844 1021.1471 973.39862 1021.8659 972.89844 1022.6992 C 971.92967 1024.3346 970.44013 1026.1003 968.42969 1027.9961 C 967.34636 1029.0169 966.70575 1029.6471 966.50781 1029.8867 C 966.30977 1030.1158 966.21094 1030.3659 966.21094 1030.6367 C 966.21094 1031.168 966.67968 1031.4336 967.61719 1031.4336 L 978.25781 1031.4336 C 978.74737 1031.4336 979.08074 1031.4754 979.25781 1031.5586 C 979.44528 1031.6417 979.63273 1031.8292 979.82031 1032.1211 C 980.01836 1032.4231 980.19524 1032.6263 980.35156 1032.7305 C 980.50766 1032.845 980.7163 1032.9023 980.97656 1032.9023 C 981.62241 1032.9023 982.21617 1032.5898 982.75781 1031.9648 C 983.26824 1031.3815 983.66927 1030.6888 983.96094 1029.8867 C 984.26292 1029.0847 984.41406 1028.293 984.41406 1027.5117 C 984.41406 1025.9492 983.95571 1025.168 983.03906 1025.168 C 982.83081 1025.168 982.66413 1025.2059 982.53906 1025.2773 C 982.42454 1025.3503 982.18492 1025.5638 981.82031 1025.918 C 981.10156 1026.6263 980.28387 1026.9805 979.36719 1026.9805 C 978.98179 1026.9805 978.65365 1026.8816 978.38281 1026.6836 C 978.11182 1026.4753 977.97656 1026.2253 977.97656 1025.9336 C 977.97656 1025.5587 978.42449 1024.9961 979.32031 1024.2461 C 981.84114 1022.1107 983.10156 1020.1315 983.10156 1018.3086 C 983.10156 1017.5898 982.91407 1016.9023 982.53906 1016.2461 C 982.16413 1015.5898 981.66924 1015.0795 981.05469 1014.7148 C 979.69009 1013.9128 977.96616 1013.5117 975.88281 1013.5117 z M 1194.9453 1013.5117 C 1193.9244 1013.5117 1192.8619 1013.6369 1191.7578 1013.8867 C 1190.664 1014.1263 1189.7265 1014.4441 1188.9453 1014.8398 C 1187.6953 1015.4649 1187.0703 1016.1316 1187.0703 1016.8398 C 1187.0703 1017.2461 1187.1846 1017.6315 1187.4141 1017.9961 C 1187.6537 1018.3608 1187.9037 1018.543 1188.1641 1018.543 C 1188.2892 1018.543 1188.4612 1018.486 1188.6797 1018.3711 C 1189.4193 1017.9753 1189.9244 1017.7305 1190.1953 1017.6367 C 1190.4765 1017.5426 1190.8151 1017.4961 1191.2109 1017.4961 C 1191.8672 1017.4961 1192.4297 1017.715 1192.8984 1018.1523 C 1193.3673 1018.5794 1193.6016 1019.0898 1193.6016 1019.6836 C 1193.6016 1020.2253 1193.3722 1020.7305 1192.9141 1021.1992 C 1192.3099 1021.8138 1191.6797 1022.2305 1191.0234 1022.4492 C 1190.2942 1022.699 1189.8619 1022.8711 1189.7266 1022.9648 C 1189.5913 1023.048 1189.5234 1023.2147 1189.5234 1023.4648 C 1189.5234 1023.9858 1189.664 1024.5221 1189.9453 1025.0742 C 1190.2371 1025.6263 1190.5183 1025.9023 1190.7891 1025.9023 C 1190.9244 1025.9023 1191.1278 1025.8605 1191.3984 1025.7773 C 1191.8568 1025.642 1192.3881 1025.5742 1192.9922 1025.5742 C 1193.9401 1025.5742 1194.7161 1025.8138 1195.3203 1026.293 C 1195.9244 1026.7617 1196.2266 1027.3659 1196.2266 1028.1055 C 1196.2266 1028.8971 1195.836 1029.6004 1195.0547 1030.2148 C 1194.3152 1030.7879 1193.3203 1031.0742 1192.0703 1031.0742 C 1191.3724 1031.0742 1190.8359 1031.0273 1190.4609 1030.9336 C 1189.3151 1030.6732 1188.612 1030.543 1188.3516 1030.543 C 1187.8828 1030.543 1187.4818 1030.6995 1187.1484 1031.0117 C 1186.8257 1031.3137 1186.6641 1031.6888 1186.6641 1032.1367 C 1186.6641 1032.8555 1187.1485 1033.4023 1188.1172 1033.7773 C 1189.6485 1034.3711 1191.4818 1034.668 1193.6172 1034.668 C 1195.4401 1034.668 1197.1119 1034.4492 1198.6328 1034.0117 C 1200.7473 1033.3971 1202.3464 1032.4388 1203.4297 1031.1367 C 1204.5756 1029.7826 1205.1484 1028.2879 1205.1484 1026.6523 C 1205.1484 1024.0482 1203.7422 1022.4857 1200.9297 1021.9648 C 1200.336 1021.8503 1200.0391 1021.6421 1200.0391 1021.3398 C 1200.0391 1021.1837 1200.2057 1020.9702 1200.5391 1020.6992 C 1201.7161 1019.7617 1202.3047 1018.7305 1202.3047 1017.6055 C 1202.3047 1016.9909 1202.1222 1016.418 1201.7578 1015.8867 C 1201.4037 1015.3451 1200.9193 1014.9232 1200.3047 1014.6211 C 1198.7526 1013.8815 1196.9661 1013.5117 1194.9453 1013.5117 z M 1214.1484 1013.5117 C 1213.1276 1013.5117 1212.0651 1013.6369 1210.9609 1013.8867 C 1209.8672 1014.1263 1208.9297 1014.4441 1208.1484 1014.8398 C 1206.8984 1015.4649 1206.2734 1016.1316 1206.2734 1016.8398 C 1206.2734 1017.2461 1206.3878 1017.6315 1206.6172 1017.9961 C 1206.8568 1018.3608 1207.1068 1018.543 1207.3672 1018.543 C 1207.4923 1018.543 1207.6639 1018.486 1207.8828 1018.3711 C 1208.6223 1017.9753 1209.1276 1017.7305 1209.3984 1017.6367 C 1209.6796 1017.5426 1210.0183 1017.4961 1210.4141 1017.4961 C 1211.0703 1017.4961 1211.6327 1017.715 1212.1016 1018.1523 C 1212.5703 1018.5794 1212.8047 1019.0898 1212.8047 1019.6836 C 1212.8047 1020.2253 1212.5756 1020.7305 1212.1172 1021.1992 C 1211.5131 1021.8138 1210.8828 1022.2305 1210.2266 1022.4492 C 1209.4974 1022.699 1209.0652 1022.8711 1208.9297 1022.9648 C 1208.7944 1023.048 1208.7266 1023.2147 1208.7266 1023.4648 C 1208.7266 1023.9858 1208.8672 1024.5221 1209.1484 1025.0742 C 1209.4402 1025.6263 1209.7214 1025.9023 1209.9922 1025.9023 C 1210.1275 1025.9023 1210.3308 1025.8605 1210.6016 1025.7773 C 1211.0599 1025.642 1211.5911 1025.5742 1212.1953 1025.5742 C 1213.1432 1025.5742 1213.9192 1025.8138 1214.5234 1026.293 C 1215.1276 1026.7617 1215.4297 1027.3659 1215.4297 1028.1055 C 1215.4297 1028.8971 1215.039 1029.6004 1214.2578 1030.2148 C 1213.5182 1030.7879 1212.5234 1031.0742 1211.2734 1031.0742 C 1210.5755 1031.0742 1210.039 1031.0273 1209.6641 1030.9336 C 1208.5183 1030.6732 1207.8152 1030.543 1207.5547 1030.543 C 1207.086 1030.543 1206.6849 1030.6995 1206.3516 1031.0117 C 1206.0284 1031.3137 1205.8672 1031.6888 1205.8672 1032.1367 C 1205.8672 1032.8555 1206.3515 1033.4023 1207.3203 1033.7773 C 1208.8515 1034.3711 1210.6848 1034.668 1212.8203 1034.668 C 1214.6432 1034.668 1216.3151 1034.4492 1217.8359 1034.0117 C 1219.9505 1033.3971 1221.5495 1032.4388 1222.6328 1031.1367 C 1223.7786 1029.7826 1224.3516 1028.2879 1224.3516 1026.6523 C 1224.3516 1024.0482 1222.9453 1022.4857 1220.1328 1021.9648 C 1219.539 1021.8503 1219.2422 1021.6421 1219.2422 1021.3398 C 1219.2422 1021.1837 1219.4089 1020.9702 1219.7422 1020.6992 C 1220.9193 1019.7617 1221.5078 1018.7305 1221.5078 1017.6055 C 1221.5078 1016.9909 1221.3257 1016.418 1220.9609 1015.8867 C 1220.6068 1015.3451 1220.1223 1014.9232 1219.5078 1014.6211 C 1217.9557 1013.8815 1216.1692 1013.5117 1214.1484 1013.5117 z M 1434.9453 1013.5117 C 1433.9244 1013.5117 1432.8619 1013.6369 1431.7578 1013.8867 C 1430.664 1014.1263 1429.7265 1014.4441 1428.9453 1014.8398 C 1427.6953 1015.4649 1427.0703 1016.1316 1427.0703 1016.8398 C 1427.0703 1017.2461 1427.1846 1017.6315 1427.4141 1017.9961 C 1427.6537 1018.3608 1427.9037 1018.543 1428.1641 1018.543 C 1428.2892 1018.543 1428.4612 1018.486 1428.6797 1018.3711 C 1429.4193 1017.9753 1429.9244 1017.7305 1430.1953 1017.6367 C 1430.4765 1017.5426 1430.8151 1017.4961 1431.2109 1017.4961 C 1431.8672 1017.4961 1432.4297 1017.715 1432.8984 1018.1523 C 1433.3673 1018.5794 1433.6016 1019.0898 1433.6016 1019.6836 C 1433.6016 1020.2253 1433.3722 1020.7305 1432.9141 1021.1992 C 1432.3099 1021.8138 1431.6797 1022.2305 1431.0234 1022.4492 C 1430.2942 1022.699 1429.862 1022.8711 1429.7266 1022.9648 C 1429.5913 1023.048 1429.5234 1023.2147 1429.5234 1023.4648 C 1429.5234 1023.9858 1429.664 1024.5221 1429.9453 1025.0742 C 1430.2371 1025.6263 1430.5183 1025.9023 1430.7891 1025.9023 C 1430.9244 1025.9023 1431.1277 1025.8605 1431.3984 1025.7773 C 1431.8568 1025.642 1432.3881 1025.5742 1432.9922 1025.5742 C 1433.9401 1025.5742 1434.7161 1025.8138 1435.3203 1026.293 C 1435.9244 1026.7617 1436.2266 1027.3659 1436.2266 1028.1055 C 1436.2266 1028.8971 1435.836 1029.6004 1435.0547 1030.2148 C 1434.3152 1030.7879 1433.3203 1031.0742 1432.0703 1031.0742 C 1431.3724 1031.0742 1430.8359 1031.0273 1430.4609 1030.9336 C 1429.3151 1030.6732 1428.612 1030.543 1428.3516 1030.543 C 1427.8828 1030.543 1427.4818 1030.6995 1427.1484 1031.0117 C 1426.8257 1031.3137 1426.6641 1031.6888 1426.6641 1032.1367 C 1426.6641 1032.8555 1427.1485 1033.4023 1428.1172 1033.7773 C 1429.6485 1034.3711 1431.4818 1034.668 1433.6172 1034.668 C 1435.4401 1034.668 1437.1119 1034.4492 1438.6328 1034.0117 C 1440.7473 1033.3971 1442.3464 1032.4388 1443.4297 1031.1367 C 1444.5756 1029.7826 1445.1484 1028.2879 1445.1484 1026.6523 C 1445.1484 1024.0482 1443.7422 1022.4857 1440.9297 1021.9648 C 1440.336 1021.8503 1440.0391 1021.6421 1440.0391 1021.3398 C 1440.0391 1021.1837 1440.2057 1020.9702 1440.5391 1020.6992 C 1441.7161 1019.7617 1442.3047 1018.7305 1442.3047 1017.6055 C 1442.3047 1016.9909 1442.1222 1016.418 1441.7578 1015.8867 C 1441.4037 1015.3451 1440.9193 1014.9232 1440.3047 1014.6211 C 1438.7526 1013.8815 1436.9661 1013.5117 1434.9453 1013.5117 z M 255.21094 1017.9805 C 255.72136 1017.9918 256.16406 1018.2149 256.53906 1018.6523 C 256.84116 1019.0171 257.11198 1019.5587 257.35156 1020.2773 C 257.59115 1020.9858 257.71094 1021.6211 257.71094 1022.1836 C 257.71094 1022.6836 257.57552 1023.0899 257.30469 1023.4023 C 257.04428 1023.7149 256.70052 1023.8711 256.27344 1023.8711 C 255.55469 1023.8711 254.9349 1023.4857 254.41406 1022.7148 C 253.89323 1021.9336 253.63281 1021.0065 253.63281 1019.9336 C 253.63281 1019.3815 253.78387 1018.918 254.08594 1018.543 C 254.388 1018.168 254.76302 1017.9805 255.21094 1017.9805 z M 494.83594 1018.0586 C 495.44009 1018.0888 495.91406 1018.4753 496.25781 1019.2148 C 496.57038 1019.8816 496.8255 1020.7513 497.02344 1021.8242 C 497.23169 1022.8867 497.33594 1023.8867 497.33594 1024.8242 C 497.33594 1026.5013 496.86201 1027.3398 495.91406 1027.3398 C 495.37242 1027.3398 494.94011 1027.0065 494.61719 1026.3398 C 493.79427 1024.6212 493.38281 1022.6837 493.38281 1020.5273 C 493.38281 1018.8815 493.86721 1018.0586 494.83594 1018.0586 z M 1454.9902 1019.9336 L 1454.9922 1019.9336 C 1455.5131 1019.9336 1455.7734 1020.4023 1455.7734 1021.3398 L 1455.7734 1022.1055 C 1455.7734 1023.5951 1455.7397 1024.6263 1455.6777 1025.1992 C 1455.6475 1025.5534 1455.5371 1025.793 1455.3496 1025.918 C 1455.1621 1026.0325 1454.8028 1026.0898 1454.2715 1026.0898 L 1453.0371 1026.0742 C 1451.8808 1026.044 1451.1569 1025.9909 1450.8652 1025.918 C 1450.5735 1025.8348 1450.4277 1025.6576 1450.4277 1025.3867 C 1450.4277 1025.0118 1450.7766 1024.3919 1451.4746 1023.5273 L 1453.8809 1020.5742 C 1454.2244 1020.1471 1454.5944 1019.9336 1454.9902 1019.9336 z "
       transform="scale(0.26458333)" />
    <g
       aria-label="2"
       id="text37"
       style="font-style:normal;font-weight:normal;font-size:32px;font-family:'Cooper Black';color-interpolation:auto;fill:#0000ff;fill-opacity:1;stroke:none;stroke-width:1;stroke-linecap:round;stroke-linejoin:miter;stroke-miterlimit:10;stroke-dasharray:none;stroke-dashoffset:0;stroke-opacity:1;color-rendering:auto;image-rendering:auto;shape-rendering:auto;text-rendering:optimizeLegibility"
       transform="matrix(0.26458333,0,0,0.26458333,5.4841341,7.2584816)" />
    <g
       aria-label="3"
       id="text53"
       style="font-style:normal;font-weight:normal;font-size:32px;font-family:'Cooper Black';color-interpolation:auto;fill:#0000ff;fill-opacity:1;stroke:none;stroke-width:1;stroke-linecap:round;stroke-linejoin:miter;stroke-miterlimit:10;stroke-dasharray:none;stroke-dashoffset:0;stroke-opacity:1;color-rendering:auto;image-rendering:auto;shape-rendering:auto;text-rendering:optimizeLegibility"
       transform="matrix(0.26458333,0,0,0.26458333,5.4841341,7.2584816)" />
    <g
       aria-label="4"
       id="text69"
       style="font-style:normal;font-weight:normal;font-size:32px;font-family:'Cooper Black';color-interpolation:auto;fill:#0000ff;fill-opacity:1;stroke:none;stroke-width:1;stroke-linecap:round;stroke-linejoin:miter;stroke-miterlimit:10;stroke-dasharray:none;stroke-dashoffset:0;stroke-opacity:1;color-rendering:auto;image-rendering:auto;shape-rendering:auto;text-rendering:optimizeLegibility"
       transform="matrix(0.26458333,0,0,0.26458333,5.4841341,7.2584816)" />
    <g
       aria-label="5"
       id="text85"
       style="font-style:normal;font-weight:normal;font-size:32px;font-family:'Cooper Black';color-interpolation:auto;fill:#0000ff;fill-opacity:1;stroke:none;stroke-width:1;stroke-linecap:round;stroke-linejoin:miter;stroke-miterlimit:10;stroke-dasharray:none;stroke-dashoffset:0;stroke-opacity:1;color-rendering:auto;image-rendering:auto;shape-rendering:auto;text-rendering:optimizeLegibility"
       transform="matrix(0.26458333,0,0,0.26458333,5.4841341,7.2584816)" />
    <g
       aria-label="6"
       id="text101"
       style="font-style:normal;font-weight:normal;font-size:32px;font-family:'Cooper Black';color-interpolation:auto;fill:#0000ff;fill-opacity:1;stroke:none;stroke-width:1;stroke-linecap:round;stroke-linejoin:miter;stroke-miterlimit:10;stroke-dasharray:none;stroke-dashoffset:0;stroke-opacity:1;color-rendering:auto;image-rendering:auto;shape-rendering:auto;text-rendering:optimizeLegibility"
       transform="matrix(0.26458333,0,0,0.26458333,5.4841341,7.2584816)" />
    <g
       aria-label="7"
       id="text117"
       style="font-style:normal;font-weight:normal;font-size:32px;font-family:'Cooper Black';color-interpolation:auto;fill:#0000ff;fill-opacity:1;stroke:none;stroke-width:1;stroke-linecap:round;stroke-linejoin:miter;stroke-miterlimit:10;stroke-dasharray:none;stroke-dashoffset:0;stroke-opacity:1;color-rendering:auto;image-rendering:auto;shape-rendering:auto;text-rendering:optimizeLegibility"
       transform="matrix(0.26458333,0,0,0.26458333,5.4841341,7.2584816)" />
    <g
       aria-label="8"
       id="text133"
       style="font-style:normal;font-weight:normal;font-size:32px;font-family:'Cooper Black';color-interpolation:auto;fill:#0000ff;fill-opacity:1;stroke:none;stroke-width:1;stroke-linecap:round;stroke-linejoin:miter;stroke-miterlimit:10;stroke-dasharray:none;stroke-dashoffset:0;stroke-opacity:1;color-rendering:auto;image-rendering:auto;shape-rendering:auto;text-rendering:optimizeLegibility"
       transform="matrix(0.26458333,0,0,0.26458333,5.4841341,7.2584816)" />
    <g
       aria-label="9"
       id="text147"
       style="font-style:normal;font-weight:normal;font-size:32px;font-family:'Cooper Black';color-interpolation:auto;fill:#0000ff;fill-opacity:1;stroke:none;stroke-width:1;stroke-linecap:round;stroke-linejoin:miter;stroke-miterlimit:10;stroke-dasharray:none;stroke-dashoffset:0;stroke-opacity:1;color-rendering:auto;image-rendering:auto;shape-rendering:auto;text-rendering:optimizeLegibility"
       transform="matrix(0.26458333,0,0,0.26458333,5.4841341,7.2584816)" />
    <g
       aria-label="10"
       id="text161"
       style="font-style:normal;font-weight:normal;font-size:32px;font-family:'Cooper Black';color-interpolation:auto;fill:#0000ff;fill-opacity:1;stroke:none;stroke-width:1;stroke-linecap:round;stroke-linejoin:miter;stroke-miterlimit:10;stroke-dasharray:none;stroke-dashoffset:0;stroke-opacity:1;color-rendering:auto;image-rendering:auto;shape-rendering:auto;text-rendering:optimizeLegibility"
       transform="matrix(0.26458333,0,0,0.26458333,5.4841341,7.2584816)" />
    <g
       aria-label="11"
       id="text175"
       style="font-style:normal;font-weight:normal;font-size:32px;font-family:'Cooper Black';color-interpolation:auto;fill:#0000ff;fill-opacity:1;stroke:none;stroke-width:1;stroke-linecap:round;stroke-linejoin:miter;stroke-miterlimit:10;stroke-dasharray:none;stroke-dashoffset:0;stroke-opacity:1;color-rendering:auto;image-rendering:auto;shape-rendering:auto;text-rendering:optimizeLegibility"
       transform="matrix(0.26458333,0,0,0.26458333,5.4841341,7.2584816)" />
    <g
       aria-label="12"
       id="text189"
       style="font-style:normal;font-weight:normal;font-size:32px;font-family:'Cooper Black';color-interpolation:auto;fill:#0000ff;fill-opacity:1;stroke:none;stroke-width:1;stroke-linecap:round;stroke-linejoin:miter;stroke-miterlimit:10;stroke-dasharray:none;stroke-dashoffset:0;stroke-opacity:1;color-rendering:auto;image-rendering:auto;shape-rendering:auto;text-rendering:optimizeLegibility"
       transform="matrix(0.26458333,0,0,0.26458333,5.4841341,7.2584816)" />
    <g
       aria-label="13"
       id="text203"
       style="font-style:normal;font-weight:normal;font-size:32px;font-family:'Cooper Black';color-interpolation:auto;fill:#0000ff;fill-opacity:1;stroke:none;stroke-width:1;stroke-linecap:round;stroke-linejoin:miter;stroke-miterlimit:10;stroke-dasharray:none;stroke-dashoffset:0;stroke-opacity:1;color-rendering:auto;image-rendering:auto;shape-rendering:auto;text-rendering:optimizeLegibility"
       transform="matrix(0.26458333,0,0,0.26458333,5.4841341,7.2584816)" />
    <g
       aria-label="14"
       id="text217"
       style="font-style:normal;font-weight:normal;font-size:32px;font-family:'Cooper Black';color-interpolation:auto;fill:#0000ff;fill-opacity:1;stroke:none;stroke-width:1;stroke-linecap:round;stroke-linejoin:miter;stroke-miterlimit:10;stroke-dasharray:none;stroke-dashoffset:0;stroke-opacity:1;color-rendering:auto;image-rendering:auto;shape-rendering:auto;text-rendering:optimizeLegibility"
       transform="matrix(0.26458333,0,0,0.26458333,5.4841341,7.2584816)" />
    <g
       aria-label="15"
       id="text233"
       style="font-style:normal;font-weight:normal;font-size:32px;font-family:'Cooper Black';color-interpolation:auto;fill:#0000ff;fill-opacity:1;stroke:none;stroke-width:1;stroke-linecap:round;stroke-linejoin:miter;stroke-miterlimit:10;stroke-dasharray:none;stroke-dashoffset:0;stroke-opacity:1;color-rendering:auto;image-rendering:auto;shape-rendering:auto;text-rendering:optimizeLegibility"
       transform="matrix(0.26458333,0,0,0.26458333,5.4841341,7.2584816)" />
    <g
       aria-label="16"
       id="text247"
       style="font-style:normal;font-weight:normal;font-size:32px;font-family:'Cooper Black';color-interpolation:auto;fill:#0000ff;fill-opacity:1;stroke:none;stroke-width:1;stroke-linecap:round;stroke-linejoin:miter;stroke-miterlimit:10;stroke-dasharray:none;stroke-dashoffset:0;stroke-opacity:1;color-rendering:auto;image-rendering:auto;shape-rendering:auto;text-rendering:optimizeLegibility"
       transform="matrix(0.26458333,0,0,0.26458333,5.4841341,7.2584816)" />
    <g
       aria-label="17"
       id="text261"
       style="font-style:normal;font-weight:normal;font-size:32px;font-family:'Cooper Black';color-interpolation:auto;fill:#0000ff;fill-opacity:1;stroke:none;stroke-width:1;stroke-linecap:round;stroke-linejoin:miter;stroke-miterlimit:10;stroke-dasharray:none;stroke-dashoffset:0;stroke-opacity:1;color-rendering:auto;image-rendering:auto;shape-rendering:auto;text-rendering:optimizeLegibility"
       transform="matrix(0.26458333,0,0,0.26458333,5.4841341,7.2584816)" />
    <g
       aria-label="18"
       id="text275"
       style="font-style:normal;font-weight:normal;font-size:32px;font-family:'Cooper Black';color-interpolation:auto;fill:#0000ff;fill-opacity:1;stroke:none;stroke-width:1;stroke-linecap:round;stroke-linejoin:miter;stroke-miterlimit:10;stroke-dasharray:none;stroke-dashoffset:0;stroke-opacity:1;color-rendering:auto;image-rendering:auto;shape-rendering:auto;text-rendering:optimizeLegibility"
       transform="matrix(0.26458333,0,0,0.26458333,5.4841341,7.2584816)" />
    <g
       aria-label="19"
       id="text289"
       style="font-style:normal;font-weight:normal;font-size:32px;font-family:'Cooper Black';color-interpolation:auto;fill:#0000ff;fill-opacity:1;stroke:none;stroke-width:1;stroke-linecap:round;stroke-linejoin:miter;stroke-miterlimit:10;stroke-dasharray:none;stroke-dashoffset:0;stroke-opacity:1;color-rendering:auto;image-rendering:auto;shape-rendering:auto;text-rendering:optimizeLegibility"
       transform="matrix(0.26458333,0,0,0.26458333,5.4841341,7.2584816)" />
    <g
       aria-label="20"
       id="text303"
       style="font-style:normal;font-weight:normal;font-size:32px;font-family:'Cooper Black';color-interpolation:auto;fill:#0000ff;fill-opacity:1;stroke:none;stroke-width:1;stroke-linecap:round;stroke-linejoin:miter;stroke-miterlimit:10;stroke-dasharray:none;stroke-dashoffset:0;stroke-opacity:1;color-rendering:auto;image-rendering:auto;shape-rendering:auto;text-rendering:optimizeLegibility"
       transform="matrix(0.26458333,0,0,0.26458333,5.4841341,7.2584816)" />
    <g
       aria-label="21"
       id="text317"
       style="font-style:normal;font-weight:normal;font-size:32px;font-family:'Cooper Black';color-interpolation:auto;fill:#0000ff;fill-opacity:1;stroke:none;stroke-width:1;stroke-linecap:round;stroke-linejoin:miter;stroke-miterlimit:10;stroke-dasharray:none;stroke-dashoffset:0;stroke-opacity:1;color-rendering:auto;image-rendering:auto;shape-rendering:auto;text-rendering:optimizeLegibility"
       transform="matrix(0.26458333,0,0,0.26458333,5.4841341,7.2584816)" />
    <line
       y2="264.43347"
       style="font-style:normal;font-weight:normal;font-size:32px;font-family:'Cooper Black';color-interpolation:auto;fill:none;fill-opacity:1;stroke:#ff0000;stroke-width:0.264583;stroke-linecap:round;stroke-linejoin:miter;stroke-miterlimit:10;stroke-dasharray:none;stroke-dashoffset:0;stroke-opacity:1;color-rendering:auto;image-rendering:auto;shape-rendering:auto;text-rendering:auto"
       x1="11.834134"
       x2="68.984131"
       y1="264.43347"
       id="line323" />
    <g
       aria-label="22"
       id="text333"
       style="font-style:normal;font-weight:normal;font-size:32px;font-family:'Cooper Black';color-interpolation:auto;fill:#0000ff;fill-opacity:1;stroke:none;stroke-width:1;stroke-linecap:round;stroke-linejoin:miter;stroke-miterlimit:10;stroke-dasharray:none;stroke-dashoffset:0;stroke-opacity:1;color-rendering:auto;image-rendering:auto;shape-rendering:auto;text-rendering:optimizeLegibility"
       transform="matrix(0.26458333,0,0,0.26458333,5.4841341,7.2584816)" />
    <line
       y2="264.43347"
       style="font-style:normal;font-weight:normal;font-size:32px;font-family:'Cooper Black';color-interpolation:auto;fill:none;fill-opacity:1;stroke:#ff0000;stroke-width:0.264583;stroke-linecap:round;stroke-linejoin:miter;stroke-miterlimit:10;stroke-dasharray:none;stroke-dashoffset:0;stroke-opacity:1;color-rendering:auto;image-rendering:auto;shape-rendering:auto;text-rendering:auto"
       x1="75.334137"
       x2="132.48413"
       y1="264.43347"
       id="line337" />
    <g
       aria-label="23"
       id="text347"
       style="font-style:normal;font-weight:normal;font-size:32px;font-family:'Cooper Black';color-interpolation:auto;fill:#0000ff;fill-opacity:1;stroke:none;stroke-width:1;stroke-linecap:round;stroke-linejoin:miter;stroke-miterlimit:10;stroke-dasharray:none;stroke-dashoffset:0;stroke-opacity:1;color-rendering:auto;image-rendering:auto;shape-rendering:auto;text-rendering:optimizeLegibility"
       transform="matrix(0.26458333,0,0,0.26458333,5.4841341,7.2584816)" />
    <line
       y2="264.43347"
       style="font-style:normal;font-weight:normal;font-size:32px;font-family:'Cooper Black';color-interpolation:auto;fill:none;fill-opacity:1;stroke:#ff0000;stroke-width:0.264583;stroke-linecap:round;stroke-linejoin:miter;stroke-miterlimit:10;stroke-dasharray:none;stroke-dashoffset:0;stroke-opacity:1;color-rendering:auto;image-rendering:auto;shape-rendering:auto;text-rendering:auto"
       x1="138.83414"
       x2="195.98413"
       y1="264.43347"
       id="line351" />
    <g
       aria-label="24"
       id="text361"
       style="font-style:normal;font-weight:normal;font-size:32px;font-family:'Cooper Black';color-interpolation:auto;fill:#0000ff;fill-opacity:1;stroke:none;stroke-width:1;stroke-linecap:round;stroke-linejoin:miter;stroke-miterlimit:10;stroke-dasharray:none;stroke-dashoffset:0;stroke-opacity:1;color-rendering:auto;image-rendering:auto;shape-rendering:auto;text-rendering:optimizeLegibility"
       transform="matrix(0.26458333,0,0,0.26458333,5.4841341,7.2584816)" />
    <line
       y2="264.43347"
       style="font-style:normal;font-weight:normal;font-size:32px;font-family:'Cooper Black';color-interpolation:auto;fill:none;fill-opacity:1;stroke:#ff0000;stroke-width:0.264583;stroke-linecap:round;stroke-linejoin:miter;stroke-miterlimit:10;stroke-dasharray:none;stroke-dashoffset:0;stroke-opacity:1;color-rendering:auto;image-rendering:auto;shape-rendering:auto;text-rendering:auto"
       x1="202.33414"
       x2="259.48413"
       y1="264.43347"
       id="line365" />
    <g
       aria-label="25"
       id="text375"
       style="font-style:normal;font-weight:normal;font-size:32px;font-family:'Cooper Black';color-interpolation:auto;fill:#0000ff;fill-opacity:1;stroke:none;stroke-width:1;stroke-linecap:round;stroke-linejoin:miter;stroke-miterlimit:10;stroke-dasharray:none;stroke-dashoffset:0;stroke-opacity:1;color-rendering:auto;image-rendering:auto;shape-rendering:auto;text-rendering:optimizeLegibility"
       transform="matrix(0.26458333,0,0,0.26458333,5.4841341,8.8459816)" />
    <line
       y2="264.43347"
       style="font-style:normal;font-weight:normal;font-size:32px;font-family:'Cooper Black';color-interpolation:auto;fill:none;fill-opacity:1;stroke:#ff0000;stroke-width:0.264583;stroke-linecap:round;stroke-linejoin:miter;stroke-miterlimit:10;stroke-dasharray:none;stroke-dashoffset:0;stroke-opacity:1;color-rendering:auto;image-rendering:auto;shape-rendering:auto;text-rendering:auto"
       x1="265.83414"
       x2="322.98413"
       y1="264.43347"
       id="line379" />
    <g
       aria-label="26"
       id="text389"
       style="font-style:normal;font-weight:normal;font-size:32px;font-family:'Cooper Black';color-interpolation:auto;fill:#0000ff;fill-opacity:1;stroke:none;stroke-width:1;stroke-linecap:round;stroke-linejoin:miter;stroke-miterlimit:10;stroke-dasharray:none;stroke-dashoffset:0;stroke-opacity:1;color-rendering:auto;image-rendering:auto;shape-rendering:auto;text-rendering:optimizeLegibility"
       transform="matrix(0.26458333,0,0,0.26458333,5.4841341,7.2584816)" />
    <line
       y2="264.43347"
       style="font-style:normal;font-weight:normal;font-size:32px;font-family:'Cooper Black';color-interpolation:auto;fill:none;fill-opacity:1;stroke:#ff0000;stroke-width:0.264583;stroke-linecap:round;stroke-linejoin:miter;stroke-miterlimit:10;stroke-dasharray:none;stroke-dashoffset:0;stroke-opacity:1;color-rendering:auto;image-rendering:auto;shape-rendering:auto;text-rendering:auto"
       x1="329.33414"
       x2="386.48413"
       y1="264.43347"
       id="line393" />
    <g
       aria-label="27"
       id="text403"
       style="font-style:normal;font-weight:normal;font-size:32px;font-family:'Cooper Black';color-interpolation:auto;fill:#0000ff;fill-opacity:1;stroke:none;stroke-width:1;stroke-linecap:round;stroke-linejoin:miter;stroke-miterlimit:10;stroke-dasharray:none;stroke-dashoffset:0;stroke-opacity:1;color-rendering:auto;image-rendering:auto;shape-rendering:auto;text-rendering:optimizeLegibility"
       transform="matrix(0.26458333,0,0,0.26458333,5.4841341,7.2584816)" />
    <line
       y2="264.43347"
       style="font-style:normal;font-weight:normal;font-size:32px;font-family:'Cooper Black';color-interpolation:auto;fill:none;fill-opacity:1;stroke:#ff0000;stroke-width:0.264583;stroke-linecap:round;stroke-linejoin:miter;stroke-miterlimit:10;stroke-dasharray:none;stroke-dashoffset:0;stroke-opacity:1;color-rendering:auto;image-rendering:auto;shape-rendering:auto;text-rendering:auto"
       x1="392.83414"
       x2="449.98413"
       y1="264.43347"
       id="line407" />
    <g
       aria-label="28"
       id="text417"
       style="font-style:normal;font-weight:normal;font-size:32px;font-family:'Cooper Black';color-interpolation:auto;fill:#0000ff;fill-opacity:1;stroke:none;stroke-width:1;stroke-linecap:round;stroke-linejoin:miter;stroke-miterlimit:10;stroke-dasharray:none;stroke-dashoffset:0;stroke-opacity:1;color-rendering:auto;image-rendering:auto;shape-rendering:auto;text-rendering:optimizeLegibility"
       transform="matrix(0.26458333,0,0,0.26458333,5.4841341,7.2584816)" />
    <line
       y2="324.75848"
       style="font-style:normal;font-weight:normal;font-size:32px;font-family:'Cooper Black';color-interpolation:auto;fill:none;fill-opacity:1;stroke:#ff0000;stroke-width:0.264583;stroke-linecap:round;stroke-linejoin:miter;stroke-miterlimit:10;stroke-dasharray:none;stroke-dashoffset:0;stroke-opacity:1;color-rendering:auto;image-rendering:auto;shape-rendering:auto;text-rendering:auto"
       x1="8.6591339"
       x2="8.6591339"
       y1="267.60849"
       id="line419" />
    <line
       y2="324.75848"
       style="font-style:normal;font-weight:normal;font-size:32px;font-family:'Cooper Black';color-interpolation:auto;fill:none;fill-opacity:1;stroke:#ff0000;stroke-width:0.264583;stroke-linecap:round;stroke-linejoin:miter;stroke-miterlimit:10;stroke-dasharray:none;stroke-dashoffset:0;stroke-opacity:1;color-rendering:auto;image-rendering:auto;shape-rendering:auto;text-rendering:auto"
       x1="72.159134"
       x2="72.159134"
       y1="267.60849"
       id="line421" />
    <line
       y2="327.93347"
       style="font-style:normal;font-weight:normal;font-size:32px;font-family:'Cooper Black';color-interpolation:auto;fill:none;fill-opacity:1;stroke:#ff0000;stroke-width:0.264583;stroke-linecap:round;stroke-linejoin:miter;stroke-miterlimit:10;stroke-dasharray:none;stroke-dashoffset:0;stroke-opacity:1;color-rendering:auto;image-rendering:auto;shape-rendering:auto;text-rendering:auto"
       x1="11.834134"
       x2="68.984131"
       y1="327.93347"
       id="line423" />
    <path
       style="font-style:normal;font-weight:normal;font-size:32px;font-family:'Cooper Black';color-interpolation:auto;fill:none;fill-opacity:1;stroke:#ff0000;stroke-width:0.264583;stroke-linecap:round;stroke-linejoin:miter;stroke-miterlimit:10;stroke-dasharray:none;stroke-dashoffset:0;stroke-opacity:1;color-rendering:auto;image-rendering:auto;shape-rendering:auto;text-rendering:auto"
       d="m 68.984133,264.43348 a 3.175,3.175 0 0 1 3.175,3.175"
       id="path425" />
    <path
       style="font-style:normal;font-weight:normal;font-size:32px;font-family:'Cooper Black';color-interpolation:auto;fill:none;fill-opacity:1;stroke:#ff0000;stroke-width:0.264583;stroke-linecap:round;stroke-linejoin:miter;stroke-miterlimit:10;stroke-dasharray:none;stroke-dashoffset:0;stroke-opacity:1;color-rendering:auto;image-rendering:auto;shape-rendering:auto;text-rendering:auto"
       d="m 8.6591341,267.60848 a 3.175,3.175 0 0 1 3.1749999,-3.175"
       id="path427" />
    <path
       style="font-style:normal;font-weight:normal;font-size:32px;font-family:'Cooper Black';color-interpolation:auto;fill:none;fill-opacity:1;stroke:#ff0000;stroke-width:0.264583;stroke-linecap:round;stroke-linejoin:miter;stroke-miterlimit:10;stroke-dasharray:none;stroke-dashoffset:0;stroke-opacity:1;color-rendering:auto;image-rendering:auto;shape-rendering:auto;text-rendering:auto"
       d="m 72.159133,324.75848 a 3.175,3.175 0 0 1 -3.175,3.175"
       id="path429" />
    <path
       style="font-style:normal;font-weight:normal;font-size:32px;font-family:'Cooper Black';color-interpolation:auto;fill:none;fill-opacity:1;stroke:#ff0000;stroke-width:0.264583;stroke-linecap:round;stroke-linejoin:miter;stroke-miterlimit:10;stroke-dasharray:none;stroke-dashoffset:0;stroke-opacity:1;color-rendering:auto;image-rendering:auto;shape-rendering:auto;text-rendering:auto"
       d="m 11.834134,327.93348 a 3.175,3.175 0 0 1 -3.1749999,-3.175"
       id="path431" />
    <g
       aria-label="29"
       id="text433"
       style="font-style:normal;font-weight:normal;font-size:32px;font-family:'Cooper Black';color-interpolation:auto;fill:#0000ff;fill-opacity:1;stroke:none;stroke-width:1;stroke-linecap:round;stroke-linejoin:miter;stroke-miterlimit:10;stroke-dasharray:none;stroke-dashoffset:0;stroke-opacity:1;color-rendering:auto;image-rendering:auto;shape-rendering:auto;text-rendering:optimizeLegibility"
       transform="matrix(0.26458333,0,0,0.26458333,5.4841341,7.2584816)" />
    <line
       y2="324.75848"
       style="font-style:normal;font-weight:normal;font-size:32px;font-family:'Cooper Black';color-interpolation:auto;fill:none;fill-opacity:1;stroke:#ff0000;stroke-width:0.264583;stroke-linecap:round;stroke-linejoin:miter;stroke-miterlimit:10;stroke-dasharray:none;stroke-dashoffset:0;stroke-opacity:1;color-rendering:auto;image-rendering:auto;shape-rendering:auto;text-rendering:auto"
       x1="135.65913"
       x2="135.65913"
       y1="267.60849"
       id="line435" />
    <line
       y2="327.93347"
       style="font-style:normal;font-weight:normal;font-size:32px;font-family:'Cooper Black';color-interpolation:auto;fill:none;fill-opacity:1;stroke:#ff0000;stroke-width:0.264583;stroke-linecap:round;stroke-linejoin:miter;stroke-miterlimit:10;stroke-dasharray:none;stroke-dashoffset:0;stroke-opacity:1;color-rendering:auto;image-rendering:auto;shape-rendering:auto;text-rendering:auto"
       x1="75.334137"
       x2="132.48413"
       y1="327.93347"
       id="line437" />
    <path
       style="font-style:normal;font-weight:normal;font-size:32px;font-family:'Cooper Black';color-interpolation:auto;fill:none;fill-opacity:1;stroke:#ff0000;stroke-width:0.264583;stroke-linecap:round;stroke-linejoin:miter;stroke-miterlimit:10;stroke-dasharray:none;stroke-dashoffset:0;stroke-opacity:1;color-rendering:auto;image-rendering:auto;shape-rendering:auto;text-rendering:auto"
       d="m 132.48413,264.43348 a 3.175,3.175 0 0 1 3.175,3.175"
       id="path439" />
    <path
       style="font-style:normal;font-weight:normal;font-size:32px;font-family:'Cooper Black';color-interpolation:auto;fill:none;fill-opacity:1;stroke:#ff0000;stroke-width:0.264583;stroke-linecap:round;stroke-linejoin:miter;stroke-miterlimit:10;stroke-dasharray:none;stroke-dashoffset:0;stroke-opacity:1;color-rendering:auto;image-rendering:auto;shape-rendering:auto;text-rendering:auto"
       d="m 72.159133,267.60848 a 3.175,3.175 0 0 1 3.175,-3.175"
       id="path441" />
    <path
       style="font-style:normal;font-weight:normal;font-size:32px;font-family:'Cooper Black';color-interpolation:auto;fill:none;fill-opacity:1;stroke:#ff0000;stroke-width:0.264583;stroke-linecap:round;stroke-linejoin:miter;stroke-miterlimit:10;stroke-dasharray:none;stroke-dashoffset:0;stroke-opacity:1;color-rendering:auto;image-rendering:auto;shape-rendering:auto;text-rendering:auto"
       d="m 135.65913,324.75848 a 3.175,3.175 0 0 1 -3.175,3.175"
       id="path443" />
    <path
       style="font-style:normal;font-weight:normal;font-size:32px;font-family:'Cooper Black';color-interpolation:auto;fill:none;fill-opacity:1;stroke:#ff0000;stroke-width:0.264583;stroke-linecap:round;stroke-linejoin:miter;stroke-miterlimit:10;stroke-dasharray:none;stroke-dashoffset:0;stroke-opacity:1;color-rendering:auto;image-rendering:auto;shape-rendering:auto;text-rendering:auto"
       d="m 75.334133,327.93348 a 3.175,3.175 0 0 1 -3.175,-3.175"
       id="path445" />
    <g
       aria-label="30"
       id="text447"
       style="font-style:normal;font-weight:normal;font-size:32px;font-family:'Cooper Black';color-interpolation:auto;fill:#0000ff;fill-opacity:1;stroke:none;stroke-width:1;stroke-linecap:round;stroke-linejoin:miter;stroke-miterlimit:10;stroke-dasharray:none;stroke-dashoffset:0;stroke-opacity:1;color-rendering:auto;image-rendering:auto;shape-rendering:auto;text-rendering:optimizeLegibility"
       transform="matrix(0.26458333,0,0,0.26458333,5.4841341,7.2584816)" />
    <line
       y2="324.75848"
       style="font-style:normal;font-weight:normal;font-size:32px;font-family:'Cooper Black';color-interpolation:auto;fill:none;fill-opacity:1;stroke:#ff0000;stroke-width:0.264583;stroke-linecap:round;stroke-linejoin:miter;stroke-miterlimit:10;stroke-dasharray:none;stroke-dashoffset:0;stroke-opacity:1;color-rendering:auto;image-rendering:auto;shape-rendering:auto;text-rendering:auto"
       x1="199.15913"
       x2="199.15913"
       y1="267.60849"
       id="line449" />
    <line
       y2="327.93347"
       style="font-style:normal;font-weight:normal;font-size:32px;font-family:'Cooper Black';color-interpolation:auto;fill:none;fill-opacity:1;stroke:#ff0000;stroke-width:0.264583;stroke-linecap:round;stroke-linejoin:miter;stroke-miterlimit:10;stroke-dasharray:none;stroke-dashoffset:0;stroke-opacity:1;color-rendering:auto;image-rendering:auto;shape-rendering:auto;text-rendering:auto"
       x1="138.83414"
       x2="195.98413"
       y1="327.93347"
       id="line451" />
    <path
       style="font-style:normal;font-weight:normal;font-size:32px;font-family:'Cooper Black';color-interpolation:auto;fill:none;fill-opacity:1;stroke:#ff0000;stroke-width:0.264583;stroke-linecap:round;stroke-linejoin:miter;stroke-miterlimit:10;stroke-dasharray:none;stroke-dashoffset:0;stroke-opacity:1;color-rendering:auto;image-rendering:auto;shape-rendering:auto;text-rendering:auto"
       d="m 195.98413,264.43348 a 3.175,3.175 0 0 1 3.175,3.175"
       id="path453" />
    <path
       style="font-style:normal;font-weight:normal;font-size:32px;font-family:'Cooper Black';color-interpolation:auto;fill:none;fill-opacity:1;stroke:#ff0000;stroke-width:0.264583;stroke-linecap:round;stroke-linejoin:miter;stroke-miterlimit:10;stroke-dasharray:none;stroke-dashoffset:0;stroke-opacity:1;color-rendering:auto;image-rendering:auto;shape-rendering:auto;text-rendering:auto"
       d="m 135.65913,267.60848 a 3.175,3.175 0 0 1 3.175,-3.175"
       id="path455" />
    <path
       style="font-style:normal;font-weight:normal;font-size:32px;font-family:'Cooper Black';color-interpolation:auto;fill:none;fill-opacity:1;stroke:#ff0000;stroke-width:0.264583;stroke-linecap:round;stroke-linejoin:miter;stroke-miterlimit:10;stroke-dasharray:none;stroke-dashoffset:0;stroke-opacity:1;color-rendering:auto;image-rendering:auto;shape-rendering:auto;text-rendering:auto"
       d="m 199.15913,324.75848 a 3.175,3.175 0 0 1 -3.175,3.175"
       id="path457" />
    <path
       style="font-style:normal;font-weight:normal;font-size:32px;font-family:'Cooper Black';color-interpolation:auto;fill:none;fill-opacity:1;stroke:#ff0000;stroke-width:0.264583;stroke-linecap:round;stroke-linejoin:miter;stroke-miterlimit:10;stroke-dasharray:none;stroke-dashoffset:0;stroke-opacity:1;color-rendering:auto;image-rendering:auto;shape-rendering:auto;text-rendering:auto"
       d="m 138.83413,327.93348 a 3.175,3.175 0 0 1 -3.175,-3.175"
       id="path459" />
    <g
       aria-label="31"
       id="text461"
       style="font-style:normal;font-weight:normal;font-size:32px;font-family:'Cooper Black';color-interpolation:auto;fill:#0000ff;fill-opacity:1;stroke:none;stroke-width:1;stroke-linecap:round;stroke-linejoin:miter;stroke-miterlimit:10;stroke-dasharray:none;stroke-dashoffset:0;stroke-opacity:1;color-rendering:auto;image-rendering:auto;shape-rendering:auto;text-rendering:optimizeLegibility"
       transform="matrix(0.26458333,0,0,0.26458333,5.4841341,7.2584816)" />
    <line
       y2="324.75848"
       style="font-style:normal;font-weight:normal;font-size:32px;font-family:'Cooper Black';color-interpolation:auto;fill:none;fill-opacity:1;stroke:#ff0000;stroke-width:0.264583;stroke-linecap:round;stroke-linejoin:miter;stroke-miterlimit:10;stroke-dasharray:none;stroke-dashoffset:0;stroke-opacity:1;color-rendering:auto;image-rendering:auto;shape-rendering:auto;text-rendering:auto"
       x1="262.65912"
       x2="262.65912"
       y1="267.60849"
       id="line463" />
    <line
       y2="327.93347"
       style="font-style:normal;font-weight:normal;font-size:32px;font-family:'Cooper Black';color-interpolation:auto;fill:none;fill-opacity:1;stroke:#ff0000;stroke-width:0.264583;stroke-linecap:round;stroke-linejoin:miter;stroke-miterlimit:10;stroke-dasharray:none;stroke-dashoffset:0;stroke-opacity:1;color-rendering:auto;image-rendering:auto;shape-rendering:auto;text-rendering:auto"
       x1="202.33414"
       x2="259.48413"
       y1="327.93347"
       id="line465" />
    <path
       style="font-style:normal;font-weight:normal;font-size:32px;font-family:'Cooper Black';color-interpolation:auto;fill:none;fill-opacity:1;stroke:#ff0000;stroke-width:0.264583;stroke-linecap:round;stroke-linejoin:miter;stroke-miterlimit:10;stroke-dasharray:none;stroke-dashoffset:0;stroke-opacity:1;color-rendering:auto;image-rendering:auto;shape-rendering:auto;text-rendering:auto"
       d="m 259.48413,264.43348 a 3.175,3.175 0 0 1 3.175,3.175"
       id="path467" />
    <path
       style="font-style:normal;font-weight:normal;font-size:32px;font-family:'Cooper Black';color-interpolation:auto;fill:none;fill-opacity:1;stroke:#ff0000;stroke-width:0.264583;stroke-linecap:round;stroke-linejoin:miter;stroke-miterlimit:10;stroke-dasharray:none;stroke-dashoffset:0;stroke-opacity:1;color-rendering:auto;image-rendering:auto;shape-rendering:auto;text-rendering:auto"
       d="m 199.15913,267.60848 a 3.175,3.175 0 0 1 3.175,-3.175"
       id="path469" />
    <path
       style="font-style:normal;font-weight:normal;font-size:32px;font-family:'Cooper Black';color-interpolation:auto;fill:none;fill-opacity:1;stroke:#ff0000;stroke-width:0.264583;stroke-linecap:round;stroke-linejoin:miter;stroke-miterlimit:10;stroke-dasharray:none;stroke-dashoffset:0;stroke-opacity:1;color-rendering:auto;image-rendering:auto;shape-rendering:auto;text-rendering:auto"
       d="m 262.65913,324.75848 a 3.175,3.175 0 0 1 -3.175,3.175"
       id="path471" />
    <path
       style="font-style:normal;font-weight:normal;font-size:32px;font-family:'Cooper Black';color-interpolation:auto;fill:none;fill-opacity:1;stroke:#ff0000;stroke-width:0.264583;stroke-linecap:round;stroke-linejoin:miter;stroke-miterlimit:10;stroke-dasharray:none;stroke-dashoffset:0;stroke-opacity:1;color-rendering:auto;image-rendering:auto;shape-rendering:auto;text-rendering:auto"
       d="m 202.33413,327.93348 a 3.175,3.175 0 0 1 -3.175,-3.175"
       id="path473" />
    <g
       aria-label="32"
       id="text475"
       style="font-style:normal;font-weight:normal;font-size:32px;font-family:'Cooper Black';color-interpolation:auto;fill:#0000ff;fill-opacity:1;stroke:none;stroke-width:1;stroke-linecap:round;stroke-linejoin:miter;stroke-miterlimit:10;stroke-dasharray:none;stroke-dashoffset:0;stroke-opacity:1;color-rendering:auto;image-rendering:auto;shape-rendering:auto;text-rendering:optimizeLegibility"
       transform="matrix(0.26458333,0,0,0.26458333,5.4841341,7.2584816)" />
    <line
       y2="324.75848"
       style="font-style:normal;font-weight:normal;font-size:32px;font-family:'Cooper Black';color-interpolation:auto;fill:none;fill-opacity:1;stroke:#ff0000;stroke-width:0.264583;stroke-linecap:round;stroke-linejoin:miter;stroke-miterlimit:10;stroke-dasharray:none;stroke-dashoffset:0;stroke-opacity:1;color-rendering:auto;image-rendering:auto;shape-rendering:auto;text-rendering:auto"
       x1="326.15912"
       x2="326.15912"
       y1="267.60849"
       id="line477" />
    <line
       y2="327.93347"
       style="font-style:normal;font-weight:normal;font-size:32px;font-family:'Cooper Black';color-interpolation:auto;fill:none;fill-opacity:1;stroke:#ff0000;stroke-width:0.264583;stroke-linecap:round;stroke-linejoin:miter;stroke-miterlimit:10;stroke-dasharray:none;stroke-dashoffset:0;stroke-opacity:1;color-rendering:auto;image-rendering:auto;shape-rendering:auto;text-rendering:auto"
       x1="265.83414"
       x2="322.98413"
       y1="327.93347"
       id="line479" />
    <path
       style="font-style:normal;font-weight:normal;font-size:32px;font-family:'Cooper Black';color-interpolation:auto;fill:none;fill-opacity:1;stroke:#ff0000;stroke-width:0.264583;stroke-linecap:round;stroke-linejoin:miter;stroke-miterlimit:10;stroke-dasharray:none;stroke-dashoffset:0;stroke-opacity:1;color-rendering:auto;image-rendering:auto;shape-rendering:auto;text-rendering:auto"
       d="m 322.98413,264.43348 a 3.175,3.175 0 0 1 3.175,3.175"
       id="path481" />
    <path
       style="font-style:normal;font-weight:normal;font-size:32px;font-family:'Cooper Black';color-interpolation:auto;fill:none;fill-opacity:1;stroke:#ff0000;stroke-width:0.264583;stroke-linecap:round;stroke-linejoin:miter;stroke-miterlimit:10;stroke-dasharray:none;stroke-dashoffset:0;stroke-opacity:1;color-rendering:auto;image-rendering:auto;shape-rendering:auto;text-rendering:auto"
       d="m 262.65913,267.60848 a 3.175,3.175 0 0 1 3.175,-3.175"
       id="path483" />
    <path
       style="font-style:normal;font-weight:normal;font-size:32px;font-family:'Cooper Black';color-interpolation:auto;fill:none;fill-opacity:1;stroke:#ff0000;stroke-width:0.264583;stroke-linecap:round;stroke-linejoin:miter;stroke-miterlimit:10;stroke-dasharray:none;stroke-dashoffset:0;stroke-opacity:1;color-rendering:auto;image-rendering:auto;shape-rendering:auto;text-rendering:auto"
       d="m 326.15913,324.75848 a 3.175,3.175 0 0 1 -3.175,3.175"
       id="path485" />
    <path
       style="font-style:normal;font-weight:normal;font-size:32px;font-family:'Cooper Black';color-interpolation:auto;fill:none;fill-opacity:1;stroke:#ff0000;stroke-width:0.264583;stroke-linecap:round;stroke-linejoin:miter;stroke-miterlimit:10;stroke-dasharray:none;stroke-dashoffset:0;stroke-opacity:1;color-rendering:auto;image-rendering:auto;shape-rendering:auto;text-rendering:auto"
       d="m 265.83413,327.93348 a 3.175,3.175 0 0 1 -3.175,-3.175"
       id="path487" />
    <g
       aria-label="33"
       id="text489"
       style="font-style:normal;font-weight:normal;font-size:32px;font-family:'Cooper Black';color-interpolation:auto;fill:#0000ff;fill-opacity:1;stroke:none;stroke-width:1;stroke-linecap:round;stroke-linejoin:miter;stroke-miterlimit:10;stroke-dasharray:none;stroke-dashoffset:0;stroke-opacity:1;color-rendering:auto;image-rendering:auto;shape-rendering:auto;text-rendering:optimizeLegibility"
       transform="matrix(0.26458333,0,0,0.26458333,5.4841341,7.2584816)" />
    <line
       y2="324.75848"
       style="font-style:normal;font-weight:normal;font-size:32px;font-family:'Cooper Black';color-interpolation:auto;fill:none;fill-opacity:1;stroke:#ff0000;stroke-width:0.264583;stroke-linecap:round;stroke-linejoin:miter;stroke-miterlimit:10;stroke-dasharray:none;stroke-dashoffset:0;stroke-opacity:1;color-rendering:auto;image-rendering:auto;shape-rendering:auto;text-rendering:auto"
       x1="389.65912"
       x2="389.65912"
       y1="267.60849"
       id="line491" />
    <line
       y2="327.93347"
       style="font-style:normal;font-weight:normal;font-size:32px;font-family:'Cooper Black';color-interpolation:auto;fill:none;fill-opacity:1;stroke:#ff0000;stroke-width:0.264583;stroke-linecap:round;stroke-linejoin:miter;stroke-miterlimit:10;stroke-dasharray:none;stroke-dashoffset:0;stroke-opacity:1;color-rendering:auto;image-rendering:auto;shape-rendering:auto;text-rendering:auto"
       x1="329.33414"
       x2="386.48413"
       y1="327.93347"
       id="line493" />
    <path
       style="font-style:normal;font-weight:normal;font-size:32px;font-family:'Cooper Black';color-interpolation:auto;fill:none;fill-opacity:1;stroke:#ff0000;stroke-width:0.264583;stroke-linecap:round;stroke-linejoin:miter;stroke-miterlimit:10;stroke-dasharray:none;stroke-dashoffset:0;stroke-opacity:1;color-rendering:auto;image-rendering:auto;shape-rendering:auto;text-rendering:auto"
       d="m 386.48413,264.43348 a 3.175,3.175 0 0 1 3.175,3.175"
       id="path495" />
    <path
       style="font-style:normal;font-weight:normal;font-size:32px;font-family:'Cooper Black';color-interpolation:auto;fill:none;fill-opacity:1;stroke:#ff0000;stroke-width:0.264583;stroke-linecap:round;stroke-linejoin:miter;stroke-miterlimit:10;stroke-dasharray:none;stroke-dashoffset:0;stroke-opacity:1;color-rendering:auto;image-rendering:auto;shape-rendering:auto;text-rendering:auto"
       d="m 326.15913,267.60848 a 3.175,3.175 0 0 1 3.175,-3.175"
       id="path497" />
    <path
       style="font-style:normal;font-weight:normal;font-size:32px;font-family:'Cooper Black';color-interpolation:auto;fill:none;fill-opacity:1;stroke:#ff0000;stroke-width:0.264583;stroke-linecap:round;stroke-linejoin:miter;stroke-miterlimit:10;stroke-dasharray:none;stroke-dashoffset:0;stroke-opacity:1;color-rendering:auto;image-rendering:auto;shape-rendering:auto;text-rendering:auto"
       d="m 389.65913,324.75848 a 3.175,3.175 0 0 1 -3.175,3.175"
       id="path499" />
    <path
       style="font-style:normal;font-weight:normal;font-size:32px;font-family:'Cooper Black';color-interpolation:auto;fill:none;fill-opacity:1;stroke:#ff0000;stroke-width:0.264583;stroke-linecap:round;stroke-linejoin:miter;stroke-miterlimit:10;stroke-dasharray:none;stroke-dashoffset:0;stroke-opacity:1;color-rendering:auto;image-rendering:auto;shape-rendering:auto;text-rendering:auto"
       d="m 329.33413,327.93348 a 3.175,3.175 0 0 1 -3.175,-3.175"
       id="path501" />
    <g
       aria-label="34"
       id="text503"
       style="font-style:normal;font-weight:normal;font-size:32px;font-family:'Cooper Black';color-interpolation:auto;fill:#0000ff;fill-opacity:1;stroke:none;stroke-width:1;stroke-linecap:round;stroke-linejoin:miter;stroke-miterlimit:10;stroke-dasharray:none;stroke-dashoffset:0;stroke-opacity:1;color-rendering:auto;image-rendering:auto;shape-rendering:auto;text-rendering:optimizeLegibility"
       transform="matrix(0.26458333,0,0,0.26458333,5.4841341,7.2584816)" />
    <line
       y2="324.75848"
       style="font-style:normal;font-weight:normal;font-size:32px;font-family:'Cooper Black';color-interpolation:auto;fill:none;fill-opacity:1;stroke:#ff0000;stroke-width:0.264583;stroke-linecap:round;stroke-linejoin:miter;stroke-miterlimit:10;stroke-dasharray:none;stroke-dashoffset:0;stroke-opacity:1;color-rendering:auto;image-rendering:auto;shape-rendering:auto;text-rendering:auto"
       x1="453.15912"
       x2="453.15912"
       y1="267.60849"
       id="line505" />
    <line
       y2="327.93347"
       style="font-style:normal;font-weight:normal;font-size:32px;font-family:'Cooper Black';color-interpolation:auto;fill:none;fill-opacity:1;stroke:#ff0000;stroke-width:0.264583;stroke-linecap:round;stroke-linejoin:miter;stroke-miterlimit:10;stroke-dasharray:none;stroke-dashoffset:0;stroke-opacity:1;color-rendering:auto;image-rendering:auto;shape-rendering:auto;text-rendering:auto"
       x1="392.83414"
       x2="449.98413"
       y1="327.93347"
       id="line507" />
    <path
       style="font-style:normal;font-weight:normal;font-size:32px;font-family:'Cooper Black';color-interpolation:auto;fill:none;fill-opacity:1;stroke:#ff0000;stroke-width:0.264583;stroke-linecap:round;stroke-linejoin:miter;stroke-miterlimit:10;stroke-dasharray:none;stroke-dashoffset:0;stroke-opacity:1;color-rendering:auto;image-rendering:auto;shape-rendering:auto;text-rendering:auto"
       d="m 449.98413,264.43348 a 3.175,3.175 0 0 1 3.175,3.175"
       id="path509" />
    <path
       style="font-style:normal;font-weight:normal;font-size:32px;font-family:'Cooper Black';color-interpolation:auto;fill:none;fill-opacity:1;stroke:#ff0000;stroke-width:0.264583;stroke-linecap:round;stroke-linejoin:miter;stroke-miterlimit:10;stroke-dasharray:none;stroke-dashoffset:0;stroke-opacity:1;color-rendering:auto;image-rendering:auto;shape-rendering:auto;text-rendering:auto"
       d="m 389.65913,267.60848 a 3.175,3.175 0 0 1 3.175,-3.175"
       id="path511" />
    <path
       style="font-style:normal;font-weight:normal;font-size:32px;font-family:'Cooper Black';color-interpolation:auto;fill:none;fill-opacity:1;stroke:#ff0000;stroke-width:0.264583;stroke-linecap:round;stroke-linejoin:miter;stroke-miterlimit:10;stroke-dasharray:none;stroke-dashoffset:0;stroke-opacity:1;color-rendering:auto;image-rendering:auto;shape-rendering:auto;text-rendering:auto"
       d="m 453.15913,324.75848 a 3.175,3.175 0 0 1 -3.175,3.175"
       id="path513" />
    <path
       style="font-style:normal;font-weight:normal;font-size:32px;font-family:'Cooper Black';color-interpolation:auto;fill:none;fill-opacity:1;stroke:#ff0000;stroke-width:0.264583;stroke-linecap:round;stroke-linejoin:miter;stroke-miterlimit:10;stroke-dasharray:none;stroke-dashoffset:0;stroke-opacity:1;color-rendering:auto;image-rendering:auto;shape-rendering:auto;text-rendering:auto"
       d="m 392.83413,327.93348 a 3.175,3.175 0 0 1 -3.175,-3.175"
       id="path515" />
  </g>
</svg>
