<?xml version="1.0" encoding="UTF-8" standalone="no"?>
<!-- Created with Inkscape (http://www.inkscape.org/) -->

<svg
   width="45.319199mm"
   height="45.220539mm"
   viewBox="0 0 45.319199 45.220539"
   version="1.1"
   id="svg1328"
   inkscape:version="1.1 (c68e22c387, 2021-05-23)"
   sodipodi:docname="wavy-vectorized-one-tile-perfected.svg"
   xmlns:inkscape="http://www.inkscape.org/namespaces/inkscape"
   xmlns:sodipodi="http://sodipodi.sourceforge.net/DTD/sodipodi-0.dtd"
   xmlns="http://www.w3.org/2000/svg"
   xmlns:svg="http://www.w3.org/2000/svg">
  <sodipodi:namedview
     id="namedview1330"
     pagecolor="#ffffff"
     bordercolor="#666666"
     borderopacity="1.0"
     inkscape:pageshadow="2"
     inkscape:pageopacity="0.0"
     inkscape:pagecheckerboard="0"
     inkscape:document-units="mm"
     showgrid="false"
     inkscape:zoom="2"
     inkscape:cx="199.25"
     inkscape:cy="155.25"
     inkscape:window-width="2560"
     inkscape:window-height="1377"
     inkscape:window-x="2552"
     inkscape:window-y="-8"
     inkscape:window-maximized="1"
     inkscape:current-layer="layer1" />
  <defs
     id="defs1325" />
  <g
     inkscape:label="Layer 1"
     inkscape:groupmode="layer"
     id="layer1"
     transform="translate(-18.845292,-18.214487)">
    <path
       id="path836"
       style="fill:#000000;stroke-width:0.264583"
       d="m 21.866292,18.214547 c 0.21248,0.526669 0.32195,1.110092 0.32195,1.754415 0,1.917658 -1.554,5.953837 -3.34295,9.164815 v 2.022616 c 0.30313,-0.491329 0.61842,-1.012402 0.96635,-1.601454 2.85069,-4.826321 4.34876,-8.717593 4.41213,-11.340392 z m 4.29948,0 c -0.5815,2.951094 -3.77275,9.397746 -7.32048,14.848706 v 1.801958 c 0.78192,-1.208506 1.68266,-2.66032 2.8143,-4.534091 3.25171,-5.384197 5.24879,-9.262814 6.13916,-12.116573 z m 3.16725,0 c -0.40735,1.032 -0.92245,2.152529 -1.56735,3.386355 -1.28395,2.4565 -5.76929,10.010794 -8.92038,15.128793 v 2.381769 c 1.15255,-2.181035 2.79399,-5.023118 5.11855,-8.911604 3.19948,-5.352034 5.33639,-9.140875 6.67608,-11.985313 z m 2.65824,0 c -1.61732,3.179953 -4.06662,7.352451 -7.57267,13.043647 -2.14238,3.477633 -4.67806,8.545404 -5.5733,11.055141 v 5.725747 c 0.006,0.0096 0.0114,0.02053 0.0176,0.02997 0.6812,1.03964 2.89079,1.92151 5.99498,2.392619 6.42907,0.975712 7.84163,1.465815 8.92039,3.095935 1.22263,1.847532 0.68856,4.856138 -1.787,9.877392 l 1.26197,2.8e-5 c 1.27568,-2.44312 2.47804,-4.758773 2.94452,-6.173254 0.65238,-1.978189 0.68741,-3.405619 0.11885,-4.826577 -0.72994,-1.82432 -2.67972,-2.686753 -7.49411,-3.315043 -6.79903,-0.887281 -8.75819,-2.274832 -8.41034,-5.955192 0.29651,-3.137209 1.9528,-6.565061 8.18296,-16.933852 2.07153,-3.447626 3.55135,-5.990484 4.65812,-8.016563 z m 2.44533,0 c -1.21648,2.14902 -2.67357,4.656606 -4.05815,6.95823 -4.94505,8.220281 -6.49801,11.126983 -7.34891,13.758333 -1.81443,5.611022 -0.2368,7.601241 6.80165,8.582941 5.22184,0.728318 6.32691,1.100164 7.53184,2.532144 0.88149,1.047591 1.31406,2.676022 1.17047,4.407482 -0.11352,1.368944 -1.63935,4.594273 -4.0969,8.981321 h 1.29242 c 1.36585,-2.138031 2.72167,-3.943268 3.37292,-4.792946 0.81347,-1.061349 1.38623,-2.125718 1.54565,-2.873208 0.69362,-3.252171 -1.68411,-8.328985 -4.28243,-9.144145 -0.44866,-0.140761 -2.12514,-0.445127 -3.72587,-0.675929 -4.67242,-0.673658 -6.33062,-1.285049 -7.39955,-2.729547 -0.70718,-0.955651 -0.85589,-3.518215 -0.31161,-5.378484 0.59099,-2.019919 3.31327,-7.269552 6.56911,-12.667962 2.043,-3.387426 3.27268,-5.408528 4.23178,-6.95823 z m 2.56521,0 c -1.13225,1.559306 -2.49469,3.72993 -4.43487,6.996473 -6.20874,10.453259 -7.48917,15.175272 -4.70824,17.362762 0.92376,0.72662 3.57534,1.576692 5.57434,1.786972 2.99583,0.31514 4.21862,0.804736 5.41982,2.169377 1.94789,2.21292 3.76282,6.610102 3.79822,9.202021 0.027,1.976731 -0.49181,3.012019 -2.04535,4.080888 -1.26048,0.867225 -2.45821,2.08673 -3.60392,3.621958 h 1.62316 c 0.69252,-0.565359 1.61901,-0.944822 2.51148,-1.294969 1.13406,-0.444928 2.21293,-1.094824 2.76624,-1.666562 0.88579,-0.915803 0.90686,-0.986738 0.89296,-3.103687 -0.0126,-1.91007 -0.13517,-2.448814 -1.03611,-4.548045 -1.76092,-4.103028 -3.94463,-7.703907 -5.42964,-8.953457 -0.83593,-0.70339 -1.46191,-0.909521 -4.49999,-1.48208 -2.46074,-0.463761 -4.20077,-1.476494 -4.79867,-2.792595 -0.26475,-0.582768 -0.48411,-1.493279 -0.48731,-2.02365 -0.0143,-2.37277 2.26733,-7.555661 6.12159,-13.905611 1.75201,-2.886448 2.84758,-4.456115 3.95945,-5.449795 z m 5.83376,0 c -0.43881,0.137838 -0.91055,0.26229 -1.42317,0.372071 -2.153,0.461078 -3.67403,1.891726 -5.82807,5.481836 -3.37077,5.618038 -4.92942,9.436976 -4.92942,12.077814 0,2.71813 0.94456,3.694112 4.562,4.71289 1.40115,0.394602 2.62397,0.92715 3.16105,1.376662 2.32424,1.945229 6.70139,9.678662 7.87445,13.911812 1.17287,4.232442 0.23863,6.056924 -3.41684,7.287366 h 5.16092 c 0.25041,-0.327107 0.72494,-0.704395 0.90176,-1.151308 1.06512,-2.692188 -1.9588,-9.794618 -8.09408,-19.010209 -1.78803,-2.685738 -2.30263,-3.164364 -4.80901,-4.474144 -2.5236,-1.318781 -3.22358,-2.251342 -3.22358,-4.292761 0,-2.953261 2.99123,-9.665698 5.41621,-12.154297 1.41071,-1.447721 1.5091,-1.487252 5.66425,-2.285132 2.007,-0.385379 3.3394,-0.959901 4.14445,-1.8526 z m 7.91889,0 c -0.68516,2.10529 -2.39031,3.040261 -6.67091,3.660757 -3.61886,0.524571 -4.762,0.979866 -5.87561,2.338877 -1.68222,2.052921 -3.58428,6.829393 -3.58428,9.000485 0,1.240329 0.97225,2.939179 2.14923,3.754808 1.69499,1.174631 2.99761,2.834327 5.89938,7.517886 6.59796,10.649331 8.91524,15.919744 8.08219,18.947638 h 2.38004 c -0.008,-0.867195 -0.12757,-1.77945 -0.38843,-2.587395 -0.59129,-1.831379 -3.07244,-6.788364 -5.07669,-10.142534 -3.39504,-5.6817 -8.35756,-13.763993 -9.3307,-15.197006 -1.35525,-1.996318 -1.69982,-3.319107 -1.35237,-5.198647 0.3264,-1.765641 1.37689,-3.937643 2.33216,-4.822962 1.0556,-0.9783 2.0574,-1.300078 5.51232,-1.771468 6.62057,-0.903311 8.31371,-1.980747 8.31371,-5.290116 0,-0.06452 -0.006,-0.138621 -0.01,-0.210323 z m 4.11551,0 c 0.0717,0.329544 0.12697,0.634 0.14263,0.872813 0.14973,2.283992 0.0232,2.698488 -1.17305,3.844727 -1.26457,1.21167 -2.71509,1.681977 -6.91276,2.241208 -2.7653,0.368409 -4.59223,0.777788 -5.48287,1.22835 -1.66657,0.843079 -2.58692,2.5322 -2.58692,4.746479 0,2.645191 1.36202,5.461376 7.92406,16.381945 4.83834,8.05199 7.36404,12.769273 8.08891,15.904929 h 1.7601 c -0.0578,-0.167785 -0.10387,-0.335973 -0.16898,-0.508968 -1.20588,-3.203742 -2.77247,-6.052751 -8.57519,-15.595431 -5.13545,-8.445349 -6.75567,-12.100454 -6.77168,-15.278655 -0.0164,-3.273518 1.39589,-4.23299 7.62279,-5.17746 2.20575,-0.33456 4.44122,-0.736171 4.96766,-0.892968 1.6262,-0.484331 2.69421,-1.385981 3.26027,-2.751773 0.50417,-1.21652 0.50818,-1.352487 0.10386,-3.307808 -0.11759,-0.568695 -0.26134,-1.129725 -0.43873,-1.707388 z m 3.1626,0 c 0.89196,2.121136 1.20027,3.58634 1.18597,4.963004 -0.0309,2.983201 -2.02022,4.255104 -7.89409,5.046203 -5.14846,0.693412 -7.04233,1.514065 -8.06772,3.496945 -0.83307,1.611 -0.39395,3.96345 1.495,8.010879 1.22682,2.628712 2.9412,5.636546 7.83983,13.751615 2.56451,4.248367 4.3922,7.458065 5.44101,9.951805 h 1.54409 c -1.06172,-2.085699 -1.98623,-3.664855 -4.04006,-7.17368 -0.25553,-0.436559 -1.8068,-2.996411 -3.44682,-5.688541 -3.34434,-5.48984 -5.83042,-10.268119 -6.4611,-12.41733 -0.23194,-0.790397 -0.42168,-2.112613 -0.42168,-2.937803 0,-3.152011 1.8699,-4.414338 7.8052,-5.269447 4.53775,-0.65377 5.44709,-0.902629 6.48333,-1.774569 1.0017,-0.84288 1.53422,-1.843407 1.83348,-3.445266 0.28921,-1.548086 -0.0572,-3.17853 -1.75235,-6.513815 z m 3.16363,0 c 0.0789,0.112528 0.16756,0.242973 0.23668,0.337963 1.81435,2.494032 2.18632,3.637013 1.82056,5.603793 -0.43564,2.342539 -1.81538,4.94228 -3.09749,5.83582 -0.8814,0.61428 -1.7439,0.84986 -5.15937,1.4087 -6.65516,1.08894 -8.08731,2.123125 -7.86205,5.678204 0.19796,3.124181 2.00989,6.92721 8.25634,17.330208 2.87417,4.786715 4.51755,7.220358 5.80533,9.025763 l 2.9683,-9.9e-4 v -0.0026 c -0.18282,-0.169003 -0.37682,-0.332243 -0.59532,-0.483735 -0.68668,-0.47611 -1.59249,-1.149504 -2.01331,-1.496034 -1.5926,-1.311479 -8.65698,-12.890021 -10.71614,-17.564301 -0.62615,-1.421371 -1.27797,-3.398089 -1.44849,-4.392498 -0.29317,-1.709629 -0.27465,-1.878492 0.33279,-3.104203 0.85614,-1.727489 2.54551,-2.585323 6.19859,-3.147095 4.81639,-0.740679 5.74419,-1.419603 7.78402,-5.697844 0.1653,-0.346676 0.31504,-0.705275 0.45786,-1.037618 v -8.293593 z m -42.3509,0.0036 v 8.289933 c 0.73955,-1.749158 1.22628,-3.579722 1.22628,-5.056539 0,-1.566688 -0.27036,-2.379689 -1.22628,-3.233394 z m 45.3192,10.91563 c -2.36973,4.21599 -3.4198,5.010221 -6.53655,5.555199 -3.68794,0.64485 -5.51595,1.629526 -6.23942,3.361036 -0.53356,1.276991 -0.44752,2.263751 0.42375,4.864301 0.99214,2.961341 2.37452,5.729825 5.26324,10.539926 3.028,5.04204 4.099624,6.165421 6.819524,7.41608 0.0972,0.04471 0.172196,0.07813 0.269456,0.125568 v -2.252056 c -1.7438,-0.478248 -2.59798,-0.990322 -3.29541,-1.786448 -1.66805,-1.904108 -4.76056,-7.204736 -6.27197,-10.750248 -1.69707,-3.981029 -1.5281,-7.114064 0.44959,-8.334375 0.4817,-0.297228 1.88795,-0.84899 3.12487,-1.22628 1.92384,-0.586812 2.42722,-0.869141 3.48351,-1.954919 0.66517,-0.683747 1.56183,-2.016698 2.50941,-3.535168 z m 0,3.925326 c -1.17814,1.888175 -2.19104,3.341134 -2.7156,3.793048 -0.22922,0.19748 -1.44024,0.894937 -2.69131,1.549776 -2.95827,1.54845 -3.37321,2.118341 -3.33571,4.58525 0.0216,1.41851 0.23538,2.451304 0.84749,4.095874 1.13033,3.03684 3.09193,6.545088 4.5036,8.05429 0.94458,1.009822 1.38463,1.364707 3.39153,1.873779 v -1.999361 c -1.27743,-0.285859 -1.89994,-0.622136 -2.56264,-1.179767 -1.52672,-1.284649 -3.80957,-6.052899 -3.9703,-8.291999 -0.19592,-2.72924 -0.14301,-2.852597 2.22002,-5.152657 1.43157,-1.393417 2.72178,-3.120399 4.31292,-5.522125 z m 0,3.670592 c -0.83988,1.343501 -1.61206,2.586232 -2.16731,3.392023 -2.42749,3.522761 -2.58199,3.912719 -2.4505,6.18412 0.18903,3.26531 1.778827,5.939164 3.999097,6.747463 0.14509,0.05282 0.357543,0.09057 0.618713,0.155984 v -2.315623 c -1.55773,-0.803828 -2.26999,-2.137611 -2.47117,-4.121187 -0.16703,-1.646756 0.39212,-3.719026 2.47117,-7.661011 z m 0,5.58364 c -0.87014,2.478138 -0.839139,3.944431 -0.166769,5.333366 0.051,0.105281 0.114849,0.299925 0.166769,0.392381 z m -45.3192,8.580327 v 2.315623 c 0.91145,0.223933 2.40321,0.488627 5.15731,0.937927 3.43346,0.560139 4.91977,1.243756 5.7366,2.637565 0.7596,1.29617 0.81901,2.455254 0.24029,4.688602 -0.13169,0.508235 -0.33532,1.18739 -0.64647,1.961619 h 1.3069 c 0.48682,-1.051578 1.0729,-2.00037 1.31775,-2.733666 0.71395,-2.138238 0.72237,-4.41706 0.0212,-5.5671 -0.99969,-1.639631 -2.47084,-2.237505 -7.01249,-2.849957 -3.06283,-0.413028 -4.95077,-0.839496 -6.12108,-1.390613 z m 0,4.118097 v 1.999361 c 0.62004,0.128156 1.16264,0.242332 2.13165,0.433565 3.84729,0.759259 5.16811,1.952262 5.17591,4.675685 0.001,0.405444 0.09061,0.844308 0.01292,1.314628 h 1.63298 c 1.49512,-5.151093 -0.08022,-7.074171 -6.40426,-7.978821 -0.90732,-0.129791 -1.81625,-0.291849 -2.5492,-0.444418 z m 0,3.732072 v 2.252059 c 1.64978,0.827278 2.59815,1.502497 3.021,2.439108 h 2.35748 c 0.0241,-2.332638 -1.0339,-3.47956 -3.88762,-4.26587 -0.59498,-0.163944 -1.06717,-0.298916 -1.49086,-0.425297 z"
       sodipodi:nodetypes="csccccccccsccccccscccscccssccscssscccsssssccccscssscccccssssccsccsssscscccscsscscccssssscccssscsccsscsssscccccscsscccscsccsccccccssccscsssssccccsscsscccscsscsscccccsccsssssccssssscccscccsccsssccccssccsccccccccsssccccsscccscccscccccsc" />
  </g>
</svg>
