solid OpenSCAD_Model
  facet normal 0 0 -1
    outer loop
      vertex 18.5 8 0
      vertex 21 0 0
      vertex 20.5 0 0
    endloop
  endfacet
  facet normal 0 0 -1
    outer loop
      vertex 18.5 8 0
      vertex 18.5 10 0
      vertex 21 0 0
    endloop
  endfacet
  facet normal 0 0 -1
    outer loop
      vertex 16.5 2 0
      vertex 18.5 8 0
      vertex 16.5 0 0
    endloop
  endfacet
  facet normal -0 0 -1
    outer loop
      vertex 18.5 8 0
      vertex 16.5 2 0
      vertex 18.5 10 0
    endloop
  endfacet
  facet normal 0 0 -1
    outer loop
      vertex 14.5 8 0
      vertex 16.5 2 0
      vertex 16.5 0 0
    endloop
  endfacet
  facet normal 0 0 -1
    outer loop
      vertex 14.5 8 0
      vertex 14.5 10 0
      vertex 16.5 2 0
    endloop
  endfacet
  facet normal 0 0 -1
    outer loop
      vertex 12.5 2 0
      vertex 14.5 8 0
      vertex 12.5 0 0
    endloop
  endfacet
  facet normal -0 0 -1
    outer loop
      vertex 14.5 8 0
      vertex 12.5 2 0
      vertex 14.5 10 0
    endloop
  endfacet
  facet normal 0 0 -1
    outer loop
      vertex 10.5 8 0
      vertex 12.5 2 0
      vertex 12.5 0 0
    endloop
  endfacet
  facet normal 0 0 -1
    outer loop
      vertex 10.5 8 0
      vertex 10.5 10 0
      vertex 12.5 2 0
    endloop
  endfacet
  facet normal 0 0 -1
    outer loop
      vertex 8.5 2 0
      vertex 10.5 8 0
      vertex 8.5 0 0
    endloop
  endfacet
  facet normal -0 0 -1
    outer loop
      vertex 10.5 8 0
      vertex 8.5 2 0
      vertex 10.5 10 0
    endloop
  endfacet
  facet normal 0 0 -1
    outer loop
      vertex 6.5 8 0
      vertex 8.5 2 0
      vertex 8.5 0 0
    endloop
  endfacet
  facet normal 0 0 -1
    outer loop
      vertex 6.5 8 0
      vertex 6.5 10 0
      vertex 8.5 2 0
    endloop
  endfacet
  facet normal 0 0 -1
    outer loop
      vertex 4.5 2 0
      vertex 6.5 8 0
      vertex 4.5 0 0
    endloop
  endfacet
  facet normal -0 0 -1
    outer loop
      vertex 6.5 8 0
      vertex 4.5 2 0
      vertex 6.5 10 0
    endloop
  endfacet
  facet normal 0 0 -1
    outer loop
      vertex 2.5 8 0
      vertex 4.5 2 0
      vertex 4.5 0 0
    endloop
  endfacet
  facet normal 0 0 -1
    outer loop
      vertex 2.5 8 0
      vertex 2.5 10 0
      vertex 4.5 2 0
    endloop
  endfacet
  facet normal 0 0 -1
    outer loop
      vertex 0 0 0
      vertex 2.5 8 0
      vertex 0.5 0 0
    endloop
  endfacet
  facet normal -0 0 -1
    outer loop
      vertex 2.5 8 0
      vertex 0 0 0
      vertex 2.5 10 0
    endloop
  endfacet
  facet normal 0 -1 0
    outer loop
      vertex 20.5 0 0
      vertex 21 0 50
      vertex 20.5 0 50
    endloop
  endfacet
  facet normal 0 -1 -0
    outer loop
      vertex 21 0 50
      vertex 20.5 0 0
      vertex 21 0 0
    endloop
  endfacet
  facet normal 0 -1 0
    outer loop
      vertex 0 0 0
      vertex 0.5 0 50
      vertex 0 0 50
    endloop
  endfacet
  facet normal 0 -1 -0
    outer loop
      vertex 0.5 0 50
      vertex 0 0 0
      vertex 0.5 0 0
    endloop
  endfacet
  facet normal 0.970143 0.242536 0
    outer loop
      vertex 4.5 2 50
      vertex 2.5 10 0
      vertex 2.5 10 50
    endloop
  endfacet
  facet normal 0.970143 0.242536 0
    outer loop
      vertex 2.5 10 0
      vertex 4.5 2 50
      vertex 4.5 2 0
    endloop
  endfacet
  facet normal -0 0 1
    outer loop
      vertex 18.5 8 50
      vertex 21 0 50
      vertex 18.5 10 50
    endloop
  endfacet
  facet normal 0 0 1
    outer loop
      vertex 21 0 50
      vertex 18.5 8 50
      vertex 20.5 0 50
    endloop
  endfacet
  facet normal 0 0 1
    outer loop
      vertex 16.5 2 50
      vertex 18.5 8 50
      vertex 18.5 10 50
    endloop
  endfacet
  facet normal -0 0 1
    outer loop
      vertex 16.5 2 50
      vertex 16.5 0 50
      vertex 18.5 8 50
    endloop
  endfacet
  facet normal -0 0 1
    outer loop
      vertex 14.5 8 50
      vertex 16.5 2 50
      vertex 14.5 10 50
    endloop
  endfacet
  facet normal 0 0 1
    outer loop
      vertex 16.5 2 50
      vertex 14.5 8 50
      vertex 16.5 0 50
    endloop
  endfacet
  facet normal 0 0 1
    outer loop
      vertex 12.5 2 50
      vertex 14.5 8 50
      vertex 14.5 10 50
    endloop
  endfacet
  facet normal -0 0 1
    outer loop
      vertex 12.5 2 50
      vertex 12.5 0 50
      vertex 14.5 8 50
    endloop
  endfacet
  facet normal -0 0 1
    outer loop
      vertex 10.5 8 50
      vertex 12.5 2 50
      vertex 10.5 10 50
    endloop
  endfacet
  facet normal 0 0 1
    outer loop
      vertex 12.5 2 50
      vertex 10.5 8 50
      vertex 12.5 0 50
    endloop
  endfacet
  facet normal 0 0 1
    outer loop
      vertex 8.5 2 50
      vertex 10.5 8 50
      vertex 10.5 10 50
    endloop
  endfacet
  facet normal -0 0 1
    outer loop
      vertex 8.5 2 50
      vertex 8.5 0 50
      vertex 10.5 8 50
    endloop
  endfacet
  facet normal -0 0 1
    outer loop
      vertex 6.5 8 50
      vertex 8.5 2 50
      vertex 6.5 10 50
    endloop
  endfacet
  facet normal 0 0 1
    outer loop
      vertex 8.5 2 50
      vertex 6.5 8 50
      vertex 8.5 0 50
    endloop
  endfacet
  facet normal 0 0 1
    outer loop
      vertex 4.5 2 50
      vertex 6.5 8 50
      vertex 6.5 10 50
    endloop
  endfacet
  facet normal -0 0 1
    outer loop
      vertex 4.5 2 50
      vertex 4.5 0 50
      vertex 6.5 8 50
    endloop
  endfacet
  facet normal -0 0 1
    outer loop
      vertex 2.5 8 50
      vertex 4.5 2 50
      vertex 2.5 10 50
    endloop
  endfacet
  facet normal 0 0 1
    outer loop
      vertex 4.5 2 50
      vertex 2.5 8 50
      vertex 4.5 0 50
    endloop
  endfacet
  facet normal 0 0 1
    outer loop
      vertex 0 0 50
      vertex 2.5 8 50
      vertex 2.5 10 50
    endloop
  endfacet
  facet normal 0 0 1
    outer loop
      vertex 2.5 8 50
      vertex 0 0 50
      vertex 0.5 0 50
    endloop
  endfacet
  facet normal -0.970143 0.242536 0
    outer loop
      vertex 0 0 0
      vertex 2.5 10 50
      vertex 2.5 10 0
    endloop
  endfacet
  facet normal -0.970143 0.242536 0
    outer loop
      vertex 2.5 10 50
      vertex 0 0 0
      vertex 0 0 50
    endloop
  endfacet
  facet normal 0.970143 0.242536 0
    outer loop
      vertex 8.5 2 50
      vertex 6.5 10 0
      vertex 6.5 10 50
    endloop
  endfacet
  facet normal 0.970143 0.242536 0
    outer loop
      vertex 6.5 10 0
      vertex 8.5 2 50
      vertex 8.5 2 0
    endloop
  endfacet
  facet normal -0.970143 0.242536 0
    outer loop
      vertex 4.5 2 0
      vertex 6.5 10 50
      vertex 6.5 10 0
    endloop
  endfacet
  facet normal -0.970143 0.242536 0
    outer loop
      vertex 6.5 10 50
      vertex 4.5 2 0
      vertex 4.5 2 50
    endloop
  endfacet
  facet normal 0.970143 0.242536 0
    outer loop
      vertex 12.5 2 50
      vertex 10.5 10 0
      vertex 10.5 10 50
    endloop
  endfacet
  facet normal 0.970143 0.242536 0
    outer loop
      vertex 10.5 10 0
      vertex 12.5 2 50
      vertex 12.5 2 0
    endloop
  endfacet
  facet normal -0.970143 0.242536 0
    outer loop
      vertex 8.5 2 0
      vertex 10.5 10 50
      vertex 10.5 10 0
    endloop
  endfacet
  facet normal -0.970143 0.242536 0
    outer loop
      vertex 10.5 10 50
      vertex 8.5 2 0
      vertex 8.5 2 50
    endloop
  endfacet
  facet normal 0.970143 0.242536 0
    outer loop
      vertex 16.5 2 50
      vertex 14.5 10 0
      vertex 14.5 10 50
    endloop
  endfacet
  facet normal 0.970143 0.242536 0
    outer loop
      vertex 14.5 10 0
      vertex 16.5 2 50
      vertex 16.5 2 0
    endloop
  endfacet
  facet normal -0.970143 0.242536 0
    outer loop
      vertex 12.5 2 0
      vertex 14.5 10 50
      vertex 14.5 10 0
    endloop
  endfacet
  facet normal -0.970143 0.242536 0
    outer loop
      vertex 14.5 10 50
      vertex 12.5 2 0
      vertex 12.5 2 50
    endloop
  endfacet
  facet normal 0.970143 0.242536 0
    outer loop
      vertex 21 0 50
      vertex 18.5 10 0
      vertex 18.5 10 50
    endloop
  endfacet
  facet normal 0.970143 0.242536 0
    outer loop
      vertex 18.5 10 0
      vertex 21 0 50
      vertex 21 0 0
    endloop
  endfacet
  facet normal -0.970143 0.242536 0
    outer loop
      vertex 16.5 2 0
      vertex 18.5 10 50
      vertex 18.5 10 0
    endloop
  endfacet
  facet normal -0.970143 0.242536 0
    outer loop
      vertex 18.5 10 50
      vertex 16.5 2 0
      vertex 16.5 2 50
    endloop
  endfacet
  facet normal -0.970143 -0.242536 0
    outer loop
      vertex 4.5 0 0
      vertex 2.5 8 50
      vertex 2.5 8 0
    endloop
  endfacet
  facet normal -0.970143 -0.242536 0
    outer loop
      vertex 2.5 8 50
      vertex 4.5 0 0
      vertex 4.5 0 50
    endloop
  endfacet
  facet normal 0.970143 -0.242536 0
    outer loop
      vertex 0.5 0 50
      vertex 2.5 8 0
      vertex 2.5 8 50
    endloop
  endfacet
  facet normal 0.970143 -0.242536 0
    outer loop
      vertex 2.5 8 0
      vertex 0.5 0 50
      vertex 0.5 0 0
    endloop
  endfacet
  facet normal -0.970143 -0.242536 0
    outer loop
      vertex 8.5 0 0
      vertex 6.5 8 50
      vertex 6.5 8 0
    endloop
  endfacet
  facet normal -0.970143 -0.242536 0
    outer loop
      vertex 6.5 8 50
      vertex 8.5 0 0
      vertex 8.5 0 50
    endloop
  endfacet
  facet normal 0.970143 -0.242536 0
    outer loop
      vertex 4.5 0 50
      vertex 6.5 8 0
      vertex 6.5 8 50
    endloop
  endfacet
  facet normal 0.970143 -0.242536 0
    outer loop
      vertex 6.5 8 0
      vertex 4.5 0 50
      vertex 4.5 0 0
    endloop
  endfacet
  facet normal -0.970143 -0.242536 0
    outer loop
      vertex 12.5 0 0
      vertex 10.5 8 50
      vertex 10.5 8 0
    endloop
  endfacet
  facet normal -0.970143 -0.242536 0
    outer loop
      vertex 10.5 8 50
      vertex 12.5 0 0
      vertex 12.5 0 50
    endloop
  endfacet
  facet normal 0.970143 -0.242536 0
    outer loop
      vertex 8.5 0 50
      vertex 10.5 8 0
      vertex 10.5 8 50
    endloop
  endfacet
  facet normal 0.970143 -0.242536 0
    outer loop
      vertex 10.5 8 0
      vertex 8.5 0 50
      vertex 8.5 0 0
    endloop
  endfacet
  facet normal -0.970143 -0.242536 0
    outer loop
      vertex 16.5 0 0
      vertex 14.5 8 50
      vertex 14.5 8 0
    endloop
  endfacet
  facet normal -0.970143 -0.242536 0
    outer loop
      vertex 14.5 8 50
      vertex 16.5 0 0
      vertex 16.5 0 50
    endloop
  endfacet
  facet normal 0.970143 -0.242536 0
    outer loop
      vertex 12.5 0 50
      vertex 14.5 8 0
      vertex 14.5 8 50
    endloop
  endfacet
  facet normal 0.970143 -0.242536 0
    outer loop
      vertex 14.5 8 0
      vertex 12.5 0 50
      vertex 12.5 0 0
    endloop
  endfacet
  facet normal -0.970143 -0.242536 0
    outer loop
      vertex 20.5 0 0
      vertex 18.5 8 50
      vertex 18.5 8 0
    endloop
  endfacet
  facet normal -0.970143 -0.242536 0
    outer loop
      vertex 18.5 8 50
      vertex 20.5 0 0
      vertex 20.5 0 50
    endloop
  endfacet
  facet normal 0.970143 -0.242536 0
    outer loop
      vertex 16.5 0 50
      vertex 18.5 8 0
      vertex 18.5 8 50
    endloop
  endfacet
  facet normal 0.970143 -0.242536 0
    outer loop
      vertex 18.5 8 0
      vertex 16.5 0 50
      vertex 16.5 0 0
    endloop
  endfacet
endsolid OpenSCAD_Model
