<?xml version="1.0" encoding="UTF-8" standalone="no"?>
<!-- Created with Inkscape (http://www.inkscape.org/) -->

<svg
   width="2.5104167in"
   height="2.5104167in"
   viewBox="0 0 63.764587 63.764587"
   version="1.1"
   id="svg5"
   inkscape:version="1.1.1 (3bf5ae0d25, 2021-09-20)"
   sodipodi:docname="TILE32-v2-all-paths-overlapping.svg"
   inkscape:export-filename="C:\Users\josep\github\funstuff\Processing\15puzzle\media\composite-7x5-v3.png"
   inkscape:export-xdpi="300"
   inkscape:export-ydpi="300"
   xmlns:inkscape="http://www.inkscape.org/namespaces/inkscape"
   xmlns:sodipodi="http://sodipodi.sourceforge.net/DTD/sodipodi-0.dtd"
   xmlns="http://www.w3.org/2000/svg"
   xmlns:svg="http://www.w3.org/2000/svg">
  <sodipodi:namedview
     id="namedview7"
     pagecolor="#ffffff"
     bordercolor="#666666"
     borderopacity="1.0"
     inkscape:pageshadow="2"
     inkscape:pageopacity="0.0"
     inkscape:pagecheckerboard="0"
     inkscape:document-units="in"
     showgrid="false"
     units="in"
     inkscape:zoom="1.7032177"
     inkscape:cx="269.19636"
     inkscape:cy="209.89683"
     inkscape:window-width="2560"
     inkscape:window-height="1369"
     inkscape:window-x="2552"
     inkscape:window-y="-14"
     inkscape:window-maximized="1"
     inkscape:current-layer="g18199" />
  <defs
     id="defs2" />
  <g
     inkscape:label="Layer 1"
     inkscape:groupmode="layer"
     id="layer1"
     transform="translate(-135.52684,-10.30119)"
     sodipodi:insensitive="true">
    <g
       style="font-style:normal;font-weight:normal;font-size:32px;font-family:'Cooper Black';color-interpolation:auto;fill:#ff0000;fill-opacity:1;stroke:#ff0000;stroke-width:1;stroke-linecap:round;stroke-linejoin:miter;stroke-miterlimit:10;stroke-dasharray:none;stroke-dashoffset:0;stroke-opacity:1;color-rendering:auto;image-rendering:auto;shape-rendering:auto;text-rendering:auto"
       id="g5"
       transform="matrix(0.26458333,0,0,0.26458333,5.4841341,7.2584816)" />
    <g
       aria-label="2"
       id="text37"
       style="font-style:normal;font-weight:normal;font-size:32px;font-family:'Cooper Black';color-interpolation:auto;fill:#0000ff;fill-opacity:1;stroke:none;stroke-width:1;stroke-linecap:round;stroke-linejoin:miter;stroke-miterlimit:10;stroke-dasharray:none;stroke-dashoffset:0;stroke-opacity:1;color-rendering:auto;image-rendering:auto;shape-rendering:auto;text-rendering:optimizeLegibility"
       transform="matrix(0.26458333,0,0,0.26458333,5.4841341,7.2584816)" />
    <g
       aria-label="3"
       id="text53"
       style="font-style:normal;font-weight:normal;font-size:32px;font-family:'Cooper Black';color-interpolation:auto;fill:#0000ff;fill-opacity:1;stroke:none;stroke-width:1;stroke-linecap:round;stroke-linejoin:miter;stroke-miterlimit:10;stroke-dasharray:none;stroke-dashoffset:0;stroke-opacity:1;color-rendering:auto;image-rendering:auto;shape-rendering:auto;text-rendering:optimizeLegibility"
       transform="matrix(0.26458333,0,0,0.26458333,5.4841341,7.2584816)" />
    <g
       aria-label="4"
       id="text69"
       style="font-style:normal;font-weight:normal;font-size:32px;font-family:'Cooper Black';color-interpolation:auto;fill:#0000ff;fill-opacity:1;stroke:none;stroke-width:1;stroke-linecap:round;stroke-linejoin:miter;stroke-miterlimit:10;stroke-dasharray:none;stroke-dashoffset:0;stroke-opacity:1;color-rendering:auto;image-rendering:auto;shape-rendering:auto;text-rendering:optimizeLegibility"
       transform="matrix(0.26458333,0,0,0.26458333,5.4841341,7.2584816)" />
    <g
       aria-label="5"
       id="text85"
       style="font-style:normal;font-weight:normal;font-size:32px;font-family:'Cooper Black';color-interpolation:auto;fill:#0000ff;fill-opacity:1;stroke:none;stroke-width:1;stroke-linecap:round;stroke-linejoin:miter;stroke-miterlimit:10;stroke-dasharray:none;stroke-dashoffset:0;stroke-opacity:1;color-rendering:auto;image-rendering:auto;shape-rendering:auto;text-rendering:optimizeLegibility"
       transform="matrix(0.26458333,0,0,0.26458333,5.4841341,7.2584816)" />
    <g
       aria-label="6"
       id="text101"
       style="font-style:normal;font-weight:normal;font-size:32px;font-family:'Cooper Black';color-interpolation:auto;fill:#0000ff;fill-opacity:1;stroke:none;stroke-width:1;stroke-linecap:round;stroke-linejoin:miter;stroke-miterlimit:10;stroke-dasharray:none;stroke-dashoffset:0;stroke-opacity:1;color-rendering:auto;image-rendering:auto;shape-rendering:auto;text-rendering:optimizeLegibility"
       transform="matrix(0.26458333,0,0,0.26458333,5.4841341,7.2584816)" />
    <g
       aria-label="7"
       id="text117"
       style="font-style:normal;font-weight:normal;font-size:32px;font-family:'Cooper Black';color-interpolation:auto;fill:#0000ff;fill-opacity:1;stroke:none;stroke-width:1;stroke-linecap:round;stroke-linejoin:miter;stroke-miterlimit:10;stroke-dasharray:none;stroke-dashoffset:0;stroke-opacity:1;color-rendering:auto;image-rendering:auto;shape-rendering:auto;text-rendering:optimizeLegibility"
       transform="matrix(0.26458333,0,0,0.26458333,5.4841341,7.2584816)" />
    <g
       aria-label="8"
       id="text133"
       style="font-style:normal;font-weight:normal;font-size:32px;font-family:'Cooper Black';color-interpolation:auto;fill:#0000ff;fill-opacity:1;stroke:none;stroke-width:1;stroke-linecap:round;stroke-linejoin:miter;stroke-miterlimit:10;stroke-dasharray:none;stroke-dashoffset:0;stroke-opacity:1;color-rendering:auto;image-rendering:auto;shape-rendering:auto;text-rendering:optimizeLegibility"
       transform="matrix(0.26458333,0,0,0.26458333,5.4841341,7.2584816)" />
    <g
       aria-label="9"
       id="text147"
       style="font-style:normal;font-weight:normal;font-size:32px;font-family:'Cooper Black';color-interpolation:auto;fill:#0000ff;fill-opacity:1;stroke:none;stroke-width:1;stroke-linecap:round;stroke-linejoin:miter;stroke-miterlimit:10;stroke-dasharray:none;stroke-dashoffset:0;stroke-opacity:1;color-rendering:auto;image-rendering:auto;shape-rendering:auto;text-rendering:optimizeLegibility"
       transform="matrix(0.26458333,0,0,0.26458333,5.4841341,7.2584816)" />
    <g
       aria-label="10"
       id="text161"
       style="font-style:normal;font-weight:normal;font-size:32px;font-family:'Cooper Black';color-interpolation:auto;fill:#0000ff;fill-opacity:1;stroke:none;stroke-width:1;stroke-linecap:round;stroke-linejoin:miter;stroke-miterlimit:10;stroke-dasharray:none;stroke-dashoffset:0;stroke-opacity:1;color-rendering:auto;image-rendering:auto;shape-rendering:auto;text-rendering:optimizeLegibility"
       transform="matrix(0.26458333,0,0,0.26458333,5.4841341,7.2584816)" />
    <g
       aria-label="11"
       id="text175"
       style="font-style:normal;font-weight:normal;font-size:32px;font-family:'Cooper Black';color-interpolation:auto;fill:#0000ff;fill-opacity:1;stroke:none;stroke-width:1;stroke-linecap:round;stroke-linejoin:miter;stroke-miterlimit:10;stroke-dasharray:none;stroke-dashoffset:0;stroke-opacity:1;color-rendering:auto;image-rendering:auto;shape-rendering:auto;text-rendering:optimizeLegibility"
       transform="matrix(0.26458333,0,0,0.26458333,5.4841341,7.2584816)" />
    <g
       aria-label="12"
       id="text189"
       style="font-style:normal;font-weight:normal;font-size:32px;font-family:'Cooper Black';color-interpolation:auto;fill:#0000ff;fill-opacity:1;stroke:none;stroke-width:1;stroke-linecap:round;stroke-linejoin:miter;stroke-miterlimit:10;stroke-dasharray:none;stroke-dashoffset:0;stroke-opacity:1;color-rendering:auto;image-rendering:auto;shape-rendering:auto;text-rendering:optimizeLegibility"
       transform="matrix(0.26458333,0,0,0.26458333,5.4841341,7.2584816)" />
    <g
       aria-label="13"
       id="text203"
       style="font-style:normal;font-weight:normal;font-size:32px;font-family:'Cooper Black';color-interpolation:auto;fill:#0000ff;fill-opacity:1;stroke:none;stroke-width:1;stroke-linecap:round;stroke-linejoin:miter;stroke-miterlimit:10;stroke-dasharray:none;stroke-dashoffset:0;stroke-opacity:1;color-rendering:auto;image-rendering:auto;shape-rendering:auto;text-rendering:optimizeLegibility"
       transform="matrix(0.26458333,0,0,0.26458333,5.4841341,7.2584816)" />
    <g
       aria-label="14"
       id="text217"
       style="font-style:normal;font-weight:normal;font-size:32px;font-family:'Cooper Black';color-interpolation:auto;fill:#0000ff;fill-opacity:1;stroke:none;stroke-width:1;stroke-linecap:round;stroke-linejoin:miter;stroke-miterlimit:10;stroke-dasharray:none;stroke-dashoffset:0;stroke-opacity:1;color-rendering:auto;image-rendering:auto;shape-rendering:auto;text-rendering:optimizeLegibility"
       transform="matrix(0.26458333,0,0,0.26458333,5.4841341,7.2584816)" />
    <g
       aria-label="15"
       id="text233"
       style="font-style:normal;font-weight:normal;font-size:32px;font-family:'Cooper Black';color-interpolation:auto;fill:#0000ff;fill-opacity:1;stroke:none;stroke-width:1;stroke-linecap:round;stroke-linejoin:miter;stroke-miterlimit:10;stroke-dasharray:none;stroke-dashoffset:0;stroke-opacity:1;color-rendering:auto;image-rendering:auto;shape-rendering:auto;text-rendering:optimizeLegibility"
       transform="matrix(0.26458333,0,0,0.26458333,5.4841341,7.2584816)" />
    <g
       aria-label="16"
       id="text247"
       style="font-style:normal;font-weight:normal;font-size:32px;font-family:'Cooper Black';color-interpolation:auto;fill:#0000ff;fill-opacity:1;stroke:none;stroke-width:1;stroke-linecap:round;stroke-linejoin:miter;stroke-miterlimit:10;stroke-dasharray:none;stroke-dashoffset:0;stroke-opacity:1;color-rendering:auto;image-rendering:auto;shape-rendering:auto;text-rendering:optimizeLegibility"
       transform="matrix(0.26458333,0,0,0.26458333,5.4841341,7.2584816)" />
    <g
       aria-label="17"
       id="text261"
       style="font-style:normal;font-weight:normal;font-size:32px;font-family:'Cooper Black';color-interpolation:auto;fill:#0000ff;fill-opacity:1;stroke:none;stroke-width:1;stroke-linecap:round;stroke-linejoin:miter;stroke-miterlimit:10;stroke-dasharray:none;stroke-dashoffset:0;stroke-opacity:1;color-rendering:auto;image-rendering:auto;shape-rendering:auto;text-rendering:optimizeLegibility"
       transform="matrix(0.26458333,0,0,0.26458333,5.4841341,7.2584816)" />
    <g
       aria-label="18"
       id="text275"
       style="font-style:normal;font-weight:normal;font-size:32px;font-family:'Cooper Black';color-interpolation:auto;fill:#0000ff;fill-opacity:1;stroke:none;stroke-width:1;stroke-linecap:round;stroke-linejoin:miter;stroke-miterlimit:10;stroke-dasharray:none;stroke-dashoffset:0;stroke-opacity:1;color-rendering:auto;image-rendering:auto;shape-rendering:auto;text-rendering:optimizeLegibility"
       transform="matrix(0.26458333,0,0,0.26458333,5.4841341,7.2584816)" />
    <g
       aria-label="19"
       id="text289"
       style="font-style:normal;font-weight:normal;font-size:32px;font-family:'Cooper Black';color-interpolation:auto;fill:#0000ff;fill-opacity:1;stroke:none;stroke-width:1;stroke-linecap:round;stroke-linejoin:miter;stroke-miterlimit:10;stroke-dasharray:none;stroke-dashoffset:0;stroke-opacity:1;color-rendering:auto;image-rendering:auto;shape-rendering:auto;text-rendering:optimizeLegibility"
       transform="matrix(0.26458333,0,0,0.26458333,5.4841341,7.2584816)" />
    <g
       aria-label="20"
       id="text303"
       style="font-style:normal;font-weight:normal;font-size:32px;font-family:'Cooper Black';color-interpolation:auto;fill:#0000ff;fill-opacity:1;stroke:none;stroke-width:1;stroke-linecap:round;stroke-linejoin:miter;stroke-miterlimit:10;stroke-dasharray:none;stroke-dashoffset:0;stroke-opacity:1;color-rendering:auto;image-rendering:auto;shape-rendering:auto;text-rendering:optimizeLegibility"
       transform="matrix(0.26458333,0,0,0.26458333,5.4841341,7.2584816)" />
    <g
       aria-label="21"
       id="text317"
       style="font-style:normal;font-weight:normal;font-size:32px;font-family:'Cooper Black';color-interpolation:auto;fill:#0000ff;fill-opacity:1;stroke:none;stroke-width:1;stroke-linecap:round;stroke-linejoin:miter;stroke-miterlimit:10;stroke-dasharray:none;stroke-dashoffset:0;stroke-opacity:1;color-rendering:auto;image-rendering:auto;shape-rendering:auto;text-rendering:optimizeLegibility"
       transform="matrix(0.26458333,0,0,0.26458333,5.4841341,7.2584816)" />
    <g
       aria-label="22"
       id="text333"
       style="font-style:normal;font-weight:normal;font-size:32px;font-family:'Cooper Black';color-interpolation:auto;fill:#0000ff;fill-opacity:1;stroke:none;stroke-width:1;stroke-linecap:round;stroke-linejoin:miter;stroke-miterlimit:10;stroke-dasharray:none;stroke-dashoffset:0;stroke-opacity:1;color-rendering:auto;image-rendering:auto;shape-rendering:auto;text-rendering:optimizeLegibility"
       transform="matrix(0.26458333,0,0,0.26458333,5.4841341,7.2584816)" />
    <g
       aria-label="23"
       id="text347"
       style="font-style:normal;font-weight:normal;font-size:32px;font-family:'Cooper Black';color-interpolation:auto;fill:#0000ff;fill-opacity:1;stroke:none;stroke-width:1;stroke-linecap:round;stroke-linejoin:miter;stroke-miterlimit:10;stroke-dasharray:none;stroke-dashoffset:0;stroke-opacity:1;color-rendering:auto;image-rendering:auto;shape-rendering:auto;text-rendering:optimizeLegibility"
       transform="matrix(0.26458333,0,0,0.26458333,5.4841341,7.2584816)" />
    <g
       aria-label="24"
       id="text361"
       style="font-style:normal;font-weight:normal;font-size:32px;font-family:'Cooper Black';color-interpolation:auto;fill:#0000ff;fill-opacity:1;stroke:none;stroke-width:1;stroke-linecap:round;stroke-linejoin:miter;stroke-miterlimit:10;stroke-dasharray:none;stroke-dashoffset:0;stroke-opacity:1;color-rendering:auto;image-rendering:auto;shape-rendering:auto;text-rendering:optimizeLegibility"
       transform="matrix(0.26458333,0,0,0.26458333,5.4841341,7.2584816)" />
    <g
       aria-label="25"
       id="text375"
       style="font-style:normal;font-weight:normal;font-size:32px;font-family:'Cooper Black';color-interpolation:auto;fill:#0000ff;fill-opacity:1;stroke:none;stroke-width:1;stroke-linecap:round;stroke-linejoin:miter;stroke-miterlimit:10;stroke-dasharray:none;stroke-dashoffset:0;stroke-opacity:1;color-rendering:auto;image-rendering:auto;shape-rendering:auto;text-rendering:optimizeLegibility"
       transform="matrix(0.26458333,0,0,0.26458333,5.4841341,8.8459816)" />
    <g
       aria-label="26"
       id="text389"
       style="font-style:normal;font-weight:normal;font-size:32px;font-family:'Cooper Black';color-interpolation:auto;fill:#0000ff;fill-opacity:1;stroke:none;stroke-width:1;stroke-linecap:round;stroke-linejoin:miter;stroke-miterlimit:10;stroke-dasharray:none;stroke-dashoffset:0;stroke-opacity:1;color-rendering:auto;image-rendering:auto;shape-rendering:auto;text-rendering:optimizeLegibility"
       transform="matrix(0.26458333,0,0,0.26458333,5.4841341,7.2584816)" />
    <g
       aria-label="27"
       id="text403"
       style="font-style:normal;font-weight:normal;font-size:32px;font-family:'Cooper Black';color-interpolation:auto;fill:#0000ff;fill-opacity:1;stroke:none;stroke-width:1;stroke-linecap:round;stroke-linejoin:miter;stroke-miterlimit:10;stroke-dasharray:none;stroke-dashoffset:0;stroke-opacity:1;color-rendering:auto;image-rendering:auto;shape-rendering:auto;text-rendering:optimizeLegibility"
       transform="matrix(0.26458333,0,0,0.26458333,5.4841341,7.2584816)" />
    <g
       id="g3503">
      <line
         y2="70.758484"
         style="font-style:normal;font-weight:normal;font-size:32px;font-family:'Cooper Black';color-interpolation:auto;fill:none;fill-opacity:1;stroke:#ff0000;stroke-width:0.264583;stroke-linecap:round;stroke-linejoin:miter;stroke-miterlimit:10;stroke-dasharray:none;stroke-dashoffset:0;stroke-opacity:1;color-rendering:auto;image-rendering:auto;shape-rendering:auto;text-rendering:auto"
         x1="135.65913"
         x2="135.65913"
         y1="13.608481"
         id="line25" />
      <line
         y2="10.433481"
         style="font-style:normal;font-weight:normal;font-size:32px;font-family:'Cooper Black';color-interpolation:auto;fill:none;fill-opacity:1;stroke:#ff0000;stroke-width:0.264583;stroke-linecap:round;stroke-linejoin:miter;stroke-miterlimit:10;stroke-dasharray:none;stroke-dashoffset:0;stroke-opacity:1;color-rendering:auto;image-rendering:auto;shape-rendering:auto;text-rendering:auto"
         x1="138.83414"
         x2="195.98413"
         y1="10.433481"
         id="line39" />
      <line
         y2="70.758484"
         style="font-style:normal;font-weight:normal;font-size:32px;font-family:'Cooper Black';color-interpolation:auto;fill:none;fill-opacity:1;stroke:#ff0000;stroke-width:0.264583;stroke-linecap:round;stroke-linejoin:miter;stroke-miterlimit:10;stroke-dasharray:none;stroke-dashoffset:0;stroke-opacity:1;color-rendering:auto;image-rendering:auto;shape-rendering:auto;text-rendering:auto"
         x1="199.15913"
         x2="199.15913"
         y1="13.608481"
         id="line41" />
      <line
         y2="73.933479"
         style="font-style:normal;font-weight:normal;font-size:32px;font-family:'Cooper Black';color-interpolation:auto;fill:none;fill-opacity:1;stroke:#ff0000;stroke-width:0.264583;stroke-linecap:round;stroke-linejoin:miter;stroke-miterlimit:10;stroke-dasharray:none;stroke-dashoffset:0;stroke-opacity:1;color-rendering:auto;image-rendering:auto;shape-rendering:auto;text-rendering:auto"
         x1="138.83414"
         x2="195.98413"
         y1="73.933479"
         id="line43" />
      <path
         style="font-style:normal;font-weight:normal;font-size:32px;font-family:'Cooper Black';color-interpolation:auto;fill:none;fill-opacity:1;stroke:#ff0000;stroke-width:0.264583;stroke-linecap:round;stroke-linejoin:miter;stroke-miterlimit:10;stroke-dasharray:none;stroke-dashoffset:0;stroke-opacity:1;color-rendering:auto;image-rendering:auto;shape-rendering:auto;text-rendering:auto"
         d="m 195.98413,10.433482 a 3.175,3.175 0 0 1 3.175,3.175"
         id="path45" />
      <path
         style="font-style:normal;font-weight:normal;font-size:32px;font-family:'Cooper Black';color-interpolation:auto;fill:none;fill-opacity:1;stroke:#ff0000;stroke-width:0.264583;stroke-linecap:round;stroke-linejoin:miter;stroke-miterlimit:10;stroke-dasharray:none;stroke-dashoffset:0;stroke-opacity:1;color-rendering:auto;image-rendering:auto;shape-rendering:auto;text-rendering:auto"
         d="m 135.65913,13.608482 a 3.175,3.175 0 0 1 3.175,-3.175"
         id="path47" />
      <path
         style="font-style:normal;font-weight:normal;font-size:32px;font-family:'Cooper Black';color-interpolation:auto;fill:none;fill-opacity:1;stroke:#ff0000;stroke-width:0.264583;stroke-linecap:round;stroke-linejoin:miter;stroke-miterlimit:10;stroke-dasharray:none;stroke-dashoffset:0;stroke-opacity:1;color-rendering:auto;image-rendering:auto;shape-rendering:auto;text-rendering:auto"
         d="m 199.15913,70.758481 a 3.175,3.175 0 0 1 -3.175,3.175"
         id="path49" />
      <path
         style="font-style:normal;font-weight:normal;font-size:32px;font-family:'Cooper Black';color-interpolation:auto;fill:none;fill-opacity:1;stroke:#ff0000;stroke-width:0.264583;stroke-linecap:round;stroke-linejoin:miter;stroke-miterlimit:10;stroke-dasharray:none;stroke-dashoffset:0;stroke-opacity:1;color-rendering:auto;image-rendering:auto;shape-rendering:auto;text-rendering:auto"
         d="m 138.83413,73.933481 a 3.175,3.175 0 0 1 -3.175,-3.175"
         id="path51" />
    </g>
    <g
       aria-label="28"
       id="text417"
       style="font-style:normal;font-weight:normal;font-size:32px;font-family:'Cooper Black';color-interpolation:auto;fill:#0000ff;fill-opacity:1;stroke:none;stroke-width:1;stroke-linecap:round;stroke-linejoin:miter;stroke-miterlimit:10;stroke-dasharray:none;stroke-dashoffset:0;stroke-opacity:1;color-rendering:auto;image-rendering:auto;shape-rendering:auto;text-rendering:optimizeLegibility"
       transform="matrix(0.26458333,0,0,0.26458333,5.4841341,7.2584816)" />
    <g
       aria-label="29"
       id="text433"
       style="font-style:normal;font-weight:normal;font-size:32px;font-family:'Cooper Black';color-interpolation:auto;fill:#0000ff;fill-opacity:1;stroke:none;stroke-width:1;stroke-linecap:round;stroke-linejoin:miter;stroke-miterlimit:10;stroke-dasharray:none;stroke-dashoffset:0;stroke-opacity:1;color-rendering:auto;image-rendering:auto;shape-rendering:auto;text-rendering:optimizeLegibility"
       transform="matrix(0.26458333,0,0,0.26458333,5.4841341,7.2584816)" />
    <g
       aria-label="30"
       id="text447"
       style="font-style:normal;font-weight:normal;font-size:32px;font-family:'Cooper Black';color-interpolation:auto;fill:#0000ff;fill-opacity:1;stroke:none;stroke-width:1;stroke-linecap:round;stroke-linejoin:miter;stroke-miterlimit:10;stroke-dasharray:none;stroke-dashoffset:0;stroke-opacity:1;color-rendering:auto;image-rendering:auto;shape-rendering:auto;text-rendering:optimizeLegibility"
       transform="matrix(0.26458333,0,0,0.26458333,5.4841341,7.2584816)" />
    <g
       aria-label="31"
       id="text461"
       style="font-style:normal;font-weight:normal;font-size:32px;font-family:'Cooper Black';color-interpolation:auto;fill:#0000ff;fill-opacity:1;stroke:none;stroke-width:1;stroke-linecap:round;stroke-linejoin:miter;stroke-miterlimit:10;stroke-dasharray:none;stroke-dashoffset:0;stroke-opacity:1;color-rendering:auto;image-rendering:auto;shape-rendering:auto;text-rendering:optimizeLegibility"
       transform="matrix(0.26458333,0,0,0.26458333,5.4841341,7.2584816)" />
    <g
       aria-label="32"
       id="text475"
       style="font-style:normal;font-weight:normal;font-size:32px;font-family:'Cooper Black';color-interpolation:auto;fill:#0000ff;fill-opacity:1;stroke:none;stroke-width:1;stroke-linecap:round;stroke-linejoin:miter;stroke-miterlimit:10;stroke-dasharray:none;stroke-dashoffset:0;stroke-opacity:1;color-rendering:auto;image-rendering:auto;shape-rendering:auto;text-rendering:optimizeLegibility"
       transform="matrix(0.26458333,0,0,0.26458333,5.4841341,7.2584816)" />
    <g
       aria-label="33"
       id="text489"
       style="font-style:normal;font-weight:normal;font-size:32px;font-family:'Cooper Black';color-interpolation:auto;fill:#0000ff;fill-opacity:1;stroke:none;stroke-width:1;stroke-linecap:round;stroke-linejoin:miter;stroke-miterlimit:10;stroke-dasharray:none;stroke-dashoffset:0;stroke-opacity:1;color-rendering:auto;image-rendering:auto;shape-rendering:auto;text-rendering:optimizeLegibility"
       transform="matrix(0.26458333,0,0,0.26458333,5.4841341,7.2584816)" />
    <g
       aria-label="34"
       id="text503"
       style="font-style:normal;font-weight:normal;font-size:32px;font-family:'Cooper Black';color-interpolation:auto;fill:#0000ff;fill-opacity:1;stroke:none;stroke-width:1;stroke-linecap:round;stroke-linejoin:miter;stroke-miterlimit:10;stroke-dasharray:none;stroke-dashoffset:0;stroke-opacity:1;color-rendering:auto;image-rendering:auto;shape-rendering:auto;text-rendering:optimizeLegibility"
       transform="matrix(0.26458333,0,0,0.26458333,5.4841341,7.2584816)" />
  </g>
  <g
     inkscape:groupmode="layer"
     id="layer2"
     inkscape:label="Layer 2">
    <g
       id="g18199"
       transform="translate(1.5785464,1.6493567)">
      <g
         aria-label="J"
         id="text2410"
         style="font-size:7.05556px;line-height:1.25;stroke-width:0.264583" />
      <g
         aria-label="R"
         id="text2410-3"
         style="font-size:7.05556px;line-height:1.25;stroke-width:0.264583" />
      <path
         id="text1306"
         style="color:#000000;fill:#000000;fill-opacity:1;stroke-width:3.77953;stroke-linecap:round;-inkscape-stroke:none"
         transform="matrix(0.26458335,0,0,0.26458335,-1.5785464,-1.6493567)"
         d="m 120.45117,60.195312 c -10.61507,1.46e-4 -19.58641,3.01206 -26.765623,9.035157 -7.234809,6.018542 -10.939347,13.472467 -10.939453,22.117187 1.06e-4,6.2782 2.16023,12.019024 6.40625,17.103514 3.924389,4.76963 10.026919,9.12204 17.916016,13.1836 -7.884403,4.2751 -13.921261,8.69798 -17.730469,13.35351 -4.060003,4.90012 -6.126851,10.49118 -6.126953,16.63867 1.02e-4,8.63293 3.550917,15.79152 10.496093,21.19336 h 0.0078 c 6.948709,5.34018 16.024099,7.98049 27.113279,7.98047 10.55434,2e-5 19.49845,-2.97802 26.67774,-8.93945 7.11409,-5.96041 10.74807,-13.44387 10.74805,-22.20508 2e-5,-6.08941 -2.06318,-11.70486 -6.11914,-16.72656 -3.8718,-4.77921 -9.86177,-9.20816 -17.61329,-13.39063 7.97153,-4.66675 13.96547,-9.21769 17.61329,-13.71679 l 0.008,-0.008 c 3.80803,-4.84058 5.74417,-10.363501 5.74414,-16.43945 3e-5,-8.626703 -3.52297,-15.755484 -10.40234,-21.095703 -6.88743,-5.406826 -15.9401,-8.083839 -27.03126,-8.083985 z m 0,1.919922 h 0.002 c 10.78304,4.59e-4 19.35469,2.577339 25.8418,7.669922 h 0.008 v 0.0078 c 6.48984,5.034281 9.65628,11.464637 9.65625,19.583984 3e-5,5.668569 -1.75463,10.70564 -5.31445,15.23633 -3.54896,4.37719 -9.50875,9.00799 -17.8457,13.79883 l -5.42774,-3.55469 c 4.96409,-2.95938 8.82371,-6.42242 11.50586,-10.41601 2.91608,-4.34156 4.37699,-9.267932 4.37696,-14.68946 3e-5,-6.524658 -2.20626,-11.991671 -6.57618,-16.166015 l -0.008,-0.0078 c -4.42952,-4.168872 -10.11741,-6.25963 -16.875,-6.259766 -6.49935,1.36e-4 -12.01373,1.927969 -16.38086,5.773438 -4.367075,3.845843 -6.605379,8.790482 -6.605466,14.59375 8.7e-5,5.390456 2.268805,10.327535 6.658206,14.652343 4.33535,4.27067 12.00888,8.77951 21.74609,13.64862 l 7.08008,4.43146 c 8.36155,4.33568 14.47212,8.92619 18.35156,13.71484 3.81908,4.72842 5.69143,9.86297 5.69141,15.52344 2e-5,8.23689 -3.30482,15.06479 -10.0625,20.72852 -6.82062,5.66359 -15.24953,8.49611 -25.44532,8.49609 -10.78144,2e-5 -19.38896,-2.5413 -25.939448,-7.57227 l -0.0078,-0.008 c -6.548571,-5.097 -9.751854,-11.56041 -9.751953,-19.67383 9.9e-5,-5.72524 1.873554,-10.82116 5.685547,-15.41992 h 0.0078 v -0.008 c 3.725744,-4.55353 9.724664,-9.04909 17.976564,-13.41602 l 5.03906,3.34571 c -4.96911,2.96335 -8.80679,6.43675 -11.43555,10.43945 -2.852896,4.282 -4.281163,9.20792 -4.281246,14.68359 8.3e-5,6.58208 2.166716,12.06871 6.474606,16.2461 l 0.008,0.008 c 4.31074,4.11476 9.97003,6.17191 16.78515,6.17187 6.49947,4e-5 12.02166,-1.92778 16.38867,-5.77343 4.36722,-3.84569 6.60746,-8.79032 6.60743,-14.59375 3e-5,-5.39032 -2.27651,-10.32737 -6.66602,-14.65235 -4.39561,-4.33093 -11.6312,-8.53988 -21.78475,-13.75088 l -5.0339,-3.08949 -1.33032,-0.83399 c -7.48214,-4.17447 -15.004209,-8.96687 -18.940874,-13.75142 v -0.008 C 86.628178,102.4352 84.664393,97.190203 84.664292,91.345323 84.664393,83.240297 88.020391,76.438346 94.910386,70.706651 101.73006,64.983196 110.19498,62.115366 120.4514,62.114854 Z m -0.65625,7.123047 c 6.36752,1.29e-4 11.49018,1.911338 15.56055,5.742188 4.00205,3.825218 5.9805,8.673735 5.98047,14.771484 3e-5,5.078672 -1.34375,9.587848 -4.05274,13.621097 -2.63366,3.92137 -6.57083,7.34033 -11.73828,10.28906 -9.7836,-4.50879 -16.76187,-8.78199 -20.72851,-12.68945 -4.11044,-4.049972 -6.089766,-8.427355 -6.089848,-13.287113 8.2e-5,-5.321476 1.949278,-9.624895 5.957028,-13.154297 4.00802,-3.529255 8.98583,-5.29284 15.11133,-5.292969 z m -4.14062,58.095699 c 9.71807,4.44765 16.69196,8.7278 20.7207,12.69727 4.11057,4.05013 6.08988,8.41973 6.08984,13.2793 4e-5,5.32163 -1.94918,9.62507 -5.95703,13.15429 -4.00788,3.52941 -8.99353,5.293 -15.11914,5.29297 -6.43473,3e-5 -11.51764,-1.88033 -15.45703,-5.64062 -3.93888,-3.82186 -5.89055,-8.69964 -5.89062,-14.86524 7e-5,-5.1468 1.32042,-9.66015 3.96484,-13.62695 2.57422,-3.91966 6.47734,-7.34122 11.64844,-10.29102 z m -6.72983,33.56008 1.92709,-1.92709 h 0.16929 q 0.0651,0 0.27344,0.0391 0.22137,0.0391 0.4948,0.0391 1.32812,0 2.05729,-0.96354 0.74219,-0.97657 1.21094,-3.32032 l 2.40885,-12.1224 q -2.68229,0 -4.33594,1.44531 -1.65364,1.4323 -1.65364,3.75 v 0.28645 l -2.52605,1.22397 q 0.35157,-4.01043 3.11199,-5.85938 2.77344,-1.86198 8.39844,-1.86198 4.38802,0 6.14583,0.84635 1.75782,0.83333 1.75782,2.92969 0,3.46354 -5.06511,5.91146 l 3.125,5.2474 q 1.66667,2.79948 2.47396,2.79948 0.88542,0 3.17709,-2.30469 l -0.24741,1.23698 q -2.85156,2.92969 -4.20573,2.92969 -1.75782,0 -3.88021,-3.91927 l -2.92971,-5.40364 h -2.46094 l -0.23436,1.17187 q -0.76823,3.86719 -4.32292,6.1198 l 5.09115,0.10416 -1.79688,1.92709 z m 9.58334,-9.80469 h 3.45053 q 3.55469,-1.7448 3.55469,-5.35157 0,-3.32031 -4.76563,-3.32031 h -0.50781 z m -7.61068,-51.300934 1.78386,-1.809898 q 1.17187,2.513022 3.63281,2.513022 1.62761,0 2.53907,-1.236978 0.92448,-1.236983 1.52344,-4.218754 l 2.98177,-15.026051 h -3.47657 l 1.83594,-1.927083 h 8.38542 l -2.0052,1.927083 h -2.00521 l -2.53907,12.760425 q -0.84635,4.218753 -2.98177,6.48438 -2.13542,2.278648 -5.26042,2.278648 -2.42188,0 -4.41407,-1.744794 z" />
    </g>
  </g>
</svg>
